<?xml version="1.0" encoding="iso-8859-1"?>
<!-- Generator: Adobe Illustrator 18.0.0, SVG Export Plug-In . SVG Version: 6.00 Build 0)  -->
<!DOCTYPE svg PUBLIC "-//W3C//DTD SVG 1.1//EN" "http://www.w3.org/Graphics/SVG/1.1/DTD/svg11.dtd">
<svg version="1.1" id="Capa_1" xmlns="http://www.w3.org/2000/svg" xmlns:xlink="http://www.w3.org/1999/xlink" x="0px" y="0px"
	 viewBox="0 0 152.158 186.233" style="enable-background:new 0 0 152.158 186.233;" xml:space="preserve">
<g>
	<path style="fill:#231F20;" d="M69.253,111.801H53.11c-1.104,0-2,0.896-2,2s0.896,2,2,2h16.143c1.104,0,2-0.896,2-2
		S70.357,111.801,69.253,111.801z"/>
	<path style="fill:#231F20;" d="M69.253,94.808H53.11c-1.104,0-2,0.896-2,2s0.896,2,2,2h16.143c1.104,0,2-0.896,2-2
		S70.357,94.808,69.253,94.808z"/>
	<path style="fill:#231F20;" d="M69.253,128.794H53.11c-1.104,0-2,0.896-2,2s0.896,2,2,2h16.143c1.104,0,2-0.896,2-2
		S70.357,128.794,69.253,128.794z"/>
	<path style="fill:#231F20;" d="M69.253,77.815H53.11c-1.104,0-2,0.896-2,2s0.896,2,2,2h16.143c1.104,0,2-0.896,2-2
		S70.357,77.815,69.253,77.815z"/>
	<path style="fill:#231F20;" d="M97.291,145.788H81.148c-1.104,0-2,0.896-2,2s0.896,2,2,2h16.143c1.104,0,2-0.896,2-2
		S98.395,145.788,97.291,145.788z"/>
	<path style="fill:#231F20;" d="M41.215,94.808H25.072c-1.104,0-2,0.896-2,2s0.896,2,2,2h16.143c1.104,0,2-0.896,2-2
		S42.319,94.808,41.215,94.808z"/>
	<path style="fill:#231F20;" d="M41.215,145.788H25.072c-1.104,0-2,0.896-2,2s0.896,2,2,2h16.143c1.104,0,2-0.896,2-2
		S42.319,145.788,41.215,145.788z"/>
	<path style="fill:#231F20;" d="M69.253,145.788H53.11c-1.104,0-2,0.896-2,2s0.896,2,2,2h16.143c1.104,0,2-0.896,2-2
		S70.357,145.788,69.253,145.788z"/>
	<path style="fill:#231F20;" d="M41.215,111.801H25.072c-1.104,0-2,0.896-2,2s0.896,2,2,2h16.143c1.104,0,2-0.896,2-2
		S42.319,111.801,41.215,111.801z"/>
	<path style="fill:#231F20;" d="M41.215,77.815H25.072c-1.104,0-2,0.896-2,2s0.896,2,2,2h16.143c1.104,0,2-0.896,2-2
		S42.319,77.815,41.215,77.815z"/>
	<path style="fill:#231F20;" d="M41.215,128.794H25.072c-1.104,0-2,0.896-2,2s0.896,2,2,2h16.143c1.104,0,2-0.896,2-2
		S42.319,128.794,41.215,128.794z"/>
	<path style="fill:#231F20;" d="M97.291,128.794H81.148c-1.104,0-2,0.896-2,2s0.896,2,2,2h16.143c1.104,0,2-0.896,2-2
		S98.395,128.794,97.291,128.794z"/>
	<path style="fill:#231F20;" d="M125.329,94.808h-16.143c-1.104,0-2,0.896-2,2s0.896,2,2,2h16.143c1.104,0,2-0.896,2-2
		S126.433,94.808,125.329,94.808z"/>
	<path style="fill:#231F20;" d="M125.329,77.815h-16.143c-1.104,0-2,0.896-2,2s0.896,2,2,2h16.143c1.104,0,2-0.896,2-2
		S126.433,77.815,125.329,77.815z"/>
	<path style="fill:#231F20;" d="M125.329,111.801h-16.143c-1.104,0-2,0.896-2,2s0.896,2,2,2h16.143c1.104,0,2-0.896,2-2
		S126.433,111.801,125.329,111.801z"/>
	<path style="fill:#231F20;" d="M152.104,81.511c-0.04-34.321-0.078-66.739-0.012-71.125c0.048-3.303-0.966-5.905-3.016-7.734
		c-3.402-3.037-8.467-2.685-9.409-2.589H12.44c-0.661-0.018-5.813-0.096-9.243,3.208C1.169,5.225,0.165,7.89,0.214,11.192
		c0.05,3.369-0.002,23.272-0.068,48.471c-0.121,46.216-0.287,109.511,0.072,115.565c0.514,8.824,7.672,11.045,11.381,11h127.74
		c0.066,0.002,0.174,0.005,0.318,0.005c1.324,0,5.721-0.239,8.942-3.231c2.248-2.089,3.423-4.998,3.492-8.651
		C152.204,167.988,152.151,122.045,152.104,81.511z M148.092,174.277c-0.048,2.512-0.786,4.455-2.196,5.775
		c-2.488,2.332-6.375,2.182-6.406,2.179c-0.037-0.002-0.073-0.003-0.109-0.003H11.569c-0.274,0.018-6.936,0.021-7.358-7.234
		c-0.352-5.934-0.186-69.157-0.065-115.321c0.066-25.217,0.118-45.135,0.068-48.539C4.182,8.96,4.752,7.335,5.957,6.166
		c2.326-2.258,6.304-2.105,6.338-2.106c0.035,0.002,0.069,0.003,0.104,0.003h127.377c0.085,0,0.171-0.006,0.256-0.017
		c0.041-0.006,4.082-0.461,6.38,1.59c1.161,1.036,1.71,2.57,1.679,4.691c-0.065,4.417-0.028,36.851,0.012,71.188
		C148.151,122.033,148.204,167.955,148.092,174.277z"/>
	<path style="fill:#231F20;" d="M135.524,15.196H16.601c-1.104,0-2,0.896-2,2v36.566c0,1.104,0.896,2,2,2h118.923
		c1.104,0,2-0.896,2-2V17.196C137.524,16.091,136.629,15.196,135.524,15.196z M133.524,51.762H18.601V19.196h114.923V51.762z"/>
	<path style="fill:#231F20;" d="M125.329,145.788h-16.143c-1.104,0-2,0.896-2,2s0.896,2,2,2h16.143c1.104,0,2-0.896,2-2
		S126.433,145.788,125.329,145.788z"/>
	<path style="fill:#231F20;" d="M125.329,128.794h-16.143c-1.104,0-2,0.896-2,2s0.896,2,2,2h16.143c1.104,0,2-0.896,2-2
		S126.433,128.794,125.329,128.794z"/>
	<path style="fill:#231F20;" d="M97.291,94.808H81.148c-1.104,0-2,0.896-2,2s0.896,2,2,2h16.143c1.104,0,2-0.896,2-2
		S98.395,94.808,97.291,94.808z"/>
	<path style="fill:#231F20;" d="M97.291,77.815H81.148c-1.104,0-2,0.896-2,2s0.896,2,2,2h16.143c1.104,0,2-0.896,2-2
		S98.395,77.815,97.291,77.815z"/>
	<path style="fill:#231F20;" d="M97.291,111.801H81.148c-1.104,0-2,0.896-2,2s0.896,2,2,2h16.143c1.104,0,2-0.896,2-2
		S98.395,111.801,97.291,111.801z"/>
	<path style="fill:#231F20;" d="M115.32,46.902c0.525,0.521,1.14,0.934,1.808,1.22c0.707,0.312,1.472,0.47,2.275,0.47h1.144
		c0.79,0,1.552-0.156,2.278-0.47c0.681-0.301,1.287-0.711,1.8-1.22c0.529-0.523,0.947-1.145,1.232-1.818
		c0.311-0.708,0.468-1.474,0.468-2.276V28.939c0-0.805-0.158-1.571-0.454-2.242c-0.288-0.688-0.702-1.309-1.244-1.855
		c-0.507-0.504-1.114-0.913-1.817-1.224c-0.714-0.309-1.476-0.465-2.264-0.465h-1.144c-0.801,0-1.566,0.158-2.257,0.463
		c-0.693,0.297-1.308,0.71-1.841,1.238c-0.52,0.526-0.932,1.142-1.216,1.809c-0.312,0.707-0.469,1.474-0.469,2.276v13.868
		c0,0.801,0.157,1.566,0.463,2.264C114.385,45.771,114.801,46.387,115.32,46.902z M117.62,28.939c0-0.249,0.042-0.467,0.14-0.688
		c0.096-0.226,0.224-0.417,0.377-0.572c0.163-0.161,0.354-0.288,0.604-0.396c0.197-0.087,0.419-0.131,0.662-0.131h1.144
		c0.246,0,0.461,0.044,0.663,0.131c0.239,0.105,0.44,0.238,0.587,0.384c0.169,0.17,0.294,0.357,0.399,0.606
		c0.087,0.198,0.13,0.416,0.13,0.665v13.868c0,0.249-0.043,0.468-0.143,0.694c-0.091,0.216-0.216,0.404-0.372,0.559
		c-0.166,0.163-0.368,0.299-0.587,0.396c-0.214,0.093-0.43,0.136-0.677,0.136h-1.144c-0.244,0-0.466-0.044-0.68-0.138
		c-0.226-0.098-0.418-0.226-0.587-0.393c-0.153-0.152-0.281-0.345-0.384-0.584c-0.089-0.202-0.132-0.422-0.132-0.67V28.939z"/>
	<path style="fill:#231F20;" d="M33.613,173.014c-0.118,0.004-11.969,0.403-18.412,0.003c-0.712-0.045-1.27-0.329-1.753-0.896
		c-1.997-2.339-1.934-8.259-1.755-10.147c0.006-0.063,0.009-0.128,0.009-0.191V80.748c0-1.104-0.896-2-2-2s-2,0.896-2,2v80.942
		c-0.116,1.296-0.655,9.09,2.7,13.024c1.185,1.39,2.758,2.183,4.55,2.295c2.268,0.142,5.123,0.188,7.92,0.188
		c5.386,0,10.554-0.175,10.879-0.186c1.104-0.038,1.968-0.964,1.93-2.067C35.642,173.84,34.706,172.966,33.613,173.014z"/>
	<path style="fill:#231F20;" d="M9.288,49.671c1.104,0,2-0.896,2-2V13.356c0-1.104-0.896-2-2-2s-2,0.896-2,2v34.315
		C7.288,48.776,8.184,49.671,9.288,49.671z"/>
</g>
<g>
</g>
<g>
</g>
<g>
</g>
<g>
</g>
<g>
</g>
<g>
</g>
<g>
</g>
<g>
</g>
<g>
</g>
<g>
</g>
<g>
</g>
<g>
</g>
<g>
</g>
<g>
</g>
<g>
</g>
</svg>
