<?xml version="1.0" encoding="iso-8859-1"?>
<!-- Generator: Adobe Illustrator 18.0.0, SVG Export Plug-In . SVG Version: 6.00 Build 0)  -->
<!DOCTYPE svg PUBLIC "-//W3C//DTD SVG 1.1//EN" "http://www.w3.org/Graphics/SVG/1.1/DTD/svg11.dtd">
<svg version="1.1" id="Capa_1" xmlns="http://www.w3.org/2000/svg" xmlns:xlink="http://www.w3.org/1999/xlink" x="0px" y="0px"
	 viewBox="0 0 183.825 120.677" style="enable-background:new 0 0 183.825 120.677;" xml:space="preserve">
<g>
	<path style="fill:#231F20;" d="M183.811,40.954c-0.086-4.589-2.507-6.317-9.243-6.605c0,0-0.592-0.027-0.957-0.027l-0.12,0.002
		l-0.128-0.002c-0.378,0-0.974,0.027-0.975,0.027c-0.8,0.038-1.521,0.094-2.179,0.169c0.016-11.154,0.015-19.512-0.004-21.125
		c-0.074-7.536-1.125-13.308-13.629-13.389C155.42,0.001,153.118,0,149.954,0l-11.829,0.004C137.146,0.001,135.375,0,132.975,0
		l-8.917,0.004C122.604,0.001,120.284,0,117.299,0l-10.807,0.004c-2.573-0.005-10.713-0.005-21.381,0.009
		C74.423-0.002,66.373-0.001,63.676,0.004L52.93,0c-2.985,0-5.305,0.001-6.757,0.004L37.236,0c-2.405,0-4.179,0.001-5.202,0.004
		L20.272,0c-3.159,0-5.463,0.001-6.638,0.004C1.129,0.085,0.081,5.856,0.012,13.397c-0.02,2.705-0.016,24.244,0.018,46.93
		c-0.033,22.707-0.037,44.253-0.018,46.957c0.069,7.524,1.116,13.288,13.635,13.387h50.072c2.572,0.013,10.702-0.001,21.386-0.02
		c7.675,0.014,14.038,0.025,17.964,0.025c1.539,0,2.704-0.002,3.501-0.006h50.018c12.493-0.099,13.544-5.861,13.618-13.383
		c0.019-1.623,0.02-9.986,0.004-21.143c0.676,0.081,1.408,0.139,2.205,0.176c0,0,0.612,0.021,0.978,0.021l0.064-0.001
		c0.011,0,0.115,0.001,0.126,0.001c0.351,0,0.96-0.021,0.977-0.021c6.745-0.288,9.166-2.021,9.251-6.61
		c0.029-1.173,0.01-10.457-0.013-19.375C183.819,51.414,183.839,42.133,183.811,40.954z M179.811,79.624
		c-0.03,1.645-0.046,2.471-5.405,2.699c0,0-0.508,0.021-0.883,0.018c-0.012,0.002-0.12,0.001-0.131,0.001
		c-0.306,0-0.813-0.018-0.818-0.018c-1.587-0.073-2.847-0.24-3.851-0.509c-0.602-0.162-1.243-0.034-1.736,0.346
		s-0.782,0.967-0.781,1.589c0.02,12.329,0.02,21.771,0,23.496c-0.065,6.65-0.459,9.353-9.634,9.425h-50.095
		c-2.571,0.014-10.702-0.001-21.372-0.02c-10.672,0.02-18.798,0.033-21.364,0.02c-0.004,0-0.098,0-0.102,0H13.662
		c-9.197-0.072-9.589-2.773-9.65-9.42c-0.02-2.691-0.016-24.221,0.018-46.924C3.996,37.645,3.992,16.123,4.012,13.431
		c0.064-6.938,0.869-9.37,9.64-9.427C14.817,4.001,17.116,4,20.272,4L32.09,4.004C33.067,4.001,34.837,4,37.236,4l8.938,0.004
		C47.631,4.001,49.948,4,52.93,4l10.805,0.004c2.564-0.006,10.689-0.007,21.377,0.009c10.67-0.015,18.692-0.014,21.44-0.009
		L117.299,4c2.981,0,5.298,0.001,6.757,0.004L132.975,4c2.396,0,4.162,0.001,5.197,0.004L149.954,4c3.159,0,5.458,0.001,6.604,0.004
		c8.771,0.057,9.578,2.489,9.646,9.431c0.02,1.715,0.02,11.15,0,23.479c-0.001,0.625,0.291,1.215,0.788,1.594
		c0.498,0.38,1.146,0.501,1.746,0.337c0.935-0.26,2.189-0.423,3.835-0.5c0.01-0.001,0.516-0.011,0.858-0.022
		c0.039,0.004,0.14,0.001,0.178-0.001c0.291,0,0.762,0.022,0.778,0.023c5.377,0.229,5.392,1.05,5.423,2.694
		c0.027,1.15,0.007,10.911-0.015,19.296C179.818,68.716,179.839,78.48,179.811,79.624z"/>
	<path style="fill:#231F20;" d="M57.569,35.454c-0.055-8.522-0.989-15.05-12.217-15.149c-1.322-0.018-4.34-0.019-8.445-0.009
		c-4.14-0.01-7.149-0.01-8.456,0.009c-11.229,0.1-12.163,6.627-12.218,15.139c-0.021,1.782-0.023,10.604-0.008,24.834
		C16.21,74.514,16.213,83.33,16.233,85.09c0.055,8.527,0.989,15.058,12.192,15.146c1.329,0.028,4.357,0.028,8.47,0.014
		c1.722,0.006,3.248,0.01,4.538,0.01c1.812,0,3.159-0.007,3.906-0.023c11.239-0.088,12.175-6.618,12.229-15.134
		c0.023-1.907,0.023-11.652,0-24.818C57.593,47.111,57.593,37.361,57.569,35.454z M53.569,85.064
		c-0.056,8.74-1.091,11.115-8.288,11.171c-1.306,0.028-4.27,0.028-8.386,0.014c-4.087,0.015-7.055,0.016-8.411-0.014
		c-7.162-0.056-8.195-2.431-8.251-11.182c-0.021-1.755-0.023-10.553-0.008-24.776c-0.016-14.219-0.013-23.021,0.008-24.798
		c0.056-8.736,1.09-11.111,8.264-11.175c1.312-0.019,4.288-0.019,8.41-0.009c4.091-0.01,7.071-0.01,8.399,0.009
		c7.172,0.063,8.207,2.438,8.263,11.187c0.023,1.902,0.023,11.63,0,24.792C53.593,73.439,53.593,83.162,53.569,85.064z"/>
	<path style="fill:#231F20;" d="M105.768,35.455c-0.052-8.523-0.983-15.051-12.194-15.15c-1.332-0.019-4.348-0.019-8.46-0.009
		c-4.131-0.009-7.145-0.01-8.44,0.009c-11.228,0.1-12.167,6.626-12.229,15.14c-0.019,1.682-0.022,9.574-0.013,24.834
		c-0.01,15.264-0.006,23.15,0.013,24.813c0.062,8.526,1.001,15.056,12.203,15.144c1.316,0.028,4.347,0.028,8.454,0.014
		c1.724,0.006,3.252,0.01,4.543,0.01c1.812,0,3.163-0.007,3.916-0.023c11.224-0.088,12.155-6.618,12.207-15.116
		c0.047-2.213,0.035-14.731,0.017-24.836C105.802,50.172,105.814,37.651,105.768,35.455z M101.768,85.065
		c-0.053,8.739-1.084,11.114-8.266,11.17c-1.316,0.029-4.28,0.027-8.4,0.014c-4.085,0.013-7.051,0.015-8.396-0.014
		c-7.163-0.056-8.199-2.431-8.262-11.181c-0.019-1.655-0.022-9.527-0.013-24.776c-0.01-15.246-0.006-23.123,0.013-24.797
		c0.062-8.738,1.099-11.113,8.274-11.177c1.301-0.019,4.278-0.019,8.395-0.009c4.098-0.009,7.076-0.011,8.414,0.009
		c7.155,0.063,8.188,2.438,8.24,11.204c0.037,1.732,0.042,10.297,0.017,24.774C101.81,74.754,101.805,83.313,101.768,85.065z"/>
	<path style="fill:#231F20;" d="M153.986,35.453c-0.059-8.522-0.996-15.049-12.211-15.148c-1.323-0.019-4.346-0.019-8.455-0.009
		c-4.119-0.011-7.135-0.01-8.437,0.009c-11.237,0.1-12.172,6.627-12.227,15.134c-0.025,1.776-0.029,10.6-0.01,24.838
		c-0.02,14.246-0.016,23.063,0.01,24.813c0.055,8.528,0.989,15.058,12.201,15.146c1.324,0.028,4.356,0.027,8.45,0.014
		c1.723,0.006,3.252,0.01,4.544,0.01c1.812,0,3.163-0.007,3.91-0.023c11.228-0.088,12.165-6.617,12.224-15.134
		c0.021-1.649,0.025-9.073,0.016-24.821C154.012,44.531,154.007,37.104,153.986,35.453z M149.986,85.063
		c-0.06,8.741-1.094,11.116-8.282,11.172c-1.307,0.028-4.278,0.027-8.396,0.014c-4.069,0.015-7.038,0.015-8.392-0.014
		c-7.17-0.056-8.204-2.431-8.26-11.188c-0.025-1.745-0.029-10.541-0.01-24.771c-0.019-14.224-0.016-23.024,0.01-24.797
		c0.056-8.736,1.091-11.111,8.272-11.175c1.309-0.019,4.289-0.019,8.391-0.009c4.093-0.01,7.082-0.01,8.409,0.009
		c7.162,0.063,8.197,2.438,8.257,11.187c0.025,2.066,0.022,13.689,0.016,24.789C150.009,71.379,150.012,83.001,149.986,85.063z"/>
	<path style="fill:#231F20;" d="M16.559,10.997c1.086,0.049,2.037-0.78,2.102-1.88c0.065-1.103-0.776-2.049-1.879-2.113
		c-0.171-0.012-4.311-0.218-7.347,2.645c-2.026,1.911-3.054,4.644-3.054,8.122c0,1.104,0.896,2,2,2s2-0.896,2-2
		c0-2.317,0.597-4.063,1.773-5.188C13.898,10.916,16.478,10.997,16.559,10.997z"/>
	<path style="fill:#231F20;" d="M33.898,27.265c-0.17-0.012-4.311-0.218-7.347,2.645c-2.026,1.911-3.054,4.644-3.054,8.122
		c0,1.104,0.896,2,2,2s2-0.896,2-2c0-2.317,0.597-4.063,1.773-5.188c1.743-1.666,4.324-1.585,4.404-1.585
		c1.081,0.058,2.037-0.781,2.102-1.88C35.842,28.275,35,27.329,33.898,27.265z"/>
	<path style="fill:#231F20;" d="M81.067,27.265c-0.168-0.012-4.311-0.218-7.347,2.645c-2.026,1.911-3.054,4.644-3.054,8.122
		c0,1.104,0.896,2,2,2s2-0.896,2-2c0-2.317,0.597-4.063,1.773-5.188c1.743-1.666,4.327-1.585,4.404-1.585
		c1.09,0.058,2.037-0.781,2.102-1.88C83.012,28.275,82.17,27.329,81.067,27.265z"/>
	<path style="fill:#231F20;" d="M130.382,27.265c-0.169-0.012-4.311-0.218-7.347,2.645c-2.026,1.911-3.054,4.644-3.054,8.122
		c0,1.104,0.896,2,2,2s2-0.896,2-2c0-2.317,0.597-4.063,1.773-5.188c1.743-1.666,4.324-1.585,4.404-1.585
		c1.083,0.058,2.037-0.781,2.102-1.88C132.326,28.275,131.484,27.329,130.382,27.265z"/>
	<path style="fill:#231F20;" d="M10.356,33.312c-1.104,0-2,0.896-2,2v68.212c0,1.104,0.896,2,2,2s2-0.896,2-2V35.312
		C12.356,34.207,11.46,33.312,10.356,33.312z"/>
</g>
<g>
</g>
<g>
</g>
<g>
</g>
<g>
</g>
<g>
</g>
<g>
</g>
<g>
</g>
<g>
</g>
<g>
</g>
<g>
</g>
<g>
</g>
<g>
</g>
<g>
</g>
<g>
</g>
<g>
</g>
</svg>
