<?xml version="1.0" encoding="iso-8859-1"?>
<!-- Generator: Adobe Illustrator 18.0.0, SVG Export Plug-In . SVG Version: 6.00 Build 0)  -->
<!DOCTYPE svg PUBLIC "-//W3C//DTD SVG 1.1//EN" "http://www.w3.org/Graphics/SVG/1.1/DTD/svg11.dtd">
<svg version="1.1" id="Capa_1" xmlns="http://www.w3.org/2000/svg" xmlns:xlink="http://www.w3.org/1999/xlink" x="0px" y="0px"
	 viewBox="0 0 184.063 159.031" style="enable-background:new 0 0 184.063 159.031;" xml:space="preserve">
<g>
	<path style="fill:#231F20;" d="M181.845,84.999l-39.653-0.982c-1.005-0.027-1.854,0.683-2.021,1.661
		c-0.723,4.209-2.188,8.234-4.353,11.962c-0.496,0.854-0.294,1.942,0.475,2.562l30.9,24.884c0.358,0.288,0.802,0.442,1.255,0.442
		c0.096,0,0.191-0.007,0.286-0.021c0.55-0.08,1.042-0.384,1.358-0.841c7.675-11.09,12.41-24.049,13.693-37.478
		c0.053-0.553-0.127-1.102-0.495-1.517C182.923,85.256,182.399,85.012,181.845,84.999z M168.003,120.602l-27.892-22.461
		c1.681-3.198,2.91-6.577,3.671-10.083l35.786,0.886C178.163,100.216,174.194,111.08,168.003,120.602z"/>
	<path style="fill:#231F20;" d="M137.454,63c-0.218,0.515-0.21,1.098,0.021,1.607c1.486,3.265,2.475,6.742,2.939,10.336
		c0.126,0.979,0.947,1.719,1.934,1.743l39.664,0.979c0.017,0,0.033,0,0.05,0c0.538,0,1.055-0.217,1.431-0.603
		c0.389-0.397,0.594-0.939,0.567-1.494c-0.436-8.929-2.352-17.635-5.696-25.876c-0.403-0.995-1.521-1.49-2.528-1.131l-37.215,13.335
		C138.095,62.084,137.671,62.485,137.454,63z M175.356,52.981c2.492,6.623,4.026,13.545,4.573,20.63l-35.805-0.883
		c-0.46-2.669-1.185-5.274-2.164-7.78L175.356,52.981z"/>
	<path style="fill:#231F20;" d="M125.915,50.405c1.994,1.449,3.847,3.119,5.506,4.963c0.387,0.43,0.931,0.663,1.487,0.663
		c0.227,0,0.454-0.038,0.675-0.117l38.549-13.812c0.561-0.201,1.003-0.642,1.206-1.203s0.145-1.182-0.158-1.696
		c-6.757-11.462-16.349-21.125-27.738-27.944c-0.481-0.289-1.063-0.36-1.6-0.201c-0.538,0.161-0.983,0.54-1.229,1.045
		l-17.324,35.812C124.868,48.788,125.131,49.836,125.915,50.405z M145.248,15.842c9.323,5.959,17.286,13.958,23.221,23.322
		l-34.995,12.539c-1.212-1.258-2.508-2.436-3.871-3.519L145.248,15.842z"/>
	<path style="fill:#231F20;" d="M102.906,42.904c0.395,0.377,0.922,0.581,1.47,0.553l0.255-0.008c4.009,0,7.968,0.663,11.768,1.969
		c0.215,0.074,0.434,0.109,0.65,0.109c0.748,0,1.458-0.422,1.801-1.13L136.089,8.75c0.239-0.495,0.265-1.067,0.068-1.582
		c-0.195-0.514-0.595-0.925-1.104-1.136C125.401,2.029,115.173,0,104.631,0c-0.154,0-0.288,0.003-0.433,0.008
		c-1.075,0.04-1.926,0.923-1.926,2l0.017,39.453C102.289,42.006,102.513,42.527,102.906,42.904z M131.553,8.942l-15.549,32.152
		c-3.16-0.933-6.41-1.473-9.716-1.609l-0.015-35.468C114.983,4.199,123.471,5.853,131.553,8.942z"/>
	<path style="fill:#231F20;" d="M162.602,130.805l-30.887-24.874c-0.771-0.621-1.879-0.585-2.609,0.086
		c-3.599,3.311-7.728,5.816-12.273,7.448c-0.855,0.307-1.396,1.153-1.316,2.059l3.54,39.942c0.051,0.571,0.344,1.093,0.806,1.434
		c0.347,0.255,0.764,0.39,1.187,0.39c0.141,0,0.282-0.015,0.422-0.045c15.895-3.427,30.189-11.56,41.34-23.519
		c0.379-0.406,0.571-0.952,0.532-1.506C163.302,131.666,163.034,131.153,162.602,130.805z M122.837,152.823l-3.203-36.146
		c3.953-1.594,7.603-3.798,10.885-6.574l27.875,22.449C148.566,142.522,136.352,149.484,122.837,152.823z"/>
	<path style="fill:#231F20;" d="M74.72,99.672c-4.021-5.969-6.147-12.933-6.147-20.141c0-0.026,0-0.053,0-0.079l17.281-0.008
		c0.059,0,0.117-0.002,0.175-0.008c0.074,0.009,0.146,0.029,0.223,0.012l5.449-0.004c0.75,0,1.437-0.421,1.778-1.089
		s0.281-1.471-0.157-2.08L48.455,13.993c-0.376-0.522-0.979-0.831-1.623-0.831c0,0,0,0-0.001,0c-0.643,0-1.247,0.31-1.622,0.832
		L0.377,76.301c-0.438,0.609-0.499,1.412-0.157,2.08c0.343,0.668,1.03,1.088,1.78,1.088l23.121-0.004
		c-0.001,0.025-0.001,0.051-0.001,0.077c0.015,22.612,9.701,44.226,26.576,59.302c0.369,0.33,0.845,0.508,1.332,0.508
		c0.112,0,0.226-0.009,0.339-0.029c0.601-0.104,1.122-0.475,1.415-1.01l20.033-36.562C75.175,101.094,75.139,100.292,74.72,99.672z
		 M52.505,134.145c-14.88-14.216-23.372-33.973-23.385-54.588c0.006-0.683,0.015-1.36,0.032-2.039
		c0.015-0.54-0.189-1.062-0.566-1.449c-0.376-0.387-0.894-0.605-1.433-0.605l-21.25,0.004l40.93-56.883l40.962,56.861l-1.048,0.001
		c-0.524-0.229-1.101-0.217-1.595-0.003l-18.512,0.009c-1.063,0-1.94,0.833-1.996,1.895c-0.038,0.722-0.072,1.448-0.072,2.183
		c0,7.597,2.126,14.951,6.16,21.348L52.505,134.145z"/>
	<path style="fill:#231F20;" d="M106.234,115.542c-0.531,0.024-1.05,0.042-1.604,0.042c-8.121,0-15.793-2.645-22.184-7.65
		c-0.463-0.361-1.058-0.502-1.636-0.384c-0.575,0.118-1.069,0.483-1.352,0.998l-19.092,34.832c-0.501,0.915-0.216,2.06,0.655,2.633
		c12.959,8.517,28.042,13.02,43.617,13.02h0.022c1.766,0,3.541-0.06,5.277-0.177c0.536-0.037,1.035-0.287,1.385-0.696
		c0.349-0.409,0.52-0.941,0.472-1.476l-3.48-39.318C108.222,116.297,107.295,115.5,106.234,115.542z M104.662,155.031l-0.021,2v-2
		c-14.174,0-27.917-3.925-39.866-11.368l17.094-31.187c6.662,4.629,14.43,7.078,22.629,7.107l3.133,35.389
		C106.644,155.012,105.652,155.031,104.662,155.031z"/>
	<path style="fill:#231F20;" d="M38.214,76.26c-0.038-1.103-0.933-1.987-2.067-1.93c-1.104,0.038-1.968,0.962-1.931,2.066
		c0.045,1.326,1.273,32.62,16.23,45.361c0.376,0.321,0.837,0.478,1.296,0.478c0.565,0,1.128-0.239,1.523-0.703
		c0.716-0.841,0.615-2.103-0.226-2.819C39.429,107.118,38.225,76.567,38.214,76.26z"/>
	<path style="fill:#231F20;" d="M46.071,31.299c-0.896-0.649-2.145-0.45-2.794,0.444L19.767,64.149
		c-0.648,0.894-0.449,2.145,0.444,2.793c0.355,0.258,0.766,0.381,1.173,0.381c0.619,0,1.229-0.286,1.621-0.826l23.511-32.406
		C47.164,33.198,46.965,31.947,46.071,31.299z"/>
</g>
<g>
</g>
<g>
</g>
<g>
</g>
<g>
</g>
<g>
</g>
<g>
</g>
<g>
</g>
<g>
</g>
<g>
</g>
<g>
</g>
<g>
</g>
<g>
</g>
<g>
</g>
<g>
</g>
<g>
</g>
</svg>
