<?xml version="1.0" encoding="iso-8859-1"?>
<!-- Generator: Adobe Illustrator 18.0.0, SVG Export Plug-In . SVG Version: 6.00 Build 0)  -->
<!DOCTYPE svg PUBLIC "-//W3C//DTD SVG 1.1//EN" "http://www.w3.org/Graphics/SVG/1.1/DTD/svg11.dtd">
<svg version="1.1" id="Capa_1" xmlns="http://www.w3.org/2000/svg" xmlns:xlink="http://www.w3.org/1999/xlink" x="0px" y="0px"
	 viewBox="0 0 174.493 174.453" style="enable-background:new 0 0 174.493 174.453;" xml:space="preserve">
<g>
	<path style="fill:#231F20;" d="M91.259,53.233c-1.212-0.129-2.442-0.195-3.655-0.195c-17.476,0-32.058,13.126-33.918,30.532
		c-0.968,9.069,1.655,17.974,7.386,25.073c5.73,7.098,13.881,11.54,22.949,12.507c1.214,0.129,2.447,0.195,3.663,0.195
		c0.001,0,0.002,0,0.003,0c17.478,0,32.059-13.125,33.917-30.53c0.968-9.071-1.655-17.976-7.387-25.075
		C108.485,58.642,100.332,54.201,91.259,53.233z M117.626,90.391c-1.64,15.369-14.512,26.957-29.941,26.955
		c-1.075,0-2.165-0.058-3.239-0.173c-8.006-0.854-15.201-4.775-20.26-11.042c-5.06-6.268-7.376-14.129-6.521-22.136
		c1.642-15.368,14.514-26.957,29.94-26.957c1.072,0,2.159,0.058,3.231,0.172c8.01,0.854,15.208,4.775,20.269,11.043
		C116.165,74.521,118.481,82.383,117.626,90.391z"/>
	<path style="fill:#231F20;" d="M173.968,66.714c-0.069-0.189-0.15-0.433-0.226-0.663l-0.094-0.282
		c-1.25-3.532-3.131-8.885-5.471-15.55c-0.056-0.179-0.125-0.375-0.192-0.565c-0.05-0.143-0.1-0.282-0.16-0.469
		c-1.314-3.75-3.664-4.31-4.948-4.31c-0.549,0-1.11,0.101-1.65,0.294c-2.447,0.847-6.43,2.233-11.562,4.024
		c-4.916-8.076-11.288-15.016-18.972-20.667c5.04-10.338,5.112-10.562,5.194-10.817c0.111-0.343,0.184-0.699,0.213-1.026
		c0.244-2.249-1.112-4.032-4.047-5.307c-0.329-0.144-3.071-1.475-8.144-3.952l-1.085-0.535c-3.73-1.84-6.677-3.293-7.032-3.489
		c-3.305-1.81-5.823-1.38-7.312,0.828c-0.122,0.178-0.324,0.473-5.821,11.624c-5.07-1.094-10.253-1.647-15.5-1.647
		c-0.14,0-0.276,0.016-0.408,0.044c-2.907,0.02-5.82,0.213-8.685,0.579C73.882,2.982,73.678,2.573,73.593,2.404
		C72.784,0.854,71.372,0,69.615,0c-0.942,0-1.989,0.239-3.199,0.731c-0.349,0.138-3.961,1.418-8.529,3.037
		c-6.305,2.211-8.356,2.917-8.564,2.981c-4.671,1.404-4.842,4.238-4.526,5.811c0.053,0.259,0.099,0.484,4.281,12.468
		c-7.533,4.622-14.099,10.542-19.553,17.634c-11.464-5.33-11.68-5.399-11.958-5.489c-0.464-0.141-0.928-0.212-1.377-0.212
		c-2.074,0-3.701,1.4-4.836,4.162c-0.132,0.313-1.415,3.079-3.813,8.215c-2.667,5.68-3.751,7.964-3.874,8.203
		c-2.261,4.32-0.367,6.418,0.958,7.28c0.21,0.138,0.448,0.294,11.649,5.565c-2.073,8.629-2.561,17.381-1.455,26.062
		c-11.971,4.219-12.201,4.343-12.41,4.457c-1.42,0.73-3.528,2.633-1.697,7.131c0.083,0.219,0.926,2.589,3.039,8.578
		c2.027,5.812,2.899,8.348,2.964,8.551c1.134,3.842,3.25,4.649,4.825,4.649c0.315,0,0.642-0.034,0.98-0.102
		c0.186-0.039,0.566-0.117,12.478-4.266c4.094,6.712,9.23,12.668,15.3,17.74l-5.964,12.172c-1.035,2.128-0.733,5.095,3.216,7.037
		l0.265,0.13c0.206,0.101,0.433,0.212,0.663,0.329c6.4,3.131,11.495,5.631,14.889,7.304c0.276,0.131,0.629,0.306,0.896,0.438
		c1.182,0.578,2.3,0.871,3.323,0.871c1.844,0,3.376-0.967,4.2-2.644c0.976-1.965,2.476-5.016,4.385-8.897l1.173-2.385
		c9.477,2.705,19.437,3.456,29.239,2.191l4.086,11.56c0.711,2.009,2.363,3.162,4.533,3.162c0.841,0,1.763-0.176,2.733-0.522
		l0.955-0.331c2.337-0.82,5.449-1.917,9.214-3.244l6.441-2.27c0.196-0.073,0.421-0.15,0.631-0.224l0.317-0.11
		c3.468-1.223,4.167-3.369,4.271-4.506c0.076-0.699-0.013-1.419-0.265-2.142c-0.849-2.436-2.249-6.419-4.048-11.539
		c7.902-4.83,14.737-11.088,20.353-18.633c4.999,2.336,8.886,4.146,11.253,5.248c0.681,0.318,1.375,0.479,2.064,0.479
		c1.168,0,3.359-0.497,4.893-3.791l0.459-0.958c1.581-3.391,3.983-8.541,6.989-14.969c0.15-0.31,0.332-0.689,0.456-0.964
		c0.53-1.132,0.804-2.206,0.812-3.165c0.042-1.942-0.95-3.535-2.723-4.37l-1.503-0.706c-2.407-1.13-5.797-2.721-9.928-4.664
		c1.167-5.235,1.761-10.561,1.766-15.854c0.005-3.033-0.185-6.087-0.566-9.101c4.521-1.588,8.149-2.869,10.617-3.739l0.926-0.327
		c1.863-0.642,3.013-2.14,3.154-4.087C174.553,68.999,174.388,67.917,173.968,66.714z M170.485,69.656
		c-0.027,0.374-0.119,0.495-0.483,0.62l-0.94,0.332c-2.741,0.967-6.915,2.44-12.153,4.279c-0.906,0.318-1.458,1.235-1.315,2.185
		c0.503,3.345,0.755,6.757,0.749,10.144c-0.005,5.513-0.687,11.064-2.025,16.501c-0.228,0.925,0.229,1.882,1.09,2.288
		c4.799,2.258,8.71,4.094,11.397,5.355l1.5,0.704c0.371,0.175,0.434,0.326,0.426,0.691c-0.002,0.279-0.08,0.771-0.445,1.552
		c-0.122,0.269-0.286,0.611-0.434,0.917c-3.02,6.456-5.423,11.607-6.993,14.976l-0.456,0.952c-0.486,1.043-0.994,1.511-1.282,1.511
		c-0.098,0-0.226-0.036-0.374-0.105c-2.6-1.209-7.026-3.271-12.743-5.944c-0.875-0.41-1.918-0.135-2.477,0.653
		c-5.788,8.142-13.024,14.767-21.51,19.691c-0.831,0.482-1.202,1.487-0.883,2.393l0.179,0.508c1.974,5.616,3.504,9.97,4.409,12.566
		c0.054,0.154,0.077,0.29,0.062,0.424c-0.026,0.289-0.538,0.752-1.622,1.134l-0.297,0.104c-0.238,0.083-0.492,0.171-0.683,0.242
		l-6.409,2.258c-3.763,1.327-6.874,2.423-9.209,3.242l-0.97,0.335c-0.676,0.242-1.131,0.292-1.394,0.292
		c-0.529,0-0.643-0.159-0.761-0.493l-4.632-13.102c-0.286-0.809-1.048-1.334-1.884-1.334c-0.1,0-0.202,0.007-0.303,0.023
		c-10.266,1.564-20.811,0.77-30.733-2.315c-0.939-0.292-1.953,0.144-2.388,1.027l-1.919,3.902c-1.906,3.875-3.404,6.922-4.382,8.893
		c-0.183,0.374-0.334,0.415-0.613,0.415c-0.23,0-0.74-0.061-1.554-0.459c-0.274-0.136-0.654-0.324-0.924-0.452
		c-3.368-1.66-8.466-4.162-14.84-7.28c-0.218-0.111-0.468-0.233-0.693-0.344l-0.255-0.125c-1.786-0.878-1.506-1.453-1.39-1.692
		l6.66-13.592c0.413-0.842,0.185-1.858-0.547-2.443c-6.659-5.322-12.186-11.735-16.427-19.061c-0.481-0.83-1.482-1.202-2.39-0.887
		c-9.085,3.168-12.948,4.485-13.557,4.671c-0.044,0.007-0.086,0.011-0.127,0.011c-0.23,0-0.643-0.612-0.998-1.812
		c-0.134-0.429-1.61-4.681-3.017-8.712c-1.079-3.059-2.914-8.253-3.092-8.721c-0.664-1.631-0.405-1.974-0.22-2.092
		c0.711-0.286,5.242-1.899,13.477-4.8c0.905-0.318,1.456-1.235,1.313-2.185c-1.391-9.219-0.87-18.541,1.547-27.707
		c0.246-0.933-0.209-1.909-1.083-2.32c-9.931-4.669-12.409-5.865-12.654-5.994c-0.127-0.083-0.514-0.334,0.399-2.079
		c0.213-0.409,2.266-4.769,3.952-8.36c3.261-6.987,3.798-8.165,3.89-8.391c0.564-1.373,1.021-1.682,1.136-1.682
		c0.025,0,0.076,0.003,0.155,0.022c1.011,0.429,9.661,4.452,12.962,5.988c0.861,0.4,1.89,0.138,2.455-0.629
		c5.648-7.681,12.629-13.975,20.749-18.707c0.828-0.482,1.197-1.483,0.881-2.387c-1.204-3.449-4.363-12.497-4.684-13.539
		c-0.024-0.2,0.06-0.618,1.775-1.133c0.523-0.16,6.279-2.176,8.735-3.038c6.328-2.242,8.399-2.978,8.706-3.104
		C68.811,4.076,69.333,4,69.615,4c0.252,0,0.306,0.026,0.399,0.193c0.259,0.652,1.85,5.075,4.825,13.506
		c0.32,0.906,1.238,1.457,2.186,1.312c3.327-0.503,6.739-0.76,10.141-0.764c0.136,0,0.27-0.015,0.398-0.042
		c5.277,0.024,10.567,0.66,15.729,1.892c0.91,0.217,1.846-0.224,2.258-1.062c4.299-8.726,6.068-12.25,6.239-12.559
		c0.141-0.209,0.188-0.209,0.311-0.209c0.225,0,0.753,0.083,1.721,0.612c0.28,0.165,1.621,0.829,7.234,3.597l1.092,0.538
		c7.893,3.855,8.193,3.981,8.328,4.037c1.167,0.508,1.673,0.979,1.646,1.234c-0.004,0.05-0.013,0.097-0.025,0.145
		c-0.429,0.979-4.411,9.142-5.737,11.86c-0.431,0.884-0.156,1.95,0.649,2.515c8.286,5.808,15.028,13.148,20.041,21.817
		c0.48,0.831,1.481,1.203,2.391,0.887c5.875-2.051,10.412-3.63,13.115-4.566c0.124-0.044,0.235-0.067,0.323-0.067
		c0.359,0,0.831,0.656,1.151,1.567c0.051,0.164,0.117,0.351,0.184,0.542c0.052,0.147,0.105,0.297,0.169,0.497
		c2.361,6.73,4.245,12.087,5.483,15.589l0.079,0.237c0.091,0.274,0.188,0.565,0.258,0.756
		C170.48,68.857,170.51,69.356,170.485,69.656z"/>
	<path style="fill:#231F20;" d="M53.691,121.386c-1.039-1.02-1.944-1.986-2.797-2.988c-0.073-0.082-0.143-0.17-0.213-0.259
		l-0.184-0.226c-0.793-0.95-1.536-1.906-2.269-2.921c-0.033-0.051-0.066-0.1-0.1-0.146c-0.029-0.051-0.061-0.101-0.095-0.149
		c-2.528-3.615-4.528-7.483-5.942-11.494c-1.407-3.999-2.275-8.289-2.579-12.75c-0.001-0.021-0.003-0.041-0.005-0.062
		c-0.001-0.047-0.004-0.094-0.008-0.142c-1.023-16.539,6.774-32.706,20.353-42.201c0.905-0.633,1.126-1.88,0.493-2.785
		s-1.881-1.126-2.785-0.493C42.851,55.056,34.403,72.566,35.506,90.48c-0.001,0.021-0.002,0.041-0.002,0.048
		c-0.004,0.146,0.007,0.291,0.034,0.433c0.343,4.737,1.278,9.302,2.781,13.571c1.504,4.264,3.612,8.373,6.27,12.216
		c0.051,0.102,0.111,0.199,0.179,0.292c0.035,0.047,0.071,0.092,0.115,0.146c0.018,0.027,0.036,0.054,0.055,0.081
		c0.804,1.116,1.619,2.167,2.485,3.203l0.137,0.169c0.114,0.143,0.229,0.284,0.318,0.384c0.886,1.042,1.854,2.077,2.956,3.162
		c0.045,0.05,0.091,0.101,0.135,0.147c0.381,0.4,0.906,0.619,1.447,0.619c0.138,0,0.278-0.014,0.416-0.044
		c0.679-0.144,1.234-0.63,1.467-1.283l0.005-0.014c0.277-0.776,0.044-1.607-0.524-2.133
		C53.75,121.446,53.721,121.416,53.691,121.386z"/>
</g>
<g>
</g>
<g>
</g>
<g>
</g>
<g>
</g>
<g>
</g>
<g>
</g>
<g>
</g>
<g>
</g>
<g>
</g>
<g>
</g>
<g>
</g>
<g>
</g>
<g>
</g>
<g>
</g>
<g>
</g>
</svg>
