<?xml version="1.0" encoding="iso-8859-1"?>
<!-- Generator: Adobe Illustrator 18.0.0, SVG Export Plug-In . SVG Version: 6.00 Build 0)  -->
<!DOCTYPE svg PUBLIC "-//W3C//DTD SVG 1.1//EN" "http://www.w3.org/Graphics/SVG/1.1/DTD/svg11.dtd">
<svg version="1.1" id="Capa_1" xmlns="http://www.w3.org/2000/svg" xmlns:xlink="http://www.w3.org/1999/xlink" x="0px" y="0px"
	 viewBox="0 0 181.84 181.844" style="enable-background:new 0 0 181.84 181.844;" xml:space="preserve">
<g>
	<path style="fill:#231F20;" d="M90.916,0C40.785,0,0,40.786,0,90.92c0,50.136,40.785,90.924,90.916,90.924
		c50.136,0,90.924-40.788,90.924-90.924C181.84,40.786,141.052,0,90.916,0z M90.916,177.844C42.99,177.844,4,138.85,4,90.92
		C4,42.992,42.99,4,90.916,4c47.93,0,86.924,38.992,86.924,86.92C177.84,138.85,138.846,177.844,90.916,177.844z"/>
	<polygon style="fill:#231F20;" points="88.68,33.812 92.932,46.947 96.254,46.947 96.254,26.43 93.162,26.43 93.162,40.219 
		89.057,26.43 85.586,26.43 85.586,46.947 88.68,46.947 	"/>
	<path style="fill:#231F20;" d="M95.934,146.963c-0.406-0.73-0.986-1.469-1.736-2.223c-0.225-0.238-0.695-0.654-1.404-1.242
		c-0.602-0.492-1.057-0.926-1.352-1.293c-0.797-0.949-1.188-1.893-1.188-2.816c0-0.594,0.109-1.092,0.35-1.488
		c0.293-0.49,0.709-0.736,1.27-0.736c0.525,0,0.93,0.168,1.211,0.498c0.387,0.461,0.621,1.109,0.707,1.941l2.914-0.537
		c-0.072-0.879-0.289-1.662-0.662-2.338s-0.865-1.201-1.463-1.58c-0.773-0.486-1.695-0.727-2.781-0.727
		c-1.133,0-2.078,0.291-2.844,0.855c-1.234,0.949-1.855,2.344-1.855,4.18c0,1.018,0.232,1.971,0.682,2.836
		c0.42,0.781,1.133,1.656,2.141,2.633c1.207,1.141,2.107,1.996,2.705,2.568c0.766,0.828,1.148,1.66,1.148,2.502
		c0,0.57-0.098,1.018-0.305,1.33c-0.396,0.641-0.934,0.963-1.598,0.99c-0.471,0.018-0.883-0.174-1.262-0.57
		c-0.486-0.525-0.797-1.381-0.93-2.555l-2.898,0.207c0.059,1.072,0.289,2.029,0.672,2.861c0.377,0.83,0.893,1.492,1.555,1.973
		c0.779,0.592,1.768,0.891,2.961,0.891c0.648,0,1.209-0.082,1.688-0.23c0.912-0.275,1.607-0.758,2.1-1.43
		c0.756-1,1.123-2.205,1.096-3.619c-0.01-0.564-0.156-1.209-0.447-1.932C96.287,147.621,96.131,147.311,95.934,146.963z"/>
	<polygon style="fill:#231F20;" points="38.559,91.646 36.924,80.582 33.656,80.582 32.156,91.656 30.518,80.582 27.246,80.582 
		30.711,101.26 33.703,101.26 35.355,89.881 37.135,101.26 40.109,101.26 43.34,80.582 40.072,80.582 	"/>
	<polygon style="fill:#231F20;" points="142.225,101.086 150.949,101.086 150.949,98.008 145.289,98.008 145.289,92.457 
		149.422,92.457 149.422,89.383 145.289,89.383 145.289,83.832 150.949,83.832 150.949,80.758 142.225,80.758 	"/>
	<path style="fill:#231F20;" d="M99.738,95.622c0.75-1.402,1.179-3.001,1.179-4.7c0-5.513-4.484-9.997-9.997-9.997
		c-1.918,0-3.705,0.552-5.228,1.492l-27.319-28.87c-0.76-0.801-2.026-0.834-2.828-0.078c-0.802,0.76-0.837,2.025-0.078,2.828
		l27.304,28.854c-1.159,1.632-1.848,3.621-1.848,5.771c0,5.513,4.484,9.997,9.997,9.997c2.365,0,4.537-0.829,6.251-2.207
		l26.126,26.266c0.391,0.394,0.904,0.59,1.418,0.59c0.51,0,1.021-0.194,1.41-0.582c0.783-0.779,0.787-2.045,0.008-2.828
		L99.738,95.622z M90.92,96.919c-3.307,0-5.997-2.69-5.997-5.997c0-1.555,0.6-2.969,1.574-4.036
		c0.141-0.079,0.277-0.169,0.399-0.285c0.119-0.113,0.216-0.24,0.301-0.372c1.024-0.813,2.316-1.303,3.722-1.303
		c3.307,0,5.997,2.69,5.997,5.997S94.227,96.919,90.92,96.919z"/>
</g>
<g>
</g>
<g>
</g>
<g>
</g>
<g>
</g>
<g>
</g>
<g>
</g>
<g>
</g>
<g>
</g>
<g>
</g>
<g>
</g>
<g>
</g>
<g>
</g>
<g>
</g>
<g>
</g>
<g>
</g>
</svg>
