<?xml version="1.0" encoding="iso-8859-1"?>
<!-- Generator: Adobe Illustrator 18.0.0, SVG Export Plug-In . SVG Version: 6.00 Build 0)  -->
<!DOCTYPE svg PUBLIC "-//W3C//DTD SVG 1.1//EN" "http://www.w3.org/Graphics/SVG/1.1/DTD/svg11.dtd">
<svg version="1.1" id="Capa_1" xmlns="http://www.w3.org/2000/svg" xmlns:xlink="http://www.w3.org/1999/xlink" x="0px" y="0px"
	 viewBox="0 0 184.569 167.711" style="enable-background:new 0 0 184.569 167.711;" xml:space="preserve">
<g>
	<path style="fill:#231F20;" d="M183.576,49.577c-2.451-4.088-8.619-5.673-9.314-5.84c-0.153-0.037-0.31-0.056-0.468-0.056
		c-0.001,0-0.002,0-0.003,0l-1.371,0.002c-0.023-1.662-0.084-3.471-0.145-5.245c-0.042-1.22-0.084-2.416-0.11-3.52
		c-0.082-3.156-2.812-5.195-6.957-5.195c-0.116,0-0.199,0.002-0.22,0.003H85.846c-2.808,0-4.017-1.53-4.286-1.931
		c-0.657-2.151-5.421-17.742-7.051-22.302c-1.815-5.092-5.896-5.487-7.103-5.487c-0.281,0-0.509,0.018-0.666,0.035H11.33
		C11.154,0.022,10.872,0,10.519,0C9.313,0,7.079,0.269,5.34,2.014C2.11,4.037,0.26,7.236,0.122,11.05
		C-0.149,18.056,0.117,132.9,0.12,134.034c0.005,3.217,1.238,12.719,2.296,20.285c-0.064,0.254-0.105,0.413-0.113,0.446
		c-0.058,0.229-0.075,0.467-0.051,0.701c0.053,0.5,1.389,12.244,10.106,12.244c0.009,0,0.101-0.001,0.11-0.001
		c3.549-0.049,33.803-1.182,65.833-2.381c31.055-1.163,63.168-2.365,66.698-2.411c6.837-0.083,9.323-5.273,9.724-8.177
		c1.69-5.651,27.999-93.615,29.605-99.796C184.818,53.07,184.558,51.214,183.576,49.577z M5.065,143.878
		c-0.61-4.942-0.943-8.382-0.945-9.853C4.097,126.588,3.866,17.736,4.119,11.199C4.212,8.618,5.394,6.634,7.63,5.302
		c0.171-0.103,0.326-0.229,0.459-0.376C8.819,4.12,9.924,4,10.519,4c0.208,0,0.354,0.015,0.377,0.018
		c0.103,0.017,0.207,0.024,0.312,0.024h55.662c0.088,0,0.217-0.012,0.305-0.023c0.035-0.005,0.117-0.012,0.232-0.012
		c1.061,0,2.5,0.491,3.335,2.832c1.683,4.709,7.006,22.171,7.06,22.347c0.033,0.109,0.076,0.215,0.127,0.317
		c0.087,0.172,2.194,4.224,7.917,4.224l79.254-0.002l0.108-0.001c0.119,0,2.924,0.015,2.958,1.295
		c0.027,1.113,0.069,2.324,0.112,3.559c0.061,1.733,0.122,3.508,0.145,5.112L38.631,43.894c-0.258-0.04-0.687-0.09-1.23-0.09
		c-1.796,0-5.824,0.568-8.006,5.313c-0.312,0.678-0.586,1.441-0.81,2.3c-0.028,0.106-0.062,0.236-0.099,0.378
		c-0.008,0.03-0.016,0.063-0.024,0.094c-0.03,0.114-0.062,0.237-0.096,0.372c-0.017,0.064-0.034,0.13-0.052,0.199
		c-0.026,0.101-0.054,0.209-0.082,0.319c-0.024,0.094-0.047,0.183-0.073,0.285c-0.006,0.024-0.013,0.052-0.02,0.077
		c-0.128,0.498-0.277,1.077-0.444,1.73c-0.051,0.198-0.104,0.405-0.158,0.617c-0.017,0.067-0.033,0.131-0.051,0.199
		c-0.24,0.936-0.511,1.999-0.811,3.172c-0.047,0.185-0.095,0.37-0.143,0.561c-0.208,0.816-0.43,1.683-0.662,2.596
		c-0.007,0.026-0.013,0.053-0.02,0.079c-0.096,0.375-0.193,0.758-0.293,1.149c-0.041,0.162-0.082,0.323-0.124,0.488
		c-0.212,0.833-0.432,1.697-0.66,2.591c-0.126,0.496-0.255,1.001-0.386,1.515c-0.042,0.165-0.084,0.329-0.126,0.495
		c-0.066,0.26-0.133,0.523-0.201,0.788c-0.232,0.911-0.47,1.846-0.714,2.805c-0.25,0.98-0.505,1.984-0.766,3.008
		c-0.387,1.52-0.785,3.087-1.194,4.693c-0.162,0.637-0.325,1.279-0.49,1.927c-0.059,0.232-0.118,0.463-0.177,0.697
		c-0.344,1.353-0.694,2.728-1.048,4.12c-0.206,0.812-0.414,1.629-0.624,2.454c-4.636,18.24-9.901,38.979-13.27,52.252
		c-0.002,0.009-0.004,0.017-0.006,0.026c-0.224,0.883-0.439,1.728-0.645,2.542C5.105,143.72,5.085,143.801,5.065,143.878z
		 M180.459,53.938c-1.606,6.181-29.334,98.88-29.614,99.815c-0.035,0.116-0.059,0.235-0.072,0.355
		c-0.021,0.193-0.581,4.745-5.823,4.809c-3.581,0.047-35.718,1.25-66.797,2.414c-30.598,1.146-62.237,2.33-65.735,2.378l-0.06,2.001
		v-2c-4.55,0-5.844-6.76-6.083-8.337c0.03-0.12,0.07-0.276,0.114-0.45c0,0,0,0,0,0l0.013-0.051
		c2.203-8.684,20.226-79.716,25.009-98.394c0.007-0.027,0.014-0.053,0.02-0.08c0.16-0.625,0.305-1.19,0.434-1.692
		c0.006-0.024,0.012-0.049,0.019-0.072c0.062-0.243,0.121-0.472,0.176-0.684c0.001-0.004,0.002-0.009,0.003-0.013
		c0.049-0.189,0.092-0.357,0.134-0.52c0.011-0.041,0.022-0.086,0.032-0.126c0.093-0.359,0.169-0.651,0.224-0.864
		c1-3.823,3.242-4.626,4.947-4.626c0.383,0,0.635,0.045,0.638,0.045c0,0,0,0,0,0c0.139,0.03,0.28,0.045,0.422,0.045
		c0.001,0,0.002,0,0.003,0l135.081-0.212c1.522,0.41,5.314,1.806,6.601,3.952C180.58,52.358,180.679,53.091,180.459,53.938z"/>
	<path style="fill:#231F20;" d="M10.62,71.188c1.104,0,2-0.896,2-2V27.521c0-8.857,1.826-11.963,2.915-13.026
		c0.557-0.544,1.011-0.635,1.164-0.649c0.113,0.031,0.093,0.009,0.255,0.009h10c1.104,0,2-0.896,2-2s-0.896-2-2-2h-9.901
		c-0.63-0.051-2.251-0.004-3.949,1.447c-2.975,2.541-4.483,7.999-4.483,16.22v41.666C8.62,70.292,9.516,71.188,10.62,71.188z"/>
	<path style="fill:#231F20;" d="M60.663,53.188L45.245,52.86c-0.722-0.171-2.209-0.323-3.991,0.592
		c-2.979,1.528-5.299,5.301-6.897,11.214c-3.302,12.216-14.235,56.931-14.346,57.381c-0.262,1.072,0.395,2.155,1.468,2.417
		c0.16,0.039,0.319,0.058,0.477,0.058c0.9,0,1.718-0.611,1.941-1.525c0.11-0.449,11.032-45.117,14.321-57.287
		c2.182-8.073,5.156-9.188,6.033-8.982c0.263,0.13,0.367,0.121,0.66,0.128l15.667,0.333c1.111-0.018,2.019-0.853,2.042-1.957
		C62.643,54.126,61.767,53.211,60.663,53.188z"/>
</g>
<g>
</g>
<g>
</g>
<g>
</g>
<g>
</g>
<g>
</g>
<g>
</g>
<g>
</g>
<g>
</g>
<g>
</g>
<g>
</g>
<g>
</g>
<g>
</g>
<g>
</g>
<g>
</g>
<g>
</g>
</svg>
