<?xml version="1.0" encoding="iso-8859-1"?>
<!-- Generator: Adobe Illustrator 18.0.0, SVG Export Plug-In . SVG Version: 6.00 Build 0)  -->
<!DOCTYPE svg PUBLIC "-//W3C//DTD SVG 1.1//EN" "http://www.w3.org/Graphics/SVG/1.1/DTD/svg11.dtd">
<svg version="1.1" id="Capa_1" xmlns="http://www.w3.org/2000/svg" xmlns:xlink="http://www.w3.org/1999/xlink" x="0px" y="0px"
	 viewBox="0 0 182.927 183.477" style="enable-background:new 0 0 182.927 183.477;" xml:space="preserve">
<g>
	<path style="fill:#231F20;" d="M57.129,0.114c-10.161,0-19.519-0.045-26.44-0.079C26.622,0.016,23.394,0,21.336,0l-1.409,0.004
		C1.623,0.129,0.134,8.176,0.029,19.522c-0.03,2.289-0.033,13.506-0.009,30.773c0,0.049,0.002,0.099,0.006,0.147l0.059,0.811
		c0.318,4.435,0.619,8.624,7.288,8.726c1.428,0.018,2.596,0.023,3.62,0.023c0.001,0,0.001,0,0.002,0c1.313,0,2.39-0.01,3.477-0.021
		c1.095-0.011,2.2-0.021,3.574-0.021c0.078,0,0.157-0.005,0.235-0.014c4.934-0.584,7.425-2.114,7.352-8.848
		c-0.025-3.981-0.01-19.484-0.003-25.058c3.704,0.02,11.886,0.057,19.043,0.057c5.589,0,9.426-0.022,11.401-0.067
		c7.637-0.164,8.681-1.724,8.781-7.833c0.056-3.135,0.056-6.403,0-10.292C64.745,1.57,63.301,0.114,57.129,0.114z M60.855,18.129
		c-0.02,1.223-0.05,3.069-0.331,3.338c-0.332,0.317-1.858,0.508-4.539,0.565c-1.947,0.044-5.754,0.066-11.312,0.066
		c-9.593,0-21.026-0.067-21.028-0.067c-0.567,0.024-1.044,0.206-1.421,0.581c-0.377,0.374-0.59,0.884-0.591,1.416
		c0,0.222-0.031,22.226,0,27.105c0.047,4.329-0.603,4.459-3.705,4.827c-1.335,0.001-2.42,0.011-3.495,0.021
		c-1.074,0.011-2.139,0.021-3.438,0.021c0,0-0.001,0-0.002,0c-1.011,0-2.162-0.006-3.565-0.023
		c-2.927-0.045-3.021-0.396-3.353-5.012L4.02,50.219C3.996,33.011,3.998,21.843,4.029,19.567C4.125,9.129,4.842,4.106,19.954,4.004
		L21.336,4c2.053,0,5.274,0.016,9.334,0.035c6.926,0.034,16.29,0.079,26.459,0.079c2.773,0,3.273,0.334,3.36,0.437
		c0.312,0.366,0.345,2.207,0.365,3.42C60.911,11.809,60.911,15.036,60.855,18.129z"/>
	<path style="fill:#231F20;" d="M51.194,157.868c-3.984-0.037-19.492-0.261-25.067-0.343c0.116-6.2,0.456-24.933,0.419-30.442
		c-0.07-8.227-2.038-8.709-7.715-8.892c-2.77-0.092-5.691-0.136-8.934-0.136l-1.346,0.002c-6.334,0.017-7.812,1.438-7.904,7.604
		c-0.142,10.133-0.325,19.522-0.458,26.379c-0.102,5.24-0.176,9.026-0.188,10.829c-0.124,18.276,7.902,19.884,19.26,20.159
		c2.54,0.058,14.899,0.237,30.754,0.447c0.009,0,0.018,0,0.026,0c0.041,0,0.082-0.001,0.123-0.004l0.781-0.046
		c4.456-0.26,8.666-0.505,8.847-7.161c0.088-3.278,0.098-5.144,0.107-7.118c0.005-1.089,0.011-2.19,0.03-3.562
		c0.001-0.077-0.003-0.155-0.011-0.232C59.413,160.407,57.921,157.892,51.194,157.868z M55.9,169.128
		c-0.01,1.952-0.02,3.796-0.105,7.029c-0.08,2.916-0.434,3.005-5.081,3.276l-0.718,0.042c-15.563-0.205-28.158-0.389-30.641-0.444
		c-10.441-0.254-15.456-1.046-15.354-16.135c0.012-1.777,0.085-5.553,0.187-10.777c0.134-6.861,0.316-16.258,0.459-26.398
		c0.041-2.771,0.381-3.265,0.483-3.35c0.369-0.306,2.212-0.311,3.433-0.313l1.334-0.002c3.197,0,6.076,0.044,8.803,0.134
		c1.228,0.039,3.082,0.099,3.345,0.383c0.467,0.503,0.492,3.545,0.501,4.541c0.044,6.547-0.451,32.087-0.457,32.344
		c-0.01,0.532,0.192,1.046,0.562,1.429c0.37,0.383,0.877,0.603,1.409,0.61c0.222,0.003,22.228,0.326,27.109,0.372
		c4.204,0.015,4.426,0.554,4.761,3.778C55.911,166.978,55.905,168.059,55.9,169.128z"/>
	<path style="fill:#231F20;" d="M182.904,19.53c-0.106-11.354-1.596-19.401-19.9-19.526L161.597,0c-2.055,0-5.278,0.016-9.343,0.035
		c-6.92,0.034-16.279,0.079-26.445,0.079c-2.984,0-5.097,0.309-6.403,1.843c-1.236,1.453-1.274,3.436-1.323,5.953
		c-0.043,2.737-0.083,6.381-0.01,10.292c0.124,6.106,1.171,7.665,8.784,7.828c1.976,0.046,5.811,0.068,11.398,0.068
		c7.157,0,15.341-0.037,19.046-0.057c0.007,5.573,0.021,21.074-0.002,25.046c-0.082,6.743,2.41,8.274,7.348,8.859
		c0.078,0.009,0.156,0.014,0.235,0.014c1.378,0,2.484,0.011,3.58,0.021c1.086,0.011,2.161,0.021,3.475,0.021
		c1.024,0,2.193-0.006,3.63-0.023c6.665-0.103,6.968-4.308,7.289-8.761l0.057-0.775c0.004-0.05,0.006-0.1,0.006-0.148
		C182.934,31.767,182.929,21.701,182.904,19.53z M178.918,50.219l-0.052,0.713c-0.336,4.649-0.431,5.003-3.354,5.048
		c-3.224,0.04-5.102,0.021-7.011,0.003c-1.076-0.011-2.162-0.021-3.501-0.021c-3.104-0.368-3.754-0.499-3.701-4.837
		c0.029-4.871,0-26.874,0-27.096c-0.001-0.531-0.213-1.042-0.591-1.416c-0.375-0.372-0.882-0.581-1.409-0.581
		c-0.004,0-0.008,0-0.012,0c0,0-11.438,0.067-21.032,0.067c-5.558,0-9.362-0.022-11.31-0.067c-2.672-0.057-4.195-0.247-4.528-0.565
		c-0.283-0.271-0.319-2.047-0.345-3.341c-0.072-3.848-0.033-7.446,0.01-10.146c0.023-1.22,0.059-3.064,0.369-3.43
		c0.087-0.102,0.587-0.436,3.357-0.436c10.174,0,19.54-0.045,26.465-0.079C156.33,4.016,159.547,4,161.597,4l1.38,0.004
		c15.111,0.103,15.829,5.125,15.927,15.568C178.929,21.729,178.934,31.753,178.918,50.219z"/>
	<path style="fill:#231F20;" d="M182.291,125.66c-0.093-6.164-1.574-7.586-7.922-7.603l-1.341-0.002
		c-3.241,0-6.161,0.044-8.924,0.136c-5.686,0.184-7.655,0.665-7.712,8.889c-0.054,5.59,0.292,24.221,0.412,30.445
		c-5.575,0.082-21.082,0.306-25.049,0.343c-6.746,0.023-8.238,2.539-8.748,7.484c-0.008,0.078-0.012,0.156-0.011,0.234
		c0.021,1.397,0.026,2.516,0.031,3.626c0.009,1.873,0.019,3.811,0.104,7.057c0.191,6.652,4.397,6.897,8.85,7.157l0.781,0.046
		c0.041,0.003,0.082,0.004,0.123,0.004c0.009,0,0.018,0,0.026,0c15.574-0.206,28.228-0.39,30.776-0.447
		c11.344-0.275,19.363-1.883,19.229-20.152c-0.007-1.952-0.088-6.222-0.199-12.131C182.591,143.981,182.425,135.176,182.291,125.66z
		 M163.595,179.031c-2.53,0.057-15.133,0.239-30.663,0.444l-0.717-0.042c-4.646-0.271-5.001-0.361-5.085-3.274
		c-0.084-3.197-0.093-5.028-0.102-6.966c-0.005-1.091-0.011-2.189-0.029-3.547c0.335-3.224,0.559-3.764,4.782-3.778
		c4.86-0.046,26.87-0.369,27.092-0.372c0.532-0.008,1.039-0.228,1.409-0.61s0.571-0.897,0.562-1.43
		c-0.006-0.257-0.514-25.793-0.451-32.343c0.007-0.998,0.027-4.036,0.495-4.54c0.264-0.284,2.118-0.345,3.348-0.384
		c2.72-0.09,5.596-0.134,8.793-0.134l1.329,0.002c1.224,0.003,3.075,0.008,3.448,0.315c0.104,0.086,0.444,0.579,0.485,3.346
		c0.134,9.521,0.301,18.333,0.429,25.103c0.111,5.892,0.191,10.148,0.198,12.077C179.03,177.986,174.021,178.777,163.595,179.031z"
		/>
	<path style="fill:#231F20;" d="M23.62,9.203c-0.279-0.072-6.89-1.741-11.389,1.887c-2.734,2.205-4.02,5.746-3.82,10.527
		c0.045,1.075,0.931,1.917,1.997,1.917c0.027,0,0.056-0.001,0.084-0.002c1.104-0.046,1.961-0.978,1.915-2.081
		c-0.143-3.437,0.639-5.871,2.322-7.237c2.918-2.367,7.837-1.149,7.887-1.139c1.067,0.276,2.155-0.365,2.435-1.432
		C25.329,10.574,24.688,9.482,23.62,9.203z"/>
	<path style="fill:#231F20;" d="M22.61,169.95c-0.049,0.014-4.967,1.209-7.868-1.129c-1.692-1.365-2.479-3.804-2.335-7.248
		c0.046-1.104-0.812-2.035-1.915-2.081c-1.145-0.058-2.035,0.812-2.081,1.915c-0.199,4.781,1.086,8.322,3.82,10.527
		c2.317,1.869,5.195,2.332,7.479,2.332c2.149,0,3.773-0.41,3.909-0.445c1.068-0.279,1.709-1.371,1.431-2.44
		C24.77,170.312,23.678,169.671,22.61,169.95z"/>
</g>
<g>
</g>
<g>
</g>
<g>
</g>
<g>
</g>
<g>
</g>
<g>
</g>
<g>
</g>
<g>
</g>
<g>
</g>
<g>
</g>
<g>
</g>
<g>
</g>
<g>
</g>
<g>
</g>
<g>
</g>
</svg>
