<?xml version="1.0" encoding="iso-8859-1"?>
<!-- Generator: Adobe Illustrator 18.0.0, SVG Export Plug-In . SVG Version: 6.00 Build 0)  -->
<!DOCTYPE svg PUBLIC "-//W3C//DTD SVG 1.1//EN" "http://www.w3.org/Graphics/SVG/1.1/DTD/svg11.dtd">
<svg version="1.1" id="Capa_1" xmlns="http://www.w3.org/2000/svg" xmlns:xlink="http://www.w3.org/1999/xlink" x="0px" y="0px"
	 viewBox="0 0 186.704 136.838" style="enable-background:new 0 0 186.704 136.838;" xml:space="preserve">
<g>
	<path style="fill:#231F20;" d="M57.13,44.44H43.316V30.626c0-1.104-0.896-2-2-2s-2,0.896-2,2V44.44H25.501c-1.104,0-2,0.896-2,2
		s0.896,2,2,2h13.814v13.814c0,1.104,0.896,2,2,2s2-0.896,2-2V48.44H57.13c1.104,0,2-0.896,2-2S58.235,44.44,57.13,44.44z"/>
	<path style="fill:#231F20;" d="M146.577,62.743c0,5.803,4.717,10.523,10.516,10.523c5.803,0,10.524-4.721,10.524-10.523
		c0-5.798-4.721-10.515-10.524-10.515C151.294,52.229,146.577,56.945,146.577,62.743z M157.093,56.229
		c3.597,0,6.524,2.922,6.524,6.515c0,3.597-2.927,6.523-6.524,6.523c-3.593,0-6.516-2.926-6.516-6.523
		C150.577,59.151,153.5,56.229,157.093,56.229z"/>
	<path style="fill:#231F20;" d="M185.698,106.943C185.698,106.943,185.698,106.943,185.698,106.943l-16.576-72.748
		c-2.543-11.155-13.733-18.809-27.223-18.668c-0.362-0.018-0.722-0.027-1.088-0.027h-30.384c-0.001-0.518-0.002-0.957-0.004-1.289
		c-0.011-1.825-0.821-2.874-1.499-3.432c-1.423-1.173-3.251-1.062-3.947-0.967h-2.854V2c0-1.104-0.896-2-2-2H86.579
		c-1.104,0-2,0.896-2,2v7.812H81.49c-0.421,0.003-2.608,0.035-4.044,1.439c-0.753,0.737-1.155,1.703-1.163,2.792
		c-0.002,0.311-0.004,0.816-0.005,1.458H46.48c-0.428,0-0.85,0.01-1.277,0.036c-13.671-0.3-25.04,7.343-27.623,18.66L1.009,106.942
		c-2.059,9.03-0.927,17.766,3.027,23.37c2.525,3.577,6.129,5.736,10.427,6.244c1.526,0.179,3.008,0.282,4.462,0.282
		c9.764,0,18.164-4.66,28.955-22.248l14.962-26.291h61.027l14.992,26.348c9.361,15.259,17.829,23.734,33.386,21.909
		c4.291-0.507,7.893-2.664,10.416-6.238C186.618,124.716,187.753,115.978,185.698,106.943z M179.396,128.01
		c-1.877,2.659-4.44,4.197-7.616,4.573c-10.418,1.225-18.208-1.607-29.475-19.972L126.771,85.31
		c-0.355-0.625-1.019-1.011-1.738-1.011H61.679c-0.719,0-1.383,0.386-1.738,1.011l-15.504,27.245
		c-11.303,18.421-19.092,21.252-29.507,20.028c-3.182-0.375-5.748-1.916-7.625-4.578c-3.261-4.621-4.179-12.351-2.396-20.174
		L21.48,35.085c2.16-9.46,11.888-15.866,23.71-15.548c0.061,0.001,0.123,0,0.184-0.004c0.37-0.024,0.736-0.033,1.106-0.033h31.795
		c1.104,0,2-0.895,2-1.999c0.001-1.572,0.003-2.847-0.032-3.392c0.146-0.146,0.754-0.297,1.218-0.298h5.118c1.104,0,2-0.896,2-2V4
		h9.545v7.812c0,1.104,0.896,2,2,2h5.009c0.107,0,0.241-0.013,0.347-0.03c0.348-0.056,0.792,0.001,0.886,0.068
		c0,0.001,0.056,0.101,0.058,0.383c0.003,0.698,0.005,1.875,0.006,3.269c0.001,1.104,0.896,1.999,2,1.999h32.382
		c0.321,0,0.635,0.009,0.952,0.025c0.042,0.002,0.084,0.004,0.127,0.002c11.664-0.155,21.208,6.241,23.332,15.557l16.576,72.746
		C183.578,115.658,182.657,123.391,179.396,128.01z"/>
	<path style="fill:#231F20;" d="M124.77,52.229c-5.799,0-10.517,4.717-10.517,10.515c0,5.803,4.718,10.523,10.517,10.523
		c5.8,0,10.52-4.721,10.52-10.523C135.289,56.945,130.57,52.229,124.77,52.229z M124.77,69.267c-3.593,0-6.517-2.926-6.517-6.523
		c0-3.592,2.923-6.515,6.517-6.515c3.595,0,6.52,2.922,6.52,6.515C131.289,66.34,128.364,69.267,124.77,69.267z"/>
	<path style="fill:#231F20;" d="M140.932,50.761c5.8,0,10.519-4.717,10.519-10.515c0-5.797-4.719-10.514-10.519-10.514
		c-5.799,0-10.518,4.716-10.518,10.514C130.414,46.044,135.132,50.761,140.932,50.761z M140.932,33.732
		c3.594,0,6.519,2.922,6.519,6.514c0,3.592-2.924,6.515-6.519,6.515c-3.594,0-6.518-2.922-6.518-6.515
		C134.414,36.654,137.338,33.732,140.932,33.732z"/>
	<path style="fill:#231F20;" d="M21.61,65.204c-1.083-0.215-2.134,0.494-2.347,1.578l-8.182,41.725
		c-0.472,1.556-3.185,11.296,1.107,16.292c1.577,1.835,3.799,2.758,6.628,2.758c0.727,0,1.493-0.061,2.299-0.183
		c1.092-0.166,1.843-1.185,1.678-2.277c-0.166-1.092-1.183-1.843-2.277-1.678c-2.52,0.383-4.252-0.018-5.291-1.224
		c-2.528-2.938-1.067-10.098-0.291-12.609c0.021-0.067,0.039-0.138,0.052-0.208l8.202-41.827
		C23.4,66.467,22.694,65.417,21.61,65.204z"/>
	<path style="fill:#231F20;" d="M172.193,120.903c-6.278,4.521-10.092,1.157-13.763-3.005c-0.771-0.874-1.341-1.521-1.954-1.926
		c-1.732-1.741-11.306-17.8-19.515-32.165c-0.547-0.958-1.769-1.292-2.729-0.744c-0.959,0.548-1.292,1.77-0.744,2.729
		c8.35,14.612,18.736,32.29,20.774,33.512c0.201,0.145,0.736,0.752,1.167,1.24c1.957,2.219,5.749,6.519,11.177,6.519
		c2.342,0,4.989-0.8,7.923-2.914c0.896-0.646,1.1-1.895,0.455-2.792C174.339,120.461,173.09,120.259,172.193,120.903z"/>
</g>
<g>
</g>
<g>
</g>
<g>
</g>
<g>
</g>
<g>
</g>
<g>
</g>
<g>
</g>
<g>
</g>
<g>
</g>
<g>
</g>
<g>
</g>
<g>
</g>
<g>
</g>
<g>
</g>
<g>
</g>
</svg>
