<?xml version="1.0" encoding="iso-8859-1"?>
<!-- Generator: Adobe Illustrator 18.0.0, SVG Export Plug-In . SVG Version: 6.00 Build 0)  -->
<!DOCTYPE svg PUBLIC "-//W3C//DTD SVG 1.1//EN" "http://www.w3.org/Graphics/SVG/1.1/DTD/svg11.dtd">
<svg version="1.1" id="Capa_1" xmlns="http://www.w3.org/2000/svg" xmlns:xlink="http://www.w3.org/1999/xlink" x="0px" y="0px"
	 viewBox="0 0 180.008 183.399" style="enable-background:new 0 0 180.008 183.399;" xml:space="preserve">
<g>
	<path style="fill:#231F20;" d="M155.725,23.447H24.286c-0.972,0-1.759,0.788-1.759,1.759v85.042c0,0.972,0.787,1.759,1.759,1.759
		h131.438c0.972,0,1.759-0.788,1.759-1.759V25.207C157.484,24.235,156.697,23.447,155.725,23.447z M153.966,108.489H26.045V26.966
		h127.921V108.489z"/>
	<path style="fill:#231F20;" d="M180.004,19.049l-0.001-8.317C180.003,4.014,173.98,0,168.157,0C152.351,0,16.79,0.126,11.732,0.234
		C4.427,0.389,0.157,7.357,0.01,10.891c-0.026,0.613,0.001,6.882,0.061,19.866c0.12,26.557,0.346,75.991,0.04,96.241
		c-0.115,8.001,5.707,12.015,11.525,12.443c1.383,0.104,36.325,0.157,58.306,0.18c0.012,0.614,0.022,1.394,0.026,2.307
		c-0.029,6.715-0.462,18.9-2.969,27.244c-3.659,0-6.018,0.001-6.197,0.002l-0.174-0.002c-3.858,0-6.659,2.819-6.658,6.777
		c0.17,4.057,0.734,7.178,6.206,7.408l0.001-0.003c0.576,0.016,4.168,0.046,29.828,0.046c25.632,0,29.243-0.03,29.825-0.046v0.003
		c5.479-0.23,6.042-3.352,6.209-7.481c0-3.884-2.803-6.703-6.664-6.703l-0.128,0.001c-0.22-0.001-2.579-0.001-6.235-0.001
		c-2.48-8.242-2.93-20.251-2.971-26.858c0.002-1.064,0.013-1.97,0.025-2.667l10.045,0.001c24.68,0,41.761-0.021,46.865-0.059
		c7.792-0.061,13.026-5.196,13.026-12.778C180.011,102.347,180.006,41.594,180.004,19.049z M176.486,126.809
		c0,5.581-3.743,9.215-9.535,9.26c-5.093,0.038-22.145,0.059-46.794,0.059c-0.014,0-0.032,0-0.045,0l-11.801-0.001
		c-0.957,0-1.741,0.89-1.762,1.847c-0.002,0.114,0.008,0.228,0.028,0.338c-0.018,0.63-0.051,2.043-0.054,4.009
		c0.044,7.16,0.563,20.471,3.541,29.178c0.243,0.711,0.912,1.19,1.664,1.19c4.373,0,7.261,0.001,7.505,0.002h0.001
		c0.019,0,0.126-0.001,0.141-0.001c1.911,0,3.146,1.25,3.147,3.113c-0.155,3.798-0.426,3.937-2.84,4.038
		c-0.01,0-0.02,0.001-0.029,0.001c-0.783,0.022-13.207,0.039-29.648,0.039c-16.446,0-28.872-0.017-29.652-0.039
		c-0.01,0-0.02-0.001-0.028-0.001c-2.41-0.101-2.68-0.239-2.838-3.966c0-1.935,1.233-3.185,3.142-3.185l0.142,0.001
		c0.246-0.001,3.137-0.001,7.514-0.002c0.753,0,1.422-0.479,1.665-1.191c3.006-8.809,3.507-22.299,3.537-29.571
		c-0.007-1.816-0.04-3.108-0.057-3.671c0.021-0.118,0.029-0.237,0.027-0.355c0-0.01-0.003-0.095-0.003-0.105
		c-0.036-0.944-0.812-1.691-1.756-1.692c-35.732-0.036-58.647-0.102-59.8-0.172c-4.056-0.298-8.357-2.789-8.27-8.882
		c0.306-20.284,0.081-69.74-0.04-96.309C3.54,20.068,3.501,11.638,3.526,11.039c0.068-1.658,2.784-7.171,8.28-7.288
		c4.806-0.103,139.201-0.233,156.351-0.233c4.094,0,8.329,2.698,8.329,7.213v8.318C176.488,41.594,176.492,102.346,176.486,126.809z
		"/>
	<path style="fill:#231F20;" d="M17.923,7.957c-0.16-0.048-3.942-1.123-7.084,1.229c-2.511,1.878-3.783,5.271-3.783,10.084v70.922
		c0,0.972,0.787,1.759,1.759,1.759s1.759-0.788,1.759-1.759V19.27c0-3.574,0.812-6.081,2.35-7.25
		c1.698-1.292,3.958-0.702,4.019-0.685c0.927,0.266,1.899-0.266,2.173-1.195C19.389,9.208,18.856,8.231,17.923,7.957z"/>
	<path style="fill:#231F20;" d="M14.388,127.439c-1.656,0-2.85-0.428-3.549-1.271c-1.072-1.296-0.943-3.494-0.804-4.231
		c0.186-0.95-0.432-1.872-1.382-2.062c-0.95-0.19-1.879,0.427-2.069,1.38c-0.035,0.173-0.821,4.271,1.525,7.132
		c1.398,1.706,3.511,2.57,6.278,2.57c0.972,0,1.759-0.788,1.759-1.759S15.36,127.439,14.388,127.439z"/>
	<path style="fill:#231F20;" d="M79.678,135.546c-0.972,0.025-1.738,0.833-1.713,1.804c0.005,0.195,0.471,19.672-2.971,32.947
		c-0.243,0.94,0.321,1.9,1.262,2.144c0.148,0.039,0.297,0.057,0.442,0.057c0.782,0,1.496-0.526,1.702-1.318
		c3.566-13.76,3.104-33.105,3.082-33.922C81.457,136.287,80.623,135.507,79.678,135.546z"/>
</g>
<g>
</g>
<g>
</g>
<g>
</g>
<g>
</g>
<g>
</g>
<g>
</g>
<g>
</g>
<g>
</g>
<g>
</g>
<g>
</g>
<g>
</g>
<g>
</g>
<g>
</g>
<g>
</g>
<g>
</g>
</svg>
