<?xml version="1.0" encoding="iso-8859-1"?>
<!-- Generator: Adobe Illustrator 18.0.0, SVG Export Plug-In . SVG Version: 6.00 Build 0)  -->
<!DOCTYPE svg PUBLIC "-//W3C//DTD SVG 1.1//EN" "http://www.w3.org/Graphics/SVG/1.1/DTD/svg11.dtd">
<svg version="1.1" id="Capa_1" xmlns="http://www.w3.org/2000/svg" xmlns:xlink="http://www.w3.org/1999/xlink" x="0px" y="0px"
	 viewBox="0 0 165.782 180.194" style="enable-background:new 0 0 165.782 180.194;" xml:space="preserve">
<g>
	<path style="fill:#231F20;" d="M161.443,82.497c1.207,0,2.258-0.424,3.038-1.224c1.285-1.318,1.308-3.124,1.3-3.42l-0.02-20.229
		c0.017-0.529-0.02-2.461-1.333-3.869c-0.799-0.855-1.882-1.32-3.137-1.344c-1.498-0.026-4.876-0.015-7.286-0.003
		c0.003-1.94,0.007-3.835,0.01-5.678l7.437-0.003c1.203-0.006,2.25-0.432,3.028-1.233c1.285-1.323,1.308-3.137,1.3-3.434
		l-0.02-20.226c0.017-0.528-0.02-2.453-1.331-3.858c-0.799-0.856-1.884-1.321-3.125-1.344c-1.491-0.036-4.832-0.023-7.241-0.007
		c0.001-1.088,0.002-1.758,0.001-1.917c-0.087-13.291-6.818-14.416-15.608-14.505c-3.347-0.037-29.872-0.06-55.374-0.078
		L69.177,0.087c-21.095-0.06-38.875-0.106-41.489-0.079c-8.683,0.055-15.355,1.137-15.644,14.01h-3.53
		C3.819,14.018,0,17.836,0,22.528c0,4.696,3.819,8.518,8.514,8.518h3.489l-0.083,47.897H8.514C3.819,78.944,0,82.762,0,87.455
		c0,4.696,3.819,8.517,8.514,8.517h3.376l-0.092,53.183H8.514c-4.694,0-8.514,3.821-8.514,8.518c0,4.69,3.819,8.507,8.514,8.507
		h3.271c0.31,12.641,6.958,13.734,15.597,13.817c3.477,0.038,32.033,0.061,55.371,0.073c26.562,0.078,45.76,0.124,52.67,0.124
		c1.322,0,2.246-0.002,2.708-0.005c8.797-0.056,15.536-1.154,15.67-14.463c0.001-0.386,0.04-20.881,0.086-46.652
		c2.506-0.003,6.17-0.006,7.556-0.006c1.203,0,2.252-0.423,3.032-1.223c1.291-1.324,1.313-3.146,1.306-3.444l-0.02-20.226
		c0.017-0.526-0.02-2.445-1.326-3.852c-0.797-0.857-1.88-1.326-3.135-1.354c-1.512-0.031-4.942-0.018-7.359-0.004
		c0.004-2.157,0.008-4.311,0.011-6.458L161.443,82.497z M161.234,56.83c0.066,0.153,0.12,0.447,0.116,0.64
		c-0.002,0.038-0.003,0.076-0.003,0.114l0.021,20.326c0,0.001-0.011,0.087-0.03,0.173l-7.376,0.01l0.037-21.271
		C156.346,56.809,159.538,56.787,161.234,56.83z M161.234,93.389c0.065,0.15,0.12,0.441,0.116,0.632
		c-0.002,0.038-0.003,0.076-0.003,0.114l0.021,20.322c0,0.005-0.012,0.103-0.033,0.196c-1.459,0.001-4.995,0.004-7.438,0.007
		l0.038-21.283C156.284,93.362,159.523,93.339,161.234,93.389z M161.202,21.045c0.002,0,0.016,0.001,0.033,0.003
		c0.065,0.15,0.119,0.442,0.115,0.633c-0.002,0.038-0.003,0.076-0.003,0.114l0.021,20.28c-0.002,0.07-0.016,0.161-0.034,0.238
		l-7.31,0.003c0.015-8.966,0.028-16.384,0.035-21.275C156.428,21.026,159.735,21.011,161.202,21.045z M8.514,26.632
		c-2.261,0-4.1-1.841-4.1-4.104c0-2.259,1.839-4.097,4.1-4.097h3.511l-0.014,8.2H8.514z M8.514,91.558c-2.261,0-4.1-1.84-4.1-4.103
		c0-2.26,1.839-4.098,4.1-4.098h3.398l-0.014,8.2H8.514z M4.414,157.672c0-2.263,1.839-4.104,4.1-4.104h3.276l-0.004,2.232
		l-0.011,5.965H8.514C6.253,161.765,4.414,159.929,4.414,157.672z M138.102,175.775c-0.459,0.004-1.372,0.005-2.679,0.005
		c-6.906,0-26.099-0.045-52.662-0.124c-23.333-0.012-51.872-0.034-55.333-0.073c-7.755-0.074-11.186-0.512-11.244-10.101
		l0.125-71.709c0-0.001,0-0.002,0-0.004l0.019-10.847l0.1-57.563l0.016-9.13c0-0.001,0-0.003,0-0.004l0.002-1.345v-0.383
		C16.54,5.312,19.443,4.474,27.727,4.422c0.552-0.007,1.753-0.01,3.5-0.01c6.68,0,21.271,0.041,37.938,0.089L83.076,4.54
		c24.005,0.017,51.986,0.04,55.335,0.078c7.75,0.078,11.18,0.517,11.241,10.112c0.001,0.281-0.001,2.124-0.006,5.169l-0.038,23.196
		c-0.075,43.532-0.219,121.851-0.222,122.598C149.291,175.3,145.858,175.727,138.102,175.775z"/>
	<path style="fill:#231F20;" d="M42.259,10.189H29.826c-0.057,0-0.113,0.003-0.169,0.007c-0.328,0.025-8.023,0.771-8.023,14.172
		v114.651c0,1.219,0.988,2.207,2.207,2.207s2.207-0.988,2.207-2.207V24.367c0-8.681,3.534-9.68,3.916-9.765h12.295
		c1.219,0,2.207-0.988,2.207-2.207S43.478,10.189,42.259,10.189z"/>
</g>
<g>
</g>
<g>
</g>
<g>
</g>
<g>
</g>
<g>
</g>
<g>
</g>
<g>
</g>
<g>
</g>
<g>
</g>
<g>
</g>
<g>
</g>
<g>
</g>
<g>
</g>
<g>
</g>
<g>
</g>
</svg>
