<?xml version="1.0" encoding="iso-8859-1"?>
<!-- Generator: Adobe Illustrator 18.0.0, SVG Export Plug-In . SVG Version: 6.00 Build 0)  -->
<!DOCTYPE svg PUBLIC "-//W3C//DTD SVG 1.1//EN" "http://www.w3.org/Graphics/SVG/1.1/DTD/svg11.dtd">
<svg version="1.1" id="Capa_1" xmlns="http://www.w3.org/2000/svg" xmlns:xlink="http://www.w3.org/1999/xlink" x="0px" y="0px"
	 viewBox="0 0 139.603 186.899" style="enable-background:new 0 0 139.603 186.899;" xml:space="preserve">
<g>
	<path style="fill:#231F20;" d="M136.833,160.637c-0.583-0.928-3.214-4.99-8.796-13.583c-4.532-7-8.111-12.529-8.812-13.578
		c-2.092-3.184-4.271-6.041-7.914-6.041c-1.633,0-3.372,0.566-5.423,1.754c-0.403,0.218-1.059,0.601-1.919,1.105l-0.826,0.483
		c-1.35,0.18-2.808,0.729-4.422,1.659c-0.462,0.259-1.26,0.728-2.333,1.359c-0.76,0.447-1.661,0.978-2.678,1.571
		c-1.316,0.767-2.421,1.413-3.283,1.922C74.07,121.295,46.545,79.401,39.497,56.558l4.895-2.877
		c2.177-1.272,3.763-2.201,4.453-2.623c1.09-0.651,1.967-1.306,2.671-1.995c1.645-0.964,2.878-1.688,3.461-2.047
		c2.715-1.626,4.199-3.311,4.67-5.301c0.659-2.784-0.874-5.514-2.647-8.305c-0.673-1.051-4.163-6.444-8.846-13.658
		c-4.585-7.093-8.148-12.587-8.864-13.665C37.179,2.879,34.981,0,31.321,0c-1.633,0-3.369,0.563-5.45,1.765
		c-0.479,0.271-1.347,0.781-2.495,1.46c-1.292,0.209-2.676,0.747-4.193,1.623c-0.583,0.323-1.711,0.987-3.245,1.892l-1.773,1.045
		c-2.766,1.615-4.312,2.528-4.984,2.944c-1.49,0.887-2.573,1.769-3.346,2.731c-0.239,0.091-0.469,0.205-0.688,0.343
		C1.511,16.12-3.8,31.502,4.1,62.113c8.418,32.653,32.571,79.222,65.707,104.303c18.45,13.973,35.64,20.482,41.448,20.483
		c1.049,0,1.863-0.192,2.414-0.541c0.091-0.052,0.18-0.107,0.266-0.167c1.348-0.179,2.817-0.734,4.453-1.679
		c0.787-0.444,2.568-1.491,5.006-2.927c0.953-0.562,1.805-1.06,2.535-1.486c1.156-0.677,2.013-1.178,2.465-1.458
		c1.414-0.847,2.482-1.706,3.252-2.618l0.016-0.009c1.475-0.866,2.583-1.517,3.106-1.843c2.721-1.627,4.208-3.312,4.68-5.3
		C140.104,166.103,138.583,163.393,136.833,160.637z M135.555,167.948c-0.2,0.845-1.155,1.783-2.87,2.809
		c-0.538,0.335-1.615,0.967-3.049,1.809l-0.333,0.195c-0.228,0.133-0.426,0.311-0.584,0.521c-0.46,0.609-1.261,1.258-2.406,1.944
		c-0.461,0.286-1.287,0.769-2.402,1.42c-0.733,0.429-1.59,0.93-2.548,1.494c-2.404,1.417-4.16,2.45-4.957,2.898
		c-1.36,0.786-2.486,1.195-3.345,1.216c-0.534,0.012-1.039,0.238-1.404,0.622c-0.078,0.011-0.207,0.023-0.401,0.023
		c-4.554-0.001-20.678-5.771-39.034-19.673C39.849,138.723,16.224,93.118,7.973,61.114C0.675,32.835,5.34,18.657,7.256,17.201
		c0.605-0.067,1.147-0.406,1.473-0.923c0.418-0.665,1.258-1.376,2.524-2.13c0.672-0.415,2.192-1.312,4.934-2.914l1.782-1.049
		c1.491-0.879,2.586-1.525,3.184-1.856c1.215-0.702,2.257-1.102,3.097-1.188c0.287-0.029,0.565-0.121,0.814-0.269
		c1.292-0.764,2.266-1.337,2.794-1.636C29.279,4.416,30.444,4,31.321,4c1.367,0,2.491,1.041,4.631,4.293
		c0.701,1.056,4.337,6.661,8.844,13.634c4.679,7.207,8.163,12.593,8.831,13.635c1.515,2.383,2.398,4.089,2.128,5.231
		c-0.201,0.846-1.154,1.785-2.852,2.803c-0.616,0.378-1.911,1.137-3.635,2.147c-0.157,0.093-0.302,0.206-0.429,0.338
		c-0.48,0.499-1.17,1.019-2.065,1.554c-0.696,0.426-2.259,1.34-4.402,2.593l-5.449,3.205l-0.284,0.148
		c-0.172,0.088-0.339,0.174-0.506,0.27c-0.794,0.454-1.178,1.39-0.933,2.271c6.662,23.938,36.309,68.977,53.575,85.122
		c0.651,0.608,1.627,0.714,2.391,0.257c0.891-0.531,2.448-1.449,4.559-2.678c1.024-0.598,1.93-1.131,2.693-1.581
		c1.037-0.609,1.808-1.063,2.278-1.327c1.279-0.737,2.361-1.141,3.215-1.196c0.309-0.021,0.608-0.112,0.875-0.269l1.207-0.706
		c0.807-0.473,1.42-0.833,1.849-1.065c1.427-0.826,2.594-1.244,3.47-1.244c1.353,0,2.463,1.029,4.579,4.251
		c0.693,1.037,4.266,6.556,8.791,13.545c3.931,6.051,8.046,12.392,8.77,13.543C134.949,165.131,135.823,166.819,135.555,167.948z"/>
	<path style="fill:#231F20;" d="M14.542,20.063c0.115-1.099-0.682-2.082-1.78-2.198c-1.091-0.106-2.082,0.681-2.198,1.78
		c-0.15,1.433-3.538,35.39,10.022,61.046c0.359,0.679,1.053,1.065,1.771,1.065c0.314,0,0.635-0.074,0.933-0.231
		c0.977-0.517,1.35-1.727,0.834-2.703C11.14,54.26,14.506,20.402,14.542,20.063z"/>
	<path style="fill:#231F20;" d="M110.701,172.208c-30.558-7.727-64.655-50.424-64.996-50.854c-0.688-0.868-1.945-1.011-2.81-0.327
		c-0.866,0.687-1.013,1.943-0.327,2.81c0.087,0.11,8.856,11.142,21.387,22.992c16.934,16.017,32.331,25.86,45.766,29.258
		c0.164,0.041,0.329,0.061,0.492,0.061c0.894,0,1.708-0.604,1.937-1.51C112.421,173.567,111.772,172.479,110.701,172.208z"/>
</g>
<g>
</g>
<g>
</g>
<g>
</g>
<g>
</g>
<g>
</g>
<g>
</g>
<g>
</g>
<g>
</g>
<g>
</g>
<g>
</g>
<g>
</g>
<g>
</g>
<g>
</g>
<g>
</g>
<g>
</g>
</svg>
