<?xml version="1.0" encoding="iso-8859-1"?>
<!-- Generator: Adobe Illustrator 18.0.0, SVG Export Plug-In . SVG Version: 6.00 Build 0)  -->
<!DOCTYPE svg PUBLIC "-//W3C//DTD SVG 1.1//EN" "http://www.w3.org/Graphics/SVG/1.1/DTD/svg11.dtd">
<svg version="1.1" id="Capa_1" xmlns="http://www.w3.org/2000/svg" xmlns:xlink="http://www.w3.org/1999/xlink" x="0px" y="0px"
	 viewBox="0 0 150.986 185.425" style="enable-background:new 0 0 150.986 185.425;" xml:space="preserve">
<g>
	<path style="fill:#231F20;" d="M75.505,39.802c-20.477,0-37.136,16.655-37.136,37.128s16.659,37.128,37.136,37.128
		c20.471,0,37.125-16.655,37.125-37.128S95.976,39.802,75.505,39.802z M75.505,110.058c-18.271,0-33.136-14.861-33.136-33.128
		s14.865-33.128,33.136-33.128c18.265,0,33.125,14.861,33.125,33.128S93.77,110.058,75.505,110.058z"/>
	<path style="fill:#231F20;" d="M75.506,0C33.872,0,0,35.014,0,78.051c0,21.734,8.861,42.654,24.29,57.374
		c0.233,0.232,4.608,4.72,10.148,10.399c12.468,12.786,31.311,32.107,34.728,35.542c2.432,2.444,4.039,4.059,6.211,4.059
		c2.078,0,3.754-1.526,6.316-4.016c3.922-3.812,43.225-44.172,44.86-45.854c15.528-14.741,24.434-35.701,24.434-57.505
		C150.986,35.014,117.126,0,75.506,0z M123.799,132.655c-0.019,0.018-0.057,0.057-0.076,0.075
		c-1.669,1.715-40.935,42.036-44.818,45.81c-1.037,1.009-2.968,2.885-3.528,2.885c-0.51,0-2.304-1.803-3.375-2.881
		c-3.403-3.419-22.237-22.732-34.7-35.513c-9.312-9.549-10.143-10.399-10.23-10.48C12.409,118.562,4,98.697,4,78.051
		C4,37.219,36.077,4,75.506,4c39.415,0,71.48,33.219,71.48,74.051C146.986,98.763,138.535,118.666,123.799,132.655z"/>
	<path style="fill:#231F20;" d="M75.495,22.02c-30.058,0-54.512,24.461-54.512,54.527c0,30.052,24.454,54.5,54.512,54.5
		c30.064,0,54.523-24.448,54.523-54.5C130.018,46.48,105.559,22.02,75.495,22.02z M75.495,127.047
		c-27.852,0-50.512-22.654-50.512-50.5c0-27.861,22.66-50.527,50.512-50.527c27.858,0,50.523,22.666,50.523,50.527
		C126.018,104.393,103.353,127.047,75.495,127.047z"/>
	<path style="fill:#231F20;" d="M24.605,42.174c0.65-0.892,0.455-2.143-0.437-2.794s-2.142-0.456-2.793,0.436
		c-0.244,0.333-24.172,33.692-6.29,62.433c0.379,0.609,1.032,0.943,1.7,0.943c0.361,0,0.726-0.098,1.055-0.302
		c0.938-0.584,1.225-1.817,0.642-2.755C2.036,73.705,24.377,42.486,24.605,42.174z"/>
	<path style="fill:#231F20;" d="M44.262,136.392c-0.781-0.781-2.048-0.781-2.828,0c-0.781,0.781-0.781,2.047,0,2.828l32.27,32.27
		c0.391,0.391,0.902,0.586,1.414,0.586s1.024-0.195,1.414-0.586c0.781-0.781,0.781-2.047,0-2.828L44.262,136.392z"/>
	<path style="fill:#231F20;" d="M59.545,93.993c-4.541-3.329-7.123-7.375-7.676-12.023c-1.152-9.685,6.699-19.108,6.778-19.203
		c0.713-0.842,0.609-2.103-0.232-2.817c-0.843-0.713-2.105-0.611-2.819,0.231c-0.37,0.437-9.047,10.812-7.702,22.238
		c0.684,5.804,3.808,10.783,9.286,14.8c0.356,0.262,0.771,0.388,1.181,0.388c0.615,0,1.223-0.283,1.614-0.817
		C60.628,95.898,60.436,94.646,59.545,93.993z"/>
</g>
<g>
</g>
<g>
</g>
<g>
</g>
<g>
</g>
<g>
</g>
<g>
</g>
<g>
</g>
<g>
</g>
<g>
</g>
<g>
</g>
<g>
</g>
<g>
</g>
<g>
</g>
<g>
</g>
<g>
</g>
</svg>
