<?xml version="1.0" encoding="iso-8859-1"?>
<!-- Generator: Adobe Illustrator 18.0.0, SVG Export Plug-In . SVG Version: 6.00 Build 0)  -->
<!DOCTYPE svg PUBLIC "-//W3C//DTD SVG 1.1//EN" "http://www.w3.org/Graphics/SVG/1.1/DTD/svg11.dtd">
<svg version="1.1" id="Capa_1" xmlns="http://www.w3.org/2000/svg" xmlns:xlink="http://www.w3.org/1999/xlink" x="0px" y="0px"
	 viewBox="0 0 612 792" style="enable-background:new 0 0 612 792;" xml:space="preserve">
<g>
	<path style="fill:#231F20;" d="M572.895,444.154c-3.696,0-6.696,3-6.696,6.696v101.6H44.951v-101.6c0-3.696-3-6.696-6.696-6.696
		c-3.696,0-6.696,3-6.696,6.696v108.297c0,3.696,3,6.696,6.696,6.696h534.643c3.696,0,6.696-3,6.696-6.696V450.85
		C579.591,447.151,576.594,444.154,572.895,444.154z"/>
	<path style="fill:#231F20;" d="M38.255,349.849c3.696,0,6.696-3,6.696-6.696v-101.6h521.251v101.6c0,3.696,3,6.696,6.696,6.696
		c3.696,0,6.696-3,6.696-6.696V234.856c0-3.696-3-6.696-6.696-6.696H38.255c-3.696,0-6.696,3-6.696,6.696v108.297
		C31.559,346.849,34.555,349.849,38.255,349.849z"/>
	<path style="fill:#231F20;" d="M83.966,461.233v51.5c0,3.435,2.786,6.217,6.217,6.217h430.782c3.432,0,6.217-2.786,6.217-6.217
		v-52.146c0-2.391-1.373-4.57-3.529-5.605c-5.089-2.441-8.377-8.551-8.377-15.558c0-2.447,0.408-4.848,1.215-7.128
		c0.924-2.615,0.007-5.524-2.25-7.135c-4.336-3.094-6.924-8.337-6.924-14.025c0-4.587,1.664-8.852,4.684-12.016
		c1.895-1.985,2.267-4.975,0.911-7.362c-1.543-2.725-2.36-5.812-2.36-8.926c0-6.957,3.937-13.248,9.796-15.656
		c2.859-1.175,4.419-4.269,3.666-7.265c-0.522-2.093-0.76-3.743-0.76-5.354c0-3.837,1.021-7.476,2.953-10.516
		c0.633-0.998,0.971-2.153,0.971-3.335v-59.421c0-3.435-2.786-6.217-6.217-6.217H90.187c-3.432,0-6.217,2.786-6.217,6.217v57.058
		c0,1.47,0.522,2.896,1.473,4.021c2.668,3.147,4.135,7.48,4.135,12.194c0,1.714-0.248,3.432-0.787,5.414
		c-0.81,2.993,0.706,6.127,3.559,7.346c5.839,2.498,9.763,8.732,9.763,15.515c0,3.074-0.804,6.043-2.391,8.826
		c-1.376,2.414-0.984,5.451,0.961,7.433c3.117,3.177,4.831,7.456,4.831,12.046c0,5.618-2.601,10.824-6.957,13.921
		c-2.273,1.617-3.191,4.547-2.25,7.172c0.83,2.314,1.252,4.738,1.252,7.198c0,7.537-3.8,13.948-9.448,15.947
		C85.627,456.247,83.966,458.598,83.966,461.233z M96.404,465.157c8.283-4.885,13.596-14.688,13.596-25.737
		c0-2.414-0.254-4.808-0.767-7.148c5.521-5.451,8.718-13.071,8.718-21.143c0-6.335-1.932-12.344-5.511-17.326
		c1.386-3.515,2.106-7.245,2.106-10.978c0-10.068-4.885-19.201-12.776-24.491c0.164-1.276,0.241-2.534,0.241-3.783
		c0-6.787-1.979-13.205-5.611-18.331v-48.718h418.344v51.5c-2.575,4.667-3.924,10.004-3.924,15.548c0,1.162,0.07,2.33,0.214,3.536
		c-7.982,5.233-12.917,14.46-12.917,24.742c0,3.8,0.72,7.573,2.099,11.106c-3.465,4.952-5.337,10.918-5.337,17.199
		c0,8.129,3.187,15.786,8.695,21.247c-0.489,2.303-0.737,4.661-0.737,7.044c0,10.212,4.567,19.479,11.906,24.692v42.4H96.404
		V465.157z"/>
	<path style="fill:#231F20;" d="M32.336,369.415h42.36c3.696,0,6.696-3,6.696-6.696s-3-6.696-6.696-6.696h-42.36
		c-3.696,0-6.696,3-6.696,6.696S28.639,369.415,32.336,369.415z"/>
	<path style="fill:#231F20;" d="M88.084,389.477c0-3.696-3-6.696-6.696-6.696H6.696c-3.696,0-6.696,3-6.696,6.696
		c0,3.696,3,6.696,6.696,6.696h74.692C85.084,396.173,88.084,393.173,88.084,389.477z"/>
	<path style="fill:#231F20;" d="M83.618,405.076H39.025c-3.696,0-6.696,3-6.696,6.696s3,6.696,6.696,6.696h44.59
		c3.696,0,6.696-3,6.696-6.696S87.314,405.076,83.618,405.076z"/>
	<path style="fill:#231F20;" d="M86.969,431.833c0-3.696-3-6.696-6.696-6.696H20.072c-3.696,0-6.696,3-6.696,6.696
		s3,6.696,6.696,6.696H80.27C83.97,438.529,86.969,435.53,86.969,431.833z"/>
	<path style="fill:#231F20;" d="M579.664,425.137h-42.36c-3.696,0-6.696,3-6.696,6.696s3,6.696,6.696,6.696h42.36
		c3.696,0,6.696-3,6.696-6.696S583.361,425.137,579.664,425.137z"/>
	<path style="fill:#231F20;" d="M605.304,398.379h-74.692c-3.696,0-6.696,3-6.696,6.696s3,6.696,6.696,6.696h74.692
		c3.696,0,6.696-3,6.696-6.696S609,398.379,605.304,398.379z"/>
	<path style="fill:#231F20;" d="M572.975,389.477c3.696,0,6.696-3,6.696-6.696c0-3.696-3-6.696-6.696-6.696h-44.59
		c-3.696,0-6.696,3-6.696,6.696c0,3.696,3,6.696,6.696,6.696H572.975z"/>
	<path style="fill:#231F20;" d="M531.727,362.719c0,3.696,3,6.696,6.696,6.696h60.198c3.696,0,6.696-3,6.696-6.696
		s-3-6.696-6.696-6.696h-60.198C534.727,356.023,531.727,359.023,531.727,362.719z"/>
	<path style="fill:#231F20;" d="M53.659,255.444v70.638c0,3.696,3,6.696,6.696,6.696s6.696-3,6.696-6.696v-70.638
		c0-3.696-3-6.696-6.696-6.696S53.659,251.744,53.659,255.444z"/>
	<path style="fill:#231F20;" d="M55.126,453.224v80.056c0,3.696,3,6.696,6.696,6.696s6.696-3,6.696-6.696v-80.056
		c0-3.696-3-6.696-6.696-6.696S55.126,449.528,55.126,453.224z"/>
</g>
</svg>
