<?xml version="1.0" encoding="iso-8859-1"?>
<!-- Generator: Adobe Illustrator 18.0.0, SVG Export Plug-In . SVG Version: 6.00 Build 0)  -->
<!DOCTYPE svg PUBLIC "-//W3C//DTD SVG 1.1//EN" "http://www.w3.org/Graphics/SVG/1.1/DTD/svg11.dtd">
<svg version="1.1" id="Capa_1" xmlns="http://www.w3.org/2000/svg" xmlns:xlink="http://www.w3.org/1999/xlink" x="0px" y="0px"
	 viewBox="0 0 188.568 178.78" style="enable-background:new 0 0 188.568 178.78;" xml:space="preserve">
<g>
	<path style="fill:#231F20;" d="M187.853,36.177c-0.68-0.95-1.772-1.524-3.352-1.758c-1.224-0.173-18.05-3.084-24.866-4.269
		c-0.9-0.154-0.995-0.17-1.506-1.219c-0.825-1.637-1.607-3.55-1.983-4.469l-0.059-0.145c-0.004-0.01-0.046-0.107-0.051-0.118
		c-0.637-1.484-1.387-2.341-3.917-3.199c-2.18-0.745-25.728-9.432-25.951-9.514c0,0-26.583-10.042-28.289-10.687
		c-1.401-0.563-2.389-0.794-3.445-0.794c-0.002,0-0.004,0-0.007,0C94.392,0.003,94.282,0,94.246,0c-0.05,0-0.102,0.001-0.153,0.004
		c0,0-0.001,0-0.001,0c-1.021,0-2.009,0.23-3.375,0.78c-1.74,0.66-28.304,10.697-28.302,10.696
		c-0.238,0.087-23.797,8.775-25.958,9.517c-2.56,0.864-3.31,1.73-3.972,3.309l-0.123,0.297c-0.402,0.971-1.15,2.778-1.92,4.333
		c-0.521,1.042-0.615,1.059-1.521,1.213c-7.831,1.362-23.688,4.103-24.879,4.271c-1.56,0.232-2.648,0.807-3.327,1.756
		c-1.009,1.41-0.689,3.155-0.584,3.729l0.1,0.548c4.912,27.011,23.48,94.429,89.642,136.966c1.364,0.875,2.713,1.318,4.12,1.352
		c0.081,0.006,0.135,0.011,0.283,0.004c0.041,0.002,0.085,0.003,0.113,0.003c0.059,0,0.117-0.002,0.174-0.007
		c1.4-0.035,2.788-0.49,4.126-1.353c66.171-42.54,84.735-109.958,89.646-136.969l0.099-0.544
		C188.54,39.333,188.861,37.585,187.853,36.177z M184.501,39.185l-0.1,0.55c-4.817,26.498-23.022,92.628-87.876,134.322
		c-0.749,0.483-1.448,0.718-2.135,0.718c-0.042,0-0.09,0-0.115,0c-0.017,0-0.036,0-0.053,0.001c-0.695-0.005-1.402-0.217-2.186-0.72
		C27.195,132.367,8.986,66.236,4.167,39.738l-0.101-0.553c-0.062-0.341-0.069-0.546-0.064-0.658c0.102-0.04,0.292-0.099,0.614-0.147
		c1.436-0.202,20.379-3.486,24.984-4.287c1.941-0.331,3.22-0.965,4.423-3.374c0.833-1.682,1.614-3.57,2.034-4.584l0.15-0.361
		c0.059-0.14,0.139-0.331,0.17-0.374c0.008-0.009,0.213-0.225,1.368-0.615c2.213-0.76,25.08-9.192,26.067-9.556
		c0,0,26.581-10.044,28.359-10.718c1.042-0.419,1.52-0.506,1.959-0.506c0,0,0.001,0,0.002,0c0.053,0.004,0.104,0,0.156-0.003
		l0.175,0.003c0.398,0,0.876,0.086,1.959,0.521c1.743,0.66,28.33,10.703,28.344,10.708c0.972,0.358,23.831,8.792,26.061,9.553
		c1.155,0.391,1.352,0.611,1.354,0.613c0.033,0.041,0.12,0.244,0.201,0.433l0.059,0.143c0.396,0.967,1.218,2.979,2.102,4.732
		c1.17,2.399,2.505,3.058,4.41,3.383c5.947,1.035,23.642,4.098,24.972,4.287c0.336,0.05,0.533,0.11,0.638,0.151
		C184.571,38.641,184.563,38.846,184.501,39.185z"/>
	<path style="fill:#231F20;" d="M91.104,160.663C32.787,113.503,17.27,50.488,17.12,49.856c-0.255-1.074-1.334-1.738-2.407-1.484
		c-1.075,0.255-1.739,1.333-1.485,2.407c0.153,0.644,15.94,64.942,75.36,112.994c0.371,0.299,0.815,0.445,1.257,0.445
		c0.583,0,1.161-0.254,1.556-0.742C92.096,162.617,91.963,161.358,91.104,160.663z"/>
</g>
<g>
</g>
<g>
</g>
<g>
</g>
<g>
</g>
<g>
</g>
<g>
</g>
<g>
</g>
<g>
</g>
<g>
</g>
<g>
</g>
<g>
</g>
<g>
</g>
<g>
</g>
<g>
</g>
<g>
</g>
</svg>
