<?xml version="1.0" encoding="iso-8859-1"?>
<!-- Generator: Adobe Illustrator 18.0.0, SVG Export Plug-In . SVG Version: 6.00 Build 0)  -->
<!DOCTYPE svg PUBLIC "-//W3C//DTD SVG 1.1//EN" "http://www.w3.org/Graphics/SVG/1.1/DTD/svg11.dtd">
<svg version="1.1" id="Capa_1" xmlns="http://www.w3.org/2000/svg" xmlns:xlink="http://www.w3.org/1999/xlink" x="0px" y="0px"
	 viewBox="0 0 187.103 143.445" style="enable-background:new 0 0 187.103 143.445;" xml:space="preserve">
<g>
	<path style="fill:#231F20;" d="M187.102,55.478c-0.107-4.492-0.579-10.703-0.953-13.687c-0.014-0.11-0.037-0.22-0.068-0.326
		c-1.296-4.317-10.106-36.356-11.106-39.995C174.735,0.602,173.946,0,173.046,0h-31.148c-0.051,0-0.1,0-0.15,0H13.907
		c-0.9,0-1.689,0.602-1.929,1.47C9.063,12.067,2.161,37.125,1.023,40.914c-0.032,0.105-0.055,0.212-0.068,0.321
		c-0.372,2.898-0.844,9.089-0.954,13.686C0,54.962,0,55.004,0.001,55.045c0.205,5.383,1.995,9.575,5.32,12.459
		c0.281,0.244,0.57,0.467,0.861,0.684c0.073,20.06,0.146,53.504-0.142,60.641c-0.529,13.359,11.907,14.598,12.032,14.609
		c0.058,0.005,0.116,0.007,0.174,0.007H28.58c1.104,0,2-0.896,2-2V84.671h42.066v56.773c0,1.104,0.896,2,2,2h94.055
		c0.024,0,0.049,0,0.073-0.001c5.003-0.184,14.465-3.36,14.465-14.067V66.569c2.38-2.771,3.688-6.441,3.862-10.966
		C187.103,55.562,187.103,55.52,187.102,55.478z M4.001,54.954c0.108-4.383,0.548-10.203,0.901-13.051
		C6.128,37.77,12.367,15.137,15.431,4h126.315c0.051,0,0.1,0,0.15,0h29.624c2.252,8.188,9.347,33.954,10.679,38.451
		c0.357,2.931,0.797,8.774,0.902,13.06c-0.172,4.161-1.479,7.339-3.874,9.46c-0.168,0.148-0.341,0.286-0.515,0.421
		c-0.083,0.064-0.164,0.131-0.249,0.193c-0.17,0.124-0.344,0.24-0.518,0.353c-0.069,0.045-0.139,0.089-0.209,0.132
		c-0.192,0.118-0.385,0.231-0.58,0.336c-0.03,0.016-0.06,0.031-0.09,0.047c-0.918,0.484-1.865,0.833-2.775,1.081
		c-0.016,0.004-0.031,0.009-0.047,0.013c-0.219,0.059-0.436,0.113-0.65,0.161c-0.031,0.007-0.062,0.013-0.093,0.02
		c-0.312,0.068-0.614,0.124-0.908,0.172c-0.117,0.019-0.236,0.041-0.35,0.057c-0.068,0.01-0.131,0.016-0.198,0.025
		c-0.205,0.027-0.409,0.051-0.602,0.07c-0.013,0.001-0.027,0.002-0.04,0.004c-1.72,0.161-2.938,0.033-2.967,0.029
		c-0.074-0.008-0.149-0.013-0.225-0.013c-0.021,0-0.043,0-0.064,0.001c-0.518,0.017-1.021,0.02-1.516,0.018
		c-0.267-0.001-0.525-0.01-0.785-0.017c-0.275-0.007-0.552-0.014-0.82-0.028c-0.265-0.014-0.522-0.034-0.78-0.054
		c-0.248-0.019-0.495-0.038-0.736-0.063c-0.263-0.027-0.519-0.06-0.773-0.094c-0.22-0.029-0.439-0.059-0.653-0.093
		c-0.26-0.042-0.514-0.089-0.765-0.138c-0.193-0.038-0.386-0.076-0.574-0.118c-0.255-0.057-0.505-0.119-0.75-0.184
		c-0.17-0.045-0.338-0.092-0.503-0.141c-0.247-0.073-0.488-0.151-0.724-0.232c-0.15-0.052-0.298-0.106-0.444-0.162
		c-0.234-0.089-0.464-0.182-0.688-0.28c-0.135-0.059-0.266-0.121-0.396-0.184c-0.219-0.105-0.435-0.212-0.642-0.326
		c-0.122-0.067-0.239-0.137-0.356-0.207c-0.201-0.12-0.4-0.241-0.589-0.37c-0.112-0.076-0.218-0.156-0.325-0.235
		c-0.18-0.133-0.359-0.266-0.528-0.408c-0.104-0.087-0.201-0.18-0.301-0.27c-0.158-0.144-0.315-0.288-0.461-0.439
		c-0.097-0.101-0.187-0.209-0.279-0.314c-0.134-0.152-0.268-0.302-0.391-0.462c-0.093-0.121-0.176-0.249-0.262-0.374
		c-0.107-0.155-0.218-0.307-0.316-0.468c-0.09-0.148-0.167-0.304-0.249-0.458c-0.08-0.15-0.165-0.296-0.238-0.452
		c-0.089-0.193-0.164-0.395-0.241-0.596c-0.05-0.128-0.107-0.251-0.152-0.382c-0.115-0.338-0.215-0.687-0.298-1.047
		c-0.202-0.878-0.966-1.513-1.865-1.55c-0.876-0.045-1.715,0.531-1.989,1.389c-0.138,0.433-0.3,0.837-0.474,1.227
		c-0.031,0.071-0.062,0.142-0.095,0.212c-0.181,0.385-0.375,0.754-0.587,1.098c-0.009,0.015-0.019,0.028-0.028,0.043
		c-3.259,5.237-9.908,5.866-12.896,5.866c-0.56,0-0.969-0.023-1.205-0.041c-0.025-0.002-0.046-0.004-0.066-0.005
		c-0.05-0.004-0.1-0.008-0.125-0.011c-0.086-0.009-0.174-0.01-0.26-0.009c-0.645,0.019-1.269,0.026-1.88,0.026
		c-0.358,0-0.701-0.01-1.048-0.017c-0.255-0.005-0.515-0.007-0.763-0.016c-0.397-0.014-0.779-0.037-1.161-0.061
		c-0.182-0.011-0.37-0.019-0.548-0.033c-0.399-0.03-0.783-0.068-1.164-0.109c-0.148-0.016-0.3-0.029-0.445-0.046
		c-0.387-0.046-0.76-0.1-1.128-0.157c-0.125-0.02-0.253-0.038-0.376-0.058c-0.368-0.062-0.722-0.132-1.07-0.205
		c-0.112-0.024-0.226-0.047-0.336-0.072c-0.342-0.078-0.672-0.162-0.994-0.251c-0.104-0.029-0.209-0.058-0.311-0.088
		c-0.314-0.093-0.617-0.191-0.911-0.295c-0.099-0.035-0.196-0.07-0.293-0.107c-0.283-0.106-0.556-0.218-0.82-0.335
		c-0.096-0.043-0.19-0.087-0.284-0.132c-0.25-0.118-0.493-0.241-0.724-0.37c-0.094-0.053-0.185-0.107-0.276-0.162
		c-0.217-0.129-0.428-0.261-0.628-0.4c-0.093-0.064-0.179-0.132-0.268-0.199c-0.184-0.138-0.364-0.277-0.532-0.424
		c-0.091-0.08-0.175-0.164-0.261-0.247c-0.15-0.143-0.299-0.286-0.435-0.437c-0.09-0.1-0.169-0.206-0.253-0.309
		c-0.116-0.144-0.235-0.286-0.339-0.437c-0.087-0.127-0.162-0.261-0.241-0.392c-0.083-0.138-0.172-0.274-0.247-0.417
		c-0.087-0.17-0.158-0.348-0.232-0.525c-0.049-0.117-0.106-0.229-0.149-0.349c-0.109-0.303-0.201-0.616-0.274-0.94
		c-0.204-0.914-1.015-1.563-1.951-1.564h-0.001c-0.936,0-1.747,0.649-1.951,1.562c-1.08,4.815-6.482,7.431-15.595,7.565h-0.146
		c-6.078-0.03-14.433-0.796-16.375-7.73c-0.242-0.865-1.031-1.46-1.925-1.46c-0.021,0-0.04,0-0.06,0.001
		c-0.919,0.027-1.7,0.676-1.896,1.574c-0.071,0.326-0.162,0.64-0.269,0.945c-0.046,0.13-0.107,0.252-0.159,0.378
		c-0.07,0.168-0.135,0.338-0.217,0.5c-0.079,0.157-0.175,0.305-0.265,0.455c-0.072,0.119-0.138,0.242-0.217,0.357
		c-0.113,0.165-0.241,0.322-0.368,0.479c-0.073,0.09-0.141,0.183-0.219,0.27c-0.146,0.165-0.308,0.322-0.471,0.478
		c-0.073,0.07-0.143,0.141-0.22,0.209c-0.18,0.16-0.374,0.311-0.573,0.46c-0.074,0.055-0.145,0.112-0.221,0.166
		c-0.214,0.15-0.44,0.294-0.674,0.433c-0.075,0.045-0.149,0.09-0.226,0.134c-0.246,0.138-0.504,0.27-0.771,0.397
		c-0.078,0.037-0.155,0.074-0.235,0.11c-0.276,0.125-0.564,0.243-0.862,0.355c-0.083,0.031-0.168,0.062-0.253,0.093
		c-0.305,0.109-0.62,0.212-0.946,0.309c-0.092,0.027-0.185,0.053-0.279,0.079c-0.33,0.092-0.668,0.179-1.019,0.259
		c-0.107,0.024-0.216,0.047-0.325,0.07c-0.349,0.074-0.705,0.145-1.074,0.208c-0.128,0.022-0.261,0.041-0.392,0.061
		c-0.362,0.057-0.729,0.11-1.11,0.156c-0.159,0.019-0.325,0.034-0.488,0.051c-0.366,0.039-0.735,0.076-1.117,0.105
		c-0.207,0.016-0.423,0.026-0.635,0.038c-0.354,0.021-0.708,0.043-1.075,0.057c-0.289,0.01-0.591,0.013-0.889,0.019
		c-0.309,0.006-0.613,0.015-0.93,0.015c-0.616,0.001-1.245-0.006-1.895-0.026c-0.086-0.001-0.173,0-0.259,0.009
		c-0.03,0.003-0.084,0.008-0.149,0.013c-0.009,0.001-0.018,0.001-0.028,0.002c-0.234,0.018-0.654,0.042-1.225,0.042
		c-3.105,0-9.977-0.675-13.133-6.276c-0.015-0.027-0.032-0.053-0.047-0.08c-0.202-0.366-0.385-0.757-0.554-1.166
		c-0.031-0.075-0.06-0.153-0.09-0.23c-0.162-0.418-0.312-0.851-0.436-1.315c-0.238-0.891-1.027-1.527-1.979-1.484
		c-0.923,0.021-1.712,0.672-1.908,1.574c-0.08,0.365-0.177,0.719-0.289,1.062c-0.048,0.147-0.11,0.286-0.165,0.429
		c-0.071,0.189-0.139,0.381-0.22,0.563c-0.078,0.173-0.17,0.337-0.258,0.503c-0.073,0.14-0.142,0.284-0.221,0.419
		c-0.105,0.179-0.225,0.348-0.342,0.518c-0.077,0.112-0.149,0.228-0.231,0.337c-0.131,0.174-0.275,0.338-0.418,0.503
		c-0.083,0.095-0.162,0.193-0.249,0.286c-0.153,0.163-0.319,0.317-0.485,0.47c-0.092,0.085-0.181,0.172-0.277,0.254
		c-0.173,0.148-0.357,0.287-0.542,0.425c-0.105,0.078-0.207,0.157-0.316,0.232c-0.188,0.13-0.387,0.253-0.588,0.374
		c-0.122,0.073-0.242,0.147-0.368,0.217c-0.2,0.111-0.408,0.216-0.619,0.319c-0.144,0.07-0.288,0.139-0.436,0.205
		c-0.207,0.092-0.421,0.178-0.638,0.262c-0.17,0.066-0.342,0.13-0.517,0.191c-0.209,0.073-0.424,0.142-0.642,0.208
		c-0.202,0.061-0.407,0.12-0.616,0.175c-0.207,0.055-0.417,0.107-0.631,0.157c-0.238,0.055-0.48,0.105-0.726,0.152
		c-0.202,0.039-0.406,0.077-0.615,0.112c-0.274,0.045-0.554,0.085-0.838,0.121c-0.198,0.026-0.396,0.052-0.598,0.073
		c-0.307,0.033-0.622,0.059-0.94,0.082c-0.198,0.015-0.394,0.03-0.595,0.042c-0.328,0.018-0.666,0.028-1.005,0.036
		c-0.211,0.005-0.42,0.013-0.636,0.014c-0.506,0.004-1.019,0.001-1.548-0.015c-0.092-0.002-0.181,0-0.271,0.01
		c-0.073,0.007-0.286,0.025-0.593,0.038c-0.034,0.001-0.061,0.003-0.096,0.004c-0.075,0.003-0.163,0.004-0.248,0.006
		c-0.058,0.001-0.114,0.003-0.177,0.003c-0.094,0.001-0.198,0-0.301-0.001c-0.067,0-0.134-0.001-0.206-0.002
		c-0.114-0.002-0.236-0.007-0.359-0.012c-0.068-0.003-0.138-0.006-0.209-0.009c-0.139-0.007-0.282-0.016-0.43-0.027
		c-0.06-0.005-0.122-0.01-0.184-0.015c-0.167-0.014-0.337-0.03-0.514-0.05c-0.04-0.004-0.081-0.01-0.122-0.015
		c-1.552-0.187-3.428-0.617-5.207-1.556c-0.016-0.009-0.032-0.017-0.048-0.025c-0.233-0.124-0.465-0.259-0.693-0.402
		c-0.467-0.292-0.926-0.614-1.36-0.99C5.498,62.363,4.173,59.157,4.001,54.954z M168.655,139.445H76.646V82.671c0-1.104-0.896-2-2-2
		H28.58c-1.104,0-2,0.896-2,2v56.773h-8.234c-0.911-0.101-8.674-1.232-8.309-10.457c0.269-6.666,0.235-34.879,0.153-58.651
		c2.479,0.918,4.88,1.19,6.58,1.241c0.017,0,0.034,0.001,0.05,0.002c0.186,0.005,0.359,0.008,0.527,0.008
		c0.039,0,0.084,0.002,0.122,0.002c0.03,0,0.054-0.001,0.083-0.001c0.083,0,0.16-0.001,0.238-0.003
		c0.128-0.002,0.246-0.005,0.359-0.009c0.033-0.001,0.067-0.002,0.099-0.003c0.147-0.006,0.282-0.013,0.398-0.02
		c0,0,0.001,0,0.002,0c0.12-0.008,0.229-0.016,0.315-0.024c10.906,0.316,16.091-3.403,18.571-7.249
		c0.151,0.233,0.318,0.441,0.478,0.659c0.105,0.145,0.204,0.294,0.315,0.435c0.156,0.197,0.321,0.377,0.483,0.562
		c0.149,0.17,0.296,0.342,0.453,0.505c0.139,0.144,0.283,0.277,0.426,0.414c0.204,0.195,0.41,0.388,0.626,0.572
		c0.101,0.085,0.203,0.166,0.305,0.248c0.277,0.224,0.561,0.44,0.856,0.646c0.037,0.026,0.074,0.05,0.112,0.076
		c1.323,0.908,2.819,1.655,4.498,2.209c2.58,0.851,5.065,1.105,6.839,1.157c0.073,0.002,0.145,0.005,0.215,0.007
		c0.028,0.001,0.054,0.001,0.082,0.001c0.158,0.003,0.318,0.006,0.453,0.006c0.774,0,1.341-0.036,1.666-0.064
		c0.615,0.017,1.212,0.025,1.792,0.025c0.026,0,0.051-0.001,0.078-0.001c0.081,0,0.157-0.003,0.237-0.003
		c0.524-0.003,1.041-0.011,1.546-0.028c0.118-0.004,0.23-0.011,0.347-0.016c0.458-0.018,0.911-0.04,1.352-0.07
		c0.136-0.009,0.268-0.022,0.403-0.033c0.411-0.032,0.819-0.066,1.216-0.108c0.146-0.016,0.287-0.034,0.431-0.051
		c0.375-0.044,0.746-0.091,1.107-0.144c0.15-0.022,0.297-0.048,0.445-0.072c0.343-0.056,0.682-0.114,1.012-0.178
		c0.153-0.03,0.302-0.062,0.452-0.094c0.313-0.066,0.622-0.135,0.923-0.21c0.154-0.038,0.304-0.078,0.455-0.118
		c0.285-0.076,0.565-0.155,0.84-0.239c0.153-0.047,0.304-0.095,0.454-0.144c0.258-0.085,0.511-0.173,0.759-0.266
		c0.151-0.056,0.302-0.113,0.45-0.172c0.233-0.093,0.46-0.191,0.684-0.29c0.148-0.066,0.296-0.132,0.44-0.201
		c0.21-0.101,0.413-0.207,0.615-0.313c0.144-0.076,0.288-0.152,0.427-0.231c0.188-0.108,0.368-0.221,0.548-0.334
		c0.138-0.087,0.278-0.173,0.411-0.263c0.169-0.115,0.328-0.236,0.489-0.357c0.129-0.097,0.262-0.192,0.386-0.293
		c0.151-0.123,0.293-0.253,0.437-0.382c0.12-0.107,0.244-0.211,0.358-0.321c0.139-0.135,0.267-0.277,0.397-0.418
		c0.105-0.112,0.216-0.221,0.315-0.337c0.159-0.184,0.304-0.378,0.449-0.571c0.057-0.076,0.121-0.147,0.176-0.224
		c4.486,6.128,13.499,6.437,17.46,6.453c0.088,0,0.16,0,0.243,0c0.118,0,0.248,0.001,0.355,0.001h0.159h0.174
		c1.061-0.016,2.053-0.07,3.003-0.147c1.128-0.091,2.181-0.222,3.162-0.389c0.272-0.046,0.542-0.094,0.803-0.146
		c5.561-1.1,8.719-3.372,10.495-5.708c0.097,0.134,0.208,0.259,0.311,0.389c0.105,0.132,0.205,0.268,0.316,0.396
		c0.115,0.132,0.242,0.256,0.364,0.383c0.116,0.122,0.229,0.247,0.352,0.364c0.125,0.12,0.261,0.233,0.393,0.349
		c0.133,0.116,0.262,0.235,0.402,0.347c0.135,0.109,0.28,0.212,0.422,0.316c0.149,0.11,0.296,0.221,0.452,0.326
		c0.146,0.098,0.299,0.191,0.45,0.286c0.166,0.103,0.331,0.206,0.504,0.305c0.155,0.088,0.316,0.172,0.477,0.256
		c0.182,0.095,0.366,0.19,0.555,0.281c0.165,0.079,0.335,0.154,0.506,0.229c0.198,0.087,0.399,0.172,0.604,0.254
		c0.175,0.07,0.354,0.137,0.536,0.203c0.214,0.078,0.432,0.154,0.654,0.227c0.186,0.061,0.374,0.12,0.565,0.177
		c0.23,0.069,0.464,0.135,0.702,0.198c0.197,0.053,0.395,0.104,0.596,0.153c0.245,0.059,0.495,0.114,0.747,0.168
		c0.208,0.044,0.416,0.089,0.629,0.129c0.26,0.05,0.526,0.094,0.793,0.138c0.219,0.036,0.437,0.073,0.661,0.106
		c0.275,0.04,0.558,0.074,0.841,0.109c0.229,0.028,0.455,0.057,0.688,0.082c0.293,0.03,0.596,0.054,0.898,0.079
		c0.235,0.019,0.467,0.041,0.708,0.057c0.319,0.021,0.648,0.035,0.975,0.05c0.235,0.011,0.466,0.025,0.706,0.033
		c0.368,0.012,0.748,0.015,1.126,0.02c0.211,0.002,0.415,0.009,0.629,0.009c0.013,0,0.026,0,0.039,0c0.58,0,1.179-0.008,1.794-0.025
		c0.324,0.028,0.888,0.064,1.66,0.064c0.078,0,0.176-0.003,0.263-0.004c0.086-0.001,0.171-0.002,0.261-0.004
		c0.051-0.001,0.102-0.003,0.154-0.004c1.713-0.045,4.116-0.279,6.632-1.071c2.127-0.669,3.978-1.638,5.547-2.864
		c0.034-0.026,0.068-0.052,0.102-0.078c0.281-0.224,0.551-0.457,0.812-0.698c0.088-0.081,0.178-0.158,0.265-0.242
		c0.215-0.208,0.418-0.425,0.619-0.645c0.115-0.125,0.233-0.243,0.344-0.373c0.191-0.224,0.367-0.459,0.544-0.694
		c0.094-0.125,0.196-0.237,0.288-0.367c0.871,1.376,2.099,2.741,3.805,3.919c0.087,0.06,0.167,0.124,0.257,0.183
		c0.081,0.053,0.171,0.102,0.253,0.154c2.128,1.346,4.95,2.404,8.719,2.859c0.125,0.015,0.263,0.023,0.39,0.036
		c0.439,0.048,0.88,0.094,1.345,0.125c0.262,0.017,0.543,0.021,0.813,0.034c0.349,0.016,0.689,0.037,1.052,0.043
		c0.199,0.003,0.414-0.005,0.618-0.004c0.453,0.001,0.902,0.005,1.376-0.01c0.312,0.03,0.839,0.066,1.558,0.066
		c0.544,0,1.285-0.031,2.131-0.115c0.159-0.015,0.321-0.033,0.486-0.052c0.119-0.015,0.234-0.028,0.357-0.045
		c0.352-0.048,0.716-0.107,1.09-0.177c0.014-0.003,0.027-0.005,0.041-0.008c1.71-0.324,3.609-0.901,5.434-1.912v59.546
		C179.239,138.711,169.421,139.405,168.655,139.445z"/>
	<path style="fill:#231F20;" d="M161.226,81.031h-60.798c-1.104,0-2,0.896-2,2v30.229c0,1.104,0.896,2,2,2h60.798
		c1.104,0,2-0.896,2-2V83.031C163.226,81.926,162.331,81.031,161.226,81.031z M159.226,111.259h-56.798V85.031h56.798V111.259z"/>
	<path style="fill:#231F20;" d="M17.525,60.312c0.031,0.001,0.062,0.002,0.093,0.002c1.062,0,1.947-0.837,1.996-1.909
		c0.05-1.104-0.804-2.039-1.907-2.089c-1.729-0.079-2.932-0.638-3.679-1.711c-1.964-2.823-0.74-8.608-0.104-10.598
		c0.014-0.042,0.026-0.085,0.037-0.129l8.393-33.573c0.268-1.071-0.384-2.157-1.455-2.425c-1.068-0.264-2.157,0.383-2.426,1.456
		l-8.377,33.511c-0.378,1.197-2.716,9.194,0.644,14.035C11.76,58.352,13.766,60.141,17.525,60.312z"/>
	<path style="fill:#231F20;" d="M20.742,132.346c-3.542-0.59-3.073-5.176-3.009-5.689c0.012-0.088,0.018-0.176,0.018-0.265V76.5
		c0-1.104-0.896-2-2-2s-2,0.896-2,2v49.768c-0.369,3.124,0.485,9.05,6.333,10.024c0.111,0.019,0.223,0.028,0.331,0.028
		c0.961,0,1.808-0.693,1.971-1.672C22.567,133.558,21.831,132.528,20.742,132.346z"/>
	<path style="fill:#231F20;" d="M81.964,81.027c-1.104,0-2,0.896-2,2v49.427c0,1.104,0.896,2,2,2s2-0.896,2-2V83.027
		C83.964,81.923,83.068,81.027,81.964,81.027z"/>
</g>
<g>
</g>
<g>
</g>
<g>
</g>
<g>
</g>
<g>
</g>
<g>
</g>
<g>
</g>
<g>
</g>
<g>
</g>
<g>
</g>
<g>
</g>
<g>
</g>
<g>
</g>
<g>
</g>
<g>
</g>
</svg>
