<?xml version="1.0" encoding="iso-8859-1"?>
<!-- Generator: Adobe Illustrator 18.0.0, SVG Export Plug-In . SVG Version: 6.00 Build 0)  -->
<!DOCTYPE svg PUBLIC "-//W3C//DTD SVG 1.1//EN" "http://www.w3.org/Graphics/SVG/1.1/DTD/svg11.dtd">
<svg version="1.1" id="Capa_1" xmlns="http://www.w3.org/2000/svg" xmlns:xlink="http://www.w3.org/1999/xlink" x="0px" y="0px"
	 viewBox="0 0 177.898 177.888" style="enable-background:new 0 0 177.898 177.888;" xml:space="preserve">
<g>
	<path style="fill:#231F20;" d="M164.672,42.335c-12.449-20.228-32.029-34.398-55.136-39.9C102.743,0.819,95.791,0,88.873,0
		C69.212,0,49.797,6.694,34.206,18.851C18.144,31.374,7.154,48.487,2.427,68.342c-11.353,47.7,18.213,95.747,65.905,107.104
		c6.797,1.62,13.755,2.441,20.68,2.441c0.001,0,0.002,0,0.003,0c19.655,0,39.065-6.696,54.655-18.855
		c16.06-12.526,27.048-29.64,31.774-49.493C180.947,86.432,177.122,62.565,164.672,42.335z M171.554,108.613
		c-9.152,38.434-43.095,65.276-82.542,65.274c-6.613,0-13.259-0.785-19.753-2.332C23.712,160.709-4.523,114.823,6.318,69.269
		C15.469,30.839,49.416,4,88.873,4c6.607,0,13.248,0.783,19.737,2.326c22.066,5.254,40.766,18.787,52.655,38.105
		C173.155,63.751,176.809,86.545,171.554,108.613z"/>
	<path style="fill:#231F20;" d="M143.711,30.051c-0.833-0.612-1.999-0.486-2.684,0.291l-21.227,24.098
		c-0.397,0.451-0.57,1.058-0.472,1.651c0.09,0.541,0.397,1.018,0.847,1.324c0.844,0.674,5.495,5.228,7.312,8.476
		c2.348,4.181,3.815,8.158,4.027,10.911c0.043,0.562,0.322,1.081,0.769,1.426c0.353,0.274,0.785,0.42,1.226,0.42
		c0.115,0,0.231-0.01,0.347-0.03l32.24-5.67c1.053-0.185,1.774-1.167,1.637-2.227c-0.989-7.62-3.398-14.887-7.161-21.596
		C156.363,41.587,150.69,35.169,143.711,30.051z M135.184,74.323c-0.829-3.955-2.908-8.075-4.206-10.387
		c-1.578-2.823-4.79-6.327-6.869-8.335l18.692-21.221c5.85,4.584,10.647,10.193,14.28,16.699c3.2,5.707,5.352,11.843,6.407,18.267
		L135.184,74.323z"/>
	<path style="fill:#231F20;" d="M98.503,48.744c-3.157-0.751-6.388-1.132-9.604-1.132c-19.192,0-35.708,13.059-40.162,31.757
		c-2.556,10.742-0.777,21.833,5.007,31.232c5.785,9.399,14.886,15.982,25.625,18.536c3.159,0.753,6.394,1.135,9.612,1.135
		c19.188,0,35.701-13.056,40.156-31.751c2.558-10.742,0.779-21.834-5.006-31.236C118.346,57.883,109.244,51.299,98.503,48.744z
		 M125.247,97.594c-4.024,16.885-18.938,28.678-36.266,28.678c-2.907,0-5.829-0.345-8.686-1.026
		c-9.7-2.307-17.92-8.252-23.145-16.741c-5.225-8.489-6.831-18.507-4.523-28.209C56.652,63.407,71.567,51.612,88.9,51.612
		c2.904,0,5.824,0.344,8.678,1.023c9.701,2.307,17.922,8.254,23.148,16.746C125.951,77.874,127.557,87.893,125.247,97.594z"/>
	<path style="fill:#231F20;" d="M88.937,77.345c-6.396,0-11.6,5.204-11.6,11.601c0,6.392,5.203,11.592,11.6,11.592
		c6.397,0,11.602-5.2,11.602-11.592C100.538,82.549,95.334,77.345,88.937,77.345z M88.937,96.538c-4.19,0-7.6-3.406-7.6-7.592
		c0-4.191,3.409-7.601,7.6-7.601c4.191,0,7.602,3.41,7.602,7.601C96.538,93.132,93.128,96.538,88.937,96.538z"/>
	<path style="fill:#231F20;" d="M23.997,48.204c-0.92-0.609-2.161-0.355-2.769,0.565c-0.245,0.371-24.235,37.548-0.677,78.465
		c0.37,0.643,1.043,1.002,1.735,1.002c0.339,0,0.682-0.086,0.996-0.267c0.957-0.551,1.286-1.774,0.735-2.731
		C1.72,86.511,24.335,51.325,24.566,50.974C25.173,50.052,24.919,48.812,23.997,48.204z"/>
	<path style="fill:#231F20;" d="M68.359,68.327c0.744-0.814,0.688-2.078-0.125-2.823c-0.814-0.747-2.08-0.691-2.826,0.123
		c-7.426,8.102-16.584,28.177,1.913,46.161c0.389,0.378,0.892,0.566,1.395,0.566c0.521,0,1.042-0.203,1.434-0.606
		c0.771-0.792,0.753-2.058-0.039-2.828C49.803,89.177,67.591,69.169,68.359,68.327z"/>
</g>
<g>
</g>
<g>
</g>
<g>
</g>
<g>
</g>
<g>
</g>
<g>
</g>
<g>
</g>
<g>
</g>
<g>
</g>
<g>
</g>
<g>
</g>
<g>
</g>
<g>
</g>
<g>
</g>
<g>
</g>
</svg>
