<?xml version="1.0" encoding="iso-8859-1"?>
<!-- Generator: Adobe Illustrator 18.0.0, SVG Export Plug-In . SVG Version: 6.00 Build 0)  -->
<!DOCTYPE svg PUBLIC "-//W3C//DTD SVG 1.1//EN" "http://www.w3.org/Graphics/SVG/1.1/DTD/svg11.dtd">
<svg version="1.1" id="Capa_1" xmlns="http://www.w3.org/2000/svg" xmlns:xlink="http://www.w3.org/1999/xlink" x="0px" y="0px"
	 viewBox="0 0 182.358 141.914" style="enable-background:new 0 0 182.358 141.914;" xml:space="preserve">
<g>
	<path style="fill:#231F20;" d="M182.355,127.473v-0.122c0,0-0.074-111.342-0.074-116.298c0-8.724-7.646-11.051-12.165-11.051
		l-50.43,0.002C119.645,0.001,119.603,0,119.561,0H62.315c-0.042,0-0.084,0.001-0.126,0.004L12.447,0.005l-0.213-0.003
		c-4.517,0-12.16,2.327-12.16,11.051C0.074,16.009,0,127.351,0,127.351c0,0.07,0.004,0.141,0.011,0.211
		c-0.033,2.61,0.418,7.337,3.665,10.712c1.894,2.275,4.323,3.491,7.243,3.616c0.736,0.023,72.134,0.024,80.272,0.024
		s79.535-0.001,80.264-0.025c2.905-0.123,5.333-1.341,7.216-3.617C181.965,134.85,182.394,130.024,182.355,127.473z
		 M178.355,127.503c0.024,1.591-0.182,5.559-2.607,8.037c-0.042,0.043-0.083,0.089-0.121,0.136c-1.17,1.436-2.55,2.141-4.303,2.216
		c-0.905,0.015-40.997,0.022-80.133,0.022c-39.15,0-79.257-0.008-80.123-0.021c-1.766-0.075-3.19-0.803-4.355-2.223
		c-0.036-0.045-0.075-0.088-0.115-0.129c-2.425-2.481-2.616-6.442-2.585-8.068c0-0.092-0.005-0.178-0.013-0.256
		C4.003,122.87,4.074,15.908,4.074,11.053c0-6.542,6.246-7.051,8.16-7.051l50.081,0.002c0.042,0,0.084-0.001,0.126-0.004h56.993
		c0.042,0.003,0.084,0.004,0.126,0.004h50.411c0.023,0,0.122-0.001,0.145-0.002c7.576,0,8.165,5.396,8.165,7.051
		c0,4.956,0.074,116.3,0.074,116.299V127.503z"/>
	<path style="fill:#231F20;" d="M166.019,33.781H16.337c-1.104,0-2,0.896-2,2v86.701c0,1.104,0.896,2,2,2h149.682
		c1.104,0,2-0.896,2-2V35.781C168.019,34.677,167.123,33.781,166.019,33.781z M164.019,120.482H18.337V37.781h145.682V120.482z"/>
	<path style="fill:#231F20;" d="M24.371,115.21c1.104,0,2-0.896,2-2V45.187c0-1.104-0.896-2-2-2s-2,0.896-2,2v68.023
		C22.371,114.314,23.267,115.21,24.371,115.21z"/>
	<path style="fill:#231F20;" d="M16.908,21.209h17.467c1.104,0,2-0.896,2-2s-0.896-2-2-2H16.908c-1.104,0-2,0.896-2,2
		S15.804,21.209,16.908,21.209z"/>
	<path style="fill:#231F20;" d="M42.844,21.209h17.467c1.104,0,2-0.896,2-2s-0.896-2-2-2H42.844c-1.104,0-2,0.896-2,2
		S41.739,21.209,42.844,21.209z"/>
	<path style="fill:#231F20;" d="M122.768,21.209h41.814c1.104,0,2-0.896,2-2s-0.896-2-2-2h-41.814c-1.104,0-2,0.896-2,2
		S121.663,21.209,122.768,21.209z"/>
</g>
<g>
</g>
<g>
</g>
<g>
</g>
<g>
</g>
<g>
</g>
<g>
</g>
<g>
</g>
<g>
</g>
<g>
</g>
<g>
</g>
<g>
</g>
<g>
</g>
<g>
</g>
<g>
</g>
<g>
</g>
</svg>
