<?xml version="1.0" encoding="iso-8859-1"?>
<!-- Generator: Adobe Illustrator 18.0.0, SVG Export Plug-In . SVG Version: 6.00 Build 0)  -->
<!DOCTYPE svg PUBLIC "-//W3C//DTD SVG 1.1//EN" "http://www.w3.org/Graphics/SVG/1.1/DTD/svg11.dtd">
<svg version="1.1" id="Capa_1" xmlns="http://www.w3.org/2000/svg" xmlns:xlink="http://www.w3.org/1999/xlink" x="0px" y="0px"
	 viewBox="0 0 184.477 119.22" style="enable-background:new 0 0 184.477 119.22;" xml:space="preserve">
<g>
	<path style="fill:#231F20;" d="M141.519,0.002c-0.547-0.025-1.067,0.185-1.458,0.562c-0.39,0.377-0.609,0.896-0.609,1.437V45.79
		c0,0.573,0.246,1.119,0.676,1.499l30.283,26.75c0.381,0.336,0.853,0.501,1.323,0.501c0.552,0,1.101-0.227,1.495-0.671
		c7.254-8.154,11.248-18.623,11.248-29.478C184.477,20.311,165.608,0.813,141.519,0.002z M171.529,69.69l-28.077-24.802V4.12
		c20.923,1.745,37.025,19.053,37.025,40.271C180.477,53.603,177.313,62.51,171.529,69.69z"/>
	<path style="fill:#231F20;" d="M133.49,51.547V7.751c0-0.543-0.221-1.062-0.61-1.438c-0.391-0.378-0.941-0.588-1.459-0.561
		C107.369,6.591,88.53,26.084,88.53,50.13c0,10.718,3.814,20.562,10.155,28.247l-3.569,6.941c-3.247-0.753-6.702-0.523-9.854,0.661
		L62.291,68.192c0.205-1.058,0.309-2.124,0.309-3.184c0-9.467-7.705-17.168-17.176-17.168c-9.467,0-17.168,7.701-17.168,17.168
		c0,0.558,0.03,1.119,0.092,1.692L1.012,82.233c-0.461,0.263-0.8,0.697-0.94,1.209s-0.072,1.058,0.19,1.52l5.232,9.197
		c0.545,0.96,1.766,1.294,2.727,0.75l27.595-15.683c2.833,1.91,6.195,2.949,9.608,2.949c2.939,0,5.793-0.74,8.336-2.151
		l21.289,16.485c-0.615,1.795-0.926,3.65-0.926,5.537c0,9.47,7.702,17.174,17.17,17.174c9.464,0,17.164-7.704,17.164-17.174
		c0-2.592-0.589-5.149-1.711-7.461l3.291-6.399c6.703,4.056,14.556,6.394,22.946,6.394c11.839,0,22.976-4.598,31.358-12.946
		c0.392-0.39,0.604-0.925,0.588-1.477c-0.017-0.553-0.261-1.073-0.675-1.439L133.49,51.547z M106.681,85.965l-3.967,7.715
		c-0.31,0.602-0.294,1.317,0.04,1.905c1.114,1.955,1.703,4.189,1.703,6.461c0,7.264-5.905,13.174-13.164,13.174
		c-7.262,0-13.17-5.91-13.17-13.174c0-1.846,0.391-3.658,1.161-5.388c0.375-0.842,0.126-1.83-0.603-2.395L55.119,76.018
		c-0.359-0.278-0.792-0.419-1.225-0.419c-0.389,0-0.777,0.112-1.115,0.34c-2.178,1.463-4.722,2.236-7.355,2.236
		c-2.968,0-5.888-1.026-8.223-2.892c-0.64-0.511-1.527-0.579-2.236-0.176L7.983,90.442l-3.255-5.721l26.788-15.22
		c0.743-0.423,1.136-1.271,0.977-2.111c-0.159-0.842-0.236-1.621-0.236-2.382c0-7.261,5.907-13.168,13.168-13.168
		c7.266,0,13.176,5.907,13.176,13.168c0,1.145-0.16,2.304-0.477,3.444c-0.217,0.783,0.062,1.618,0.703,2.115l24.904,19.283
		c0.59,0.455,1.38,0.547,2.056,0.238c3.082-1.408,6.567-1.588,9.709-0.508c0.936,0.32,1.974-0.092,2.428-0.978l3.629-7.058
		c0.173,0.173,0.36,0.328,0.535,0.497c0.462,0.447,0.931,0.885,1.412,1.312c0.341,0.304,0.684,0.603,1.034,0.896
		c0.446,0.373,0.903,0.732,1.364,1.088C106.161,85.544,106.412,85.767,106.681,85.965z M132.983,90.579
		c-9.038,0-17.392-2.98-24.134-8.008c-0.021-0.016-0.044-0.031-0.065-0.047c-0.432-0.323-0.853-0.66-1.272-1
		c-0.17-0.139-0.34-0.279-0.508-0.42c-0.375-0.315-0.747-0.634-1.11-0.962c-0.242-0.22-0.478-0.448-0.716-0.674
		c-0.471-0.447-0.931-0.904-1.381-1.373c-0.312-0.326-0.623-0.652-0.925-0.989C96.447,69.944,92.53,60.487,92.53,50.13
		c0-21.186,16.073-38.487,36.961-40.257v42.608c0,0.664,0.337,1.253,0.846,1.616l29.63,26.169
		C152.542,86.933,143.041,90.579,132.983,90.579z"/>
	<path style="fill:#231F20;" d="M116.828,77.102c-10.738-6.833-15.528-16.831-14.237-29.716c0.988-9.861,5.321-17.809,5.364-17.888
		c0.533-0.967,0.184-2.184-0.783-2.718c-0.967-0.533-2.182-0.186-2.717,0.781c-0.189,0.343-18.671,34.526,10.225,52.915
		c0.333,0.212,0.705,0.312,1.072,0.312c0.661,0,1.308-0.327,1.689-0.926C118.034,78.931,117.76,77.694,116.828,77.102z"/>
	<path style="fill:#231F20;" d="M148.892,8.94c-1.104,0.019-1.984,0.929-1.967,2.033l0.503,30.658
		c0.019,1.093,0.91,1.967,1.999,1.967c0.012,0,0.022,0,0.034,0c1.104-0.019,1.984-0.929,1.967-2.033l-0.503-30.658
		C150.906,9.801,149.979,8.922,148.892,8.94z"/>
</g>
<g>
</g>
<g>
</g>
<g>
</g>
<g>
</g>
<g>
</g>
<g>
</g>
<g>
</g>
<g>
</g>
<g>
</g>
<g>
</g>
<g>
</g>
<g>
</g>
<g>
</g>
<g>
</g>
<g>
</g>
</svg>
