<?xml version="1.0" encoding="iso-8859-1"?>
<!-- Generator: Adobe Illustrator 18.0.0, SVG Export Plug-In . SVG Version: 6.00 Build 0)  -->
<!DOCTYPE svg PUBLIC "-//W3C//DTD SVG 1.1//EN" "http://www.w3.org/Graphics/SVG/1.1/DTD/svg11.dtd">
<svg version="1.1" id="Capa_1" xmlns="http://www.w3.org/2000/svg" xmlns:xlink="http://www.w3.org/1999/xlink" x="0px" y="0px"
	 viewBox="0 0 174.841 144.631" style="enable-background:new 0 0 174.841 144.631;" xml:space="preserve">
<g>
	<path style="fill:#231F20;" d="M97.083,32.876l0.01,0.003c0.795,0.266,1.636,0.001,2.149-0.599c0.024-0.024,0.047-0.049,0.07-0.075
		c0.734-0.827,1.433-1.551,2.169-2.244c0.055-0.054,0.114-0.105,0.173-0.158l0.172-0.155c0.693-0.64,1.388-1.238,2.123-1.827
		c0.039-0.027,0.075-0.055,0.109-0.082c0.04-0.027,0.08-0.055,0.118-0.085c2.65-2.059,5.511-3.725,8.503-4.951
		c2.984-1.221,6.209-2.043,9.587-2.444c0.015-0.001,0.029-0.003,0.043-0.005c0.038-0.003,0.076-0.007,0.113-0.012
		c12.523-1.402,25.096,3.903,32.824,13.853c0.394,0.508,0.984,0.773,1.581,0.773c0.429,0,0.86-0.137,1.225-0.42
		c0.873-0.677,1.031-1.934,0.353-2.806c-8.583-11.051-22.548-16.944-36.458-15.372c-0.035,0.004-0.069,0.009-0.104,0.015
		c0.033-0.006,0.064-0.01,0.092-0.013c-0.118,0.006-0.236,0.015-0.349,0.041c-3.661,0.452-7.167,1.356-10.425,2.689
		c-3.251,1.333-6.358,3.128-9.237,5.336c-0.09,0.053-0.176,0.113-0.258,0.18c-0.033,0.027-0.064,0.055-0.099,0.086
		c-0.02,0.015-0.039,0.03-0.059,0.045c-0.831,0.664-1.615,1.338-2.393,2.056l-0.121,0.108c-0.11,0.098-0.219,0.196-0.289,0.266
		c-0.776,0.729-1.541,1.52-2.337,2.414c-0.039,0.039-0.077,0.078-0.112,0.115c-0.468,0.497-0.649,1.198-0.483,1.859
		C95.943,32.129,96.436,32.661,97.083,32.876z"/>
	<path style="fill:#231F20;" d="M121.938,16.271c0.025-0.001,0.049-0.008,0.074-0.009C122.006,16.263,121.976,16.266,121.938,16.271
		z"/>
	<path style="fill:#231F20;" d="M97.083,16.857l0.01,0.003c0.795,0.265,1.636,0.001,2.149-0.599c0.024-0.024,0.047-0.049,0.07-0.075
		c0.734-0.827,1.433-1.551,2.169-2.244c0.055-0.054,0.114-0.105,0.173-0.158l0.172-0.155c0.693-0.64,1.388-1.238,2.123-1.827
		c0.039-0.027,0.075-0.055,0.109-0.082c0.04-0.027,0.08-0.055,0.118-0.085c2.65-2.059,5.511-3.725,8.503-4.951
		c2.984-1.221,6.209-2.043,9.587-2.444c0.015-0.001,0.029-0.003,0.043-0.005c0.038-0.003,0.076-0.007,0.113-0.012
		c12.523-1.403,25.096,3.902,32.824,13.853c0.394,0.508,0.984,0.773,1.581,0.773c0.429,0,0.86-0.137,1.225-0.42
		c0.873-0.677,1.031-1.934,0.353-2.806C149.825,4.57,135.859-1.319,121.95,0.25c-0.035,0.004-0.069,0.009-0.104,0.015
		c0.033-0.006,0.064-0.01,0.092-0.013c-0.118,0.006-0.236,0.015-0.349,0.041c-3.661,0.452-7.167,1.356-10.425,2.689
		c-3.251,1.333-6.358,3.128-9.237,5.336c-0.09,0.053-0.176,0.113-0.258,0.18c-0.033,0.027-0.064,0.055-0.099,0.086
		c-0.02,0.015-0.039,0.03-0.059,0.045c-0.831,0.664-1.615,1.338-2.393,2.056l-0.121,0.108c-0.11,0.098-0.219,0.196-0.289,0.266
		c-0.776,0.729-1.541,1.52-2.337,2.414c-0.039,0.039-0.077,0.078-0.112,0.115c-0.468,0.497-0.649,1.198-0.483,1.859
		C95.943,16.11,96.436,16.641,97.083,16.857z"/>
	<path style="fill:#231F20;" d="M121.938,0.252c0.025-0.001,0.049-0.008,0.074-0.009C122.006,0.243,121.976,0.247,121.938,0.252z"/>
	<path style="fill:#231F20;" d="M174.716,104.103c-0.516-3.708-2.479-6.193-5.984-7.561c-1.484-18.224-6.992-21.705-17.142-21.891
		c-0.709-0.017-6.201-0.013-13.755,0.004c-0.013-2.084-0.027-4.321-0.041-6.02c6.948-3.529,11.367-10.423,11.367-17.905
		c0-11.226-9.661-20.359-21.535-20.359c-11.862,0-21.512,9.133-21.512,20.359c0,7.475,4.235,14.177,11.138,17.771l0.083,6.212
		L87.428,74.81l-1.889-0.001c-13.202-0.012-26.07-0.022-36.673-0.022c-15.607,0-23.75,0.022-25.62,0.068
		c-9.87,0.21-15.266,3.412-16.912,20.036c-3.574,1.289-5.601,3.747-6.169,7.416c-0.065,0.317-0.167,0.896-0.164,1.372
		c-0.011,0.425,0.064,0.943,0.137,1.334c0.53,3.728,2.515,6.219,6.052,7.577c1.452,17.761,6.727,21.5,16.385,21.846
		c-0.003,0.082-0.005,0.164-0.008,0.246c0,0-0.024,0.636-0.024,0.918c0,0.274,0.024,0.914,0.024,0.914
		c0.141,4.21,0.623,7.999,4.892,8.108c0.535,0.018,3.771,0.004,7.889-0.014l4.403-0.019l2.536,0.004
		c4.936,0.009,9.151,0.014,9.76-0.005c4.291-0.135,4.754-3.927,4.875-8.118c0,0,0.025-0.687,0.016-0.918
		c0-0.284-0.025-0.923-0.025-0.923c-0.003-0.073-0.006-0.145-0.009-0.217c9.364-0.033,19.902-0.076,30.598-0.119
		c10.68,0.011,21.198,0.02,30.544,0.026c-0.005,0.12-0.009,0.241-0.013,0.364c0,0-0.024,0.636-0.024,0.917
		c0,0.274,0.026,0.91,0.026,0.912c0.137,4.211,0.614,8,4.885,8.11c0.177,0.006,0.646,0.009,1.34,0.009
		c1.413,0,3.808-0.011,6.575-0.023l4.386-0.019l2.52,0.004c4.938,0.008,9.168,0.014,9.778-0.005c4.29-0.135,4.752-3.928,4.869-8.112
		c0,0,0.023-0.599,0.016-0.935c0.004-0.324-0.017-0.903-0.017-0.903c-0.005-0.14-0.01-0.276-0.016-0.408
		c9.44-0.36,14.625-3.802,16.229-20.038c3.517-1.303,5.517-3.753,6.09-7.421c0.056-0.305,0.143-0.85,0.146-1.292
		C174.86,105.025,174.789,104.498,174.716,104.103z M170.837,105.457c-0.007,0.217-0.078,0.575-0.09,0.645
		c-0.407,2.598-1.676,3.902-4.526,4.65c-0.819,0.215-1.415,0.924-1.485,1.769c-1.386,16.625-5.9,17.569-13.134,17.731l-0.317,0.006
		c-0.283,0.006-0.656,0.014-1.071,0.014c-0.567,0-1.107,0.241-1.487,0.663c-0.379,0.421-0.562,0.984-0.502,1.548
		c0.063,0.601,0.133,1.342,0.165,2.301c0,0,0.021,0.49,0.015,0.707c-0.001,0.049-0.001,0.103,0.001,0.151
		c0.009,0.203-0.013,0.653-0.014,0.692c-0.1,3.556-0.575,4.201-0.547,4.207c-0.017,0.006-0.117,0.038-0.453,0.048
		c-0.599,0.02-4.807,0.012-9.643,0.003l-2.531-0.004l-4.399,0.019c-3.985,0.017-7.213,0.034-7.78,0.016
		c-0.218-0.005-0.336-0.021-0.396-0.032c-0.134-0.207-0.506-1.062-0.609-4.229c0-0.005-0.023-0.536-0.023-0.763
		c0-0.233,0.021-0.758,0.021-0.777c0.027-0.847,0.077-1.569,0.158-2.273c0.065-0.566-0.114-1.134-0.493-1.56
		s-0.922-0.669-1.492-0.67c-9.87-0.006-21.189-0.016-32.708-0.027c-11.529,0.046-22.866,0.092-32.75,0.126
		c-0.565,0.002-1.104,0.243-1.481,0.664c-0.377,0.421-0.56,0.981-0.501,1.544c0.075,0.718,0.123,1.402,0.152,2.157
		c0,0.005,0.022,0.533,0.023,0.836c0.007,0.208-0.013,0.684-0.014,0.714c-0.1,3.483-0.542,4.163-0.548,4.207
		c-0.017,0.006-0.118,0.038-0.457,0.049c-0.601,0.02-4.793,0.012-9.626,0.003l-2.547-0.004l-4.417,0.019
		c-3.975,0.018-7.188,0.035-7.753,0.016c-0.222-0.005-0.341-0.021-0.401-0.032c-0.134-0.208-0.505-1.062-0.611-4.222
		c0,0-0.021-0.539-0.021-0.77c0-0.232,0.021-0.756,0.022-0.785c0.021-0.735,0.065-1.412,0.142-2.129
		c0.06-0.561-0.121-1.122-0.497-1.543c-0.376-0.421-0.913-0.664-1.477-0.668c-0.557-0.004-1.018-0.008-1.324-0.018
		c-7.446-0.138-12.074-1.153-13.329-19.485c-0.058-0.846-0.644-1.564-1.461-1.791c-2.893-0.801-4.162-2.138-4.524-4.767
		c-0.005-0.034-0.011-0.069-0.017-0.102c-0.004-0.021-0.07-0.342-0.081-0.458c0.006-0.086,0.009-0.111,0.004-0.197
		c0.003-0.09,0.044-0.358,0.1-0.644c0.408-2.621,1.696-3.929,4.595-4.665c0.827-0.21,1.43-0.922,1.501-1.772
		c1.388-16.629,5.896-17.568,13.142-17.722c1.818-0.045,10.168-0.067,25.528-0.067c10.602,0,23.469,0.01,36.671,0.021l1.896,0.002
		l31.935-0.103c0.534-0.001,1.045-0.217,1.42-0.597c0.374-0.38,0.581-0.895,0.574-1.429l-0.127-9.464
		c-0.01-0.777-0.469-1.478-1.177-1.798c-6.134-2.767-9.944-8.396-9.944-14.687c0-9.021,7.856-16.359,17.512-16.359
		c9.669,0,17.535,7.339,17.535,16.359c0,6.314-3.993,12.126-10.173,14.807c-0.737,0.32-1.211,1.05-1.204,1.854
		c0.021,2.161,0.045,6.212,0.064,9.281c0.007,1.1,0.9,1.988,2,1.988c0.001,0,0.003,0,0.005,0c8.458-0.021,14.858-0.029,15.652-0.01
		c7.454,0.137,12.086,1.152,13.337,19.502c0.058,0.843,0.639,1.559,1.452,1.789c2.861,0.808,4.113,2.14,4.466,4.75
		c0.004,0.033,0.01,0.069,0.017,0.102c0.032,0.17,0.063,0.408,0.071,0.408c0,0,0,0,0,0
		C170.836,105.303,170.832,105.354,170.837,105.457z"/>
	<path style="fill:#231F20;" d="M28.216,82.078c-0.238-0.04-5.853-0.927-10.004,2.588c-2.753,2.333-4.15,5.938-4.15,10.716
		c0,1.104,0.896,2,2,2s2-0.896,2-2c0-3.534,0.913-6.106,2.714-7.646c2.704-2.311,6.714-1.723,6.79-1.712
		c1.087,0.173,2.112-0.558,2.294-1.645C30.041,83.289,29.305,82.259,28.216,82.078z"/>
	<path style="fill:#231F20;" d="M27.567,123.331c-0.04,0.005-4.074,0.61-6.791-1.712c-1.801-1.54-2.714-4.112-2.714-7.646
		c0-1.104-0.896-2-2-2s-2,0.896-2,2c0,4.778,1.396,8.384,4.15,10.716c2.719,2.303,6.067,2.717,8.12,2.717
		c1.08,0,1.802-0.115,1.884-0.128c1.086-0.181,1.817-1.205,1.641-2.292S28.652,123.159,27.567,123.331z"/>
	<path style="fill:#231F20;" d="M120.794,38.849c-0.254,0.179-6.232,4.47-6.812,11.03c-0.344,3.896,1.252,7.662,4.745,11.195
		c0.391,0.396,0.907,0.594,1.422,0.594c0.508,0,1.016-0.192,1.406-0.578c0.785-0.777,0.792-2.043,0.016-2.829
		c-2.621-2.651-3.834-5.346-3.606-8.009c0.402-4.699,5.084-8.098,5.141-8.139c0.899-0.638,1.112-1.883,0.476-2.784
		C122.944,38.426,121.697,38.211,120.794,38.849z"/>
</g>
<g>
</g>
<g>
</g>
<g>
</g>
<g>
</g>
<g>
</g>
<g>
</g>
<g>
</g>
<g>
</g>
<g>
</g>
<g>
</g>
<g>
</g>
<g>
</g>
<g>
</g>
<g>
</g>
<g>
</g>
</svg>
