<?xml version="1.0" encoding="iso-8859-1"?>
<!-- Generator: Adobe Illustrator 18.0.0, SVG Export Plug-In . SVG Version: 6.00 Build 0)  -->
<!DOCTYPE svg PUBLIC "-//W3C//DTD SVG 1.1//EN" "http://www.w3.org/Graphics/SVG/1.1/DTD/svg11.dtd">
<svg version="1.1" id="Capa_1" xmlns="http://www.w3.org/2000/svg" xmlns:xlink="http://www.w3.org/1999/xlink" x="0px" y="0px"
	 viewBox="0 0 122.142 179.764" style="enable-background:new 0 0 122.142 179.764;" xml:space="preserve">
<g>
	<path style="fill:#231F20;" d="M120.038,70.483c-2.074-2.662-4.9-3.104-5.707-3.176c-0.598-0.116-1.19-0.176-1.764-0.176
		c-0.758,0-1.57,0.107-2.394,0.364l9.543-57.11c0.014-0.083,0.022-0.166,0.026-0.25c0.007-0.178,0.142-4.389-2.707-7.354
		c-1.772-1.845-4.225-2.78-7.3-2.78c-2.996,0.003-10.336,0.004-19.735,0.004L21.174,0l-8.92,0.001C8.772,0.005,6.128,1,4.394,2.96
		c-2.33,2.633-2.009,5.896-1.952,6.349l9.738,58.254c-0.901-0.312-1.791-0.431-2.617-0.431c-0.574,0-1.168,0.06-1.767,0.176
		C6.99,67.38,4.171,67.82,2.102,70.479c-2.113,2.714-2.636,6.71-1.555,11.878l8.401,40.075c0.957,4.584,2.982,8.729,5.555,11.37
		l0.025-0.025c1.015,0.944,3.8,2.623,4.239,2.745c0.256,0.073,0.571,0.165,0.932,0.212c0.382,0.065,0.624,0.086,0.624,0.086
		c0.055,0.005,0.123,0.008,0.178,0.008h29.419v22.855c-8.388,2.483-15.156,7.765-18.283,14.337c-0.787,1.656-0.83,3.065-0.127,4.188
		c0.708,1.134,1.992,1.547,2.896,1.556h53.35c0.07,0,0.141-0.004,0.21-0.011c0.301-0.032,1.847-0.265,2.69-1.726
		c0.445-0.771,0.793-2.099-0.073-4.049c-2.919-6.601-9.719-11.892-18.361-14.361v-22.79h28.143c0,0,0.432-0.008,1.07-0.078
		c0.067,0.003,0.134,0.004,0.201,0.004c1.295,0,2.59-0.394,3.849-1.169c0.442-0.246,0.848-0.527,1.264-0.881l0.192-0.18
		c0.044-0.039,0.086-0.079,0.126-0.122l0.072-0.07c0.119-0.115,0.231-0.229,0.337-0.356c2.64-2.638,4.72-6.834,5.717-11.542
		l8.401-40.077C122.676,77.192,122.151,73.197,120.038,70.483z M7.414,5.583C8.36,4.536,9.99,4.004,12.258,4.001L21.174,4
		l68.824,0.005c9.401,0,16.743-0.001,19.744-0.004c1.924,0,3.4,0.516,4.388,1.531c1.49,1.533,1.606,3.855,1.613,4.349L105.483,71.29
		c-0.009,0.014-0.017,0.031-0.026,0.045c-0.531,0.823-1.025,1.797-1.469,2.946c-0.049,0.125-0.095,0.255-0.142,0.384
		c-0.156,0.427-0.304,0.878-0.445,1.352c-0.047,0.158-0.096,0.312-0.141,0.474c-0.168,0.606-0.328,1.239-0.471,1.922l-6.926,33.037
		c-10.386-4.747-24.621-5.788-35.1-5.788c-14.522,0-26.366,1.965-34.504,5.701l-6.905-32.949c-0.135-0.646-0.285-1.249-0.443-1.826
		c-0.036-0.13-0.076-0.251-0.113-0.379c-0.136-0.468-0.277-0.916-0.427-1.339c-0.037-0.103-0.075-0.204-0.113-0.305
		c-0.177-0.477-0.361-0.927-0.555-1.347c-0.016-0.034-0.031-0.069-0.046-0.103c-0.233-0.499-0.473-0.972-0.726-1.395L6.399,8.723
		C6.382,8.466,6.318,6.796,7.414,5.583z M117.681,81.536l-8.4,40.072c-0.835,3.947-2.59,7.536-4.693,9.6
		c-0.077,0.075-0.159,0.157-0.223,0.243c-0.056,0.054-0.112,0.108-0.168,0.167l-0.064,0.061c-0.194,0.165-0.395,0.304-0.616,0.424
		c-0.033,0.019-0.066,0.038-0.099,0.058c-0.63,0.394-1.229,0.593-1.78,0.593l-0.144-0.005c-0.122-0.009-0.245-0.005-0.366,0.011
		c-0.472,0.057-0.81,0.068-0.803,0.068H70.223c-1.104,0-2,0.896-2,2v26.331c0,0.924,0.633,1.728,1.531,1.944
		c8.163,1.97,14.583,6.64,17.173,12.496c0.026,0.06,0.049,0.114,0.069,0.165H35.238c0.004-0.009,0.008-0.018,0.013-0.026
		c2.805-5.896,9.218-10.602,17.156-12.587c0.89-0.223,1.515-1.022,1.515-1.94v-26.383c0-1.104-0.896-2-2-2H20.614
		c-0.061-0.008-0.154-0.021-0.269-0.042c-0.035-0.006-0.088-0.013-0.123-0.018c-0.086-0.011-0.171-0.036-0.256-0.062
		c-0.533-0.316-2.219-1.455-2.694-1.796c-2.011-2.119-3.614-5.497-4.408-9.297L4.462,81.536c-0.81-3.868-0.548-6.825,0.757-8.551
		c1.176-1.555,2.885-1.69,2.931-1.694c0.11-0.004,0.219-0.018,0.327-0.04c0.377-0.079,0.742-0.119,1.085-0.119
		c1.638,0,2.865,0.996,3.79,2.431c0.437,0.682,0.83,1.494,1.175,2.427c0.007,0.019,0.014,0.038,0.021,0.057
		c0.163,0.445,0.314,0.92,0.456,1.419c0.012,0.043,0.025,0.086,0.036,0.129c0.144,0.519,0.277,1.063,0.397,1.638l7.439,35.499
		c0.13,0.622,0.549,1.146,1.127,1.409c0.578,0.265,1.248,0.236,1.803-0.072c7.529-4.191,19.616-6.407,34.955-6.407
		c15.543,0,27.84,2.244,35.561,6.491c0.144,0.079,0.296,0.137,0.451,0.178c0.059,0.016,0.12,0.017,0.18,0.027
		c0.098,0.017,0.195,0.035,0.294,0.037c0.013,0,0.025,0.005,0.038,0.005c0.095,0,0.189-0.017,0.283-0.03
		c0.04-0.006,0.08-0.005,0.119-0.013c0.148-0.03,0.293-0.075,0.433-0.139c0.576-0.265,0.992-0.786,1.123-1.407l7.459-35.578
		c0.06-0.287,0.124-0.564,0.19-0.837c0.023-0.097,0.048-0.194,0.073-0.291c0.045-0.177,0.091-0.35,0.138-0.52
		c0.031-0.111,0.061-0.221,0.093-0.331c0.045-0.153,0.091-0.302,0.138-0.449c0.035-0.112,0.07-0.224,0.107-0.335
		c0.049-0.147,0.101-0.288,0.153-0.429c0.037-0.103,0.073-0.207,0.112-0.308c0.073-0.188,0.148-0.367,0.225-0.545
		c0.063-0.146,0.129-0.289,0.197-0.431c0.058-0.122,0.114-0.247,0.174-0.363c0.084-0.164,0.174-0.321,0.264-0.477
		c0.023-0.04,0.046-0.084,0.069-0.124c0.938-1.561,2.21-2.66,3.931-2.66c0.342,0,0.706,0.04,1.081,0.118
		c0.108,0.023,0.217,0.037,0.328,0.041c0.017,0.001,1.728,0.138,2.906,1.65C118.221,74.66,118.497,77.633,117.681,81.536z"/>
	<path style="fill:#231F20;" d="M28.765,99.219c0.167,0.976,1.012,1.664,1.969,1.664c0.112,0,0.225-0.009,0.339-0.028
		c1.089-0.186,1.821-1.219,1.635-2.308l-14.667-86c-0.186-1.09-1.224-1.825-2.308-1.636c-1.089,0.186-1.821,1.219-1.635,2.308
		L28.765,99.219z"/>
	<path style="fill:#231F20;" d="M59.069,133.55c-1.104,0-2,0.896-2,2v25.333c0,1.104,0.896,2,2,2s2-0.896,2-2V135.55
		C61.069,134.445,60.174,133.55,59.069,133.55z"/>
	<path style="fill:#231F20;" d="M26.403,125.883c-6.146,0-7.309-6.677-7.358-6.978c-0.171-1.088-1.187-1.833-2.28-1.666
		c-1.092,0.168-1.84,1.189-1.672,2.28c0.551,3.585,3.625,10.363,11.31,10.363c1.104,0,2-0.896,2-2S27.507,125.883,26.403,125.883z"
		/>
</g>
<g>
</g>
<g>
</g>
<g>
</g>
<g>
</g>
<g>
</g>
<g>
</g>
<g>
</g>
<g>
</g>
<g>
</g>
<g>
</g>
<g>
</g>
<g>
</g>
<g>
</g>
<g>
</g>
<g>
</g>
</svg>
