<?xml version="1.0" encoding="iso-8859-1"?>
<!-- Generator: Adobe Illustrator 18.0.0, SVG Export Plug-In . SVG Version: 6.00 Build 0)  -->
<!DOCTYPE svg PUBLIC "-//W3C//DTD SVG 1.1//EN" "http://www.w3.org/Graphics/SVG/1.1/DTD/svg11.dtd">
<svg version="1.1" id="Capa_1" xmlns="http://www.w3.org/2000/svg" xmlns:xlink="http://www.w3.org/1999/xlink" x="0px" y="0px"
	 viewBox="0 0 204.704 159.316" style="enable-background:new 0 0 204.704 159.316;" xml:space="preserve">
<g>
	<path style="fill:#231F20;" d="M51.554,25.095h16.338c1.104,0,2-0.896,2-2s-0.896-2-2-2H51.554c-1.104,0-2,0.896-2,2
		S50.45,25.095,51.554,25.095z"/>
	<path style="fill:#231F20;" d="M26.568,25.095h16.338c1.104,0,2-0.896,2-2s-0.896-2-2-2H26.568c-1.104,0-2,0.896-2,2
		S25.463,25.095,26.568,25.095z"/>
	<path style="fill:#231F20;" d="M178.801,41.669H25.906c-1.104,0-2,0.896-2,2v88.561c0,1.104,0.896,2,2,2h152.892
		c1.104,0,2-0.896,2-2V78.636c0.002-0.042,0.004-0.083,0.004-0.126V43.669C180.801,42.565,179.906,41.669,178.801,41.669z
		 M176.801,78.384c-0.002,0.042-0.004,0.083-0.004,0.126v51.72H27.906V45.669h148.896V78.384z"/>
	<path style="fill:#231F20;" d="M180.333,21.095h-69.194c-1.104,0-2,0.896-2,2s0.896,2,2,2h69.194c1.104,0,2-0.896,2-2
		S181.437,21.095,180.333,21.095z"/>
	<path style="fill:#231F20;" d="M52.101,113.84c0.371,0,0.747-0.103,1.083-0.319l45.261-29.202l-2.26,13.507
		c-0.133,0.795,0.225,1.593,0.907,2.022c0.682,0.429,1.555,0.407,2.216-0.057l33.869-23.823l-1.467,8.436
		c-0.189,1.088,0.54,2.124,1.627,2.313c0.116,0.021,0.231,0.03,0.345,0.03c0.954,0,1.799-0.686,1.968-1.658l2.282-13.121
		c0.096-0.553-0.044-1.121-0.388-1.565c-0.343-0.444-0.857-0.724-1.417-0.771l-13.691-1.141c-1.107-0.082-2.067,0.726-2.159,1.827
		c-0.092,1.101,0.727,2.067,1.827,2.159l8.118,0.676l-29.304,20.612l2.218-13.254c0.13-0.781-0.212-1.566-0.874-2.001
		c-0.662-0.436-1.518-0.439-2.184-0.01l-49.065,31.656c-0.928,0.599-1.195,1.837-0.596,2.765
		C50.801,113.517,51.444,113.84,52.101,113.84z"/>
	<path style="fill:#231F20;" d="M204.704,143.061c0,0-0.078-125.3-0.078-130.868C204.626,2.568,196.178,0,191.185,0L13.744,0.003
		L13.515,0C8.523,0,0.074,2.568,0.074,12.193c0,5.568-0.073,130.868-0.073,130.869l0.002,0.123c-0.049,2.87,0.42,8.202,4.066,11.996
		c2.061,2.51,4.736,3.852,7.961,3.99c2.604,0.1,48.645,0.146,90.321,0.146s87.72-0.045,90.338-0.146
		c3.215-0.138,5.888-1.48,7.945-3.991c3.621-3.771,4.107-9.054,4.064-11.937C204.704,143.14,204.704,143.062,204.704,143.061z
		 M197.705,152.455c-0.043,0.044-0.084,0.091-0.124,0.139c-1.33,1.647-2.986,2.491-5.054,2.58
		c-2.557,0.098-48.537,0.143-90.176,0.143c-41.639,0-87.616-0.044-90.159-0.142c-2.079-0.089-3.738-0.934-5.072-2.582
		c-0.039-0.048-0.08-0.094-0.123-0.138c-2.802-2.873-3.027-7.408-2.994-9.224c0.001-0.037,0-0.13-0.002-0.167
		c0,0,0.073-125.302,0.073-130.87C4.074,10.271,4.755,4,13.515,4l177.509,0.002c0.023,0,0.138-0.001,0.161-0.002
		c8.761,0,9.441,6.271,9.441,8.193c0,5.567,0.078,130.825,0.08,130.812c-0.007,0.075-0.01,0.151-0.008,0.227
		C200.732,145.047,200.509,149.58,197.705,152.455z"/>
	<path style="fill:#231F20;" d="M19.512,8.255c-3.54,0-10.233,2.032-10.233,9.719v93.65c0,1.104,0.896,2,2,2s2-0.896,2-2v-93.65
		c0-0.579,0.175-5.659,6.241-5.719c1.101-0.004,1.993-0.898,1.993-2C21.512,9.15,20.616,8.255,19.512,8.255z"/>
	<path style="fill:#231F20;" d="M34.521,118.798c1.104,0,2-0.896,2-2V51.449c0-1.104-0.896-2-2-2s-2,0.896-2,2v65.349
		C32.521,117.903,33.417,118.798,34.521,118.798z"/>
</g>
<g>
</g>
<g>
</g>
<g>
</g>
<g>
</g>
<g>
</g>
<g>
</g>
<g>
</g>
<g>
</g>
<g>
</g>
<g>
</g>
<g>
</g>
<g>
</g>
<g>
</g>
<g>
</g>
<g>
</g>
</svg>
