<?xml version="1.0" encoding="iso-8859-1"?>
<!-- Generator: Adobe Illustrator 18.0.0, SVG Export Plug-In . SVG Version: 6.00 Build 0)  -->
<!DOCTYPE svg PUBLIC "-//W3C//DTD SVG 1.1//EN" "http://www.w3.org/Graphics/SVG/1.1/DTD/svg11.dtd">
<svg version="1.1" id="Capa_1" xmlns="http://www.w3.org/2000/svg" xmlns:xlink="http://www.w3.org/1999/xlink" x="0px" y="0px"
	 viewBox="0 0 186.912 157.637" style="enable-background:new 0 0 186.912 157.637;" xml:space="preserve">
<g>
	<path style="fill:#231F20;" d="M185.245,28.567c-1.248-1.262-3.009-1.906-5.237-1.913c-4.221-0.004-14.646-0.009-28.419-0.009
		l-17.093,0.002V12.799C134.496,5.742,128.756,0,121.67,0H65.235c-7.06,0-12.803,5.742-12.803,12.799v13.863L7.018,26.668
		c-2.37,0-4.191,0.624-5.413,1.855c-1.624,1.635-1.609,3.791-1.604,4.485v18.983c0,0.57,0.243,1.113,0.669,1.493
		c1.688,1.506,3.498,3.03,5.389,4.539v10.003c-0.134,0.271-0.207,0.573-0.207,0.886c-0.009,31.12-0.019,73.355-0.019,82.64
		c0,4.587,4.303,6.071,6.387,6.071c18.197,0,141.856,0.009,161.939,0.014c0.001,0,0.008,0,0.008,0c2.073,0,3.747-0.626,4.978-1.861
		c1.696-1.703,1.941-3.968,1.937-5.187c-0.014-10.781-0.032-51.521-0.032-81.672c0-0.379-0.107-0.742-0.299-1.052v-9.773
		c1.918-1.528,3.753-3.073,5.466-4.602c0.425-0.379,0.668-0.921,0.669-1.49l0.001-1.18c0.011-8.863,0.018-15.518,0.026-18.258
		C186.921,31.455,186.487,29.823,185.245,28.567z M182.885,50.816v0.28c-1.688,1.482-3.492,2.979-5.371,4.455
		c-0.482,0.379-0.765,0.959-0.765,1.573v12.01c0,0.379,0.107,0.742,0.299,1.052c0.001,30.016,0.019,69.778,0.032,80.439
		c0.002,0.363-0.05,1.604-0.771,2.329c-0.452,0.454-1.173,0.684-2.144,0.684v2l-0.005-2c-19.106-0.005-131.927-0.013-158.506-0.013
		c-1.363,0-2.503,0-3.388,0c-0.407-0.021-2.436-0.22-2.436-2.072c0-9.183,0.01-50.589,0.019-81.603
		c0.134-0.271,0.207-0.573,0.207-0.887V57.056c0-0.613-0.281-1.192-0.764-1.572c-1.853-1.458-3.63-2.933-5.294-4.394V32.994
		c-0.005-0.622,0.046-1.253,0.442-1.652c0.432-0.434,1.346-0.673,2.575-0.673l47.414-0.006c1.104,0,2-0.896,2-2V12.799
		C56.432,7.947,60.381,4,65.261,4h56.441c4.849,0,8.793,3.947,8.793,8.799v15.85c0,0.531,0.211,1.04,0.586,1.415
		s0.884,0.585,1.415,0.585l19.092-0.003c13.771,0,24.194,0.005,28.411,0.009c2.684,0.008,2.907,1.44,2.912,1.886
		C182.903,35.292,182.896,41.949,182.885,50.816z"/>
	<path style="fill:#231F20;" d="M119.603,12.725H67.329c-1.104,0-2,0.896-2,2v13.93c0,0.531,0.211,1.04,0.586,1.415
		s0.884,0.585,1.414,0.585c0,0,0,0,0.001,0c16.984-0.006,35.313-0.006,52.273-0.006c1.104,0,2-0.896,2-2V14.725
		C121.603,13.62,120.708,12.725,119.603,12.725z M117.603,26.648c-15.728,0-32.525,0-48.274,0.005v-9.929h48.274V26.648z"/>
	<path style="fill:#231F20;" d="M30.548,145.032c-4.48,0.313-7.802-0.387-9.616-2.025c-1.377-1.245-1.437-2.649-1.438-2.688V58.884
		c0-1.104-0.896-2-2-2s-2,0.896-2,2v81.418c-0.003,0.313,0.05,3.129,2.624,5.549c2.302,2.163,5.798,3.254,10.413,3.254
		c0.737,0,1.504-0.028,2.297-0.083c1.103-0.077,1.933-1.033,1.855-2.135C32.606,145.785,31.638,144.945,30.548,145.032z"/>
	<path style="fill:#231F20;" d="M10.062,33.82c-1.104,0-2,0.896-2,2v11.569c0,1.104,0.896,2,2,2s2-0.896,2-2V35.82
		C12.062,34.715,11.167,33.82,10.062,33.82z"/>
</g>
<g>
</g>
<g>
</g>
<g>
</g>
<g>
</g>
<g>
</g>
<g>
</g>
<g>
</g>
<g>
</g>
<g>
</g>
<g>
</g>
<g>
</g>
<g>
</g>
<g>
</g>
<g>
</g>
<g>
</g>
</svg>
