<?xml version="1.0" encoding="iso-8859-1"?>
<!-- Generator: Adobe Illustrator 18.0.0, SVG Export Plug-In . SVG Version: 6.00 Build 0)  -->
<!DOCTYPE svg PUBLIC "-//W3C//DTD SVG 1.1//EN" "http://www.w3.org/Graphics/SVG/1.1/DTD/svg11.dtd">
<svg version="1.1" id="Capa_1" xmlns="http://www.w3.org/2000/svg" xmlns:xlink="http://www.w3.org/1999/xlink" x="0px" y="0px"
	 viewBox="0 0 183.821 120.682" style="enable-background:new 0 0 183.821 120.682;" xml:space="preserve">
<g>
	<path style="fill:#231F20;" d="M145.33,20.616H24.889c-1.104,0-2,0.896-2,2v74.572c0,1.104,0.896,2,2,2h120.44c1.104,0,2-0.896,2-2
		V22.616C147.33,21.511,146.434,20.616,145.33,20.616z M143.33,95.188H26.889V24.616h116.44V95.188z"/>
	<path style="fill:#231F20;" d="M183.798,60.341l0.003-1.447c0.017-9.039,0.032-16.845,0.006-17.929
		c-0.076-4.59-2.497-6.32-9.258-6.614c0,0-0.652-0.025-0.999-0.025h-0.13c-0.356,0-1.016,0.025-1.035,0.026
		c-0.798,0.039-1.517,0.096-2.172,0.172c0.008-11.155,0.007-19.509-0.002-21.131c-0.085-7.532-1.142-13.3-13.636-13.388
		c-1.158-0.002-3.46-0.003-6.622-0.003l-11.829,0.003c-0.977-0.002-2.746-0.003-5.147-0.003l-8.923,0.003l-6.758-0.003
		l-10.806,0.003c-2.57-0.01-10.704-0.004-21.378,0.014C77.884,0.007,71.828,0,67.87,0c-1.895,0-3.309,0.001-4.197,0.004
		L52.926,0.002l-6.757,0.003l-8.932-0.003c-2.404,0-4.178,0.001-5.202,0.003L20.272,0.002c-3.158,0-5.458,0.001-6.634,0.003
		C1.132,0.092,0.083,5.862,0.012,13.398C-0.011,16.202,0,38.138,0.036,60.333C0,82.545-0.011,104.485,0.012,107.287
		c0.071,7.524,1.12,13.287,13.636,13.386c1.163,0.002,3.463,0.003,6.619,0.003l11.813-0.003c0.979,0.002,2.74,0.003,5.124,0.003
		l8.855-0.003c1.437,0.002,3.757,0.003,6.756,0.003l10.906-0.003c2.569,0.018,10.697,0.004,21.385-0.014
		c7.132,0.012,13.128,0.022,17.089,0.022c1.977,0,3.446-0.002,4.374-0.008l10.831,0.003c3,0,5.319-0.001,6.75-0.003l8.865,0.003
		c2.383,0,4.138-0.001,5.168-0.003l11.776,0.003c3.159,0,5.457-0.001,6.628-0.003c12.482-0.099,13.539-5.86,13.623-13.394
		c0.009-1.615,0.01-9.973,0.002-21.129c0.67,0.079,1.397,0.136,2.191,0.173c0,0,0.64,0.024,0.999,0.024l0.049-0.001
		c0.012,0,0.102,0.001,0.112,0.001c0.353,0,0.984-0.024,0.989-0.025c6.756-0.283,9.177-2.017,9.252-6.607
		c0.027-1.09,0.012-8.89-0.005-17.922L183.798,60.341z M179.801,61.801c0.017,8.629,0.032,16.78,0.006,17.833
		c-0.026,1.643-0.04,2.467-5.416,2.692c-0.007,0.001-0.543,0.05-0.872,0.021c-0.01,0.001-0.104,0-0.115,0
		c-0.299,0-0.826-0.021-0.828-0.021c-1.611-0.075-2.866-0.241-3.835-0.506c-0.603-0.164-1.247-0.04-1.742,0.339
		c-0.497,0.378-0.788,0.967-0.787,1.591c0.01,12.338,0.01,21.785,0,23.495c-0.074,6.652-0.471,9.355-9.643,9.427
		c-1.157,0.002-3.453,0.003-6.608,0.003l-11.845-0.003c-0.97,0.002-2.722,0.003-5.1,0.003l-8.867-0.003
		c-1.433,0.002-3.751,0.003-6.748,0.003l-10.83-0.003c-0.005,0-0.097,0-0.101,0c-2.566,0.017-10.69,0.004-21.363-0.014
		c-10.672,0.019-18.764,0.031-21.371,0.014l-10.92,0.003c-2.996,0-5.315-0.001-6.754-0.003l-8.857,0.003
		c-2.38,0-4.138-0.001-5.189-0.003l-11.748,0.003c-3.152,0-5.45-0.001-6.6-0.003c-9.2-0.072-9.592-2.774-9.655-9.421
		C3.989,104.462,4,82.541,4.036,60.333C4,38.141,3.989,16.224,4.012,13.434c0.065-6.936,0.872-9.368,9.643-9.429
		c1.164-0.002,3.462-0.003,6.617-0.003l11.817,0.003c0.978-0.002,2.748-0.003,5.148-0.003l8.934,0.003l6.755-0.003l10.816,0.003
		c2.57-0.008,10.688-0.003,21.37,0.014C92.336,4.007,98.393,4,102.35,4c1.888,0,3.298,0.001,4.199,0.004l10.747-0.003l6.756,0.003
		l8.925-0.003c2.397,0,4.165,0.001,5.191,0.003l11.785-0.003c3.159,0,5.458,0.001,6.605,0.003c9.182,0.064,9.578,2.771,9.652,9.421
		c0.01,1.718,0.01,11.16,0,23.497c-0.001,0.625,0.292,1.215,0.79,1.594c0.497,0.378,1.144,0.502,1.747,0.334
		c0.928-0.259,2.182-0.424,3.812-0.503c0.007,0,0.56-0.022,0.859-0.022h0.13c0.29,0,0.833,0.022,0.833,0.022
		c5.384,0.233,5.397,1.052,5.425,2.699c0.025,1.047,0.01,9.204-0.007,17.84l-0.003,1.455L179.801,61.801z"/>
	<path style="fill:#231F20;" d="M40.76,82.259c0.409,0,0.822-0.125,1.178-0.385l36.928-26.985l3.89,17.717
		c0.147,0.673,0.632,1.223,1.28,1.455s1.371,0.114,1.913-0.314l40.92-32.332c0.866-0.685,1.014-1.942,0.329-2.809
		c-0.685-0.867-1.943-1.014-2.81-0.33l-38.411,30.35l-3.862-17.59c-0.145-0.66-0.613-1.203-1.245-1.442
		c-0.634-0.24-1.343-0.144-1.888,0.256L39.579,78.644c-0.893,0.652-1.087,1.903-0.436,2.795
		C39.536,81.975,40.143,82.259,40.76,82.259z"/>
	<path style="fill:#231F20;" d="M17.207,9.684c-0.235,0-2.351,0.043-4.458,1.549c-1.886,1.347-4.134,4.152-4.134,9.867v79.567
		c0,1.104,0.896,2,2,2s2-0.896,2-2V21.1c0-7.05,4.122-7.4,4.616-7.416c1.093-0.013,1.976-0.903,1.976-2
		C19.207,10.58,18.311,9.684,17.207,9.684z"/>
	<path style="fill:#231F20;" d="M33.214,75.831c1.104,0,2-0.896,2-2V30.046c0-1.104-0.896-2-2-2s-2,0.896-2,2v43.786
		C31.214,74.936,32.11,75.831,33.214,75.831z"/>
</g>
<g>
</g>
<g>
</g>
<g>
</g>
<g>
</g>
<g>
</g>
<g>
</g>
<g>
</g>
<g>
</g>
<g>
</g>
<g>
</g>
<g>
</g>
<g>
</g>
<g>
</g>
<g>
</g>
<g>
</g>
</svg>
