<?xml version="1.0" encoding="iso-8859-1"?>
<!-- Generator: Adobe Illustrator 18.0.0, SVG Export Plug-In . SVG Version: 6.00 Build 0)  -->
<!DOCTYPE svg PUBLIC "-//W3C//DTD SVG 1.1//EN" "http://www.w3.org/Graphics/SVG/1.1/DTD/svg11.dtd">
<svg version="1.1" id="Capa_1" xmlns="http://www.w3.org/2000/svg" xmlns:xlink="http://www.w3.org/1999/xlink" x="0px" y="0px"
	 viewBox="0 0 181.997 113.366" style="enable-background:new 0 0 181.997 113.366;" xml:space="preserve">
<g>
	<path style="fill:#231F20;" d="M30.348,59.62c-12.571,0-22.799,10.229-22.799,22.801s10.228,22.801,22.799,22.801
		s22.799-10.229,22.799-22.801S42.919,59.62,30.348,59.62z M30.348,101.222c-10.365,0-18.799-8.434-18.799-18.801
		S19.983,63.62,30.348,63.62c10.366,0,18.799,8.434,18.799,18.801S40.714,101.222,30.348,101.222z"/>
	<path style="fill:#231F20;" d="M178.884,64.814C172.681,49.406,139.517,0,123.975,0c-9.021,0.041-12.97,4.146-14.268,5.495
		l-0.175,0.181c-1.997,2.022-3.23,5.359-3.752,10.172c-0.255,0.01-0.506,0.02-0.751,0.03c-0.656,0.026-1.272,0.051-1.813,0.067
		c-0.614,0.012-5.637,0.02-12.214,0.02c-6.578,0-11.605-0.008-12.206-0.02c-0.557-0.017-1.168-0.041-1.819-0.067
		c-0.249-0.01-0.504-0.02-0.764-0.03c-0.517-4.805-1.748-8.142-3.743-10.167l-0.16-0.167C71.017,4.16,67.082,0.041,57.993,0
		C42.503,0,9.325,49.405,3.113,64.815C-4.57,83.909,2.46,104.79,18.785,111.362c3.305,1.33,6.805,2.003,10.403,2.003
		c13.869,0,27.189-9.933,33.147-24.718c1.518-3.782,3.232-8.993,4.955-15.051c0.592-0.034,1.379-0.091,2.406-0.166
		c4.154-0.303,11.889-0.866,21.305-0.873c9.409,0.007,17.146,0.57,21.303,0.873c1.024,0.074,1.809,0.131,2.405,0.166
		c1.746,6.119,3.454,11.31,4.956,15.053c5.954,14.784,19.273,24.716,33.146,24.716c3.599,0,7.102-0.674,10.41-2.004
		C179.54,104.787,186.566,83.905,178.884,64.814z M161.729,107.651c-2.831,1.138-5.831,1.715-8.917,1.715
		c-12.256,0-24.085-8.926-29.434-22.208c-1.515-3.776-3.261-9.122-5.068-15.525c-0.26-0.815-1.406-2-2.632-2
		c-0.439,0-1.606-0.085-3.083-0.192c-4.207-0.306-12.037-0.875-21.593-0.883c-9.563,0.007-17.391,0.577-21.596,0.883
		c-1.476,0.107-2.642,0.192-3.105,0.192c-1.222,0-2.343,1.165-2.629,2.066c-1.775,6.307-3.521,11.653-5.048,15.456
		c-5.353,13.285-17.183,22.211-29.436,22.211c-3.084,0-6.082-0.577-8.91-1.714C5.999,101.903-0.036,83.356,6.823,66.309
		c3.284-8.145,13.334-24.128,23.378-37.179C42.312,13.395,52.701,4,58.013,4c7.352,0.033,10.296,3.116,11.404,4.276l0.2,0.208
		c1.043,1.059,2.368,3.555,2.761,9.435c0.068,1.029,0.908,1.837,1.938,1.866c0.878,0.025,1.719,0.059,2.5,0.09
		c0.667,0.027,1.293,0.052,1.883,0.069c0.755,0.015,6.723,0.021,12.303,0.021c5.579,0,11.544-0.006,12.312-0.021
		c0.573-0.017,1.203-0.042,1.876-0.069c0.78-0.031,1.617-0.064,2.485-0.089c1.03-0.029,1.869-0.835,1.938-1.863
		c0.4-5.89,1.725-8.382,2.762-9.433l0.216-0.222c1.113-1.158,4.072-4.234,11.421-4.268c5.291,0,15.681,9.395,27.79,25.13
		c10.047,13.055,20.095,29.038,23.371,37.178C182.032,83.354,176,101.9,161.729,107.651z"/>
	<path style="fill:#231F20;" d="M151.649,59.62c-12.573,0-22.802,10.229-22.802,22.801s10.229,22.801,22.802,22.801
		c12.572,0,22.801-10.229,22.801-22.801S164.221,59.62,151.649,59.62z M151.649,101.222c-10.367,0-18.802-8.434-18.802-18.801
		s8.435-18.801,18.802-18.801s18.801,8.434,18.801,18.801S162.016,101.222,151.649,101.222z"/>
	<path style="fill:#231F20;" d="M120.441,35.396c-0.563-0.394-2.059-1.44-29.44-1.44c-27.385,0-28.876,1.048-29.437,1.442
		c-3.551,2.493-8.045,9.723-8.045,12.22c0,4.014,5.923,4.775,17.583,4.83c0.69,0.005,10.798,0.007,19.897,0.007
		s19.208-0.002,19.896-0.007c11.659-0.055,17.579-0.816,17.579-4.83C128.474,45.126,123.989,37.899,120.441,35.396z M110.87,48.447
		c-0.683,0.005-10.779,0.007-19.871,0.007s-19.188-0.002-19.873-0.007c-9.514-0.044-12.532-0.742-13.487-1.195
		c0.651-1.814,3.567-6.578,6.037-8.446c1.812-0.419,11.779-0.852,27.324-0.852s25.515,0.432,27.329,0.852
		c2.492,1.894,5.438,6.738,6.042,8.439C123.437,47.697,120.442,48.402,110.87,48.447z"/>
	<path style="fill:#231F20;" d="M28.626,47.417c0.579,0,1.153-0.25,1.549-0.733c0.196-0.24,19.695-24.063,25.7-30.496
		c1.042-1.115,2.623-2.414,4.11-2.267c1.627,0.159,2.734,1.883,2.772,1.942c0.571,0.938,1.794,1.24,2.737,0.674
		c0.947-0.568,1.254-1.797,0.686-2.744c-0.212-0.354-2.179-3.471-5.756-3.849c-2.536-0.272-5.049,0.914-7.474,3.513
		c-6.094,6.528-25.067,29.709-25.872,30.692c-0.699,0.855-0.573,2.115,0.281,2.814C27.733,47.269,28.181,47.417,28.626,47.417z"/>
	<path style="fill:#231F20;" d="M23.413,70.264c-0.244,0.114-6.009,2.849-7.704,8.692c-1.094,3.768-0.254,7.847,2.494,12.124
		c0.383,0.594,1.026,0.919,1.685,0.919c0.37,0,0.745-0.103,1.079-0.318c0.93-0.598,1.198-1.835,0.602-2.764
		c-2.089-3.25-2.771-6.216-2.026-8.818c1.168-4.081,5.503-6.181,5.562-6.209c0.997-0.467,1.43-1.654,0.966-2.653
		C25.605,70.233,24.417,69.799,23.413,70.264z"/>
	<path style="fill:#231F20;" d="M142.265,71.003c-2.666,2.311-6.566,9.069-2.243,18.108c0.344,0.718,1.06,1.138,1.806,1.138
		c0.29,0,0.584-0.063,0.862-0.196c0.996-0.477,1.418-1.67,0.941-2.667c-4.044-8.455,1.025-13.155,1.264-13.369
		c0.825-0.725,0.911-1.981,0.191-2.812C144.363,70.371,143.1,70.278,142.265,71.003z"/>
</g>
<g>
</g>
<g>
</g>
<g>
</g>
<g>
</g>
<g>
</g>
<g>
</g>
<g>
</g>
<g>
</g>
<g>
</g>
<g>
</g>
<g>
</g>
<g>
</g>
<g>
</g>
<g>
</g>
<g>
</g>
</svg>
