<?xml version="1.0" encoding="iso-8859-1"?>
<!-- Generator: Adobe Illustrator 18.0.0, SVG Export Plug-In . SVG Version: 6.00 Build 0)  -->
<!DOCTYPE svg PUBLIC "-//W3C//DTD SVG 1.1//EN" "http://www.w3.org/Graphics/SVG/1.1/DTD/svg11.dtd">
<svg version="1.1" id="Capa_1" xmlns="http://www.w3.org/2000/svg" xmlns:xlink="http://www.w3.org/1999/xlink" x="0px" y="0px"
	 viewBox="0 0 160.288 180.3" style="enable-background:new 0 0 160.288 180.3;" xml:space="preserve">
<g>
	<path style="fill:#231F20;" d="M160.261,174.915V4.999c0-3.429-2.401-4.991-4.632-4.991c-0.071,0-0.13,0.001-0.176,0.003H79.321
		c-1.104,0-2,0.896-2,2v68.922L65.358,53.834c-0.374-0.535-0.986-0.854-1.639-0.854c-0.653,0-1.264,0.318-1.639,0.854l-11.966,17.1
		V2.011c0-1.104-0.896-2-2-2H27.068h-0.3H4.898C4.816,0.005,4.705,0,4.569,0C2.322,0,0.054,1.474,0.054,4.766v170.114
		c-0.093,0.663-0.196,2.373,0.916,3.748c0.598,0.74,1.749,1.621,3.838,1.621h21.959c0,0,55.229,0.051,93.206,0.051
		c22.379,0,33.834-0.017,35.02-0.052c2.374-0.068,3.644-1.039,4.292-1.841C160.361,177.073,160.325,175.519,160.261,174.915z
		 M4.081,176.114c-0.074-0.087-0.108-0.446-0.072-0.653c0.029-0.138,0.044-0.279,0.044-0.42V4.766C4.054,4,4.215,4,4.561,3.996
		c0.082,0.01,0.165,0.015,0.247,0.015h19.961v172.237H4.808C4.303,176.249,4.103,176.141,4.081,176.114z M156.172,175.893
		c-0.127,0.158-0.535,0.334-1.297,0.356c-0.778,0.023-7.465,0.05-34.903,0.05c-33.402,0-80.129-0.04-90.904-0.049V4.011h17.047
		V77.28c0,0.873,0.566,1.645,1.399,1.908c0.834,0.263,1.739-0.045,2.24-0.761L63.72,58.47l13.963,19.957
		c0.5,0.715,1.408,1.022,2.24,0.761c0.833-0.263,1.399-1.035,1.399-1.908V4.011h74.189c0.097,0,0.028,0.009,0.118-0.003
		c0.311,0,0.632,0,0.632,0.991v170.042c0,0.122,0.011,0.244,0.033,0.364C156.294,175.407,156.302,175.732,156.172,175.893z"/>
	<path style="fill:#231F20;" d="M11.639,9.831c-1.104,0-2,0.896-2,2v155.532c0,1.104,0.896,2,2,2s2-0.896,2-2V11.831
		C13.639,10.727,12.743,9.831,11.639,9.831z"/>
	<path style="fill:#231F20;" d="M36.75,9.966c-1.104,0-2,0.896-2,2v66.143c0,1.104,0.896,2,2,2s2-0.896,2-2V11.966
		C38.75,10.862,37.854,9.966,36.75,9.966z"/>
</g>
<g>
</g>
<g>
</g>
<g>
</g>
<g>
</g>
<g>
</g>
<g>
</g>
<g>
</g>
<g>
</g>
<g>
</g>
<g>
</g>
<g>
</g>
<g>
</g>
<g>
</g>
<g>
</g>
<g>
</g>
</svg>
