<?xml version="1.0" encoding="iso-8859-1"?>
<!-- Generator: Adobe Illustrator 18.0.0, SVG Export Plug-In . SVG Version: 6.00 Build 0)  -->
<!DOCTYPE svg PUBLIC "-//W3C//DTD SVG 1.1//EN" "http://www.w3.org/Graphics/SVG/1.1/DTD/svg11.dtd">
<svg version="1.1" id="Capa_1" xmlns="http://www.w3.org/2000/svg" xmlns:xlink="http://www.w3.org/1999/xlink" x="0px" y="0px"
	 viewBox="0 0 192.832 128.749" style="enable-background:new 0 0 192.832 128.749;" xml:space="preserve">
<g>
	<path style="fill:#231F20;" d="M56.416,89.498c-0.025,0-0.07,0.001-0.116,0.002H4.294c-0.061,0-0.122,0.003-0.183,0.008
		c-1.983,0.165-4.013,1.576-4.055,3.972c-0.011,1.104-0.124,27.628,0.003,30.592c0.17,3.692,2.631,4.678,4.058,4.678
		c0.037,0,0.092-0.001,0.148-0.004h52.249c0.039,0.001,0.075,0.002,0.1,0.002c1.954,0,4.087-1.406,4.149-4.5
		c0.045-2.646,0.021-28.329,0-30.473C60.722,90.836,58.481,89.498,56.416,89.498z M56.352,124.165
		c-0.002,0.064-0.005,0.12-0.01,0.166H4.522c-0.022-0.105-0.044-0.255-0.053-0.455c-0.109-2.567-0.027-26.2-0.002-29.962
		l51.885-0.003C56.372,96.474,56.393,121.712,56.352,124.165z"/>
	<path style="fill:#231F20;" d="M122.445,89.498c-0.025,0-0.07,0.001-0.116,0.002H70.315c-0.061,0-0.122,0.003-0.183,0.008
		c-1.98,0.165-4.008,1.576-4.049,3.957c-0.024,1.405-0.126,27.61,0.001,30.6c0.159,3.698,2.626,4.685,4.058,4.685
		c0.038,0,0.093-0.001,0.149-0.004h52.249c0.038,0.001,0.075,0.002,0.1,0.002c1.947,0,4.075-1.404,4.145-4.496
		c0.048-2.571,0.023-28.297,0.001-30.468C126.756,90.839,124.515,89.498,122.445,89.498z M122.372,124.16
		c-0.002,0.067-0.006,0.124-0.011,0.171H70.545c-0.021-0.105-0.043-0.255-0.051-0.455c-0.107-2.517-0.041-26.145-0.003-29.962
		l51.881-0.003C122.395,96.572,122.418,121.643,122.372,124.16z"/>
	<path style="fill:#231F20;" d="M192.807,93.783c-0.031-2.944-2.271-4.285-4.341-4.285c-0.025,0-0.07,0.001-0.116,0.002h-52.018
		c-0.062,0-0.122,0.003-0.184,0.008c-1.978,0.165-4,1.577-4.04,3.957c-0.024,1.421-0.127,27.697,0.001,30.596
		c0.152,3.701,2.622,4.688,4.058,4.688c0.038,0,0.092-0.001,0.149-0.004h52.248c0.039,0.001,0.075,0.002,0.1,0.002
		c1.958,0,4.089-1.408,4.142-4.497C192.852,121.714,192.828,95.972,192.807,93.783z M188.394,124.172
		c-0.001,0.062-0.005,0.114-0.009,0.159h-51.815c-0.021-0.106-0.042-0.256-0.051-0.459c-0.115-2.601-0.03-26.446-0.002-29.958
		l51.877-0.003C188.415,96.591,188.439,121.678,188.394,124.172z"/>
	<path style="fill:#231F20;" d="M34.135,84.005c0.038,0,0.093-0.001,0.149-0.004h52.248c0.038,0.001,0.073,0.002,0.098,0.002
		c1.952,0,4.08-1.411,4.137-4.503c0.055-2.656,0.026-28.334,0.001-30.46c-0.031-2.946-2.27-4.287-4.337-4.287
		c-0.026,0-0.076,0.001-0.126,0.002H34.302c-0.058,0-0.115,0.003-0.172,0.007c-1.984,0.155-4.017,1.56-4.063,3.961
		c-0.014,1.22-0.12,27.651,0.003,30.604C30.239,83.02,32.705,84.005,34.135,84.005z M34.477,49.169l51.878-0.003
		c0.024,2.517,0.05,27.775,0,30.248c-0.002,0.067-0.005,0.125-0.01,0.173H34.531c-0.022-0.105-0.044-0.253-0.053-0.453
		C34.373,76.604,34.448,53.005,34.477,49.169z"/>
	<path style="fill:#231F20;" d="M106.162,44.762c-1.993,0.155-4.031,1.562-4.069,3.955c-0.021,1.377-0.124,27.717,0.001,30.602
		c0.156,3.7,2.623,4.687,4.055,4.687c0.038,0,0.093-0.001,0.149-0.004h52.256c0.037,0.001,0.073,0.002,0.097,0.002
		c1.955,0,4.085-1.411,4.142-4.507c0.05-2.673,0.024-28.511,0-30.46c-0.035-2.943-2.27-4.283-4.33-4.283
		c-0.026,0-0.076,0.001-0.126,0.002h-52.003C106.276,44.755,106.219,44.758,106.162,44.762z M106.502,49.169l51.878-0.003
		c0.03,2.935,0.043,27.92,0,30.248c-0.002,0.068-0.005,0.125-0.01,0.173h-51.815c-0.022-0.106-0.043-0.255-0.051-0.457
		C106.392,76.543,106.477,52.707,106.502,49.169z"/>
	<path style="fill:#231F20;" d="M70.148,39.26c0.036,0,0.088-0.002,0.142-0.004h52.253c0.035,0.001,0.067,0.001,0.091,0.001
		c1.951,0,4.082-1.407,4.151-4.505c0.048-2.556,0.023-28.289,0.001-30.467C126.755,1.341,124.51,0,122.437,0
		c-0.023,0-0.064,0.001-0.106,0.002H70.315c-0.058,0-0.115,0.003-0.172,0.007c-1.986,0.155-4.019,1.564-4.06,3.958
		c-0.023,1.406-0.126,27.613,0.001,30.601C66.243,38.271,68.713,39.26,70.148,39.26z M70.491,4.416l51.881-0.002
		c0.022,2.67,0.046,27.744,0,30.247c-0.002,0.071-0.006,0.132-0.012,0.181H70.547c-0.022-0.106-0.044-0.258-0.053-0.463
		C70.387,31.863,70.453,8.234,70.491,4.416z"/>
	<path style="fill:#231F20;" d="M41.027,73.608c1.219,0,2.207-0.988,2.207-2.207V55.453c0-1.219-0.988-2.207-2.207-2.207
		s-2.207,0.988-2.207,2.207v15.948C38.819,72.62,39.808,73.608,41.027,73.608z"/>
	<path style="fill:#231F20;" d="M11.062,99.644c-1.219,0-2.207,0.988-2.207,2.207v15.948c0,1.219,0.988,2.207,2.207,2.207
		s2.207-0.988,2.207-2.207v-15.948C13.269,100.632,12.28,99.644,11.062,99.644z"/>
	<path style="fill:#231F20;" d="M77.341,99.644c-1.219,0-2.207,0.988-2.207,2.207v15.948c0,1.219,0.988,2.207,2.207,2.207
		s2.207-0.988,2.207-2.207v-15.948C79.548,100.632,78.56,99.644,77.341,99.644z"/>
	<path style="fill:#231F20;" d="M142.586,99.644c-1.219,0-2.207,0.988-2.207,2.207v15.948c0,1.219,0.988,2.207,2.207,2.207
		s2.207-0.988,2.207-2.207v-15.948C144.793,100.632,143.805,99.644,142.586,99.644z"/>
	<path style="fill:#231F20;" d="M76.791,29.146c1.219,0,2.207-0.988,2.207-2.207V10.99c0-1.219-0.988-2.207-2.207-2.207
		s-2.207,0.988-2.207,2.207v15.948C74.584,28.157,75.572,29.146,76.791,29.146z"/>
	<path style="fill:#231F20;" d="M113.522,75.059c1.219,0,2.207-0.988,2.207-2.207V56.903c0-1.219-0.988-2.207-2.207-2.207
		s-2.207,0.988-2.207,2.207v15.948C111.315,74.07,112.303,75.059,113.522,75.059z"/>
</g>
<g>
</g>
<g>
</g>
<g>
</g>
<g>
</g>
<g>
</g>
<g>
</g>
<g>
</g>
<g>
</g>
<g>
</g>
<g>
</g>
<g>
</g>
<g>
</g>
<g>
</g>
<g>
</g>
<g>
</g>
</svg>
