<?xml version="1.0" encoding="iso-8859-1"?>
<!-- Generator: Adobe Illustrator 18.0.0, SVG Export Plug-In . SVG Version: 6.00 Build 0)  -->
<!DOCTYPE svg PUBLIC "-//W3C//DTD SVG 1.1//EN" "http://www.w3.org/Graphics/SVG/1.1/DTD/svg11.dtd">
<svg version="1.1" id="Capa_1" xmlns="http://www.w3.org/2000/svg" xmlns:xlink="http://www.w3.org/1999/xlink" x="0px" y="0px"
	 viewBox="0 0 198.727 154.667" style="enable-background:new 0 0 198.727 154.667;" xml:space="preserve">
<g>
	<path style="fill:#231F20;" d="M24.439,25.481h14.901c1.219,0,2.207-0.988,2.207-2.207s-0.988-2.207-2.207-2.207H24.439
		c-1.219,0-2.207,0.988-2.207,2.207S23.221,25.481,24.439,25.481z"/>
	<path style="fill:#231F20;" d="M48.706,25.481h14.901c1.219,0,2.207-0.988,2.207-2.207s-0.988-2.207-2.207-2.207H48.706
		c-1.219,0-2.207,0.988-2.207,2.207S47.487,25.481,48.706,25.481z"/>
	<path style="fill:#231F20;" d="M198.725,138.91v-0.135c0,0-0.081-121.304-0.081-126.698c0-3.483-1.106-6.317-3.288-8.426
		c-3.942-3.809-9.966-3.641-10.143-3.641h-54.706C130.435,0.004,130.362,0,130.288,0H67.919c-0.073,0-0.146,0.004-0.218,0.011
		L13.588,0.013C13.336,0.007,7.313-0.158,3.369,3.651C1.188,5.76,0.081,8.594,0.081,12.077C0.081,17.472,0,138.775,0,138.775
		c0,0.091,0.002,0.164,0.01,0.238c-0.033,2.843,0.464,7.985,4,11.671c2.063,2.503,4.718,3.835,7.893,3.958
		c0.419,0.017,43.849,0.024,87.324,0.024c43.571,0,87.188-0.008,87.585-0.024c3.183-0.123,5.84-1.454,7.901-3.958
		C198.299,146.948,198.767,141.69,198.725,138.91z M191.483,147.676c-0.048,0.048-0.093,0.099-0.135,0.151
		c-1.252,1.545-2.792,2.331-4.68,2.404c-2.448,0.047-172.176,0.046-174.595,0.001c-1.909-0.074-3.446-0.861-4.701-2.406
		c-0.042-0.052-0.087-0.103-0.133-0.15c-2.637-2.702-2.847-7.002-2.814-8.766c0-0.092-0.005-0.18-0.012-0.257
		c0.003-4.365,0.081-121.282,0.081-126.576c0-2.263,0.629-3.976,1.925-5.235c2.581-2.513,6.979-2.43,7.092-2.417h54.407
		c0.073,0,0.146-0.004,0.218-0.011h61.933c0.071,0.007,0.145,0.011,0.219,0.011l55.001-0.002c0.045,0.002,4.427-0.082,7,2.403
		c1.306,1.262,1.94,2.979,1.94,5.251c0,5.395,0.081,126.702,0.081,126.7l0.001,0.166
		C194.337,140.671,194.114,144.98,191.483,147.676z"/>
	<path style="fill:#231F20;" d="M173.264,40.396H25.465c-1.219,0-2.207,0.988-2.207,2.207v85.605c0,1.219,0.988,2.207,2.207,2.207
		h147.799c1.219,0,2.207-0.988,2.207-2.207V42.603C175.471,41.384,174.482,40.396,173.264,40.396z M171.057,126.001H27.672V44.81
		h143.385V126.001z"/>
	<path style="fill:#231F20;" d="M174.723,21.067h-64.285c-1.219,0-2.207,0.988-2.207,2.207s0.988,2.207,2.207,2.207h64.285
		c1.219,0,2.207-0.988,2.207-2.207S175.941,21.067,174.723,21.067z"/>
	<path style="fill:#231F20;" d="M117.654,86.66c1.068,0.265,2.156-0.389,2.422-1.461c0.779-3.146,3.574-5.345,6.798-5.345
		c3.872,0,7.021,3.153,7.021,7.028c0,3.877-3.149,7.03-7.021,7.03c-3.188,0-5.973-2.171-6.772-5.278
		c-0.227-0.884-1.023-1.502-1.937-1.502H101.38c-0.531,0-1.041,0.212-1.416,0.588c-0.376,0.377-0.586,0.887-0.584,1.418
		l0.036,11.562c0.003,0.91,0.62,1.704,1.501,1.931c3.112,0.802,5.286,3.586,5.286,6.771c0,3.877-3.153,7.03-7.03,7.03
		c-3.873,0-7.024-3.153-7.024-7.03c0-3.225,2.196-6.02,5.342-6.797c1.072-0.265,1.727-1.349,1.462-2.421s-1.35-1.728-2.421-1.462
		c-4.936,1.219-8.383,5.61-8.383,10.68c0,6.082,4.945,11.03,11.024,11.03c6.082,0,11.03-4.948,11.03-11.03
		c0-4.48-2.726-8.454-6.792-10.144l-0.025-8.125h13.345c1.689,4.06,5.662,6.78,10.144,6.78c6.077,0,11.021-4.948,11.021-11.03
		c0-6.081-4.944-11.028-11.021-11.028c-5.066,0-9.459,3.447-10.681,8.384C115.928,85.311,116.582,86.395,117.654,86.66z"/>
	<path style="fill:#231F20;" d="M71.854,97.913c5.014,0,9.392-3.405,10.646-8.282c0.275-1.069-0.368-2.16-1.438-2.435
		c-1.075-0.274-2.16,0.37-2.435,1.438c-0.8,3.107-3.585,5.278-6.772,5.278c-3.875,0-7.028-3.153-7.028-7.03
		c0-3.875,3.153-7.028,7.028-7.028c3.222,0,6.016,2.198,6.795,5.345c0.221,0.893,1.021,1.52,1.941,1.52h16.374
		c0.531,0,1.041-0.212,1.417-0.588c0.375-0.377,0.585-0.888,0.583-1.419l-0.048-13.701c-0.003-0.908-0.618-1.7-1.497-1.929
		c-3.104-0.807-5.271-3.595-5.271-6.779c0-3.872,3.151-7.021,7.024-7.021c3.877,0,7.03,3.149,7.03,7.021
		c0,3.236-2.201,6.034-5.353,6.806c-1.072,0.262-1.729,1.345-1.467,2.417c0.262,1.074,1.341,1.729,2.418,1.468
		c4.946-1.209,8.401-5.605,8.401-10.69c0-6.077-4.948-11.021-11.03-11.021c-6.079,0-11.024,4.944-11.024,11.021
		c0,4.477,2.718,8.453,6.772,10.147l0.036,10.269H82.038c-1.669-4.11-5.657-6.864-10.185-6.864c-6.081,0-11.028,4.947-11.028,11.028
		C60.825,92.965,65.772,97.913,71.854,97.913z"/>
	<path style="fill:#231F20;" d="M28.839,140.422h-9.102c-1.389,0-2.44-0.442-3.31-1.392c-2.581-2.82-2.632-9.22-2.434-11.444
		c0.005-0.061,0.008-0.121,0.008-0.182V24.561c0-1.104-0.896-2-2-2s-2,0.896-2,2v102.76c-0.087,1.086-0.646,9.896,3.469,14.403
		c1.612,1.766,3.779,2.698,6.267,2.698h9.102c1.104,0,2-0.896,2-2S29.943,140.422,28.839,140.422z"/>
</g>
<g>
</g>
<g>
</g>
<g>
</g>
<g>
</g>
<g>
</g>
<g>
</g>
<g>
</g>
<g>
</g>
<g>
</g>
<g>
</g>
<g>
</g>
<g>
</g>
<g>
</g>
<g>
</g>
<g>
</g>
</svg>
