<?xml version="1.0" encoding="iso-8859-1"?>
<!-- Generator: Adobe Illustrator 18.0.0, SVG Export Plug-In . SVG Version: 6.00 Build 0)  -->
<!DOCTYPE svg PUBLIC "-//W3C//DTD SVG 1.1//EN" "http://www.w3.org/Graphics/SVG/1.1/DTD/svg11.dtd">
<svg version="1.1" id="Capa_1" xmlns="http://www.w3.org/2000/svg" xmlns:xlink="http://www.w3.org/1999/xlink" x="0px" y="0px"
	 viewBox="0 0 184.005 163.837" style="enable-background:new 0 0 184.005 163.837;" xml:space="preserve">
<g>
	<path style="fill:#231F20;" d="M183.57,42.438c-0.202-0.385-20.24-38.429-21.221-40.363C161.672,0.757,160.521,0,159.192,0
		c-1.329,0-2.64,0.805-3.268,2.015c-0.446,0.872-18.637,37.792-19.976,40.51c-0.545,0.876-0.882,2.165-0.274,3.316
		c0.395,0.747,1.29,1.637,3.312,1.637c0.71,0,3.716,0.005,7.826,0.012v92.207c-0.005,1.313-0.482,1.49-0.898,1.493
		c-0.047-0.003-0.094-0.005-0.142-0.005h-16.668c0.005-16.467,0.039-129.48-0.002-131.109c-0.092-3.058-2.472-4.449-4.643-4.449
		c-0.022,0-0.071,0.001-0.119,0.002H94.056C94,5.625,93.922,5.623,93.827,5.623c-2.268,0-4.565,1.335-4.583,4.309
		c-0.015,1.479-0.003,110.925-0.001,131.253h-2.228c-0.012-36.442-0.027-102.378,0-103.671c0.068-1.673-0.585-2.72-1.146-3.303
		c-1.174-1.224-2.772-1.355-3.404-1.355c-0.018,0-0.054,0-0.09,0.001H51.896c-1.9,0.019-4.73,1.252-4.74,4.557
		c-0.009,0.954-0.004,64.623,0,103.771h-3.287V65.136c0-3.628-2.756-4.945-4.612-4.945H8.805c-0.042-0.001-0.083-0.002-0.103-0.002
		c-2.221,0-4.637,1.421-4.691,4.53c-0.053,2.432-0.013,62.973-0.003,76.51c-2.379,0.295-3.914,1.868-3.97,4.182
		c-0.078,2.561-0.011,12.299-0.002,13.515c-0.048,0.572-0.051,2.054,1.003,3.292c0.629,0.738,1.843,1.619,4.056,1.619
		c0.003,0,0.031,0,0.034,0c0.657-0.003,14.78-0.004,41.976-0.004l119.428,0.004c2.423,0,3.821-0.946,4.567-1.74
		c1.404-1.494,1.446-3.369,1.433-3.838l0.013-110.742c2.907-0.005,6.453-0.016,7.471-0.04c2.153-0.053,3.131-0.972,3.573-1.732
		C184.459,44.244,183.718,42.713,183.57,42.438z M93.244,9.965c0.001-0.15,0.03-0.243,0.011-0.221
		c0.061-0.05,0.299-0.121,0.576-0.123c0.055,0.005,0.11,0.007,0.165,0.007l30.464-0.002c0.628,0,0.634,0.215,0.645,0.559
		c0.035,1.604,0.012,95.361,0,131H93.243C93.241,120.817,93.229,11.433,93.244,9.965z M51.156,37.438
		c0-0.178,0.001-0.547,0.76-0.582l30.548-0.001c0.207,0,0.458,0.069,0.513,0.117c0,0.001,0.052,0.099,0.041,0.389
		c-0.035,0.984-0.008,86.616-0.002,103.823H51.156C51.149,75.915,51.149,38.14,51.156,37.438z M8.01,64.798
		c0.006-0.354,0.011-0.609,0.66-0.611c0.039,0.003,0.079,0.004,0.118,0.004l30.441-0.001c0.472,0.024,0.64,0.271,0.64,0.946v76.049
		H8.007C7.998,127.558,7.958,67.193,8.01,64.798z M170.544,43.519c-1.104,0.001-1.999,0.896-1.999,2l-0.011,112.859
		c0,0.007,0,0.623-0.365,0.995c-0.376,0.384-1.098,0.464-1.637,0.464l-119.428-0.004c-27.202,0-41.331,0.001-41.993,0.004l-0.018,2
		v-2c-0.646,0-0.942-0.137-1.008-0.209c-0.055-0.061-0.078-0.247-0.076-0.288c0.018-0.11,0.026-0.223,0.025-0.334
		c-0.001-0.108-0.08-10.873,0-13.485c0.003-0.127,0.022-0.196,0.017-0.196c0,0,0,0-0.001,0c0.056-0.049,0.328-0.157,0.778-0.157
		c0.079,0,0.137,0.004,0.141,0.004h0c0.078,0.009,0.157,0.014,0.236,0.014h0.802h35.859h7.288h35.859h6.228h35.861h18.646
		c0.046,0.001,0.091,0.002,0.114,0.002c2.453,0,4.934-1.692,4.948-5.482V45.493c0-1.104-0.893-1.998-1.996-2
		c-4.005-0.008-7.26-0.013-8.878-0.015c6.269-12.724,17.09-34.682,19.19-38.924c2.599,4.991,17.707,33.679,20.472,38.93
		C178.366,43.502,175.13,43.515,170.544,43.519z"/>
	<path style="fill:#231F20;" d="M13.448,134.588c1.104,0,2-0.896,2-2V70.271c0-1.104-0.896-2-2-2s-2,0.896-2,2v62.316
		C11.448,133.692,12.343,134.588,13.448,134.588z"/>
	<path style="fill:#231F20;" d="M57.959,42.249c-1.104,0-2,0.896-2,2v89.023c0,1.104,0.896,2,2,2s2-0.896,2-2V44.249
		C59.959,43.145,59.063,42.249,57.959,42.249z"/>
	<path style="fill:#231F20;" d="M100.786,15.542c-1.104,0-2,0.896-2,2v113.676c0,1.104,0.896,2,2,2s2-0.896,2-2V17.542
		C102.786,16.438,101.89,15.542,100.786,15.542z"/>
	<path style="fill:#231F20;" d="M156.938,44.303c-1.104,0-2,0.896-2,2v94.502c0,1.104,0.896,2,2,2s2-0.896,2-2V46.303
		C158.938,45.198,158.043,44.303,156.938,44.303z"/>
	<path style="fill:#231F20;" d="M157.56,16.571l-10.272,18.489c-0.536,0.966-0.188,2.184,0.777,2.72
		c0.308,0.171,0.641,0.252,0.969,0.252c0.703,0,1.385-0.371,1.75-1.028l10.272-18.489c0.536-0.966,0.188-2.184-0.777-2.72
		C159.313,15.258,158.096,15.606,157.56,16.571z"/>
</g>
<g>
</g>
<g>
</g>
<g>
</g>
<g>
</g>
<g>
</g>
<g>
</g>
<g>
</g>
<g>
</g>
<g>
</g>
<g>
</g>
<g>
</g>
<g>
</g>
<g>
</g>
<g>
</g>
<g>
</g>
</svg>
