<?xml version="1.0" encoding="iso-8859-1"?>
<!-- Generator: Adobe Illustrator 18.0.0, SVG Export Plug-In . SVG Version: 6.00 Build 0)  -->
<!DOCTYPE svg PUBLIC "-//W3C//DTD SVG 1.1//EN" "http://www.w3.org/Graphics/SVG/1.1/DTD/svg11.dtd">
<svg version="1.1" id="Capa_1" xmlns="http://www.w3.org/2000/svg" xmlns:xlink="http://www.w3.org/1999/xlink" x="0px" y="0px"
	 viewBox="0 0 179.361 153.546" style="enable-background:new 0 0 179.361 153.546;" xml:space="preserve">
<g>
	<path style="fill:#231F20;" d="M170.982,49.391c0.049-1.204-0.355-2.316-1.139-3.132c-0.741-0.771-1.78-1.213-2.854-1.213
		c-0.003,0-0.005,0-0.008,0c-2.762,0.011-26.749,0.042-54.524,0.077c-56.282,0.073-99.397,0.131-100.202,0.158
		c-3.273,0.115-3.95,2.289-4.06,3.548c-0.044,0.438,0.176,91.751,0.218,92.136c0.113,1.285,0.792,3.458,4.076,3.57
		c0.055,0.002,0.32,0.003,0.785,0.003c6.968,0,60.78-0.174,104.019-0.313c26.005-0.084,47.31-0.153,49.922-0.156
		c1.07,0,2.105-0.444,2.842-1.221c0.785-0.827,1.182-1.954,1.119-3.116C171.141,137.754,170.954,50.772,170.982,49.391z
		 M167.18,140.068c-2.761,0.004-23.999,0.072-49.898,0.156c-43.236,0.14-97.044,0.313-104.006,0.313c-0.386,0-0.616,0-0.661-0.001
		c-0.083-0.003-0.153-0.007-0.213-0.013c-0.051-4.685-0.246-86.427-0.218-91.232c0.056-0.006,0.123-0.01,0.201-0.013
		c1.236-0.028,56.041-0.099,100.078-0.156c27.675-0.035,51.59-0.066,54.503-0.077c0.011,0.026,0.024,0.075,0.023,0.126
		c-0.044,0.632,0.144,89.634,0.191,90.715C167.186,139.989,167.172,140.049,167.18,140.068z"/>
	<path style="fill:#231F20;" d="M179.286,62.314c-0.021-19.373-0.036-34.855-0.036-37.106c-0.011-6.822-6.122-10.898-12.023-10.898
		c-0.401,0-6.464,0.014-15.966,0.036l0.006-4.996c-0.004-3.179-0.022-5.132-0.032-5.419c-0.173-2.442-1.39-3.685-3.766-3.901
		C147.3,0.009,147.231,0,141.973,0c-2.932,0-10.024,0.007-10.228,0.016c-2.403,0.067-3.775,1.416-3.961,3.822
		c-0.018,0.15-0.026,0.224-0.027,10.563c-23.644,0.057-53.559,0.129-77.071,0.188l0.009-5.244c-0.008-3.016-0.026-5.105-0.037-5.417
		c-0.177-2.443-1.396-3.685-3.76-3.897C46.719,0.008,46.659,0,41.397,0C38.464,0,31.37,0.007,31.168,0.016
		c-2.401,0.067-3.771,1.417-3.967,3.94c-0.003,0.06-0.01,0.178-0.011,10.693c-15.037,0.04-15.238,0.046-15.296,0.048
		C4.515,14.86,0.172,21.93,0.009,25.522c-0.026,0.615,0.008,6.804,0.081,19.621c0.15,26.4,0.432,75.542,0.139,95.683
		c-0.107,8.086,5.79,12.158,11.695,12.607c1.411,0.098,38.319,0.112,60.194,0.112c0.012,0,0.021,0,0.033,0
		c36.865,0,84.536-0.044,94.033-0.107c7.901-0.087,13.197-5.299,13.177-12.964C179.35,123.564,179.315,89.194,179.286,62.314z
		 M166.148,149.438c-9.48,0.063-57.137,0.107-93.997,0.107c-0.009,0-0.024,0-0.033,0c-36.344,0-58.746-0.038-59.904-0.102
		c-3.911-0.298-8.063-2.704-7.985-8.562C4.522,120.703,4.24,71.535,4.09,45.121C4.029,34.61,3.982,26.31,4.005,25.698
		c0.063-1.401,2.688-6.886,7.975-7.002c0.144-0.003,2.11-0.012,17.216-0.052c1.103-0.003,1.995-0.897,1.995-2
		c0-6.377,0.003-11.826,0.007-12.478c0.005-0.058,0.012-0.107,0.018-0.15c0.018-0.001,0.035-0.002,0.055-0.003
		C31.564,4.009,36.884,4,41.397,4c4.425,0,5.062,0.004,5.063,0.007c0.074,0.007,0.139,0.014,0.193,0.021
		c0.003,0.031,0.007,0.065,0.01,0.103c0.005,0.199,0.022,2.072,0.031,5.219l-0.012,7.242c-0.001,0.532,0.21,1.043,0.586,1.419
		c0.375,0.375,0.884,0.585,1.414,0.585c0.002,0,0.003,0,0.005,0c24.454-0.062,56.469-0.14,81.074-0.198
		c1.103-0.003,1.995-0.897,1.995-2c0-6.997,0.005-11.924,0.008-12.169c0.007-0.084,0.015-0.153,0.022-0.211
		c0.019-0.001,0.039-0.002,0.06-0.003C132.141,4.009,137.46,4,141.973,4c4.433,0,5.066,0.012,5.068,0.006
		c0.073,0.007,0.136,0.014,0.189,0.021c0.004,0.032,0.007,0.066,0.01,0.104c0.005,0.199,0.022,2.071,0.026,5.22l-0.009,6.998
		c-0.001,0.532,0.21,1.042,0.587,1.418c0.375,0.375,0.883,0.585,1.413,0.585c0.002,0,0.003,0,0.005,0
		c10.645-0.025,17.535-0.041,17.964-0.041c3.938,0,8.017,2.583,8.023,6.901c0,2.248,0.016,17.732,0.036,37.108
		c0.028,26.879,0.063,61.248,0.075,78.162C175.376,145.943,171.843,149.376,166.148,149.438z"/>
	<path style="fill:#231F20;" d="M10.695,38.817c1.104,0,2-0.896,2-2c0-7.442,2.319-9.483,3.462-9.525
		c0.118,0.019,0.062,0.006,0.182,0.003l12.314-0.349c1.104-0.031,1.974-0.951,1.942-2.056s-0.93-1.99-2.056-1.942l-12.279,0.348
		c-0.002,0-0.004,0-0.006,0c-0.547,0-2.313,0.135-4.013,1.732c-2.354,2.211-3.547,6.178-3.547,11.789
		C8.695,37.922,9.591,38.817,10.695,38.817z"/>
	<path style="fill:#231F20;" d="M18.122,56.813c-1.104,0-2,0.896-2,2v76.111c0,1.104,0.896,2,2,2s2-0.896,2-2V58.813
		C20.122,57.709,19.227,56.813,18.122,56.813z"/>
	<path style="fill:#231F20;" d="M115.549,68.335h-15.361c-1.104,0-2,0.896-2,2s0.896,2,2,2h15.361c1.104,0,2-0.896,2-2
		S116.653,68.335,115.549,68.335z"/>
	<path style="fill:#231F20;" d="M148.368,68.335h-15.361c-1.104,0-2,0.896-2,2s0.896,2,2,2h15.361c1.104,0,2-0.896,2-2
		S149.473,68.335,148.368,68.335z"/>
	<path style="fill:#231F20;" d="M148.368,85.094h-15.361c-1.104,0-2,0.896-2,2s0.896,2,2,2h15.361c1.104,0,2-0.896,2-2
		S149.473,85.094,148.368,85.094z"/>
	<path style="fill:#231F20;" d="M114.851,85.094H99.489c-1.104,0-2,0.896-2,2s0.896,2,2,2h15.361c1.104,0,2-0.896,2-2
		S115.955,85.094,114.851,85.094z"/>
	<path style="fill:#231F20;" d="M81.333,85.094H65.972c-1.104,0-2,0.896-2,2s0.896,2,2,2h15.361c1.104,0,2-0.896,2-2
		S82.438,85.094,81.333,85.094z"/>
	<path style="fill:#231F20;" d="M47.815,85.094H32.454c-1.104,0-2,0.896-2,2s0.896,2,2,2h15.361c1.104,0,2-0.896,2-2
		S48.92,85.094,47.815,85.094z"/>
	<path style="fill:#231F20;" d="M148.368,100.805h-15.361c-1.104,0-2,0.896-2,2s0.896,2,2,2h15.361c1.104,0,2-0.896,2-2
		S149.473,100.805,148.368,100.805z"/>
	<path style="fill:#231F20;" d="M114.851,100.805H99.489c-1.104,0-2,0.896-2,2s0.896,2,2,2h15.361c1.104,0,2-0.896,2-2
		S115.955,100.805,114.851,100.805z"/>
	<path style="fill:#231F20;" d="M81.333,100.805H65.972c-1.104,0-2,0.896-2,2s0.896,2,2,2h15.361c1.104,0,2-0.896,2-2
		S82.438,100.805,81.333,100.805z"/>
	<path style="fill:#231F20;" d="M47.815,100.805H32.454c-1.104,0-2,0.896-2,2s0.896,2,2,2h15.361c1.104,0,2-0.896,2-2
		S48.92,100.805,47.815,100.805z"/>
	<path style="fill:#231F20;" d="M148.368,116.516h-15.361c-1.104,0-2,0.896-2,2s0.896,2,2,2h15.361c1.104,0,2-0.896,2-2
		S149.473,116.516,148.368,116.516z"/>
	<path style="fill:#231F20;" d="M114.851,116.516H99.489c-1.104,0-2,0.896-2,2s0.896,2,2,2h15.361c1.104,0,2-0.896,2-2
		S115.955,116.516,114.851,116.516z"/>
	<path style="fill:#231F20;" d="M81.333,116.516H65.972c-1.104,0-2,0.896-2,2s0.896,2,2,2h15.361c1.104,0,2-0.896,2-2
		S82.438,116.516,81.333,116.516z"/>
	<path style="fill:#231F20;" d="M47.815,116.516H32.454c-1.104,0-2,0.896-2,2s0.896,2,2,2h15.361c1.104,0,2-0.896,2-2
		S48.92,116.516,47.815,116.516z"/>
</g>
<g>
</g>
<g>
</g>
<g>
</g>
<g>
</g>
<g>
</g>
<g>
</g>
<g>
</g>
<g>
</g>
<g>
</g>
<g>
</g>
<g>
</g>
<g>
</g>
<g>
</g>
<g>
</g>
<g>
</g>
</svg>
