<?xml version="1.0" encoding="iso-8859-1"?>
<!-- Generator: Adobe Illustrator 18.0.0, SVG Export Plug-In . SVG Version: 6.00 Build 0)  -->
<!DOCTYPE svg PUBLIC "-//W3C//DTD SVG 1.1//EN" "http://www.w3.org/Graphics/SVG/1.1/DTD/svg11.dtd">
<svg version="1.1" id="Capa_1" xmlns="http://www.w3.org/2000/svg" xmlns:xlink="http://www.w3.org/1999/xlink" x="0px" y="0px"
	 viewBox="0 0 190.805 190.812" style="enable-background:new 0 0 190.805 190.812;" xml:space="preserve">
<g>
	<path style="fill:#231F20;" d="M43.091,143.757C30.876,130.553,24.148,113.379,24.148,95.4c0-17.633,6.5-34.561,18.303-47.663
		c0.715-0.795,0.68-2.011-0.081-2.762l-14.347-14.17c-0.386-0.381-0.911-0.598-1.453-0.576c-0.543,0.013-1.057,0.246-1.425,0.646
		C8.931,48.513,0,71.427,0,95.396c0,24.435,9.239,47.674,26.016,65.438c0.373,0.395,0.89,0.621,1.433,0.627c0.007,0,0.015,0,0.021,0
		c0.535,0,1.048-0.214,1.424-0.596l14.153-14.346C43.798,145.759,43.817,144.542,43.091,143.757z M27.518,156.564
		C12.335,139.752,4,118.114,4,95.396c0-22.271,8.047-43.592,22.704-60.272l11.514,11.372C26.551,60.124,20.148,77.414,20.148,95.4
		c0,18.352,6.635,35.907,18.726,49.653L27.518,156.564z"/>
	<path style="fill:#231F20;" d="M164.789,29.961c-0.373-0.395-0.891-0.621-1.434-0.627c-0.522-0.012-1.064,0.21-1.445,0.596
		l-14.152,14.355c-0.751,0.762-0.771,1.979-0.044,2.763c12.215,13.2,18.941,30.372,18.941,48.353c0,17.633-6.5,34.557-18.302,47.653
		c-0.716,0.794-0.681,2.011,0.08,2.762l14.359,14.186c0.374,0.37,0.88,0.577,1.405,0.577c0.017,0,0.032,0,0.049-0.001
		c0.543-0.013,1.058-0.246,1.425-0.646c16.207-17.654,25.133-40.573,25.133-64.534C190.805,70.979,181.565,47.74,164.789,29.961z
		 M164.111,155.681l-11.525-11.386c11.667-13.622,18.069-30.908,18.069-48.895c0-18.354-6.635-35.908-18.726-49.65l11.356-11.519
		c15.184,16.826,23.519,38.463,23.519,61.165C186.805,117.66,178.762,138.984,164.111,155.681z"/>
	<path style="fill:#231F20;" d="M146.505,147.782c-0.761-0.753-1.978-0.771-2.763-0.046c-13.21,12.202-30.377,18.922-48.34,18.922
		c-17.625,0-34.543-6.492-47.638-18.279c-0.793-0.716-2.011-0.679-2.763,0.082L30.841,162.83c-0.381,0.387-0.588,0.912-0.574,1.455
		s0.247,1.057,0.647,1.423c17.654,16.189,40.557,25.104,64.488,25.104c24.404,0,47.635-9.23,65.414-25.992
		c0.395-0.372,0.621-0.89,0.628-1.432c0.006-0.543-0.209-1.065-0.595-1.447L146.505,147.782z M95.402,186.812
		c-22.237,0-43.546-8.034-60.24-22.668l11.364-11.531c13.62,11.651,30.9,18.045,48.876,18.045c18.335,0,35.884-6.628,49.635-18.705
		l11.511,11.362C139.722,178.483,118.09,186.812,95.402,186.812z"/>
	<path style="fill:#231F20;" d="M44.303,43.021c0.39,0.384,0.897,0.577,1.406,0.577c0.486,0,0.974-0.177,1.357-0.531
		c13.204-12.199,30.37-18.918,48.336-18.918c17.619,0,34.539,6.491,47.641,18.278c0.796,0.714,2.011,0.679,2.762-0.083
		l14.167-14.359c0.381-0.386,0.589-0.911,0.575-1.454c-0.013-0.543-0.247-1.057-0.646-1.424C142.254,8.916,119.349,0,95.402,0
		c-24.404,0-47.63,9.226-65.398,25.977c-0.395,0.372-0.621,0.889-0.628,1.432c-0.006,0.542,0.208,1.064,0.594,1.446L44.303,43.021z
		 M95.402,4c22.249,0,43.562,8.035,60.249,22.668l-11.37,11.524c-13.626-11.649-30.908-18.044-48.879-18.044
		c-18.337,0-35.885,6.627-49.63,18.7l-11.5-11.367C51.088,12.324,72.715,4,95.402,4z"/>
	<path style="fill:#231F20;" d="M49.881,55.755c0.743-0.816,0.686-2.081-0.13-2.824c-0.817-0.746-2.08-0.686-2.824,0.127
		c-0.373,0.409-9.2,10.19-13.612,25.548c-4.088,14.226-4.938,36.022,14.217,59.08c0.396,0.476,0.965,0.722,1.539,0.722
		c0.45,0,0.903-0.151,1.277-0.462c0.85-0.705,0.966-1.967,0.26-2.816c-14.441-17.383-18.98-35.979-13.492-55.27
		C41.242,65.359,49.795,55.85,49.881,55.755z"/>
	<path style="fill:#231F20;" d="M135.372,139.114c-17.383,14.441-35.979,18.979-55.27,13.492c-14.5-4.127-24.01-12.68-24.104-12.766
		c-0.816-0.744-2.081-0.685-2.824,0.13c-0.744,0.816-0.688,2.079,0.127,2.824c0.409,0.373,10.189,9.2,25.547,13.612
		c4.796,1.378,10.451,2.388,16.726,2.388c12.339,0,27.07-3.906,42.355-16.604c0.85-0.705,0.966-1.967,0.26-2.816
		C137.483,138.526,136.224,138.408,135.372,139.114z"/>
</g>
<g>
</g>
<g>
</g>
<g>
</g>
<g>
</g>
<g>
</g>
<g>
</g>
<g>
</g>
<g>
</g>
<g>
</g>
<g>
</g>
<g>
</g>
<g>
</g>
<g>
</g>
<g>
</g>
<g>
</g>
</svg>
