<?xml version="1.0" encoding="iso-8859-1"?>
<!-- Generator: Adobe Illustrator 18.0.0, SVG Export Plug-In . SVG Version: 6.00 Build 0)  -->
<!DOCTYPE svg PUBLIC "-//W3C//DTD SVG 1.1//EN" "http://www.w3.org/Graphics/SVG/1.1/DTD/svg11.dtd">
<svg version="1.1" id="Capa_1" xmlns="http://www.w3.org/2000/svg" xmlns:xlink="http://www.w3.org/1999/xlink" x="0px" y="0px"
	 viewBox="0 0 184.92 145.801" style="enable-background:new 0 0 184.92 145.801;" xml:space="preserve">
<g>
	<path style="fill:#231F20;" d="M130.03,102.326c0.109,0,0.221-0.009,0.331-0.028c25.625-4.306,39.169-17.177,39.169-37.22
		c0-15.695-7.224-25.983-22.731-32.379c-0.599-0.246-1.28-0.183-1.828,0.163c-0.549,0.345-0.896,0.94-0.932,1.587
		c-0.021,0.354-2.712,37.233-8.845,52.308c-1.007,2.142-1.449,3.065-3.014,6.083c-0.656,1.122-1.108,1.937-1.492,2.629
		c-0.721,1.302-1.156,2.088-2.295,3.707c-0.464,0.66-0.485,1.534-0.056,2.216C128.707,101.98,129.35,102.326,130.03,102.326z
		 M134.187,97.408c0.376-0.679,0.82-1.481,1.471-2.589c0.018-0.03,0.034-0.061,0.05-0.091c1.629-3.143,2.076-4.077,3.128-6.315
		c0.015-0.031,0.029-0.063,0.042-0.095c5.432-13.295,8.174-41.671,8.934-50.8c12.228,5.783,17.719,14.382,17.719,27.561
		c0,16.921-10.556,27.812-31.391,32.416C134.156,97.465,134.171,97.437,134.187,97.408z"/>
	<path style="fill:#231F20;" d="M128.229,115.418c31.26,0,56.691-22.75,56.691-50.715c0-21.101-14.688-39.989-36.702-47.418
		c-0.007-0.673-0.017-1.113-0.02-1.258c0.133-5.699-1.581-15.38-8.808-15.771c-1.554-0.122-44.943-0.148-93.14-0.167
		C29.659,0.083,16.463,0.079,15.253,0.066C15.049,0.044,14.595,0,13.995,0C11.724,0,4.227,0.749,3.137,10.366
		c-0.035,0.295-0.119,0.913-0.237,1.788C1.976,18.957-0.836,39.661,0.243,48.29c1.318,10.458,5.793,36.537,18.868,53.088
		c1.252,1.935,9.15,11.815,16.592,18.401c-6.301-0.011-10.593-0.014-11.799-0.001c-7.957,0.065-14.622,0.969-15.573,11.352
		c-0.029,0.236-0.119,1.008-0.104,1.562c-0.014,0.521,0.069,1.246,0.101,1.488c0.955,10.453,7.601,11.372,15.532,11.455
		c2.614,0.032,18.878,0.039,39.469,0.047l17.017,0.008c20.138,0.055,42.018,0.11,51.615,0.11c2.494,0,4.186-0.003,4.867-0.012
		c7.954-0.055,14.616-0.952,15.583-11.366c0.026-0.236,0.109-1.019,0.102-1.53c0.008-0.522-0.075-1.301-0.097-1.492
		c-0.942-10.444-7.598-11.368-15.545-11.458c-1.604-0.019-8.679-0.032-21.566-0.041c1.576-1.298,3.41-2.939,5.413-4.989
		C123.523,115.257,125.933,115.418,128.229,115.418z M118.524,111.425c-4.785,5.029-8.489,7.53-10.271,8.732l-0.126,0.085
		c-0.728,0.492-1.05,1.402-0.792,2.242c0.257,0.84,1.032,1.415,1.911,1.415c16.731,0.009,25.752,0.023,27.577,0.045
		c8.455,0.095,11.004,1.133,11.611,7.862c0.044,0.394,0.081,0.881,0.076,1.021c-0.001,0.041-0.001,0.093,0,0.133
		c0.004,0.139-0.032,0.624-0.08,1.055c-0.621,6.688-3.174,7.715-11.642,7.773c-0.685,0.008-2.36,0.012-4.83,0.012
		c-9.593,0-31.47-0.056-51.608-0.11l-17.021-0.008c-19.763-0.008-36.831-0.015-39.426-0.047c-8.437-0.088-10.981-1.125-11.601-7.888
		c-0.04-0.316-0.083-0.798-0.08-0.935c0.004-0.065,0.004-0.162,0.001-0.228c-0.006-0.139,0.03-0.598,0.082-1.025
		c0.613-6.682,3.167-7.711,11.635-7.78c0.563-0.006,1.797-0.008,3.592-0.008c3.136,0,7.975,0.008,13.936,0.021
		c0.001,0,0.003,0,0.004,0c0.879,0,1.655-0.574,1.912-1.414c0.258-0.842-0.064-1.753-0.795-2.245
		c-7.848-5.282-19.166-19.306-20.087-20.866c-0.056-0.102-0.119-0.198-0.191-0.289C9.812,83.221,5.49,57.932,4.211,47.792
		c-0.672-5.381,0.221-17.191,2.652-35.101c0.123-0.91,0.21-1.552,0.247-1.867C7.749,5.184,11.207,4,13.995,4
		c0.446,0,0.764,0.035,0.924,0.053c0.051,0.005,0.102,0.009,0.152,0.01C15.587,4.078,26.118,4.082,46.25,4.09
		c33.969,0.013,90.821,0.035,92.876,0.158c4.359,0.236,5.142,8.763,5.072,11.731c-0.001,0.033-0.001,0.068,0,0.102
		c0,0.014,0.026,1.022,0.026,2.661c0,0.876,0.569,1.65,1.406,1.91c21.107,6.565,35.289,24.269,35.289,44.052
		c0,25.759-23.638,46.715-52.691,46.715c-2.386,0-4.925-0.19-7.992-0.597C119.602,110.735,118.965,110.96,118.524,111.425z"/>
	<path style="fill:#231F20;" d="M17.46,14.166c0.249-1.076-0.421-2.15-1.496-2.4c-1.078-0.248-2.15,0.419-2.4,1.495
		c-0.146,0.629-3.561,15.635-1.621,35.47c1.796,18.372,8.762,44.396,31.741,64.04c0.377,0.322,0.839,0.48,1.299,0.48
		c0.564,0,1.126-0.238,1.521-0.701c0.718-0.839,0.619-2.102-0.221-2.819C4.235,73.786,17.324,14.757,17.46,14.166z"/>
	<path style="fill:#231F20;" d="M25.392,126.655c-0.492-0.128-4.896-1.185-7.831,1.195c-1.135,0.92-2.454,2.714-2.296,6.033
		c0.052,1.071,0.936,1.905,1.996,1.905c0.032,0,0.064,0,0.097-0.002c1.104-0.052,1.955-0.989,1.903-2.093
		c-0.063-1.319,0.211-2.239,0.813-2.732c1.162-0.95,3.562-0.624,4.313-0.434c1.072,0.274,2.155-0.366,2.435-1.432
		C27.101,128.026,26.46,126.934,25.392,126.655z"/>
</g>
<g>
</g>
<g>
</g>
<g>
</g>
<g>
</g>
<g>
</g>
<g>
</g>
<g>
</g>
<g>
</g>
<g>
</g>
<g>
</g>
<g>
</g>
<g>
</g>
<g>
</g>
<g>
</g>
<g>
</g>
</svg>
