<?xml version="1.0" encoding="iso-8859-1"?>
<!-- Generator: Adobe Illustrator 18.0.0, SVG Export Plug-In . SVG Version: 6.00 Build 0)  -->
<!DOCTYPE svg PUBLIC "-//W3C//DTD SVG 1.1//EN" "http://www.w3.org/Graphics/SVG/1.1/DTD/svg11.dtd">
<svg version="1.1" id="Capa_1" xmlns="http://www.w3.org/2000/svg" xmlns:xlink="http://www.w3.org/1999/xlink" x="0px" y="0px"
	 viewBox="0 0 612 792" style="enable-background:new 0 0 612 792;" xml:space="preserve">
<g>
	<path style="fill:#231F20;" d="M32.661,380.516c-2.071,0.092-3.982,1.159-5.147,2.876c-25.488,37.605,22.944,122.81,28.551,132.402
		c0.906,1.553,2.413,2.666,4.166,3.079c0.496,0.118,1.001,0.174,1.504,0.174c1.267,0,2.521-0.368,3.598-1.073
		c1.435-0.939,14.126-9.277,18.193-12.721c1.175-0.995,1.966-2.373,2.229-3.893c8.443-48.786-45.411-115.611-47.709-118.43
		C36.735,381.321,34.785,380.431,32.661,380.516z M73.167,496.688c-2.377,1.766-5.971,4.238-9.189,6.408
		c-13.551-24.848-36.229-75.288-29.512-103.133C47.981,418.636,77.172,463.387,73.167,496.688z"/>
	<path style="fill:#231F20;" d="M609.551,275.21c-11.309-46.947-42.548-52.016-55.453-52.016c-3.949,0-6.523,0.473-6.802,0.529
		c-0.279,0.053-0.552,0.125-0.821,0.213c-0.857,0.282-86.512,28.577-168.677,55.463c-6.333,2.078-13.962,4.376-22.671,6.832
		c-0.076,0.02-0.141,0.056-0.213,0.079c-0.049,0.013-0.098,0.03-0.148,0.043c-0.076,0.02-0.148,0.02-0.223,0.039l-1.661,0.473
		c-0.01,0.003-0.02,0.01-0.03,0.013c-1.96,0.44-5.577,1.037-8.634,1.543c-21.296,3.516-37.972,6.927-42.864,16.007
		c-0.309,0.574-0.506,1.175-0.709,1.776C185.364,333.323,33.14,365.094,21.42,367.536c-0.161,0.01-0.325,0.03-0.483,0.053
		c-0.962,0.141-9.586,1.707-15.472,12.599c-12.888,23.866-2.951,72.12,29.529,143.465L16.89,536.131
		c-1.52,1.047-2.528,2.685-2.781,4.514c-0.253,1.829,0.279,3.677,1.458,5.095c0.716,0.86,17.763,21.066,37.086,21.069l0,0
		c4.041,0,7.921-0.87,11.562-2.6c2.111-1.018,4.455-1.993,6.825-2.984c3.719-1.553,7.56-3.158,10.932-5.036
		c9.701-3.897,185.79-74.713,226.632-95.904c2.081-0.768,6.336-2.347,12.153-4.527c-2.59,9.083-6.575,24.424-9.582,36.429
		c-8.191,32.71-8.007,32.959-5.771,35.983c2.078,2.81,6.47,3.453,9.271,1.359c7.006-5.239,20.882-16.729,28.882-23.413
		l16.188,28.403c1.182,2.075,3.375,3.316,5.702,3.316c0.394,0,0.794-0.036,1.192-0.108c2.744-0.506,4.872-2.692,5.298-5.453
		c0.121-0.781,12.045-77.825,15.469-102.204l1.576-0.689c8.988,30.182,19.887,66.27,19.887,66.27
		c0.808,2.672,3.217,4.543,6.008,4.662c2.803,0.154,5.348-1.54,6.378-4.133l12.071-30.372c8.857,5.505,24.211,14.963,31.922,19.201
		c0.955,0.509,2.048,0.788,3.129,0.788l0,0c2.193,0,4.268-1.11,5.486-2.935c2.347-3.513,2.656-3.969-15.928-48.861
		c-4.333-15.876-7.728-28.403-5.965-33.934c0.036-0.115,0.026-0.217,0.056-0.328c60.899-20.652,131.03-44.364,135.009-45.519
		c7.307-1.894,13.138-6.566,17.33-13.89C616.767,318.668,610.579,278.792,609.551,275.21z M303.682,448.103
		c-0.266,0.095-0.522,0.21-0.771,0.341c-33.967,17.73-178.328,76.519-226.221,95.713c-0.276,0.112-0.548,0.243-0.808,0.391
		c-2.767,1.576-6.395,3.092-9.898,4.557c-2.593,1.083-5.154,2.157-7.429,3.253c-1.861,0.886-3.792,1.313-5.896,1.313l0,0
		c-7.81,0-16.319-6.04-21.919-11.142l16.25-11.201c2.633-1.815,3.575-5.266,2.232-8.164C7.334,432.71,10.807,399.176,16.601,387.243
		c2.393-4.924,5.331-6.303,6.076-6.595c0.236-0.023,0.473-0.059,0.706-0.108c1.625-0.335,161.465-33.583,281.087-61.746
		c5.289,5.604,9.888,10.905,9.891,10.905c0.315,0.397,26.348,34.312,10.219,110.594C314,444.275,306.355,447.118,303.682,448.103z
		 M456.08,464.369c-10.886-6.608-22.277-13.755-22.451-13.867c-1.651-1.037-3.677-1.29-5.531-0.68
		c-1.852,0.607-3.342,2.003-4.061,3.815l-8.02,20.183c-4.543-15.101-11.135-37.053-16.555-55.315
		c-0.538-1.806-1.822-3.293-3.529-4.087c-1.71-0.794-3.677-0.814-5.4-0.059l-11.687,5.121c-2.032,0.89-3.476,2.744-3.841,4.931
		l-0.236,1.513c-0.072,0.486-0.144,0.965-0.259,1.648c-2.331,16.66-8.857,59.294-12.668,84.073l-10.758-18.876
		c-0.965-1.694-2.633-2.872-4.553-3.214c-0.384-0.069-0.768-0.102-1.152-0.102c-1.536,0-3.037,0.542-4.232,1.546
		c-0.158,0.135-10.443,8.798-20.284,16.844c4.189-17.366,10.85-43.172,13.748-52.65c0.578-2.278,1.096-4.497,1.605-6.713
		c0.381-0.604,0.703-1.247,0.873-1.96c19.342-81.21-6.539-118.335-9.553-122.304c-0.092-0.121-0.19-0.24-0.289-0.355
		c-4.245-4.845-8.581-9.579-12.202-13.335c-0.02-0.02-0.269-0.46-0.289-0.483c-0.102-0.22-0.164-0.46-0.233-0.699
		c6.093-3.716,25.104-6.864,31.846-7.977c5.367-0.886,8.63-1.441,10.85-2.055c8.529,1.996,51.182,14.802,74.316,74.976
		c0.043,0.115,0.092,0.227,0.135,0.341c0.781,2.042,1.533,4.149,2.265,6.303c0.089,0.259,0.181,0.506,0.269,0.768
		c0.706,2.098,1.379,4.264,2.035,6.467c0.092,0.309,0.19,0.597,0.279,0.906c0.732,2.501,1.431,5.069,2.094,7.708
		c0,0.003,0.003,0.007,0.003,0.007c0.01,0.043,0.023,0.079,0.033,0.121c0.079,0.335,0.184,0.67,0.315,1.034
		c-1.907,8.581,0.991,19.973,6.431,39.896c0.072,0.266,0.161,0.529,0.269,0.781C449.784,448.615,453.345,457.436,456.08,464.369z
		 M592.851,334.002c-2.387,4.074-5.364,6.523-9.287,7.544c-5.275,1.53-96.708,32.506-134.07,45.175
		c-0.085-0.299-0.177-0.581-0.263-0.877c-0.24-0.827-0.489-1.635-0.735-2.449c-0.479-1.582-0.972-3.135-1.477-4.668
		c-0.542-1.648-1.1-3.26-1.668-4.852c-0.358-0.995-0.709-1.999-1.077-2.971c-0.565-1.51-1.146-2.984-1.733-4.438
		c-0.003-0.01-0.007-0.016-0.01-0.026c-17.783-44.039-45.49-64.297-64.366-73.367c1.28-0.407,2.524-0.804,3.716-1.198
		c78.882-25.809,160.989-52.922,168.201-55.305c0.63-0.085,2.052-0.243,4.015-0.243c12.169,0,33.892,5.453,42.752,42.197
		C597.71,281.789,602.729,317.135,592.851,334.002z"/>
</g>
</svg>
