<?xml version="1.0" encoding="iso-8859-1"?>
<!-- Generator: Adobe Illustrator 18.0.0, SVG Export Plug-In . SVG Version: 6.00 Build 0)  -->
<!DOCTYPE svg PUBLIC "-//W3C//DTD SVG 1.1//EN" "http://www.w3.org/Graphics/SVG/1.1/DTD/svg11.dtd">
<svg version="1.1" id="Capa_1" xmlns="http://www.w3.org/2000/svg" xmlns:xlink="http://www.w3.org/1999/xlink" x="0px" y="0px"
	 viewBox="0 0 147.707 178.339" style="enable-background:new 0 0 147.707 178.339;" xml:space="preserve">
<g>
	<path style="fill:#231F20;" d="M91.936,114.774c-1.719-2.556-4.186-5.177-7.301-7.766c-0.947-0.821-2.837-2.21-5.791-4.255
		c-2.284-1.55-4.003-2.903-5.121-4.034c-2.771-2.759-4.175-5.43-4.175-7.938c0-1.555,0.338-2.781,1.035-3.751
		c0.793-1.107,1.894-1.623,3.463-1.623c1.55,0,2.701,0.364,3.43,1.088c0.993,0.979,1.96,3.005,2.055,3.969
		c0.188,2.016,1.571,2.918,2.857,2.918c0.302,0,0.562-0.046,0.762-0.099l9.646-1.459c1.266-0.15,2.491-1.277,2.443-3.199
		c-0.04-1.565-1.4-5.532-2.872-7.761c-1.672-2.524-3.884-4.511-6.579-5.906c-1.625-0.837-3.478-1.481-5.526-1.92
		c0.023-2.473,0.049-6.558-0.023-7.378c-0.128-1.597-1.296-2.712-2.841-2.712c-0.105,0-0.2,0.005-0.28,0.013h-3.856
		c-0.022,0-0.044-0.001-0.061-0.001c-0.804,0-1.564,0.311-2.089,0.853c-0.519,0.536-0.789,1.273-0.762,2.072
		c0.02,0.599,0.014,4.111,0.006,6.634c-3.444,0.381-6.479,1.37-9.054,2.958c-5.525,3.515-8.327,8.741-8.327,15.534
		c0,3.745,1.009,7.267,3.024,10.51c1.8,2.739,4.827,5.827,9.015,9.19c3.491,2.747,6.355,4.995,8.583,6.743l2.19,1.72
		c2.563,2.318,3.863,4.591,3.863,6.756c0,1.456-0.267,2.531-0.819,3.229c-1.237,1.635-2.772,2.419-4.858,2.469l-0.208,0.004
		c-1.279,0-2.391-0.445-3.417-1.378c-0.56-0.495-1.516-2.013-2.898-6.438c-0.077-0.248-0.138-0.44-0.185-0.578
		c-0.421-1.198-1.461-1.943-2.716-1.943c-0.212,0-0.399,0.021-0.551,0.049l-9.473,0.563c-0.002,0-0.004,0-0.006,0
		c-0.73,0-1.438,0.29-1.94,0.795c-0.374,0.376-0.819,1.05-0.814,2.113c0,1.425,1.344,6.879,2.842,9.597
		c1.69,3.049,4.023,5.498,6.91,7.264c2.458,1.549,5.422,2.552,8.832,2.989v7.073c-0.016,0.415,0.036,1.384,0.755,2.207
		c0.529,0.606,1.296,0.964,2.146,1.008c0.404,0.023,0.889,0.032,1.396,0.032c0.516,0,1.056-0.009,1.549-0.017
		c0.395-0.006,0.757-0.012,1.048-0.012c1.917,0,2.979-1.551,3.003-3.044v-7.482c0.496-0.092,0.984-0.199,1.461-0.319
		c3.973-1.019,7.125-2.825,9.354-5.351c3.344-3.695,4.991-8.183,4.896-13.351c-0.052-2.183-0.729-4.62-2.021-7.259
		C93.376,117.033,92.701,115.894,91.936,114.774z M88.075,136.095c-1.704,1.932-4.182,3.325-7.356,4.139
		c-0.854,0.216-1.765,0.38-2.704,0.489c-1.009,0.117-1.771,0.971-1.771,1.987l0.002,8.258c-0.038,0.001-0.077,0.001-0.116,0.002
		c-0.568,0.009-1.198,0.021-1.781,0.015v-8.134c0-1.054-0.817-1.926-1.868-1.996c-3.532-0.232-6.504-1.094-8.854-2.576
		c-2.346-1.435-4.151-3.334-5.52-5.801c-0.953-1.729-1.818-4.944-2.173-6.647l7.81-0.465c0.974,3.073,2.204,6.337,3.933,7.867
		c1.753,1.592,3.801,2.4,6.088,2.4c0.117,0,0.235-0.002,0.329-0.006c3.284-0.079,5.951-1.443,7.899-4.019
		c1.1-1.388,1.657-3.298,1.657-5.678c0-3.362-1.763-6.651-5.238-9.775c-0.033-0.03-0.066-0.058-0.102-0.085l-2.245-1.762
		c-2.226-1.747-5.089-3.994-8.562-6.727c-3.845-3.089-6.591-5.866-8.134-8.213c-1.611-2.593-2.395-5.327-2.395-8.356
		c0-5.41,2.117-9.387,6.45-12.144c2.43-1.498,5.463-2.339,9.014-2.498c1.065-0.048,1.905-0.923,1.91-1.99
		c0.003-0.622,0.021-5.128,0.012-7.418h1.918c0.018,1.602,0,4.802-0.034,7.717c-0.012,0.998,0.713,1.851,1.699,2.001
		c2.309,0.352,4.332,0.969,6.009,1.833c2.109,1.092,3.771,2.584,5.078,4.559c0.923,1.397,1.756,3.715,2.074,4.964l-7.744,1.171
		c-0.449-1.889-1.711-4.215-3.07-5.554c-1.499-1.49-3.6-2.245-6.244-2.245c-2.851,0-5.173,1.139-6.713,3.292
		c-1.185,1.648-1.785,3.694-1.785,6.083c0,3.61,1.801,7.235,5.342,10.761c1.289,1.304,3.21,2.825,5.692,4.509
		c2.779,1.925,4.607,3.264,5.465,4.006c2.854,2.372,5.063,4.709,6.578,6.961c0.671,0.982,1.253,1.963,1.723,2.904
		c1.029,2.103,1.571,3.981,1.608,5.571C92.032,129.657,90.769,133.119,88.075,136.095z"/>
	<path style="fill:#231F20;" d="M124.384,58.735c-2.787-2.831-5.602-5.452-8.58-8.226c-5.502-5.125-11.733-10.93-18.908-19.234
		c0.207-0.734,0.332-1.614,0.332-2.687c0-0.917-0.007-1.197-0.015-1.501c-0.007-0.278-0.014-0.578-0.017-1.467
		c0.005-0.057,0.008-0.115,0.008-0.173l0.001-0.374c0.001-0.26,0.002-0.513-0.001-0.708c0.002-0.871-0.059-1.973-0.407-3.011
		l8.279-18.538c0.276-0.619,0.221-1.335-0.148-1.904C104.56,0.343,103.928,0,103.25,0H40.665c-0.687,0-1.325,0.352-1.691,0.933
		s-0.409,1.308-0.114,1.928l8.536,17.909c-0.392,0.827-0.642,1.883-0.68,3.203c-0.021,0.114-0.031,0.231-0.032,0.35
		c-0.009,2.016,0.01,2.46,0.026,2.864c0.011,0.279,0.021,0.536,0.02,1.379c0,1.272,0.194,2.304,0.515,3.142
		c-6.651,9.209-12.542,14.997-17.75,20.107c-3.469,3.405-6.747,6.622-9.862,10.441C6.972,75.104,0,91.742,0,109.118
		c0,38.168,33.133,69.221,73.858,69.221c40.721,0,73.849-31.053,73.849-69.221C147.707,89.875,139.425,71.984,124.384,58.735z
		 M50.988,30.344c-0.124-0.302-0.259-0.855-0.259-1.775c0.002-0.942-0.01-1.231-0.022-1.543c-0.015-0.356-0.029-0.747-0.024-2.365
		c0.019-0.11,0.028-0.223,0.028-0.337c0-0.689,0.076-1.166,0.165-1.493h42.185c0.076,0.314,0.144,0.796,0.143,1.56
		c0.003,0.206,0.002,0.432,0.001,0.665v0.209c-0.006,0.062-0.009,0.124-0.009,0.187c0.002,1.084,0.011,1.422,0.018,1.734
		c0.008,0.285,0.014,0.546,0.014,1.403c0,0.955-0.111,1.474-0.208,1.754L50.988,30.344z M100.166,4l-6.435,14.411
		c-0.362-0.089-0.763-0.146-1.218-0.146l-38.146-0.021c-1.194,0-2.27,0-3.093-0.007c-0.21,0-0.421,0.019-0.631,0.049L43.834,4
		H100.166z M73.858,174.339C35.338,174.339,4,145.081,4,109.118c0-16.348,6.586-32.016,18.546-44.12
		c0.045-0.046,0.088-0.094,0.129-0.144c2.991-3.679,6.212-6.839,9.622-10.186c5.237-5.139,11.149-10.944,17.863-20.164
		c0.374,0.1,0.756,0.151,1.134,0.151h3.082c6.48,0.002,17.913,0.009,31.169,0.023c4.171-0.007,6.706,0,6.973,0.002
		c0.005,0,0.01,0,0.015,0c0.518,0,1.138-0.073,1.757-0.307c7.139,8.21,13.319,13.966,18.79,19.061
		c2.963,2.76,5.763,5.367,8.505,8.155c0.034,0.035,0.069,0.068,0.105,0.1c14.199,12.484,22.019,29.327,22.019,47.427
		C143.707,145.081,112.373,174.339,73.858,174.339z"/>
	<path style="fill:#231F20;" d="M18.216,86.093c0.212,0.071,0.427,0.105,0.638,0.105c0.836,0,1.615-0.528,1.896-1.363
		c5.298-15.758,35.184-38.77,35.485-39c0.877-0.671,1.044-1.927,0.372-2.804c-0.671-0.877-1.924-1.043-2.804-0.373
		c-1.27,0.972-31.159,23.988-36.845,40.903C16.605,84.607,17.169,85.742,18.216,86.093z"/>
	<path style="fill:#231F20;" d="M49.655,160.365c-38.234-16.728-37.839-54.017-37.803-55.618c0.027-1.104-0.845-2.021-1.949-2.049
		c-1.098-0.025-2.021,0.846-2.049,1.95c-0.011,0.413-0.562,41.55,40.197,59.382c0.261,0.114,0.533,0.168,0.801,0.168
		c0.771,0,1.505-0.448,1.833-1.199C51.129,161.987,50.667,160.808,49.655,160.365z"/>
	<path style="fill:#231F20;" d="M53.203,15.209c0.337,0.731,1.061,1.162,1.816,1.162c0.281,0,0.565-0.06,0.837-0.185
		c1.003-0.463,1.441-1.651,0.978-2.654l-3.194-6.92c-0.462-1.003-1.651-1.437-2.653-0.978c-1.003,0.463-1.44,1.651-0.978,2.654
		L53.203,15.209z"/>
</g>
<g>
</g>
<g>
</g>
<g>
</g>
<g>
</g>
<g>
</g>
<g>
</g>
<g>
</g>
<g>
</g>
<g>
</g>
<g>
</g>
<g>
</g>
<g>
</g>
<g>
</g>
<g>
</g>
<g>
</g>
</svg>
