<?xml version="1.0" encoding="iso-8859-1"?>
<!-- Generator: Adobe Illustrator 18.0.0, SVG Export Plug-In . SVG Version: 6.00 Build 0)  -->
<!DOCTYPE svg PUBLIC "-//W3C//DTD SVG 1.1//EN" "http://www.w3.org/Graphics/SVG/1.1/DTD/svg11.dtd">
<svg version="1.1" id="Capa_1" xmlns="http://www.w3.org/2000/svg" xmlns:xlink="http://www.w3.org/1999/xlink" x="0px" y="0px"
	 viewBox="0 0 181.572 180.904" style="enable-background:new 0 0 181.572 180.904;" xml:space="preserve">
<g>
	<path style="fill:#231F20;" d="M96.537,117.403v-12.739c0-0.049-0.002-0.097-0.005-0.145c-0.093-1.277-0.297-2.465-0.62-3.565
		c-0.382-1.218-1.113-2.325-2.174-3.291c-0.042-0.038-0.084-0.074-0.129-0.108L76.362,84.321c-1.106-1.042-1.905-2.076-2.371-3.07
		c-0.454-0.977-0.684-2.369-0.684-4.138V65.838c0-3.753,1.14-6.907,3.486-9.647c2.311-2.708,5.156-4.344,8.7-5
		c0.948-0.176,1.635-1.003,1.635-1.967V38.932c0-0.565-0.24-1.104-0.659-1.484c-0.42-0.379-0.979-0.572-1.543-0.505
		c-6.143,0.625-12.1,2.297-17.7,4.968c-4.234,2.001-8.308,4.683-12.108,7.971c-0.029,0.022-0.059,0.047-0.087,0.071
		C40.957,62.213,34.16,81.254,37.282,99.575c0.003,0.043,0.017,0.171,0.023,0.214c0.017,0.115,0.043,0.227,0.079,0.334
		c0.865,4.825,2.329,9.425,4.355,13.68c2.023,4.23,4.654,8.24,7.82,11.924c0.067,0.105,0.145,0.206,0.233,0.301l0.17,0.17
		c0.9,1.025,1.892,2.062,2.928,3.058l0.127,0.128c0.15,0.15,0.301,0.301,0.415,0.4c1.041,0.984,2.17,1.96,3.409,2.948l0.142,0.128
		c0.087,0.075,0.18,0.142,0.277,0.199c7.99,6.235,17.548,10.081,27.661,11.127c0.068,0.007,0.137,0.011,0.206,0.011
		c0.492,0,0.97-0.182,1.339-0.515c0.42-0.379,0.661-0.919,0.661-1.485v-7.488c0-0.962-0.685-1.788-1.631-1.966
		c-3.534-0.664-6.382-2.307-8.707-5.024c-2.344-2.734-3.483-5.886-3.483-9.634v-7.658c0-0.274,0.054-0.363,0.054-0.364
		c0,0,0.059-0.061,0.202-0.104l11.454-3.039v10.485c0,1.445,0.535,2.73,1.513,3.683c0.993,1.014,2.276,1.549,3.711,1.549h1.077
		c1.421,0,2.701-0.532,3.678-1.518C96.004,120.132,96.537,118.848,96.537,117.403z M92.537,117.403c0,0.372-0.098,0.619-0.358,0.874
		c-0.252,0.254-0.501,0.357-0.861,0.357h-1.077c-0.36,0-0.616-0.104-0.887-0.381c-0.24-0.233-0.337-0.479-0.337-0.851v-11.275
		c0-2.39-1.538-3.46-3.063-3.46c-0.398,0-0.81,0.065-1.198,0.182l-12.282,3.259c-2.012,0.606-3.167,2.18-3.167,4.317v7.658
		c0,4.678,1.496,8.795,4.445,12.235c2.534,2.963,5.683,4.969,9.376,5.979v3.631c-8.627-1.278-16.746-4.773-23.601-10.178
		c-0.036-0.028-0.072-0.055-0.108-0.08l-0.04-0.034c-1.193-0.952-2.239-1.854-3.241-2.801c-0.097-0.086-0.189-0.181-0.282-0.274
		l-0.171-0.171c-0.974-0.938-1.887-1.891-2.765-2.889l-0.029-0.029c-0.034-0.048-0.071-0.094-0.11-0.138
		c-3.021-3.476-5.521-7.264-7.431-11.257c-1.908-4.005-3.279-8.353-4.074-12.922c-0.01-0.06-0.023-0.119-0.039-0.177
		c0-0.003-0.001-0.006-0.001-0.009c-2.894-16.991,3.368-34.583,16.345-45.937c0.027-0.021,0.053-0.043,0.079-0.065
		c3.548-3.08,7.341-5.584,11.281-7.445c4.518-2.155,9.28-3.607,14.187-4.329v6.434c-3.704,1.004-6.853,3.006-9.375,5.963
		c-2.95,3.443-4.446,7.564-4.446,12.246v11.275c0,2.355,0.355,4.314,1.059,5.829c0.697,1.486,1.82,2.957,3.338,4.37
		c0.046,0.043,0.095,0.084,0.146,0.123l17.252,13.237c0.499,0.468,0.833,0.964,0.983,1.441c0.227,0.774,0.379,1.656,0.453,2.624
		V117.403z"/>
	<path style="fill:#231F20;" d="M143.535,81.339c-0.018-0.1-0.043-0.197-0.074-0.29c-0.866-4.834-2.331-9.426-4.352-13.647
		c-1.971-4.154-4.57-8.132-7.728-11.828c-0.037-0.058-0.077-0.114-0.119-0.168c-0.096-0.122-0.192-0.226-0.31-0.344
		c-0.025-0.032-0.05-0.062-0.077-0.093c-0.536-0.601-1.25-1.387-1.95-2.078c-0.217-0.234-0.447-0.458-0.676-0.679l-0.223-0.216
		c-8.488-8.268-19.66-13.581-31.456-14.962c-0.57-0.066-1.136,0.113-1.562,0.492c-0.426,0.38-0.67,0.923-0.67,1.494v10.184
		c0,0.968,0.694,1.798,1.646,1.969c3.572,0.641,6.45,2.283,8.794,5.019c2.34,2.741,3.477,5.896,3.477,9.646v5.109
		c0,0.398-0.049,0.413-0.256,0.478l-11.461,3.022V66.5c0-1.424-0.529-2.701-1.529-3.691c-1.001-0.995-2.278-1.521-3.69-1.521h-1.077
		c-1.427,0-2.707,0.529-3.689,1.518c-1.005,0.993-1.536,2.271-1.536,3.695v7.4c0,0.059,0.002,0.116,0.008,0.175
		c0.099,1.127,0.319,2.16,0.651,3.059c0.363,1,1.023,1.973,1.963,2.892c0.063,0.062,0.13,0.119,0.2,0.172l17.524,13.114
		c1.104,0.979,1.815,1.948,2.106,2.86c0.365,1.195,0.629,2.501,0.786,3.881v18.031c0,3.745-1.137,6.897-3.473,9.632
		c-2.361,2.746-5.24,4.396-8.803,5.043c-0.951,0.173-1.643,1.001-1.643,1.968v7.407c0,0.57,0.244,1.114,0.67,1.493
		c0.368,0.328,0.842,0.507,1.33,0.507c0.077,0,0.154-0.004,0.23-0.014c1.141-0.132,2.162-0.277,3.119-0.442
		c0.091-0.012,0.18-0.029,0.267-0.054c4.847-0.865,9.448-2.328,13.674-4.348c4.286-2.032,8.371-4.729,12.142-8.013
		c0.007-0.006,0.015-0.013,0.021-0.019c0.848-0.729,1.696-1.511,2.592-2.39c0.05-0.05,0.098-0.102,0.143-0.156
		c12.335-12.333,17.956-29.94,15.048-47.023C143.566,81.562,143.554,81.447,143.535,81.339z M125.594,125.976
		c-0.024,0.025-0.054,0.059-0.084,0.095c-0.813,0.796-1.582,1.503-2.347,2.159c-0.016,0.013-0.031,0.026-0.045,0.04
		c-3.489,3.034-7.258,5.521-11.209,7.396c-3.957,1.891-8.272,3.253-12.828,4.052c-0.054,0.009-0.106,0.021-0.159,0.034
		c-0.191,0.032-0.386,0.064-0.584,0.096v-3.521c3.725-0.998,6.908-3.013,9.483-6.008c2.943-3.445,4.435-7.562,4.435-12.234V99.942
		c0-0.072-0.004-0.145-0.012-0.217c-0.182-1.668-0.501-3.256-0.956-4.746c-0.528-1.654-1.653-3.244-3.344-4.726
		c-0.039-0.034-0.079-0.066-0.12-0.098L90.348,77.078c-0.453-0.459-0.768-0.91-0.917-1.32c-0.205-0.555-0.345-1.21-0.415-1.948V66.5
		c0-0.36,0.101-0.606,0.36-0.862c0.244-0.246,0.503-0.351,0.865-0.351h1.077c0.362,0,0.614,0.104,0.873,0.361
		c0.246,0.244,0.347,0.49,0.347,0.852v8.735c0,2.396,1.533,3.469,3.053,3.469c0.413,0,0.837-0.071,1.203-0.19l12.292-3.24
		c2.014-0.607,3.169-2.185,3.169-4.326v-5.109c0-4.677-1.492-8.796-4.438-12.247c-2.562-2.988-5.745-4.998-9.48-5.99v-6.28
		c10.096,1.651,19.575,6.408,26.893,13.536l0.244,0.236c0.174,0.168,0.35,0.336,0.576,0.577c0.67,0.664,1.316,1.375,1.811,1.929
		c0.047,0.057,0.095,0.11,0.146,0.165c0.043,0.064,0.091,0.126,0.143,0.187c3.015,3.49,5.486,7.247,7.349,11.173
		c1.909,3.985,3.28,8.331,4.076,12.916c0.01,0.057,0.022,0.113,0.037,0.168c0.002,0.019,0.005,0.034,0.007,0.046
		C142.325,98.181,137.1,114.508,125.594,125.976z"/>
	<path style="fill:#231F20;" d="M178.301,103.469c-1.688-0.573-4.095-1.406-7.089-2.442l-5.392-1.864
		c1.018-8.809,0.507-17.566-1.521-26.084c4.276-2.043,7.755-3.701,10.208-4.87l1.362-0.649c2.188-1.047,3.836-3.62,1.899-7.703
		l-0.458-0.961c-1.679-3.527-4.215-8.864-7.392-15.56l-0.453-0.95c-1.608-3.401-3.85-3.909-5.042-3.909
		c-0.708,0-1.422,0.167-2.125,0.497c-2.445,1.153-6.433,3.045-11.567,5.485c-5.993-7.854-13.382-14.36-22.003-19.374
		c4.094-11.311,4.156-11.593,4.209-11.835c0.337-1.595,0.19-4.495-4.626-6.007c-0.111-0.034-1.062-0.349-8.842-3.199
		c-5.688-2.067-8.562-3.137-8.839-3.251C109.36,0.259,108.262,0,107.277,0c-1.769,0-3.198,0.858-4.029,2.428
		c-0.105,0.2-0.262,0.501-4.744,12.701c-8.636-0.928-17.332-0.377-25.659,1.618C67.145,4.84,66.953,4.541,66.82,4.335
		c-0.89-1.334-2.182-2.039-3.739-2.039c-1.107,0-2.332,0.364-3.783,1.135c-0.334,0.18-3.188,1.549-7.137,3.443l-1.329,0.638
		c-5.418,2.567-8.302,3.929-8.533,4.031c-4.622,1.94-4.489,4.84-4.004,6.378c0.069,0.227,0.172,0.563,5.839,12.511
		c-7.294,5.596-13.457,12.468-18.348,20.462c-12.459-4.255-12.773-4.319-13.026-4.37c-0.324-0.062-0.646-0.094-0.957-0.094
		c-2.352,0-4.018,1.614-4.949,4.796c-0.039,0.129-0.371,1.152-3.029,8.939l-0.059,0.169c-1.699,4.889-2.927,8.42-3.045,8.728
		c-1.86,4.649,0.301,6.598,1.714,7.324c0.284,0.154,0.46,0.25,12.745,4.509c-1.202,9.206-0.741,18.345,1.374,27.216
		c-3.734,1.781-11.839,5.658-12.392,5.998c-1.363,0.907-3.296,3.089-0.917,7.521c0.146,0.275,1.301,2.661,4.067,8.473
		c1.721,3.65,3.862,8.194,4.012,8.54c1.168,2.812,2.829,4.238,4.936,4.238c0.479,0,0.974-0.08,1.399-0.216
		c0.284-0.079,0.553-0.153,12.55-5.827c4.981,6.504,10.979,12.124,17.865,16.736l-4.84,13.314c-0.825,2.28-0.192,5.268,3.971,6.779
		c0.218,0.092,0.49,0.188,0.757,0.282l0.335,0.119c6.965,2.54,12.509,4.565,16.202,5.92c0.304,0.106,0.68,0.239,0.975,0.35
		c1.032,0.375,2.002,0.565,2.885,0.565c2.185,0,3.862-1.156,4.605-3.176c0.946-2.592,2.506-6.855,4.521-12.34
		c10.149,1.756,20.609,1.424,30.59-0.974l2.104,4.403c1.455,3.046,2.618,5.479,3.424,7.161c1.292,2.702,4.321,3.516,7.696,1.896
		c0.28-0.132,0.668-0.319,0.965-0.463c2.98-1.416,7.25-3.449,12.535-5.967l3.05-1.452c0.289-0.145,0.63-0.306,0.937-0.444
		c4.085-1.952,4.423-4.987,3.38-7.172c-1.158-2.44-3.057-6.443-5.508-11.587c7.691-5.891,14.099-13.145,19.079-21.601
		c3.511,1.197,6.515,2.229,8.898,3.048l3.385,1.161c0.556,0.188,1.113,0.283,1.656,0.283c0,0,0,0,0,0
		c1.325,0,3.748-0.578,5.083-4.455l0.072-0.212c0.083-0.245,0.179-0.526,0.28-0.804c1.261-3.689,3.177-9.276,5.578-16.247
		c0.125-0.34,0.275-0.771,0.363-1.051C182.53,106.652,180.609,104.276,178.301,103.469z M177.258,109.656
		c-0.088,0.277-0.214,0.639-0.334,0.965c-2.417,7.016-4.334,12.606-5.582,16.259c-0.096,0.264-0.202,0.575-0.295,0.846l-0.069,0.202
		c-0.292,0.849-0.788,1.755-1.3,1.755c-0.106,0-0.232-0.024-0.369-0.07l-3.374-1.157c-2.731-0.938-6.277-2.156-10.465-3.583
		c-0.917-0.312-1.918,0.073-2.39,0.915c-5.083,9.064-11.85,16.726-20.113,22.771c-0.776,0.567-1.039,1.607-0.625,2.475
		c2.791,5.854,4.944,10.393,6.212,13.065c0.12,0.251,0.439,0.92-1.45,1.823c-0.31,0.139-0.71,0.327-1.012,0.479l-3.013,1.435
		c-5.283,2.517-9.552,4.55-12.546,5.972c-0.297,0.145-0.669,0.324-0.95,0.456c-0.817,0.392-1.346,0.474-1.646,0.474
		c-0.342,0-0.528-0.069-0.726-0.483c-0.807-1.683-1.968-4.115-3.422-7.158l-2.81-5.881c-0.414-0.866-1.383-1.317-2.314-1.071
		c-10.43,2.75-21.476,3.098-32.088,1.01c-0.963-0.191-1.924,0.351-2.263,1.272c-2.299,6.253-4.07,11.095-5.104,13.927
		c-0.144,0.39-0.293,0.553-0.85,0.553c-0.285,0-0.779-0.057-1.503-0.319c-0.306-0.114-0.713-0.259-1.011-0.362
		c-3.663-1.344-9.209-3.369-16.172-5.909l-0.386-0.138c-0.191-0.067-0.386-0.134-0.629-0.233c-2.011-0.73-1.767-1.405-1.664-1.691
		l5.38-14.798c0.32-0.88-0.013-1.863-0.801-2.368c-7.504-4.805-13.94-10.839-19.128-17.935c-0.387-0.529-0.993-0.819-1.615-0.819
		c-0.288,0-0.58,0.062-0.854,0.192c-10.487,4.963-13.142,6.182-13.455,6.308c-0.13,0.041-0.214,0.05-0.261,0.05
		c-0.175,0-0.659-0.37-1.249-1.791c-0.141-0.33-1.318-2.833-4.084-8.699c-1.772-3.723-3.936-8.252-4.165-8.666
		c-0.908-1.692-0.641-2.092-0.444-2.244c0.686-0.354,5.226-2.553,13.432-6.463c0.867-0.413,1.317-1.384,1.074-2.312
		c-2.454-9.371-2.944-19.081-1.458-28.86c0.145-0.954-0.411-1.875-1.322-2.19C13.79,76.18,4.933,73.11,4.305,72.85
		c-0.196-0.102-0.656-0.338,0.136-2.316c0.126-0.324,0.99-2.805,3.104-8.886l0.062-0.18c2.93-8.583,3.046-8.983,3.085-9.115
		c0.342-1.168,0.778-1.923,1.111-1.923c0.046,0,0.094,0.004,0.143,0.012c0.467,0.14,2.999,0.975,14.079,4.761
		c0.903,0.312,1.895-0.062,2.374-0.884c5.026-8.609,11.562-15.895,19.425-21.653c0.774-0.566,1.037-1.604,0.625-2.471
		c-5.433-11.446-6.261-13.286-6.334-13.459c-0.064-0.205-0.216-0.687,1.768-1.519c0.209-0.093,1.383-0.642,8.671-4.095l1.338-0.642
		c5.709-2.739,7.075-3.396,7.318-3.537c1.062-0.563,1.629-0.647,1.872-0.647c0.147,0,0.227,0,0.374,0.204
		c0.205,0.39,1.272,2.544,6.488,13.448c0.415,0.865,1.385,1.312,2.313,1.071c8.825-2.324,18.156-2.916,27.326-1.736
		c0.935,0.126,1.812-0.418,2.133-1.294c4.115-11.21,4.943-13.371,5.101-13.751C106.931,4.032,107.006,4,107.277,4
		c0.301,0,0.859,0.083,1.801,0.479c0.408,0.173,4.289,1.602,9.022,3.322c8.521,3.121,8.97,3.247,9.057,3.271
		c1.852,0.581,1.917,1.052,1.88,1.292c-0.143,0.446-0.967,2.799-4.643,12.945c-0.335,0.925,0.052,1.956,0.913,2.432
		c9.237,5.107,17.039,11.973,23.188,20.406c0.567,0.776,1.606,1.041,2.475,0.628c5.846-2.778,10.365-4.923,13.035-6.183
		c0.161-0.076,0.307-0.116,0.421-0.116c0.401,0,0.961,0.636,1.434,1.635l0.449,0.943c3.176,6.693,5.712,12.032,7.383,15.54
		l0.463,0.975c0.919,1.937,0.268,2.248-0.008,2.38l-1.36,0.648c-2.73,1.302-6.73,3.208-11.686,5.576
		c-0.865,0.414-1.315,1.383-1.073,2.311c2.362,9.034,2.908,18.377,1.623,27.768c-0.129,0.946,0.427,1.852,1.33,2.162l6.922,2.393
		c3.005,1.04,5.419,1.876,7.094,2.444C177.289,107.353,177.972,107.592,177.258,109.656z"/>
	<path style="fill:#231F20;" d="M15.155,54.434c-1.058-0.316-2.172,0.288-2.487,1.347L8.835,68.674
		c-0.315,1.06,0.288,2.173,1.347,2.487c0.19,0.057,0.382,0.084,0.571,0.084c0.862,0,1.658-0.562,1.916-1.431l3.833-12.894
		C16.817,55.861,16.214,54.748,15.155,54.434z"/>
	<path style="fill:#231F20;" d="M27.387,79.046c0-1.104-0.896-2-2-2s-2,0.896-2,2c0,0.866,0.028,21.299,2.525,29.505
		c0.263,0.863,1.056,1.419,1.913,1.419c0.192,0,0.389-0.028,0.583-0.088c1.057-0.321,1.652-1.438,1.331-2.495
		C27.415,99.748,27.387,79.252,27.387,79.046z"/>
	<path style="fill:#231F20;" d="M15.676,117.928c-0.441-1.014-1.619-1.479-2.633-1.034c-1.012,0.441-1.476,1.62-1.034,2.632
		l5.924,13.59c0.328,0.753,1.063,1.202,1.834,1.202c0.267,0,0.538-0.054,0.798-0.168c1.012-0.441,1.476-1.62,1.034-2.632
		L15.676,117.928z"/>
	<path style="fill:#231F20;" d="M56.184,142.041c-7.166-3.258-16.631-14.346-16.726-14.457c-0.716-0.842-1.977-0.945-2.819-0.23
		s-0.946,1.977-0.231,2.818c0.41,0.483,10.138,11.881,18.121,15.51c0.269,0.122,0.55,0.18,0.827,0.18
		c0.76,0,1.486-0.436,1.822-1.172C57.634,143.684,57.19,142.498,56.184,142.041z"/>
	<path style="fill:#231F20;" d="M52.397,82.324c2.218-9.729,6.994-16.704,7.042-16.773c0.628-0.907,0.403-2.153-0.504-2.782
		c-0.906-0.63-2.152-0.405-2.781,0.501c-0.208,0.299-20.495,30.136,1.169,55.41c0.396,0.461,0.956,0.698,1.52,0.698
		c0.46,0,0.923-0.158,1.301-0.481c0.838-0.719,0.936-1.981,0.217-2.82C52.154,106.503,49.474,95.146,52.397,82.324z"/>
</g>
<g>
</g>
<g>
</g>
<g>
</g>
<g>
</g>
<g>
</g>
<g>
</g>
<g>
</g>
<g>
</g>
<g>
</g>
<g>
</g>
<g>
</g>
<g>
</g>
<g>
</g>
<g>
</g>
<g>
</g>
</svg>
