<?xml version="1.0" encoding="iso-8859-1"?>
<!-- Generator: Adobe Illustrator 18.0.0, SVG Export Plug-In . SVG Version: 6.00 Build 0)  -->
<!DOCTYPE svg PUBLIC "-//W3C//DTD SVG 1.1//EN" "http://www.w3.org/Graphics/SVG/1.1/DTD/svg11.dtd">
<svg version="1.1" id="Capa_1" xmlns="http://www.w3.org/2000/svg" xmlns:xlink="http://www.w3.org/1999/xlink" x="0px" y="0px"
	 viewBox="0 0 186.358 174.471" style="enable-background:new 0 0 186.358 174.471;" xml:space="preserve">
<g>
	<path style="fill:#231F20;" d="M100.865,70.858c0.413,0,0.838-0.069,1.297-0.212l13.186-3.469c2.087-0.648,3.283-2.292,3.283-4.51
		v-5.483c0-4.995-1.592-9.393-4.733-13.078c-2.768-3.227-6.223-5.386-10.29-6.433v-3.739c0-2.441-1.574-4.019-4.01-4.019h-7.797
		c-2.444,0-4.023,1.577-4.023,4.019v3.739c-4.06,1.048-7.51,3.207-10.274,6.436c-3.145,3.682-4.739,8.081-4.739,13.075v12.109
		c0,2.54,0.369,4.566,1.125,6.191c0.737,1.597,1.937,3.168,3.564,4.668c0.044,0.041,0.09,0.079,0.137,0.116l18.562,14.261
		c0.556,0.503,0.923,1.047,1.097,1.631c0.237,0.774,0.396,1.701,0.488,2.829v13.634c0,0.42-0.131,0.746-0.412,1.024
		c-0.307,0.305-0.622,0.435-1.055,0.435h-1.145c-0.431,0-0.753-0.131-1.066-0.446c-0.279-0.273-0.404-0.585-0.404-1.013v-12.141
		c0-2.465-1.574-3.568-3.136-3.568c-0.422,0-0.857,0.071-1.254,0.196l-13.206,3.501c-2.094,0.644-3.295,2.283-3.295,4.499v8.229
		c0,4.999,1.595,9.395,4.742,13.066c2.772,3.229,6.222,5.393,10.271,6.449v3.87c0,2.452,1.579,4.036,4.023,4.036h7.797
		c2.436,0,4.01-1.584,4.01-4.036v-3.87c4.058-1.056,7.513-3.22,10.291-6.452c3.141-3.668,4.732-8.064,4.732-13.064V93.847
		c0-0.072-0.004-0.144-0.012-0.215c-0.194-1.791-0.533-3.491-1.016-5.074c-0.555-1.75-1.751-3.438-3.557-5.017
		c-0.038-0.033-0.077-0.065-0.118-0.095L95.145,69.383c-0.515-0.526-0.862-1.03-1.042-1.516c-0.221-0.579-0.372-1.286-0.449-2.103
		v-7.867c0-0.443,0.123-0.748,0.408-1.034c0.298-0.292,0.625-0.422,1.062-0.422h1.145c0.438,0,0.76,0.129,1.034,0.394
		c0.304,0.309,0.433,0.627,0.433,1.062v9.389C97.736,69.754,99.307,70.858,100.865,70.858z M96.269,52.441h-1.145
		c-1.482,0-2.818,0.542-3.881,1.584c-1.04,1.046-1.59,2.385-1.59,3.873v7.958c0,0.059,0.003,0.117,0.008,0.175
		c0.107,1.221,0.344,2.318,0.696,3.242c0.386,1.047,1.081,2.072,2.064,3.046c0.065,0.064,0.135,0.125,0.209,0.18l18.837,14.103
		c1.216,1.073,1.996,2.137,2.315,3.143c0.394,1.292,0.678,2.709,0.847,4.212v19.382c0,4.076-1.233,7.498-3.769,10.46
		c-2.565,2.983-5.709,4.776-9.61,5.48c-0.952,0.172-1.645,1.001-1.645,1.968v5.477c0,0.013,0,0.024,0,0.036c-0.004,0-0.007,0-0.01,0
		h-7.797c-0.008,0-0.016,0-0.023,0c0-0.012,0-0.023,0-0.036v-5.477c0-0.967-0.692-1.796-1.645-1.968
		c-3.893-0.704-7.03-2.496-9.591-5.479c-2.542-2.966-3.778-6.388-3.778-10.462v-8.229c0-0.511,0.09-0.558,0.396-0.654l12.495-3.312
		v11.479c0,1.507,0.557,2.848,1.59,3.854c1.043,1.049,2.385,1.604,3.881,1.604h1.145c1.48,0,2.819-0.551,3.87-1.593
		c1.045-1.034,1.597-2.371,1.597-3.866V98.91c0-0.052-0.002-0.104-0.006-0.155c-0.113-1.458-0.329-2.69-0.653-3.75
		c-0.391-1.312-1.172-2.494-2.321-3.513c-0.035-0.031-0.07-0.061-0.107-0.089L80.1,77.152c-1.206-1.122-2.073-2.247-2.582-3.351
		c-0.501-1.075-0.755-2.592-0.755-4.509V57.184c0-4.071,1.236-7.498,3.779-10.475c2.549-2.976,5.684-4.761,9.585-5.455
		c0.954-0.17,1.649-1,1.649-1.969v-5.35c0-0.006,0-0.012,0-0.019c0.008,0,0.016,0,0.023,0h7.797c0.003,0,0.007,0,0.01,0
		c0,0.006,0,0.012,0,0.019v5.35c0,0.969,0.695,1.799,1.649,1.969c3.91,0.695,7.052,2.48,9.601,5.452
		c2.539,2.978,3.773,6.405,3.773,10.478v5.483c0,0.521-0.105,0.577-0.386,0.667l-12.509,3.289v-8.725
		c0-1.475-0.545-2.811-1.614-3.901C99.068,52.979,97.736,52.441,96.269,52.441z"/>
	<path style="fill:#231F20;" d="M13.338,65.761h21.135c0.842,0,1.593-0.527,1.88-1.317c8.754-24.113,31.832-40.314,57.427-40.314
		c23.424,0,44.63,13.38,54.857,34.341c-3.023-0.033-5.45-0.062-7.141-0.09c-2.628,0-4.36,1.863-4.414,4.757
		c-0.017,1.296-0.056,4.331,18.814,25.259c1.447,1.605,3.411,2.446,5.449,2.332c0.038,0.001,0.075,0.001,0.119,0.001
		c0.168,0.013,0.337,0.02,0.507,0.02c1.862,0,3.631-0.786,4.982-2.213c19.353-20.48,19.39-23.626,19.403-24.815
		c0.019-1.913-0.688-3.031-1.284-3.633c-0.545-0.549-1.522-1.205-3.049-1.205h-0.001c-1.221-0.025-2.886-0.045-4.905-0.07
		l-2.353-0.029c-5.4-16.499-15.98-31.282-29.913-41.752C130.028,5.889,112.364,0,93.771,0C55.208,0,21.338,26.007,11.405,63.245
		c-0.16,0.601-0.032,1.241,0.347,1.734S12.717,65.761,13.338,65.761z M93.771,4c17.72,0,34.552,5.612,48.678,16.228
		c13.654,10.262,23.931,24.867,28.937,41.125c0.255,0.83,1.017,1.4,1.884,1.412l3.801,0.048c2.006,0.024,3.659,0.044,4.912,0.069
		c0.157,0,0.252,0.029,0.245,0.016c0.002,0.002,0.136,0.186,0.135,0.709c-0.265,1.57-5.22,8.322-18.314,22.18
		c-0.673,0.71-1.521,1.039-2.369,0.945c-0.073-0.008-0.146-0.012-0.22-0.012c-0.012,0-0.023,0-0.035,0
		c-0.071-0.001-0.143,0.001-0.214,0.007c-0.842,0.077-1.682-0.278-2.344-1.011c-12.771-14.164-17.563-21.025-17.784-22.518
		c0.009-0.515,0.119-0.751,0.143-0.782c0.001,0,0.074-0.037,0.265-0.038c2.187,0.038,5.735,0.077,10.255,0.125
		c0.007,0,0.015,0,0.021,0c0.668,0,1.292-0.333,1.663-0.889c0.375-0.562,0.441-1.275,0.176-1.897
		c-10.279-24.05-33.763-39.589-59.825-39.589c-26.802,0-51.014,16.672-60.692,41.632H15.984C26.275,27.621,57.891,4,93.771,4z"/>
	<path style="fill:#231F20;" d="M174.221,108.701h-21.129c-0.841,0-1.593,0.526-1.88,1.317
		c-8.762,24.119-31.843,40.324-57.433,40.324c-23.506,0-44.76-13.464-54.954-34.549l6.129-0.117c1.578-0.03,2.55-0.704,3.088-1.263
		c0.585-0.608,1.273-1.731,1.235-3.617c-0.02-1.193-0.07-4.363-19.548-24.684c-1.486-1.562-3.513-2.348-5.561-2.177
		c-2.082-0.107-4.056,0.74-5.506,2.363c-18.74,21.081-18.685,24.084-18.661,25.373c0.062,2.863,1.776,4.712,4.369,4.712
		c0.009,0,0.103-0.001,0.112-0.001c1.006-0.014,2.302-0.037,3.848-0.064c1.365-0.024,2.926-0.051,4.656-0.079
		c11.646,34.892,43.923,58.23,80.784,58.23c38.579,0,72.455-26.011,82.382-63.255c0.16-0.601,0.032-1.241-0.347-1.734
		S174.842,108.701,174.221,108.701z M93.771,170.471c-35.606,0-66.723-22.848-77.431-56.854c-0.262-0.834-1.035-1.399-1.907-1.399
		c-0.01,0-0.021,0-0.03,0c-2.33,0.036-4.396,0.072-6.142,0.103c-1.541,0.027-2.832,0.049-3.891,0.064
		c-0.143,0-0.22-0.026-0.213-0.014c-0.037-0.043-0.146-0.278-0.159-0.709c0.047-0.344,0.943-3.907,17.65-22.701
		c0.653-0.731,1.488-1.092,2.368-1.026c0.006,0,0.012,0,0.019,0.001c0.151,0.013,0.305,0.009,0.458-0.012
		c0.855-0.075,1.671,0.247,2.343,0.953c14.091,14.701,18.225,20.781,18.44,21.995c0.011,0.497-0.086,0.731-0.105,0.761
		c-0.001,0-0.079,0.042-0.295,0.047l-9.168,0.175c-0.664,0.013-1.278,0.355-1.64,0.913s-0.422,1.258-0.162,1.87
		c10.261,24.122,33.762,39.708,59.872,39.708c26.797,0,51.011-16.677,60.697-41.641h17.098
		C161.289,146.845,129.665,170.471,93.771,170.471z"/>
	<path style="fill:#231F20;" d="M57.084,22.053c0.945-0.569,1.252-1.797,0.684-2.744c-0.569-0.947-1.797-1.253-2.743-0.685
		c-0.871,0.523-21.449,13.056-30.373,34.66c-0.422,1.021,0.064,2.19,1.085,2.612c0.25,0.103,0.509,0.152,0.763,0.152
		c0.786,0,1.531-0.466,1.85-1.237C36.756,34.457,56.881,22.174,57.084,22.053z"/>
	<path style="fill:#231F20;" d="M25.978,92.261c-0.829-0.732-2.092-0.654-2.823,0.173l-10.621,12.006
		c-0.731,0.827-0.654,2.091,0.173,2.823c0.381,0.336,0.854,0.502,1.324,0.502c0.554,0,1.104-0.228,1.499-0.675l10.621-12.006
		C26.883,94.257,26.805,92.993,25.978,92.261z"/>
	<path style="fill:#231F20;" d="M67.678,155.557c-28.254-7.947-42.426-40.998-42.565-41.331c-0.428-1.018-1.599-1.497-2.618-1.07
		c-1.019,0.427-1.498,1.598-1.071,2.617c0.6,1.432,15.035,35.159,45.171,43.635c0.182,0.051,0.364,0.075,0.543,0.075
		c0.874,0,1.676-0.577,1.925-1.459C69.36,156.96,68.74,155.856,67.678,155.557z"/>
	<path style="fill:#231F20;" d="M149.393,65.013c-0.829,0.73-0.91,1.994-0.18,2.823l10.159,11.544
		c0.395,0.449,0.947,0.679,1.502,0.679c0.469,0,0.94-0.164,1.32-0.499c0.829-0.73,0.91-1.994,0.18-2.823l-10.159-11.544
		C151.487,64.364,150.222,64.283,149.393,65.013z"/>
	<path style="fill:#231F20;" d="M87.73,45.536c-0.294,0.092-7.21,2.316-7.686,8.032c-0.374,4.498-0.021,17.429-0.006,17.977
		c0.03,1.085,0.919,1.945,1.998,1.945c0.019,0,0.037,0,0.057-0.001c1.104-0.03,1.975-0.95,1.943-2.054
		c-0.004-0.132-0.361-13.257-0.006-17.536c0.247-2.969,4.814-4.52,4.897-4.547c1.051-0.331,1.637-1.451,1.308-2.503
		C89.907,45.793,88.785,45.209,87.73,45.536z"/>
	<path style="fill:#231F20;" d="M89.183,119.991c-5.613-2.659-4.435-12.262-4.423-12.359c0.145-1.093-0.624-2.097-1.718-2.243
		c-1.087-0.147-2.102,0.623-2.247,1.718c-0.068,0.512-1.577,12.59,6.675,16.499c0.276,0.131,0.568,0.193,0.855,0.193
		c0.748,0,1.467-0.423,1.809-1.145C90.607,121.657,90.181,120.464,89.183,119.991z"/>
</g>
<g>
</g>
<g>
</g>
<g>
</g>
<g>
</g>
<g>
</g>
<g>
</g>
<g>
</g>
<g>
</g>
<g>
</g>
<g>
</g>
<g>
</g>
<g>
</g>
<g>
</g>
<g>
</g>
<g>
</g>
</svg>
