<?xml version="1.0" encoding="iso-8859-1"?>
<!-- Generator: Adobe Illustrator 18.0.0, SVG Export Plug-In . SVG Version: 6.00 Build 0)  -->
<!DOCTYPE svg PUBLIC "-//W3C//DTD SVG 1.1//EN" "http://www.w3.org/Graphics/SVG/1.1/DTD/svg11.dtd">
<svg version="1.1" id="Capa_1" xmlns="http://www.w3.org/2000/svg" xmlns:xlink="http://www.w3.org/1999/xlink" x="0px" y="0px"
	 viewBox="0 0 187.559 187.561" style="enable-background:new 0 0 187.559 187.561;" xml:space="preserve">
<g>
	<path style="fill:#231F20;" d="M172.68,98.092h-31.236c-1.062,0-1.94,0.831-1.997,1.893c-0.614,11.452-2.673,22.77-6.118,33.64
		c-0.161,0.507-0.113,1.056,0.132,1.526c0.244,0.472,0.667,0.826,1.173,0.985c7.049,2.223,13.935,5.034,20.466,8.357
		c0.289,0.147,0.6,0.218,0.906,0.218c0.598,0,1.184-0.269,1.573-0.765c9.939-12.648,15.851-27.76,17.096-43.699
		c0.043-0.556-0.147-1.104-0.526-1.514C173.77,98.324,173.237,98.092,172.68,98.092z M155.427,140.184
		c-5.692-2.809-11.631-5.241-17.698-7.251c3.014-10.007,4.893-20.362,5.598-30.841h27.161
		C169.017,115.91,163.84,129.007,155.427,140.184z"/>
	<path style="fill:#231F20;" d="M55.191,146.701c-0.396-0.991-1.501-1.495-2.511-1.149c-4.569,1.578-8.762,3.271-12.815,5.175
		c-0.606,0.285-1.03,0.854-1.129,1.517c-0.099,0.662,0.142,1.329,0.638,1.778c6.702,6.052,14.313,10.909,22.624,14.437
		c0.253,0.107,0.518,0.159,0.78,0.159c0.564,0,1.116-0.238,1.505-0.682c0.569-0.649,0.657-1.59,0.219-2.334
		C60.866,159.433,57.733,153.074,55.191,146.701z M44.381,153.07c2.512-1.099,5.099-2.127,7.82-3.107
		c1.698,4.085,3.629,8.157,5.771,12.173C53.133,159.606,48.585,156.574,44.381,153.07z"/>
	<path style="fill:#231F20;" d="M86.856,138.873c-7.185,0.398-14.424,1.431-21.518,3.067c-0.571,0.133-1.056,0.509-1.325,1.029
		c-0.271,0.521-0.298,1.134-0.076,1.677c4.115,10.067,9.624,19.692,16.374,28.608c0.318,0.42,0.789,0.698,1.311,0.772
		c1.532,0.22,3.167,0.447,4.817,0.601c0.062,0.006,0.124,0.009,0.186,0.009c0.492,0,0.97-0.182,1.339-0.515
		c0.415-0.374,0.655-0.905,0.661-1.464l0.342-31.767c0.006-0.554-0.218-1.084-0.617-1.467
		C87.948,139.042,87.409,138.841,86.856,138.873z M84.648,170.404c-0.553-0.069-1.102-0.145-1.642-0.22
		c-5.828-7.803-10.679-16.151-14.444-24.859c5.419-1.142,10.911-1.92,16.381-2.321L84.648,170.404z"/>
	<path style="fill:#231F20;" d="M51.084,134.728c-3.289-11.286-5.11-22.957-5.415-34.688c-0.027-1.084-0.915-1.948-1.999-1.948
		H14.877c-0.558,0-1.09,0.232-1.469,0.642c-0.378,0.41-0.568,0.959-0.525,1.515c1.247,15.942,7.16,31.053,17.102,43.699
		c0.39,0.496,0.976,0.764,1.573,0.764c0.308,0,0.619-0.071,0.908-0.219c5.339-2.727,11.176-5.188,17.35-7.314
		C50.824,136.83,51.383,135.752,51.084,134.728z M32.135,140.183c-8.415-11.174-13.593-24.271-15.064-38.091h24.664
		c0.43,10.788,2.106,21.511,4.991,31.933C41.595,135.863,36.701,137.929,32.135,140.183z"/>
	<path style="fill:#231F20;" d="M40.95,35.914c4.433,2.042,9.289,3.911,14.437,5.557c0.202,0.064,0.407,0.095,0.609,0.095
		c0.764,0,1.485-0.44,1.818-1.168c3.16-6.906,7.012-13.704,11.449-20.204c0.487-0.715,0.46-1.661-0.066-2.347
		c-0.528-0.688-1.438-0.952-2.251-0.668c-9.803,3.456-18.71,8.641-26.474,15.412c-0.512,0.445-0.762,1.12-0.665,1.791
		C39.904,35.054,40.334,35.631,40.95,35.914z M62.504,23.244c-2.812,4.529-5.346,9.171-7.572,13.87
		c-3.279-1.095-6.425-2.281-9.397-3.545C50.722,29.407,56.403,25.951,62.504,23.244z"/>
	<path style="fill:#231F20;" d="M167.919,36.394c-2.714-3.5-5.706-6.854-8.902-9.975C145.192,13.06,127.912,4.365,109.041,1.273
		c-3.049-0.494-6.13-0.851-9.162-1.062C97.728,0.069,95.732,0,93.777,0c-4.49,0-9.053,0.332-13.56,0.987
		C60.704,3.806,42.837,12.6,28.543,26.424c-3.212,3.124-6.212,6.479-8.919,9.97C6.786,52.959,0,72.801,0,93.773
		c0,20.548,6.524,40.061,18.868,56.429c2.705,3.589,5.648,6.965,8.744,10.031c12.823,12.769,28.93,21.505,46.581,25.268
		c6.458,1.366,13.047,2.06,19.584,2.06h0.059c4.142,0,8.294-0.289,12.697-0.884c20.079-2.735,39.046-12.127,53.402-26.438
		c3.104-3.068,6.049-6.445,8.75-10.035c12.347-16.35,18.873-35.863,18.873-56.43C187.559,72.795,180.767,52.953,167.919,36.394z
		 M165.492,147.795c-2.587,3.438-5.402,6.667-8.375,9.605c-13.748,13.705-31.904,22.694-51.121,25.312
		c-4.222,0.57-8.199,0.848-12.16,0.848h-0.059c-6.26,0-12.569-0.664-18.753-1.973c-16.895-3.601-32.313-11.965-44.594-24.192
		c-2.963-2.936-5.779-6.166-8.369-9.602C10.246,132.125,4,113.445,4,93.773c0-20.078,6.496-39.072,18.786-54.929
		c2.592-3.345,5.468-6.56,8.542-9.55C45.01,16.062,62.113,7.644,80.792,4.946C85.109,4.318,89.479,4,93.777,4
		c1.865,0,3.774,0.066,5.83,0.203c2.906,0.201,5.864,0.544,8.79,1.019c18.061,2.959,34.604,11.283,47.832,24.066
		c3.058,2.985,5.927,6.201,8.528,9.557c12.3,15.853,18.801,34.846,18.801,54.929C183.559,113.463,177.312,132.143,165.492,147.795z"
		/>
	<path style="fill:#231F20;" d="M14.877,89.463h29.088c1.054,0,1.927-0.817,1.996-1.869c0.799-12.176,3.201-24.08,7.141-35.381
		c0.177-0.508,0.142-1.065-0.097-1.547c-0.239-0.481-0.662-0.847-1.174-1.014c-6.539-2.127-12.791-4.686-18.581-7.606
		c-0.837-0.422-1.859-0.204-2.453,0.525C20.354,55.428,14.158,70.897,12.883,87.308c-0.043,0.556,0.147,1.104,0.526,1.514
		C13.787,89.23,14.319,89.463,14.877,89.463z M32.908,46.342c4.979,2.43,10.267,4.602,15.763,6.475
		c-3.478,10.483-5.684,21.447-6.566,32.646H17.068C18.58,71.193,24.025,57.74,32.908,46.342z"/>
	<path style="fill:#231F20;" d="M88.115,12.822l-1.306,0.133c-0.513,0.047-0.988,0.29-1.326,0.679
		C78.1,22.122,71.844,31.666,66.89,42c-0.266,0.555-0.262,1.201,0.012,1.752c0.273,0.552,0.785,0.946,1.388,1.071
		c6.525,1.347,13.122,2.181,19.605,2.48c0.03,0.001,0.062,0.002,0.092,0.002c0.51,0,1.002-0.194,1.374-0.546
		c0.395-0.373,0.62-0.891,0.626-1.434l0.318-30.492c0.006-0.566-0.229-1.109-0.646-1.493C89.24,12.957,88.686,12.769,88.115,12.822z
		 M86.008,43.193c-4.761-0.305-9.575-0.904-14.366-1.79c4.074-8.068,8.979-15.613,14.62-22.493L86.008,43.193z"/>
	<path style="fill:#231F20;" d="M99.624,129.953c7.595,0.324,15.243,1.311,22.734,2.932c0.142,0.03,0.284,0.045,0.424,0.045
		c0.851,0,1.63-0.545,1.901-1.384c3.262-10.071,5.242-20.613,5.885-31.334c0.033-0.551-0.162-1.09-0.54-1.491
		s-0.905-0.629-1.456-0.629h-28.549c-1.096,0-1.987,0.882-2,1.978l-0.314,27.863C97.697,129.013,98.545,129.907,99.624,129.953z
		 M102.001,102.092h24.43c-0.698,9.048-2.381,17.947-5.012,26.509c-6.503-1.317-13.108-2.172-19.688-2.547L102.001,102.092z"/>
	<path style="fill:#231F20;" d="M133.605,52.442c3.5,11.278,5.51,23.087,5.973,35.098c0.041,1.073,0.924,1.923,1.998,1.923h31.104
		c0.558,0,1.09-0.232,1.468-0.642c0.379-0.409,0.569-0.958,0.526-1.514c-1.281-16.425-7.475-31.895-17.911-44.737
		c-0.591-0.728-1.612-0.944-2.448-0.526c-6.198,3.11-12.728,5.768-19.407,7.9C133.861,50.278,133.28,51.394,133.605,52.442z
		 M154.65,46.34c8.877,11.387,14.322,24.841,15.837,39.123h-27c-0.573-11.032-2.417-21.886-5.491-32.32
		C143.702,51.231,149.29,48.949,154.65,46.34z"/>
	<path style="fill:#231F20;" d="M129.289,40.487c0.318,0.762,1.058,1.229,1.846,1.229c0.199,0,0.402-0.029,0.602-0.093
		c5.134-1.619,10.136-3.54,14.866-5.708c0.618-0.283,1.051-0.861,1.146-1.535c0.097-0.673-0.155-1.349-0.669-1.794
		c-7.712-6.688-16.411-11.8-25.854-15.196c-0.804-0.291-1.701-0.036-2.235,0.629c-0.535,0.666-0.589,1.597-0.134,2.319
		C122.835,26.652,126.345,33.431,129.289,40.487z M142.014,33.571c-3.157,1.346-6.422,2.577-9.754,3.68
		c-2.067-4.781-4.388-9.432-6.932-13.895C131.268,26.023,136.854,29.442,142.014,33.571z"/>
	<path style="fill:#231F20;" d="M100.58,47.272c0.035,0,0.071-0.001,0.106-0.003c6.037-0.321,12.178-1.104,18.251-2.324
		c0.592-0.119,1.099-0.499,1.378-1.035c0.28-0.535,0.303-1.168,0.062-1.722c-4.415-10.17-10.154-19.73-17.059-28.417
		c-0.337-0.424-0.83-0.693-1.369-0.746l-0.192-0.02c-0.233-0.023-0.467-0.048-0.708-0.063c-0.543-0.031-1.089,0.153-1.493,0.526
		s-0.637,0.896-0.643,1.446L98.58,45.25c-0.006,0.553,0.217,1.084,0.616,1.466C99.569,47.074,100.065,47.272,100.58,47.272z
		 M102.861,19.749c5.01,6.788,9.311,14.078,12.826,21.744c-4.361,0.786-8.745,1.339-13.084,1.649L102.861,19.749z"/>
	<path style="fill:#231F20;" d="M100.143,89.463h28.549c0.545,0,1.065-0.222,1.442-0.614c0.377-0.394,0.578-0.923,0.556-1.467
		c-0.454-11.205-2.372-22.252-5.701-32.833c-0.311-0.985-1.32-1.569-2.33-1.354c-7.459,1.611-14.958,2.604-22.29,2.953
		c-1.059,0.051-1.894,0.917-1.905,1.977l-0.32,29.317c-0.006,0.534,0.202,1.048,0.578,1.428S99.608,89.463,100.143,89.463z
		 M102.442,60.04c6.357-0.394,12.818-1.252,19.261-2.559c2.7,9.057,4.342,18.451,4.888,27.981h-24.426L102.442,60.04z"/>
	<path style="fill:#231F20;" d="M87.93,56.179c-7.782-0.328-15.802-1.397-23.834-3.18c-0.986-0.22-1.98,0.331-2.318,1.282
		c-3.771,10.614-6.1,21.729-6.925,33.036c-0.04,0.555,0.152,1.101,0.53,1.507c0.379,0.407,0.909,0.639,1.465,0.639h30.688
		c1.097,0,1.988-0.883,2-1.979l0.311-29.286C89.857,57.118,89.009,56.224,87.93,56.179z M85.557,85.463H59.018
		c0.871-9.623,2.87-19.085,5.953-28.184c7.016,1.47,14.015,2.409,20.854,2.8L85.557,85.463z"/>
	<path style="fill:#231F20;" d="M87.406,98.092H56.562c-0.54,0-1.058,0.219-1.434,0.605c-0.377,0.388-0.581,0.911-0.565,1.451
		c0.307,10.908,2.001,21.709,5.034,32.102c0.254,0.869,1.05,1.439,1.919,1.439c0.155,0,0.313-0.018,0.471-0.056
		c8.333-2.014,16.812-3.237,25.201-3.635c1.058-0.051,1.894-0.917,1.905-1.976l0.312-27.909c0.006-0.534-0.202-1.049-0.578-1.429
		C88.453,98.306,87.94,98.092,87.406,98.092z M85.115,126.106c-7.396,0.455-14.845,1.529-22.194,3.2
		c-2.434-8.847-3.872-17.983-4.284-27.215h26.747L85.115,126.106z"/>
	<path style="fill:#231F20;" d="M119.93,142.181c-0.279-0.539-0.788-0.923-1.383-1.043c-6.038-1.214-12.389-1.982-18.874-2.284
		c-0.544-0.019-1.071,0.171-1.466,0.544s-0.621,0.89-0.627,1.433l-0.34,31.904c-0.006,0.598,0.255,1.167,0.712,1.552
		c0.363,0.306,0.82,0.47,1.288,0.47c0.12,0,0.242-0.011,0.362-0.033c0.065-0.012,0.117-0.018,0.174-0.024
		c0.004,0,0.104-0.013,0.109-0.014c0.498-0.063,0.953-0.312,1.276-0.696c7.655-9.108,13.986-19.228,18.817-30.076
		C120.227,143.357,120.208,142.721,119.93,142.181z M101.297,167.447l0.261-24.484c4.683,0.293,9.277,0.838,13.713,1.626
		C111.46,152.692,106.775,160.354,101.297,167.447z"/>
	<path style="fill:#231F20;" d="M147.692,150.728c-5.29-2.493-10.789-4.626-16.346-6.338c-0.98-0.303-2.029,0.186-2.43,1.13
		c-3.285,7.736-7.353,15.264-12.089,22.372c-0.473,0.71-0.444,1.642,0.072,2.32c0.386,0.507,0.979,0.789,1.592,0.789
		c0.208,0,0.419-0.032,0.624-0.1c10.789-3.544,20.566-9.223,29.062-16.879c0.497-0.448,0.737-1.115,0.64-1.777
		S148.298,151.014,147.692,150.728z M123.37,165.062c3.202-5.272,6.05-10.732,8.506-16.309c3.82,1.241,7.605,2.686,11.301,4.312
		C137.167,158.075,130.532,162.093,123.37,165.062z"/>
</g>
<g>
</g>
<g>
</g>
<g>
</g>
<g>
</g>
<g>
</g>
<g>
</g>
<g>
</g>
<g>
</g>
<g>
</g>
<g>
</g>
<g>
</g>
<g>
</g>
<g>
</g>
<g>
</g>
<g>
</g>
</svg>
