<?xml version="1.0" encoding="iso-8859-1"?>
<!-- Generator: Adobe Illustrator 18.0.0, SVG Export Plug-In . SVG Version: 6.00 Build 0)  -->
<!DOCTYPE svg PUBLIC "-//W3C//DTD SVG 1.1//EN" "http://www.w3.org/Graphics/SVG/1.1/DTD/svg11.dtd">
<svg version="1.1" id="Capa_1" xmlns="http://www.w3.org/2000/svg" xmlns:xlink="http://www.w3.org/1999/xlink" x="0px" y="0px"
	 viewBox="0 0 188.486 166.738" style="enable-background:new 0 0 188.486 166.738;" xml:space="preserve">
<g>
	<path style="fill:#231F20;" d="M188.334,150.832c0.148-5.711,0.182-16.371,0.127-36.631c-0.053-19.848-0.205-39.847-0.218-41.393
		c0.905-11.802-2.488-15.407-9.49-17.971l-5.075-3.388l-0.074-18.11c0-5.769-2.974-12.758-17.227-13.305l-29.728,0.031
		c-13.395-8.937-24.317-16.224-25.93-17.295C98.193,1.097,96.383,0,94.319,0c-1.998,0-3.62,0.994-6.313,2.644
		C86.47,3.592,77.644,9.452,61.771,20.064l-29.401-0.029c-14.162,0.544-17.135,7.534-17.135,13.294l-0.072,17.96l-4.226,2.836
		c-0.199,0.013-0.398,0.044-0.59,0.112c-7.253,2.559-10.241,8.075-9.684,17.886l-0.661,79.381c0.007,0.283,0.039,0.569,0.097,0.854
		C0.034,152.564,0,152.782,0,153.006c0,3.154,1.996,6.404,5.469,8.956c1.597,1.302,3.617,2.386,6.127,3.142
		c2.957,1.018,6.372,1.634,10.165,1.634l144.528-0.223h0.23c2.098,0,4.08-0.169,5.936-0.464c4.132-0.481,7.622-1.716,10.266-3.636
		c2.014-1.277,3.501-2.743,4.323-4.247c0.126-0.083,0.243-0.179,0.351-0.286c0.433-0.435,0.722-0.729,0.893-5.556
		c0.018-0.292,0.048-0.579,0.048-0.876L188.334,150.832z M171.986,161.674c-1.146,0.133-2.358,0.202-3.632,0.202l-0.413-0.003
		l-72.175,0.008l-74.897-0.008l-0.39,0.003c-2.85,0-5.353-0.342-7.484-0.977c-1.948-0.682-3.606-1.556-4.929-2.524
		c-2.047-1.737-3.15-4.074-3.15-6.907l0.362-83.506c0-2.662,0.861-4.743,2.633-6.36c0.077-0.071,0.149-0.146,0.215-0.227
		c0.128-0.103,0.365-0.283,0.729-0.53l2.525-1.697l80.678,52.598c0.513,0.334,1.142,0.441,1.733,0.294
		c0.324-0.079,0.591-0.099,0.874-0.071c0.496,0.052,0.993-0.068,1.413-0.337l81.535-52.251l1.026,0.685
		c0.062,0.042,0.127,0.08,0.193,0.115c3.233,1.711,4.739,4.183,4.739,7.789l0.348,83.052c-0.005,0.27-0.011,0.541-0.017,0.79
		c-0.096,2.772-1.293,5.136-3.5,6.845C178.509,159.877,175.714,161.062,171.986,161.674z M18.594,54.302
		c0.608-0.408,0.975-1.092,0.978-1.824l0.077-19.14c0-3.604,1.336-8.448,12.804-8.891l29.985,0.031c0,0,0.001,0,0.002,0
		c0.437,0,0.863-0.13,1.227-0.373C83.819,10.631,89.286,7.039,90.317,6.403c1.956-1.198,3.248-1.989,4.002-1.989
		c0.744,0,2.018,0.746,3.962,2.033c1.629,1.083,12.831,8.557,26.477,17.66c0.362,0.241,0.789,0.371,1.225,0.371
		c0.001,0,0.002,0,0.002,0l30.311-0.033c11.559,0.444,12.896,5.288,12.896,8.901l0.079,19.294c0.003,0.734,0.371,1.419,0.982,1.826
		l3.356,2.24l-79.332,50.839c-0.177,0.004-0.354,0.015-0.53,0.032L15.36,56.475L18.594,54.302z"/>
	<path style="fill:#231F20;" d="M64.159,83.918c7.779,6.665,17.53,10.045,28.981,10.045c6.888,0,13.558-1.262,19.833-3.755
		c6.473-2.604,11.911-6.257,16.163-10.859c0.827-0.895,0.771-2.291-0.124-3.118s-2.291-0.771-3.118,0.124
		c-3.805,4.118-8.706,7.401-14.559,9.756c-5.746,2.282-11.867,3.438-18.195,3.438c-10.368,0-19.153-3.021-26.106-8.979
		c-6.931-5.966-10.3-13.654-10.3-23.504c0-9.721,3.263-18.023,9.696-24.678c6.417-6.628,15.54-9.988,27.117-9.988
		c6.978,0,12.677,1.137,16.938,3.379c10.169,5.348,15.112,13.315,15.112,24.361c0,6.144-2.023,11.82-6.009,16.866
		c-3.799,4.766-8.28,7.478-13.63,8.229l7.205-40.599c0.114-0.643-0.062-1.303-0.481-1.804c-0.42-0.5-1.039-0.789-1.691-0.789
		h-10.974c-0.901,0-1.693,0.545-2.032,1.348c-2.593-1.762-5.603-2.652-8.991-2.652c-7.445,0-13.485,3.53-17.949,10.484
		c-3.614,5.593-5.447,11.795-5.447,18.435c0,5.423,1.447,10.023,4.295,13.665c3.367,4.342,8.185,6.543,14.318,6.543
		c2.564,0,4.869-0.436,6.841-1.29c1.041-0.445,2.154-1.072,3.369-1.899c1.528,1.729,4.082,3.189,8.347,3.189
		c8.105,0,14.926-3.401,20.278-10.117c4.622-5.852,6.966-12.449,6.966-19.609c0-12.661-5.879-22.172-17.472-28.268
		c-4.902-2.579-11.292-3.887-18.993-3.887c-12.817,0-23.008,3.812-30.288,11.333C56.001,36.825,52.32,46.161,52.32,57.065
		C52.32,68.122,56.303,77.155,64.159,83.918z M101.45,75.388c-2.979-0.314-3.962-1.697-4.444-2.77
		c-0.278-0.618-0.824-1.074-1.482-1.236c-0.657-0.165-1.354-0.015-1.888,0.402c-1.67,1.303-3.123,2.223-4.328,2.739
		c-1.424,0.616-3.138,0.929-5.096,0.929c-4.765,0-8.308-1.581-10.836-4.841c-2.264-2.895-3.363-6.477-3.363-10.953
		c0-5.775,1.595-11.172,4.744-16.045c3.653-5.692,8.311-8.46,14.238-8.46c3.562,0,6.43,1.271,8.766,3.886
		c0.561,0.628,1.427,0.88,2.241,0.655c0.811-0.228,1.422-0.896,1.574-1.725l0.279-1.512h6.504L101.45,75.388z"/>
	<path style="fill:#231F20;" d="M90.477,38.52c-4.951,0-8.675,3.376-11.069,10.032c-1.543,4.277-2.325,8.783-2.325,13.393
		c0,2.49,0.511,4.606,1.56,6.469c1.518,2.697,3.864,4.124,6.786,4.124c3.275,0,6.052-1.563,8.026-4.517
		c1.02-1.515,2.004-3.823,3.01-7.057c0-0.002,0.001-0.004,0.002-0.006c1.369-4.45,2.064-8.744,2.064-12.765
		c0-2.363-0.519-4.408-1.524-6.053C95.603,39.772,93.345,38.52,90.477,38.52z M92.248,59.656c-0.864,2.777-1.69,4.763-2.459,5.906
		c-1.169,1.747-2.555,2.561-4.361,2.561c-1.304,0-2.21-0.577-2.939-1.875c-0.668-1.186-0.992-2.593-0.992-4.304
		c0-4.098,0.694-8.1,2.063-11.896c2.559-7.114,5.839-7.114,6.917-7.114c1.311,0,2.127,0.436,2.748,1.483
		c0.592,0.968,0.892,2.238,0.892,3.776C94.116,51.772,93.488,55.629,92.248,59.656z"/>
	<path style="fill:#231F20;" d="M37.109,152.189c-0.107,0.015-2.736,0.386-12.144-0.025c-7.583-0.329-8.64-8.276-8.734-9.179v-63.67
		c0-1.219-0.988-2.207-2.207-2.207s-2.207,0.988-2.207,2.207v63.774c0,0.059,0.003,0.117,0.008,0.176
		c0.354,4.424,3.515,12.898,12.949,13.309c3.35,0.146,5.89,0.194,7.798,0.194c3.743,0,5.05-0.19,5.241-0.223
		c1.194-0.199,1.996-1.322,1.809-2.519C39.435,152.833,38.312,152.006,37.109,152.189z"/>
	<path style="fill:#231F20;" d="M26.203,53.758c1.219,0,2.207-0.988,2.207-2.207V33.543c0-1.219-0.988-2.207-2.207-2.207
		s-2.207,0.988-2.207,2.207v18.008C23.996,52.77,24.984,53.758,26.203,53.758z"/>
</g>
<g>
</g>
<g>
</g>
<g>
</g>
<g>
</g>
<g>
</g>
<g>
</g>
<g>
</g>
<g>
</g>
<g>
</g>
<g>
</g>
<g>
</g>
<g>
</g>
<g>
</g>
<g>
</g>
<g>
</g>
</svg>
