<?xml version="1.0" encoding="iso-8859-1"?>
<!-- Generator: Adobe Illustrator 18.0.0, SVG Export Plug-In . SVG Version: 6.00 Build 0)  -->
<!DOCTYPE svg PUBLIC "-//W3C//DTD SVG 1.1//EN" "http://www.w3.org/Graphics/SVG/1.1/DTD/svg11.dtd">
<svg version="1.1" id="Capa_1" xmlns="http://www.w3.org/2000/svg" xmlns:xlink="http://www.w3.org/1999/xlink" x="0px" y="0px"
	 viewBox="0 0 182.402 124.904" style="enable-background:new 0 0 182.402 124.904;" xml:space="preserve">
<g>
	<path style="fill:#231F20;" d="M177.486,62.717c-0.73-1.323-1.562-2.644-2.53-4.025c-0.071-0.515-0.157-1.011-0.265-1.521
		c-0.272-1.36-2.378-10.996-4.817-22.154l-2.264-10.441c-1.992-9.223-3.565-16.509-3.841-17.655c-0.561-2.498-1.5-6.679-6.597-6.679
		c-0.48,0-1.005,0.037-1.507,0.103c0,0-0.501,0.057-0.795,0.114c-0.299,0.054-0.662,0.171-0.847,0.237
		c-5.768,1.758-5.483,5.589-4.701,9.355c0.247,1.207,1.904,8.786,4.003,18.381l1.474,6.743c0.559,2.612,1.117,5.2,1.649,7.667
		l0.155,0.718c-5.242-2.244-10.898-3.417-16.577-3.417c-17.514,0-32.991,10.523-39.433,26.815c-1.264,3.229-1.8,3.25-2.954,3.295
		c-1.117,0.032-3.687,0.053-6.395,0.053c-2.633,0-4.774-0.02-5.869-0.053c-1.371-0.046-2.101-0.408-3.776-3.837
		c-6.575-15.962-21.965-26.273-39.226-26.273c-5.89,0-11.738,1.254-17.137,3.653l0.276-1.275c0.528-2.441,1.083-4.999,1.639-7.58
		c2.49-11.384,5.149-23.567,5.474-25.128c0.773-3.767,1.047-7.593-4.701-9.364c0,0-0.431-0.129-0.719-0.197
		c-0.247-0.067-0.558-0.117-0.929-0.148C25.736,0.035,25.224,0,24.753,0c-5.064,0-6.016,4.186-6.583,6.681
		c-0.247,1.074-1.628,7.462-3.376,15.549l-2.07,9.574C10.405,42.402,7.58,55.342,7.255,56.923c-0.21,0.988-0.334,1.819-0.382,2.562
		c-0.663,1.009-1.28,2.013-1.898,3.09C1.72,68.664,0,75.562,0,82.526c0,23.367,19.01,42.378,42.375,42.378
		c18.387,0,34.573-11.733,40.278-29.203c0.28-0.868,0.647-1.59,2.31-1.635c1.224-0.031,3.653-0.051,6.191-0.051
		c2.45,0,4.557,0.018,5.936,0.051c1.991,0.043,2.128,0.51,2.429,1.533c0.055,0.186,0.107,0.363,0.168,0.538
		c6.017,17.206,22.228,28.767,40.341,28.767c23.365,0,42.375-19.011,42.375-42.378C182.402,75.662,180.709,68.824,177.486,62.717z
		 M140.027,120.904c-16.158,0-31.194-10.728-36.562-26.077c-0.038-0.111-0.073-0.231-0.109-0.356
		c-0.41-1.395-1.264-4.298-6.176-4.404c-1.405-0.034-3.545-0.052-6.026-0.052c-2.568,0-5.039,0.021-6.297,0.053
		c-2.111,0.057-4.869,0.868-6.009,4.397c-5.164,15.814-19.822,26.438-36.474,26.438C21.215,120.904,4,103.688,4,82.526
		c0-6.308,1.557-12.555,4.473-18.011c0.639-1.112,1.307-2.185,2.04-3.279c0.219-0.327,0.337-0.711,0.339-1.104
		c0.003-0.621,0.104-1.377,0.318-2.39c0.267-1.295,2.411-11.141,5.463-25.087l2.071-9.579c1.744-8.073,3.123-14.449,3.365-15.502
		C22.842,4.173,23.362,4,24.753,4c0.31,0,0.663,0.026,1.05,0.077c0.034,0.005,0.07,0.008,0.104,0.011
		c0.016,0.001,0.166,0.011,0.279,0.032c0.05,0.013,0.103,0.025,0.141,0.034c0.146,0.031,0.409,0.115,0.42,0.118
		c2.45,0.755,2.67,1.286,1.963,4.732c-0.319,1.533-3.057,14.077-5.466,25.089c-0.557,2.586-1.11,5.143-1.64,7.582l-1.163,5.378
		c-0.166,0.771,0.137,1.569,0.773,2.035c0.639,0.467,1.489,0.514,2.174,0.123c5.801-3.314,12.366-5.066,18.986-5.066
		c15.652,0,29.607,9.362,35.55,23.852c0.017,0.04,0.034,0.079,0.053,0.117c1.596,3.279,3.245,6.003,7.27,6.14
		c1.142,0.035,3.327,0.055,5.999,0.055c2.785,0,5.34-0.022,6.528-0.056c3.638-0.141,5.106-2.16,6.543-5.829
		c5.831-14.749,19.849-24.279,35.71-24.279c6.402,0,12.776,1.649,18.433,4.769c0.686,0.378,1.529,0.322,2.159-0.146
		c0.629-0.468,0.927-1.259,0.762-2.025L160.359,42c-0.532-2.465-1.09-5.05-1.649-7.669l-1.477-6.752
		c-2.012-9.201-3.75-17.147-3.992-18.334c-0.717-3.446-0.498-3.976,2.027-4.747c0.013-0.005,0.214-0.077,0.299-0.1
		c0.019-0.003,0.087-0.017,0.106-0.021c0.143-0.028,0.395-0.053,0.458-0.06c0.383-0.05,0.733-0.075,1.041-0.075
		c1.408,0,1.935,0.172,2.7,3.583c0.271,1.13,1.919,8.76,3.828,17.595l2.266,10.451c2.333,10.676,4.537,20.759,4.806,22.102
		c0.121,0.575,0.208,1.114,0.276,1.698c0.039,0.336,0.163,0.658,0.359,0.933c1.006,1.406,1.849,2.729,2.56,4.014
		c2.901,5.5,4.435,11.692,4.435,17.909C178.402,103.688,161.188,120.904,140.027,120.904z"/>
	<path style="fill:#231F20;" d="M42.375,50.423c-17.7,0-32.1,14.401-32.1,32.104c0,17.706,14.399,32.11,32.1,32.11
		c17.701,0,32.102-14.405,32.102-32.11C74.477,64.824,60.076,50.423,42.375,50.423z M42.375,110.637
		c-15.494,0-28.1-12.61-28.1-28.11c0-15.496,12.605-28.104,28.1-28.104c15.495,0,28.102,12.607,28.102,28.104
		C70.477,98.026,57.87,110.637,42.375,110.637z"/>
	<path style="fill:#231F20;" d="M140.027,50.423c-17.697,0-32.096,14.401-32.096,32.104c0,17.706,14.398,32.11,32.096,32.11
		c17.694,0,32.09-14.405,32.09-32.11C172.117,64.824,157.722,50.423,140.027,50.423z M140.027,110.637
		c-15.492,0-28.096-12.61-28.096-28.11c0-15.496,12.604-28.104,28.096-28.104c15.489,0,28.09,12.607,28.09,28.104
		C168.117,98.026,155.517,110.637,140.027,110.637z"/>
	<path style="fill:#231F20;" d="M28.806,68.317c0.708-0.847,0.597-2.107-0.25-2.816s-2.109-0.598-2.817,0.249
		c-0.156,0.187-15.451,18.836,0.119,34.406c0.391,0.391,0.902,0.586,1.414,0.586s1.023-0.195,1.414-0.586
		c0.781-0.781,0.781-2.047,0-2.828C15.727,84.368,28.254,68.98,28.806,68.317z"/>
	<path style="fill:#231F20;" d="M126.26,68.317c0.708-0.847,0.597-2.107-0.25-2.816s-2.109-0.598-2.817,0.249
		c-0.156,0.187-15.451,18.836,0.119,34.406c0.391,0.391,0.902,0.586,1.414,0.586s1.023-0.195,1.414-0.586
		c0.781-0.781,0.781-2.047,0-2.828C113.181,84.368,125.708,68.98,126.26,68.317z"/>
</g>
<g>
</g>
<g>
</g>
<g>
</g>
<g>
</g>
<g>
</g>
<g>
</g>
<g>
</g>
<g>
</g>
<g>
</g>
<g>
</g>
<g>
</g>
<g>
</g>
<g>
</g>
<g>
</g>
<g>
</g>
</svg>
