<?xml version="1.0" encoding="iso-8859-1"?>
<!-- Generator: Adobe Illustrator 18.0.0, SVG Export Plug-In . SVG Version: 6.00 Build 0)  -->
<!DOCTYPE svg PUBLIC "-//W3C//DTD SVG 1.1//EN" "http://www.w3.org/Graphics/SVG/1.1/DTD/svg11.dtd">
<svg version="1.1" id="Capa_1" xmlns="http://www.w3.org/2000/svg" xmlns:xlink="http://www.w3.org/1999/xlink" x="0px" y="0px"
	 viewBox="0 0 185.913 177.014" style="enable-background:new 0 0 185.913 177.014;" xml:space="preserve">
<g>
	<path style="fill:#231F20;" d="M185.815,67.469c-0.235-0.724-0.861-1.251-1.614-1.361l-61.806-8.983L94.748,1.115
		C94.411,0.432,93.716,0,92.955,0c-0.762,0-1.457,0.432-1.794,1.115l-27.638,56.01L1.712,66.108
		c-0.753,0.109-1.379,0.637-1.614,1.361c-0.235,0.724-0.039,1.519,0.507,2.05l44.724,43.592l-10.561,61.564
		c-0.128,0.75,0.181,1.509,0.796,1.957c0.349,0.253,0.762,0.382,1.176,0.382c0.318,0,0.638-0.076,0.931-0.229l55.285-29.064
		l55.282,29.064c0.675,0.355,1.49,0.296,2.106-0.152c0.615-0.447,0.924-1.206,0.796-1.956l-10.555-61.564l44.724-43.592
		C185.854,68.988,186.05,68.193,185.815,67.469z M137.04,110.981c-0.471,0.459-0.686,1.121-0.575,1.77l10.047,58.607L93.886,143.69
		c-0.291-0.153-0.611-0.23-0.931-0.23s-0.64,0.077-0.931,0.229l-52.629,27.668l10.054-58.606c0.11-0.649-0.104-1.311-0.576-1.771
		L6.298,69.484l58.842-8.551c0.651-0.094,1.214-0.503,1.506-1.094l26.31-53.319l26.318,53.32c0.291,0.59,0.854,1,1.505,1.094
		l58.836,8.551L137.04,110.981z"/>
	<path style="fill:#231F20;" d="M94.191,18.412c-0.992-0.477-2.189-0.061-2.669,0.935L72.604,58.637
		c-0.479,0.995-0.062,2.19,0.935,2.67c0.279,0.134,0.575,0.198,0.866,0.198c0.744,0,1.458-0.417,1.803-1.133l18.918-39.291
		C95.605,20.086,95.187,18.891,94.191,18.412z"/>
	<path style="fill:#231F20;" d="M56.182,112.468c-1.102-0.189-2.121,0.552-2.304,1.641l-7.457,44.385
		c-0.183,1.089,0.552,2.121,1.642,2.304c0.112,0.019,0.224,0.028,0.333,0.028c0.959,0,1.807-0.692,1.971-1.669l7.457-44.385
		C58.006,113.682,57.272,112.65,56.182,112.468z"/>
	<path style="fill:#231F20;" d="M29.712,69.214L18.141,71.71c-0.73,0.158-1.312,0.709-1.508,1.43s0.025,1.491,0.575,1.997
		l8.622,7.94c0.384,0.354,0.869,0.529,1.354,0.529c0.54,0,1.078-0.217,1.472-0.645c0.749-0.812,0.696-2.078-0.116-2.826
		l-5.784-5.328l7.801-1.683c1.079-0.233,1.766-1.297,1.533-2.377C31.857,69.668,30.796,68.979,29.712,69.214z"/>
</g>
<g>
</g>
<g>
</g>
<g>
</g>
<g>
</g>
<g>
</g>
<g>
</g>
<g>
</g>
<g>
</g>
<g>
</g>
<g>
</g>
<g>
</g>
<g>
</g>
<g>
</g>
<g>
</g>
<g>
</g>
</svg>
