<?xml version="1.0" encoding="iso-8859-1"?>
<!-- Generator: Adobe Illustrator 18.0.0, SVG Export Plug-In . SVG Version: 6.00 Build 0)  -->
<!DOCTYPE svg PUBLIC "-//W3C//DTD SVG 1.1//EN" "http://www.w3.org/Graphics/SVG/1.1/DTD/svg11.dtd">
<svg version="1.1" id="Capa_1" xmlns="http://www.w3.org/2000/svg" xmlns:xlink="http://www.w3.org/1999/xlink" x="0px" y="0px"
	 viewBox="0 0 186.189 182.367" style="enable-background:new 0 0 186.189 182.367;" xml:space="preserve">
<g>
	<path style="fill:#231F20;" d="M96.162,89.914h-11.83c-1.104,0-2,0.896-2,2s0.896,2,2,2h11.83c1.104,0,2-0.896,2-2
		S97.267,89.914,96.162,89.914z"/>
	<path style="fill:#231F20;" d="M117.569,89.914h-11.83c-1.104,0-2,0.896-2,2s0.896,2,2,2h11.83c1.104,0,2-0.896,2-2
		S118.674,89.914,117.569,89.914z"/>
	<path style="fill:#231F20;" d="M117.569,114.701h-11.83c-1.104,0-2,0.896-2,2s0.896,2,2,2h11.83c1.104,0,2-0.896,2-2
		S118.674,114.701,117.569,114.701z"/>
	<path style="fill:#231F20;" d="M163.134,47.386c-3.146-2.674-9.067-2.312-10.121-2.224H87.892c-0.088,0-2.187,0.007-4.313,0.611
		c-4.542,1.291-5.219,4.107-5.219,5.67l0,4.812l0,14.103c0,1.851,0.671,3.442,1.942,4.604c2.062,1.884,5.161,2.154,6.767,2.154
		c0.417,0,0.732-0.019,0.904-0.031h66.554c3.756-0.002,10.215-1.535,10.597-7.269c0.362-5.418,0.362-13.201,0-18.509
		C165.018,49.759,164.33,48.403,163.134,47.386z M161.133,69.548C161.133,69.549,161.133,69.549,161.133,69.548
		c-0.227,3.408-6.549,3.536-6.607,3.536H87.892c-0.056,0-0.118,0.003-0.173,0.008c-0.843,0.064-3.517,0.021-4.723-1.088
		c-0.273-0.251-0.636-0.695-0.636-1.647l0-14.102l0-4.812c-0.001-1.724,4.058-2.274,5.532-2.28H153.1
		c0.062,0,0.124-0.003,0.186-0.009c1.692-0.161,5.69-0.053,7.257,1.28c0.381,0.324,0.558,0.667,0.59,1.146
		C161.484,56.73,161.484,64.287,161.133,69.548z"/>
	<path style="fill:#231F20;" d="M117.569,127.095h-11.83c-1.104,0-2,0.896-2,2s0.896,2,2,2h11.83c1.104,0,2-0.896,2-2
		S118.674,127.095,117.569,127.095z"/>
	<path style="fill:#231F20;" d="M186.159,39.372c0-0.034-0.001-0.068-0.003-0.103c-0.261-4.585-2.653-7.036-7.125-7.289
		c-0.394-0.019-4.223-0.031-10.789-0.039V2c0-1.104-0.896-2-2-2h-91.84c-1.104,0-2,0.896-2,2v29.955
		c-5.059,0.002-10.208,0.005-15.429,0.008h-0.186l-0.001-2.479c0.148-3.168-0.616-5.513-2.271-6.969
		c-1.77-1.557-3.875-1.477-4.578-1.396L26.262,21.12c-2.239,0.086-6.473,1.888-6.473,8.093v2.769
		c-7.204,0.002-11.805,0.002-12.612-0.003c-0.014,0-0.026,0-0.04,0c-6.991,0-7.087,5.536-7.124,7.623l-0.003,0.175
		c-0.019,1.065-0.009,24.118,0,48.524c0.01,25.93,0.021,52.742,0,55.36c-0.04,5.471,4.257,7.331,6.535,7.551
		c0.063,0.006,0.127,0.009,0.191,0.009l13.053,0.002v2.799c0,2.98,0.809,5.211,2.404,6.629c1.459,1.297,3.112,1.477,3.914,1.477
		c0.125,0,0.229-0.005,0.309-0.01l23.729-0.002c2.67-0.103,6.643-2.247,6.643-7.734v-3.153c4.912,0,10.16,0.001,15.613,0.002v29.138
		c0,1.104,0.896,2,2,2h91.84c1.104,0,2-0.896,2-2v-29.138c6.107-0.002,9.904-0.004,10.385-0.008
		c5.112-0.036,7.506-2.776,7.532-8.619C186.208,135.292,186.19,45.108,186.159,39.372z M76.402,4h87.84v27.182h-87.84V4z
		 M164.242,178.367h-87.84V151.23c31.208,0.003,67.998,0.005,87.84,0V178.367z M182.159,142.579
		c-0.021,4.617-1.505,4.627-3.562,4.642c-0.517,0.004-4.913,0.008-11.913,0.01c-0.142-0.032-0.289-0.052-0.442-0.052h-91.84
		c-0.152,0-0.298,0.02-0.44,0.052c-6.765-0.001-13.238-0.002-19.173-0.002c-0.53,0-1.039,0.211-1.414,0.586
		s-0.586,0.884-0.586,1.414v5.153c0,3.231-2.084,3.679-2.787,3.736H26.338c-0.079,0-0.112,0-0.189,0.009
		c-0.03,0.007-0.752,0.045-1.333-0.497c-0.672-0.628-1.027-1.876-1.027-3.607v-4.799c0-1.104-0.896-2-2-2L6.85,147.221
		c-0.53-0.071-2.862-0.556-2.84-3.528c0.021-2.635,0.011-29.455,0-55.393C4.001,64.984,3.992,40.876,4.01,39.849l0.003-0.179
		c0.043-2.49,0.193-3.691,3.115-3.691c0.011,0,0.021,0,0.032,0c0.877,0.005,6.267,0.004,14.63,0.002c1.104,0,2-0.896,2-2v-4.768
		c0-3.541,1.958-4.03,2.623-4.094h23.657c0.091,0,0.223-0.013,0.313-0.024c0.008-0.003,0.9-0.117,1.515,0.445
		c0.662,0.605,0.979,1.939,0.892,3.851v4.573c0,0.53,0.211,1.039,0.586,1.415c0.375,0.374,0.884,0.585,1.414,0.585c0,0,0,0,0.001,0
		l2.186-0.001c47.77-0.027,119.959-0.063,121.845,0.013c1.835,0.104,3.151,0.414,3.339,3.472
		C182.19,45.667,182.208,135.29,182.159,142.579z"/>
	<path style="fill:#231F20;" d="M96.162,127.095h-11.83c-1.104,0-2,0.896-2,2s0.896,2,2,2h11.83c1.104,0,2-0.896,2-2
		S97.267,127.095,96.162,127.095z"/>
	<path style="fill:#231F20;" d="M96.162,102.308h-11.83c-1.104,0-2,0.896-2,2s0.896,2,2,2h11.83c1.104,0,2-0.896,2-2
		S97.267,102.308,96.162,102.308z"/>
	<path style="fill:#231F20;" d="M96.162,114.701h-11.83c-1.104,0-2,0.896-2,2s0.896,2,2,2h11.83c1.104,0,2-0.896,2-2
		S97.267,114.701,96.162,114.701z"/>
	<path style="fill:#231F20;" d="M117.569,102.308h-11.83c-1.104,0-2,0.896-2,2s0.896,2,2,2h11.83c1.104,0,2-0.896,2-2
		S118.674,102.308,117.569,102.308z"/>
	<path style="fill:#231F20;" d="M138.977,127.095h-11.83c-1.104,0-2,0.896-2,2s0.896,2,2,2h11.83c1.104,0,2-0.896,2-2
		S140.081,127.095,138.977,127.095z"/>
	<path style="fill:#231F20;" d="M160.384,102.308h-11.83c-1.104,0-2,0.896-2,2s0.896,2,2,2h11.83c1.104,0,2-0.896,2-2
		S161.488,102.308,160.384,102.308z"/>
	<path style="fill:#231F20;" d="M160.384,114.701h-11.83c-1.104,0-2,0.896-2,2s0.896,2,2,2h11.83c1.104,0,2-0.896,2-2
		S161.488,114.701,160.384,114.701z"/>
	<path style="fill:#231F20;" d="M160.384,89.914h-11.83c-1.104,0-2,0.896-2,2s0.896,2,2,2h11.83c1.104,0,2-0.896,2-2
		S161.488,89.914,160.384,89.914z"/>
	<path style="fill:#231F20;" d="M160.384,127.095h-11.83c-1.104,0-2,0.896-2,2s0.896,2,2,2h11.83c1.104,0,2-0.896,2-2
		S161.488,127.095,160.384,127.095z"/>
	<path style="fill:#231F20;" d="M138.977,89.914h-11.83c-1.104,0-2,0.896-2,2s0.896,2,2,2h11.83c1.104,0,2-0.896,2-2
		S140.081,89.914,138.977,89.914z"/>
	<path style="fill:#231F20;" d="M138.977,114.701h-11.83c-1.104,0-2,0.896-2,2s0.896,2,2,2h11.83c1.104,0,2-0.896,2-2
		S140.081,114.701,138.977,114.701z"/>
	<path style="fill:#231F20;" d="M138.977,102.308h-11.83c-1.104,0-2,0.896-2,2s0.896,2,2,2h11.83c1.104,0,2-0.896,2-2
		S140.081,102.308,138.977,102.308z"/>
	<path style="fill:#231F20;" d="M10.787,40.903c-1.104,0-2,0.896-2,2v85.065c0,1.104,0.896,2,2,2s2-0.896,2-2V42.903
		C12.787,41.799,11.891,40.903,10.787,40.903z"/>
	<path style="fill:#231F20;" d="M82.458,6.539c-1.104,0-2,0.896-2,2v17.464c0,1.104,0.896,2,2,2s2-0.896,2-2V8.539
		C84.458,7.435,83.563,6.539,82.458,6.539z"/>
	<path style="fill:#231F20;" d="M82.022,155.136c-1.104,0-2,0.896-2,2v15.774c0,1.104,0.896,2,2,2s2-0.896,2-2v-15.774
		C84.022,156.031,83.126,155.136,82.022,155.136z"/>
	<path style="fill:#231F20;" d="M87.965,51.606c-1.104,0-2,0.896-2,2v13.521c0,1.104,0.896,2,2,2s2-0.896,2-2V53.606
		C89.965,52.502,89.07,51.606,87.965,51.606z"/>
</g>
<g>
</g>
<g>
</g>
<g>
</g>
<g>
</g>
<g>
</g>
<g>
</g>
<g>
</g>
<g>
</g>
<g>
</g>
<g>
</g>
<g>
</g>
<g>
</g>
<g>
</g>
<g>
</g>
<g>
</g>
</svg>
