<?xml version="1.0" encoding="iso-8859-1"?>
<!-- Generator: Adobe Illustrator 18.0.0, SVG Export Plug-In . SVG Version: 6.00 Build 0)  -->
<!DOCTYPE svg PUBLIC "-//W3C//DTD SVG 1.1//EN" "http://www.w3.org/Graphics/SVG/1.1/DTD/svg11.dtd">
<svg version="1.1" id="Capa_1" xmlns="http://www.w3.org/2000/svg" xmlns:xlink="http://www.w3.org/1999/xlink" x="0px" y="0px"
	 viewBox="0 0 165.671 187.037" style="enable-background:new 0 0 165.671 187.037;" xml:space="preserve">
<g>
	<path style="fill:#231F20;" d="M165.565,65.467V41.406c0.069-0.202,0.106-0.419,0.106-0.644c0-0.772-0.438-1.442-1.079-1.775
		c-1.753-1.141-22.216-16.308-35.809-26.382c-8.355-6.193-15.038-11.146-16.381-12.111c-0.095-0.083-0.199-0.158-0.311-0.223
		c-0.46-0.268-1-0.337-1.502-0.208c-0.312-0.028-0.595-0.035-0.791-0.035c-43.548,0-103.006,0-105.202-0.009
		C4.45,0.009,4.307,0.005,4.17,0.005c-2.364,0-3.903,1.495-4.118,4.02c-0.063,0.85-0.072,178.17-0.006,179.022
		c0.228,2.499,1.768,3.991,4.117,3.991c0.145,0,0.295-0.006,0.451-0.017c1.704-0.021,40.403-0.032,78.123-0.032
		c37.716,0,76.41,0.011,78.123,0.032c0.154,0.011,0.304,0.017,0.449,0.017c2.345,0,3.921-1.54,4.113-4.019l-0.006,0
		C165.49,179.639,165.58,94.601,165.565,65.467z M161.428,182.755c-0.012,0.126-0.029,0.218-0.044,0.28
		c-0.066,0.001-0.139,0.003-0.299-0.01c-0.558-0.035-60.11-0.038-78.349-0.038c-18.238,0-77.791,0.003-78.392,0.041
		c-0.095,0.008-0.193,0.008-0.258,0.006c-0.017-0.063-0.037-0.154-0.05-0.279C4.007,178.853,4.016,8.2,4.045,4.282
		c0.013-0.124,0.031-0.213,0.047-0.275c0.064-0.005,0.146-0.002,0.288,0.008C4.52,4.024,4.584,4.029,109.799,4.029
		c0.348,0,0.64,0.036,0.727,0.06c0.011,0.003,0.022,0.006,0.033,0.009c2.058,1.503,8.514,6.289,15.843,11.721
		c23.93,17.736,32.107,23.797,35.163,25.869v23.781C161.586,105.533,161.464,180.323,161.428,182.755z"/>
	<path style="fill:#231F20;" d="M27.887,43.618h95.302c1.104,0,2-0.896,2-2s-0.896-2-2-2H27.887c-1.104,0-2,0.896-2,2
		S26.783,43.618,27.887,43.618z"/>
	<path style="fill:#231F20;" d="M135.408,59.168H27.887c-1.104,0-2,0.896-2,2s0.896,2,2,2h107.521c1.104,0,2-0.896,2-2
		S136.512,59.168,135.408,59.168z"/>
	<path style="fill:#231F20;" d="M135.408,79.327H27.887c-1.104,0-2,0.896-2,2s0.896,2,2,2h107.521c1.104,0,2-0.896,2-2
		S136.512,79.327,135.408,79.327z"/>
	<path style="fill:#231F20;" d="M135.408,99.487H27.887c-1.104,0-2,0.896-2,2s0.896,2,2,2h107.521c1.104,0,2-0.896,2-2
		S136.512,99.487,135.408,99.487z"/>
	<path style="fill:#231F20;" d="M135.408,119.647H27.887c-1.104,0-2,0.896-2,2s0.896,2,2,2h107.521c1.104,0,2-0.896,2-2
		S136.512,119.647,135.408,119.647z"/>
	<path style="fill:#231F20;" d="M135.408,139.806H27.887c-1.104,0-2,0.896-2,2s0.896,2,2,2h107.521c1.104,0,2-0.896,2-2
		S136.512,139.806,135.408,139.806z"/>
	<path style="fill:#231F20;" d="M135.408,159.966H27.887c-1.104,0-2,0.896-2,2s0.896,2,2,2h107.521c1.104,0,2-0.896,2-2
		S136.512,159.966,135.408,159.966z"/>
	<path style="fill:#231F20;" d="M11.782,11.516c-1.104,0-2,0.896-2,2v32.989c0,1.104,0.896,2,2,2s2-0.896,2-2V13.516
		C13.782,12.412,12.886,11.516,11.782,11.516z"/>
	<path style="fill:#231F20;" d="M11.782,79.327c-1.104,0-2,0.896-2,2v87.971c0,1.104,0.896,2,2,2s2-0.896,2-2V81.327
		C13.782,80.223,12.886,79.327,11.782,79.327z"/>
</g>
<g>
</g>
<g>
</g>
<g>
</g>
<g>
</g>
<g>
</g>
<g>
</g>
<g>
</g>
<g>
</g>
<g>
</g>
<g>
</g>
<g>
</g>
<g>
</g>
<g>
</g>
<g>
</g>
<g>
</g>
</svg>
