<?xml version="1.0" encoding="iso-8859-1"?>
<!-- Generator: Adobe Illustrator 18.0.0, SVG Export Plug-In . SVG Version: 6.00 Build 0)  -->
<!DOCTYPE svg PUBLIC "-//W3C//DTD SVG 1.1//EN" "http://www.w3.org/Graphics/SVG/1.1/DTD/svg11.dtd">
<svg version="1.1" id="Capa_1" xmlns="http://www.w3.org/2000/svg" xmlns:xlink="http://www.w3.org/1999/xlink" x="0px" y="0px"
	 viewBox="0 0 144.796 183.5" style="enable-background:new 0 0 144.796 183.5;" xml:space="preserve">
<g>
	<path style="fill:#231F20;" d="M130.444,65.161c-4.098-1.47-10.956-3.931-10.821-5.817c0.301-4.323,6.641-11.598,11.735-17.444
		c0.821-0.942,1.628-1.869,2.4-2.769c6.33-7.37,9.297-11.661,7.949-14.661c-0.454-1.009-1.574-2.222-4.336-2.267
		c-1.116-0.019-7.307-0.227-14.477-0.468c-10.385-0.349-23.007-0.774-28.829-0.917c-0.067-8.801-4.382-12.149-15.829-12.335
		C76.538,8.45,66.936,8.436,58.174,8.436c-8.762,0-18.368,0.014-20.07,0.046c-4.426,0.072-8.745,0.516-11.736,2.585
		C25.52,5.581,23.043,1.023,15.363,0.14c-0.159-0.023-0.979-0.138-1.538-0.138c-0.013,0-0.038,0-0.066,0.001
		c-0.582-0.027-1.518,0.115-1.585,0.128C1.559,1.296,0.615,9.208,0.483,19.438c-0.03,3.279-0.082,23.782-0.147,49.74L0.279,91.7
		c-0.209,44.441-0.301,68.76-0.274,72.272c0.034,10.228,0.906,18.15,11.477,19.383c0.159,0.024,0.98,0.145,1.549,0.145l0.078-0.002
		c0.039,0.001,0.079,0.002,0.096,0.002c0.554,0,1.349-0.121,1.483-0.145c10.613-1.185,11.552-9.084,11.676-19.293
		c0.031-3.03,0.078-20.871,0.137-43.459l0.077-28.815l0.076-17.092c3.122,2.27,7.362,2.717,10.794,2.792
		c1.375,0.035,11.393,0.05,20.712,0.05c7.476,0,14-0.01,17.64-0.025c0.36,3.851,2.448,10.134,14.568,10.409
		c1.314,0.031,10.937,0.045,19.89,0.045c8.953,0,18.579-0.014,19.902-0.045c3.62-0.082,14.637-0.332,14.637-12.426
		C144.796,70.311,137.825,67.809,130.444,65.161z M130.067,83.924c-1.101,0.026-9.247,0.044-19.809,0.044
		s-18.702-0.018-19.797-0.044c-8.908-0.202-10.735-3.512-10.736-8.421c0-0.533-0.213-1.044-0.592-1.419
		c-0.375-0.372-0.881-0.58-1.408-0.58c-0.005,0-0.011,0-0.016,0c-2.79,0.022-10.463,0.036-19.549,0.036
		c-10.994,0-19.469-0.02-20.617-0.049c-8.419-0.185-10.244-3.019-10.918-5.766c-0.241-0.98-1.171-1.633-2.178-1.509
		c-1.003,0.119-1.76,0.967-1.764,1.977l-0.105,23.582L22.5,120.593c-0.059,22.579-0.106,40.413-0.137,43.424
		c-0.132,10.862-1.324,14.604-8.216,15.376c-0.314,0.051-0.784,0.107-0.925,0.108c-0.044-0.002-0.144-0.001-0.189,0l-0.003,2v-2
		c-0.174,0-0.63-0.051-1.016-0.108c-6.811-0.795-7.974-4.551-8.01-15.442c-0.027-3.504,0.065-27.807,0.274-72.235l0.057-22.526
		c0.065-25.951,0.117-46.448,0.147-49.706C4.623,8.6,5.817,4.853,12.702,4.096C12.95,4.057,13.414,4,13.591,3.999
		c0.081,0.005,0.154,0.006,0.234,0.003c0.176,0,0.641,0.05,1.022,0.104c5.903,0.679,7.687,3.492,7.952,12.542
		c0.029,0.985,0.771,1.803,1.75,1.926c0.979,0.128,1.9-0.485,2.171-1.434c0.624-2.174,2.073-4.507,11.453-4.66
		c1.681-0.032,11.256-0.045,20-0.045s18.315,0.014,19.992,0.045c10.727,0.175,11.9,2.869,11.9,8.547v1.747
		c0,1.092,0.876,1.982,1.968,2c4.296,0.068,18.95,0.561,30.726,0.958c7.484,0.252,13.396,0.451,14.545,0.469
		c0.334,0.006,0.562,0.036,0.708,0.067c-0.16,1.044-1.659,3.699-7.292,10.257c-0.766,0.893-1.566,1.811-2.381,2.746
		c-6.054,6.948-12.315,14.132-12.709,19.79c-0.351,4.908,6.358,7.315,13.46,9.864c4.939,1.772,11.704,4.199,11.704,6.571
		C140.796,80.409,138.972,83.722,130.067,83.924z"/>
	<path style="fill:#231F20;" d="M9.808,63.539c1.104,0,2-0.896,2-2V20.971c0-7.198,1.32-8.809,1.621-9.081
		c0.923,0.294,1.948-0.118,2.395-1.012c0.494-0.988,0.093-2.189-0.895-2.684c-0.803-0.401-2.214-0.577-3.55,0.25
		c-2.436,1.506-3.57,5.486-3.57,12.527v40.568C7.808,62.644,8.704,63.539,9.808,63.539z"/>
	<path style="fill:#231F20;" d="M15.476,172.882c-4.855-1.517-4.211-6.093-4.125-6.597c0.023-0.122,0.034-0.245,0.034-0.369v-38.455
		c0-1.104-0.896-2-2-2s-2,0.896-2,2v38.284c-0.483,3.011,0.353,8.91,6.897,10.955c0.199,0.062,0.399,0.091,0.597,0.091
		c0.852,0,1.641-0.548,1.909-1.404C17.118,174.333,16.531,173.212,15.476,172.882z"/>
</g>
<g>
</g>
<g>
</g>
<g>
</g>
<g>
</g>
<g>
</g>
<g>
</g>
<g>
</g>
<g>
</g>
<g>
</g>
<g>
</g>
<g>
</g>
<g>
</g>
<g>
</g>
<g>
</g>
<g>
</g>
</svg>
