<?xml version="1.0" encoding="iso-8859-1"?>
<!-- Generator: Adobe Illustrator 18.0.0, SVG Export Plug-In . SVG Version: 6.00 Build 0)  -->
<!DOCTYPE svg PUBLIC "-//W3C//DTD SVG 1.1//EN" "http://www.w3.org/Graphics/SVG/1.1/DTD/svg11.dtd">
<svg version="1.1" id="Capa_1" xmlns="http://www.w3.org/2000/svg" xmlns:xlink="http://www.w3.org/1999/xlink" x="0px" y="0px"
	 viewBox="0 0 146.364 148.586" style="enable-background:new 0 0 146.364 148.586;" xml:space="preserve">
<g>
	<path style="fill:#231F20;" d="M141.022,113.941c-4.67-15.444-28.63-50.403-48.117-77.28V21.816h11.19
		c1.344,0,3.925-0.958,4.07-4.591c0.07-2.014,0.039-6.81,0.016-10.311c-0.008-1.261-0.015-2.324-0.015-2.967
		c0-2.348-1.626-3.925-4.048-3.925c-0.294,0-0.544,0.023-0.718,0.046H43.44C43.23,0.035,42.925,0,42.565,0
		c-2.632,0-4.358,1.78-4.397,4.543c-0.03,3.023-0.003,11.327,0,12.305c-0.045,0.585-0.062,2.306,1.097,3.619
		c0.535,0.606,1.513,1.332,3.112,1.349c0.683,0.017,4.97,0.019,11.069,0.019v14.838C33.964,63.554,10.013,98.51,5.343,113.94
		c-4.163,11.451-7.791,24.023-3.224,30.544c1.906,2.722,4.979,4.102,9.134,4.102h123.87c4.151,0,7.221-1.378,9.126-4.097
		C148.81,137.979,145.183,125.4,141.022,113.941z M140.973,142.194c-1.128,1.61-3.042,2.392-5.85,2.392H11.253
		c-2.812,0-4.728-0.784-5.857-2.396c-3.997-5.706,1.614-21.129,3.726-26.935c0.013-0.036,0.025-0.071,0.036-0.108
		c3.515-11.693,20.556-38.954,47.984-76.759c0.338-0.466,0.432-1.047,0.303-1.594V19.834c0-1.104-0.896-2-2-2
		c-6.852,0-12.264,0-12.999-0.018c-0.115-0.001-0.177-0.014-0.192-0.01c-0.066-0.117-0.116-0.444-0.1-0.643
		c0.009-0.078,0.014-0.157,0.013-0.235c0-0.092-0.032-9.174,0-12.336c0.005-0.389,0.081-0.539,0.074-0.544
		C42.271,4.034,42.378,4,42.565,4c0.128,0,0.228,0.015,0.234,0.015c0.15,0.035,0.304,0.053,0.458,0.053h60.295
		c0.107,0,0.251-0.015,0.357-0.032c0.036-0.006,0.153-0.017,0.257-0.014c0,0.655,0.007,1.694,0.015,2.918
		c0.021,3.271,0.054,8.213-0.014,10.135c-0.02,0.497-0.132,0.713-0.082,0.74H90.905c-1.104,0-2,0.896-2,2v16.875
		c-0.156,0.577-0.047,1.202,0.312,1.697c27.432,37.796,44.476,65.056,47.99,76.758c0.011,0.036,0.023,0.072,0.036,0.108
		C139.354,121.065,144.962,136.5,140.973,142.194z"/>
	<path style="fill:#231F20;" d="M61.774,44.365c-0.911-0.625-2.156-0.392-2.781,0.518c-1.737,2.533-42.59,62.27-46.956,82.938
		c-0.873,3.464-0.557,6.031,0.967,7.847c1.722,2.052,4.476,2.528,7.371,2.528c1.304,0,2.636-0.097,3.915-0.189
		c0.643-0.047,1.271-0.092,1.867-0.122c1.103-0.055,1.953-0.994,1.897-2.098c-0.056-1.103-0.994-1.952-2.098-1.897
		c-0.625,0.031-1.282,0.079-1.956,0.127c-3.006,0.219-6.749,0.489-7.932-0.92c-0.786-0.936-0.517-2.854-0.135-4.373
		c4.219-19.97,45.937-80.964,46.358-81.578C62.917,46.235,62.685,44.99,61.774,44.365z"/>
</g>
<g>
</g>
<g>
</g>
<g>
</g>
<g>
</g>
<g>
</g>
<g>
</g>
<g>
</g>
<g>
</g>
<g>
</g>
<g>
</g>
<g>
</g>
<g>
</g>
<g>
</g>
<g>
</g>
<g>
</g>
</svg>
