<?xml version="1.0" encoding="iso-8859-1"?>
<!-- Generator: Adobe Illustrator 18.0.0, SVG Export Plug-In . SVG Version: 6.00 Build 0)  -->
<!DOCTYPE svg PUBLIC "-//W3C//DTD SVG 1.1//EN" "http://www.w3.org/Graphics/SVG/1.1/DTD/svg11.dtd">
<svg version="1.1" id="Capa_1" xmlns="http://www.w3.org/2000/svg" xmlns:xlink="http://www.w3.org/1999/xlink" x="0px" y="0px"
	 viewBox="0 0 186.812 129.959" style="enable-background:new 0 0 186.812 129.959;" xml:space="preserve">
<g>
	<path style="fill:#231F20;" d="M168.606,70.12c-0.169-0.102-0.343-0.195-0.516-0.282c-5.042-39.3-36.57-69.17-73.832-69.798
		c-0.064-0.011-0.129-0.019-0.196-0.023c-0.207-0.024-0.404-0.019-0.581-0.009h-0.148c-0.194-0.01-0.38-0.016-0.586,0.009
		c-0.063,0.005-0.125,0.012-0.187,0.022c-37.26,0.625-68.788,30.496-73.832,69.798c-0.173,0.087-0.347,0.181-0.516,0.284
		C6.976,75.661,0,85.808,0,96.625c0,17.033,16.804,30.89,37.458,30.89c0.388,0,0.669,0.008,0.917,0.015
		c0.537,0.015,0.95,0.027,1.776-0.03c1.419-0.101,2.584-0.198,3.556-0.419c1.734,2.817,5.015,2.852,7.338,2.877h0.792
		c5.363-0.069,8.475-1.457,8.507-8.341c0.013-2.579-0.026-15.188-0.062-25.304l0.005-8.345c0.005-8.465,0.01-15.151-0.005-16.966
		c-0.066-6.808-3.102-8.235-8.332-8.315c-0.119-0.013-0.239-0.016-0.359-0.007c-0.091,0.007-0.172,0.006-0.251,0.005h-0.395
		c-2.488,0.03-6.046,0.072-7.652,3.525c-0.875-0.203-1.917-0.335-3.166-0.406l-0.341-0.021c-0.703-0.042-0.869-0.05-1.126-0.05
		l-1.203,0.007c-1.173,0-2.383,0.055-3.656,0.167C40.191,36.372,64.87,15.09,93.398,14.916c28.546,0.174,53.222,21.456,59.61,50.991
		c-1.27-0.111-2.48-0.166-3.656-0.166l-1.2-0.007c-0.256,0-0.419,0.008-1.114,0.049l-0.342,0.021
		c-1.453,0.083-2.634,0.248-3.601,0.514c-1.544-3.488-5.007-3.607-7.526-3.631c-0.118-0.013-0.237-0.016-0.357-0.007
		c-0.085,0.007-0.161,0.006-0.229,0.005h-0.406c-4.458,0.053-8.465,0.73-8.521,8.341c-0.006,2.492,0.023,13.844,0.071,25.297
		c-0.019,12.357-0.022,23.003-0.009,25.323c0.077,7.593,4.083,8.265,8.562,8.312h0.761c0.009,0,0.017,0,0.026,0
		c2.332-0.03,5.629-0.073,7.345-2.95c1.102,0.296,2.405,0.389,3.86,0.492c0.823,0.057,1.237,0.045,1.772,0.03
		c0.246-0.007,0.523-0.015,0.908-0.015c20.655,0,37.46-13.857,37.46-30.89C186.812,85.804,179.839,75.655,168.606,70.12z
		 M149.353,123.515c-0.434,0-0.747,0.009-1.024,0.017c-0.419,0.013-0.74,0.022-1.377-0.022c-1.027-0.073-3.163-0.224-3.513-0.521
		c-0.448-0.682-1.267-1.025-2.063-0.864c-0.8,0.16-1.422,0.789-1.574,1.59c-0.33,1.747-0.804,2.197-4.372,2.244h-0.726
		c-3.674-0.039-4.542-0.207-4.584-4.344c-0.013-2.303-0.01-12.938,0.009-25.297c-0.048-11.457-0.078-22.796-0.071-25.272
		c0.03-4.149,0.898-4.317,4.545-4.361h0.382c0.081,0,0.169,0,0.263-0.003c0.03,0.001,0.061,0.002,0.091,0.003
		c3.787,0.032,4.204,0.521,4.479,2.782c0.095,0.777,0.634,1.427,1.38,1.665c0.748,0.237,1.562,0.017,2.087-0.563
		c0.126-0.14,0.762-0.607,3.645-0.771l0.351-0.021c0.544-0.033,0.672-0.042,0.873-0.042l0.23,0.001
		c0.198,0.002,0.484,0.005,0.97,0.005c1.812,0,3.731,0.146,5.867,0.445c0.633,0.09,1.271-0.131,1.717-0.591
		c0.444-0.46,0.642-1.106,0.531-1.736c-5.786-32.804-32.72-56.751-64.069-56.942c-31.33,0.191-58.268,24.139-64.054,56.942
		c-0.111,0.63,0.086,1.275,0.531,1.736c0.444,0.46,1.081,0.679,1.716,0.592c2.143-0.3,4.062-0.446,5.868-0.446
		c0.487,0,0.773-0.003,0.972-0.005l0.231-0.001c0.203,0,0.333,0.01,0.887,0.043l0.348,0.021c2.413,0.137,3.255,0.497,3.542,0.699
		c0.566,0.399,1.297,0.477,1.932,0.206c0.636-0.27,1.088-0.849,1.195-1.531c0.311-1.977,0.756-2.443,4.405-2.486h0.371
		c0.092,0,0.184,0,0.28-0.003c0.03,0.001,0.061,0.002,0.092,0.003c3.664,0.032,4.53,0.197,4.571,4.354
		c0.016,1.794,0.011,8.472,0.005,16.926l-0.005,8.354c0.035,10.117,0.074,22.714,0.062,25.279c-0.02,4.144-0.887,4.313-4.533,4.36
		h-0.745c-3.585-0.038-3.997-0.52-4.34-1.997c-0.163-0.705-0.693-1.266-1.387-1.469c-0.694-0.204-1.442-0.017-1.959,0.49
		c-0.353,0.303-2.487,0.455-3.509,0.527c-0.643,0.044-0.961,0.034-1.381,0.022c-0.28-0.008-0.596-0.017-1.033-0.017
		C19.009,123.515,4,111.452,4,96.625c0-9.449,6.005-18.03,16.063-22.955c0.067-0.033,0.133-0.07,0.196-0.11
		c0.199-0.127,0.527-0.275,0.844-0.418l0.315-0.143c0.634-0.292,1.069-0.894,1.149-1.587c4.368-37.965,34.61-66.931,70.348-67.376
		c0.104-0.001,0.205-0.011,0.304-0.028c0.12,0.004,0.218,0.007,0.375,0c0.1,0.017,0.203,0.026,0.307,0.027
		c35.741,0.446,65.986,29.412,70.352,67.376c0.08,0.692,0.514,1.293,1.146,1.586l0.334,0.152c0.314,0.142,0.639,0.289,0.843,0.417
		c0.06,0.038,0.122,0.072,0.185,0.103c10.051,4.922,16.051,13.503,16.051,22.955C182.812,111.452,167.802,123.515,149.353,123.515z"
		/>
	<path style="fill:#231F20;" d="M21.248,79.558c-0.365,0.229-8.957,5.717-10.011,14.503c-0.621,5.18,1.485,10.296,6.26,15.208
		c0.392,0.403,0.913,0.606,1.434,0.606c0.502,0,1.005-0.188,1.394-0.566c0.792-0.77,0.81-2.036,0.04-2.828
		c-3.885-3.996-5.621-8.008-5.159-11.923c0.81-6.862,8.06-11.542,8.171-11.613c0.934-0.588,1.215-1.821,0.628-2.756
		C23.418,79.253,22.184,78.971,21.248,79.558z"/>
	<path style="fill:#231F20;" d="M137.141,74.603c-1.104,0-2,0.896-2,2v38.032c0,1.104,0.896,2,2,2s2-0.896,2-2V76.603
		C139.141,75.499,138.245,74.603,137.141,74.603z"/>
</g>
<g>
</g>
<g>
</g>
<g>
</g>
<g>
</g>
<g>
</g>
<g>
</g>
<g>
</g>
<g>
</g>
<g>
</g>
<g>
</g>
<g>
</g>
<g>
</g>
<g>
</g>
<g>
</g>
<g>
</g>
</svg>
