<?xml version="1.0" encoding="iso-8859-1"?>
<!-- Generator: Adobe Illustrator 18.0.0, SVG Export Plug-In . SVG Version: 6.00 Build 0)  -->
<!DOCTYPE svg PUBLIC "-//W3C//DTD SVG 1.1//EN" "http://www.w3.org/Graphics/SVG/1.1/DTD/svg11.dtd">
<svg version="1.1" id="Capa_1" xmlns="http://www.w3.org/2000/svg" xmlns:xlink="http://www.w3.org/1999/xlink" x="0px" y="0px"
	 viewBox="0 0 186.407 175.397" style="enable-background:new 0 0 186.407 175.397;" xml:space="preserve">
<g>
	<path style="fill:#ffffff;" stroke-width="4" d="M185.832,91.8L96.043,0.599c-0.372-0.378-0.879-0.593-1.41-0.597
		c-0.545-0.027-1.041,0.202-1.419,0.575L0.597,91.779c-0.578,0.569-0.755,1.432-0.447,2.183C0.457,94.713,1.188,95.203,2,95.203
		h26.31v78.193c0,1.104,0.896,2,2,2h40.095c1.104,0,2-0.896,2-2l0.009-45.16c0-0.25,0.125-1.068,1.741-1.092
		c1.092-0.015,4.954-0.022,11.479-0.022c11.252,0,26.472,0.022,26.481,0.022c0.276,0.002,1.163,0.108,1.596,0.551
		c0.134,0.138,0.312,0.391,0.304,0.998c-0.034,2.235-0.027,30.22-0.019,44.704c0,1.104,0.896,1.999,2,1.999h40.11
		c1.104,0,2-0.896,2-2V95.203h26.301c0.806,0,1.533-0.484,1.845-1.228S186.398,92.374,185.832,91.8z M154.106,171.397h-36.111
		c-0.009-16.789-0.011-40.672,0.02-42.646c0.02-1.543-0.486-2.881-1.46-3.868c-1.633-1.653-3.982-1.737-4.442-1.737
		c0,0-15.223-0.022-26.479-0.022c-6.543,0-10.424,0.008-11.536,0.022c-4.171,0.062-5.685,3.079-5.685,5.092l-0.009,43.16H32.309
		V95.203h121.796V171.397z M156.106,91.203H30.309H6.881L94.596,4.83l85.036,86.373H156.106z"/>
	<path style="fill:#FFFFFF;"  stroke-width="4" d="M86.14,21.935l-53.333,52c-0.791,0.771-0.807,2.037-0.036,2.828
		c0.392,0.401,0.912,0.604,1.432,0.604c0.503,0,1.007-0.188,1.396-0.568l53.333-52c0.791-0.771,0.807-2.037,0.036-2.828
		C88.196,21.179,86.93,21.162,86.14,21.935z"/>
	<path style="fill:#FFFFFF;" stroke-width="4" d="M40.203,164.033c1.104,0,2-0.896,2-2V102.7c0-1.104-0.896-2-2-2s-2,0.896-2,2v59.333
		C38.203,163.138,39.098,164.033,40.203,164.033z"/>
</g>
<g>
</g>
<g>
</g>
<g>
</g>
<g>
</g>
<g>
</g>
<g>
</g>
<g>
</g>
<g>
</g>
<g>
</g>
<g>
</g>
<g>
</g>
<g>
</g>
<g>
</g>
<g>
</g>
<g>
</g>
</svg>
