<?xml version="1.0" encoding="iso-8859-1"?>
<!-- Generator: Adobe Illustrator 18.0.0, SVG Export Plug-In . SVG Version: 6.00 Build 0)  -->
<!DOCTYPE svg PUBLIC "-//W3C//DTD SVG 1.1//EN" "http://www.w3.org/Graphics/SVG/1.1/DTD/svg11.dtd">
<svg version="1.1" id="Capa_1" xmlns="http://www.w3.org/2000/svg" xmlns:xlink="http://www.w3.org/1999/xlink" x="0px" y="0px"
	 viewBox="0 0 186.242 186.242" style="enable-background:new 0 0 186.242 186.242;" xml:space="preserve">
<g>
	<path style="fill:#231F20;" d="M52.356,21.348C28.696,33.521,12.35,60.113,10.712,89.095c-1.657,29.324,11.43,55.502,35.905,71.822
		c0.341,0.228,0.727,0.336,1.107,0.336c0.646,0,1.28-0.312,1.666-0.891c0.612-0.919,0.364-2.161-0.555-2.773
		c-23.266-15.513-35.705-40.396-34.13-68.268c1.56-27.594,17.057-52.879,39.48-64.416c0.982-0.505,1.369-1.711,0.863-2.693
		C54.545,21.229,53.34,20.84,52.356,21.348z"/>
	<path style="fill:#231F20;" d="M93.12,0C73.659,0,55.019,5.941,39.212,17.182c-16.37,11.642-28.733,28.546-34.814,47.6
		c-0.132,0.414-0.262,0.829-0.388,1.244c-0.305,1.006-0.594,2.02-0.866,3.041C1.058,76.888,0,84.981,0,93.122
		c0,28.763,12.985,55.464,35.628,73.257c16.534,12.995,36.415,19.863,57.492,19.863c22.524,0,44.262-8.148,61.209-22.945
		c16.783-14.653,27.773-34.804,30.944-56.742c0.309-2.131,0.543-4.242,0.698-6.281l0.015-0.243c0.17-2.307,0.256-4.632,0.256-6.911
		C186.242,41.774,144.468,0,93.12,0z M181.997,99.743l-0.015,0.237c-0.147,1.94-0.372,3.96-0.668,6.003
		c-3.034,20.992-13.553,40.276-29.616,54.301c-16.218,14.16-37.021,21.958-58.578,21.958c-20.172,0-39.198-6.573-55.021-19.008
		C16.429,146.204,4,120.649,4,93.121c0-7.792,1.013-15.539,3.009-23.023c0.261-0.977,0.536-1.948,0.829-2.913
		c0.12-0.397,0.244-0.793,0.37-1.188c5.819-18.233,17.653-34.412,33.322-45.556C56.655,9.686,74.495,4,93.12,4
		c49.142,0,89.122,39.98,89.122,89.122C182.242,95.304,182.16,97.53,181.997,99.743z"/>
	<path style="fill:#231F20;" d="M102.31,52.022c-1.979-1.668-4.724-1.9-7.528-0.638c-4.084,1.838-8.286,7.026-8.468,14.471
		c-0.027,1.104,0.846,2.021,1.95,2.048c1.145,0.057,2.021-0.846,2.048-1.951c0.14-5.675,3.266-9.64,6.112-10.921
		c0.637-0.286,2.231-0.856,3.309,0.05c0.577,0.487,2.321,2.624,0.497,9.692c-0.386,1.495-1.671,5.156-3.298,9.791
		c-13.204,37.62-20.349,63.86-12.3,69.644c1.049,0.754,2.268,1.133,3.662,1.133c3.218,0,7.378-2.014,12.582-6.071
		c0.871-0.679,1.027-1.936,0.348-2.807c-0.681-0.871-1.937-1.026-2.807-0.347c-7.876,6.142-10.634,5.433-11.451,4.845
		c-1.324-0.951-3.83-5.422,1.468-26.345c3.415-13.49,8.745-28.676,12.272-38.726c1.724-4.909,2.968-8.456,3.396-10.116
		C106.247,57.463,104.312,53.708,102.31,52.022z"/>
	<path style="fill:#231F20;" d="M99.076,47.29c1.573,0,2.854-1.28,2.854-2.853s-1.28-2.853-2.854-2.853
		c-1.572,0-2.852,1.28-2.852,2.853S97.504,47.29,99.076,47.29z M99.076,44.214c0.124,0,0.225,0.1,0.225,0.224
		c-0.001,0.246-0.448,0.248-0.447,0C98.854,44.314,98.953,44.214,99.076,44.214z"/>
</g>
<g>
</g>
<g>
</g>
<g>
</g>
<g>
</g>
<g>
</g>
<g>
</g>
<g>
</g>
<g>
</g>
<g>
</g>
<g>
</g>
<g>
</g>
<g>
</g>
<g>
</g>
<g>
</g>
<g>
</g>
</svg>
