<?xml version="1.0" encoding="iso-8859-1"?>
<!-- Generator: Adobe Illustrator 18.0.0, SVG Export Plug-In . SVG Version: 6.00 Build 0)  -->
<!DOCTYPE svg PUBLIC "-//W3C//DTD SVG 1.1//EN" "http://www.w3.org/Graphics/SVG/1.1/DTD/svg11.dtd">
<svg version="1.1" id="Capa_1" xmlns="http://www.w3.org/2000/svg" xmlns:xlink="http://www.w3.org/1999/xlink" x="0px" y="0px"
	 viewBox="0 0 136.388 181.925" style="enable-background:new 0 0 136.388 181.925;" xml:space="preserve">
<g>
	<path style="fill:#231F20;" d="M99.637,146.195l-64.509-0.644c-3.721,0-6.78,2.748-6.82,6.131
		c-0.033,3.415,3.003,6.224,6.769,6.263l64.442,0.637c0.006,0,0.068,0,0.075,0c3.725,0,6.777-2.748,6.805-6.118
		c0.019-1.548-0.593-3.035-1.723-4.188C103.397,146.97,101.559,146.212,99.637,146.195z M99.594,154.582v2l-0.036-2l-64.441-0.637
		c-1.534-0.016-2.82-1.034-2.809-2.22c0.014-1.198,1.279-2.174,2.851-2.174l64.442,0.644c0.869,0.007,1.677,0.328,2.218,0.88
		c0.269,0.274,0.588,0.729,0.58,1.349C102.389,153.594,101.105,154.582,99.594,154.582z"/>
	<path style="fill:#231F20;" d="M99.299,161.057l-31.95-0.055l-32.307-0.585c-3.299,0-5.379,2.394-5.428,6.258
		c-0.014,1.96,0.566,3.463,3.597,5.363c2.654,1.61,20.562,9.592,33.717,9.881c0.06,0.004,0.114,0.006,0.159,0.006h0.097
		c0.001,0,0.002,0,0.003,0c13.266-0.021,31.248-7.662,33.916-9.228c3.046-1.807,3.661-3.303,3.694-5.293
		C104.829,163.644,102.627,161.092,99.299,161.057z M67.144,179.177l0.039-0.183l0.001,0.931L67.144,179.177z M99.071,169.252
		c-2.188,1.283-19.47,8.653-31.89,8.673v0.004c-0.05-0.004-0.099-0.007-0.148-0.009c-12.32-0.263-29.561-7.976-31.722-9.286
		c-1.702-1.067-1.7-1.393-1.696-1.92c0.029-2.297,1.01-2.297,1.426-2.297l32.115,0.585l32.118,0.055
		c0.382,0.004,1.543,0.017,1.523,2.298C100.789,167.904,100.783,168.236,99.071,169.252z"/>
	<path style="fill:#231F20;" d="M51.268,94.089c-0.896-4.438-1.455-7.316-1.636-8.246l-0.074-0.377
		c-0.016-0.067-0.031-0.134-0.046-0.199c3.358-2.688,5.352-6.748,5.398-11.122c0.039-3.852-1.423-7.49-4.116-10.244
		c-2.697-2.758-6.305-4.296-10.156-4.333l-0.148-0.001c-7.878,0-14.352,6.41-14.432,14.288c-0.074,7.159,5.092,13.171,12.024,14.337
		c0.792,4.044,7.318,37.4,7.468,38.195c0.495,2.256,0.964,4.387,3.1,4.729c0.107,0.018,0.216,0.026,0.324,0.026
		c0.591,0,6.495-1.235,6.542-1.247c0.038-0.011,0.076-0.022,0.114-0.034c2.371-0.792,1.862-3.665,1.493-5.752
		C57.077,123.84,52.631,101.072,51.268,94.089z M49.805,126.964c-0.086-0.303-0.195-0.733-0.33-1.345
		c-0.034-0.196-7.443-38.098-7.539-38.556c-0.06-0.354-0.101-0.61-0.13-0.893c-0.101-0.978-0.896-1.737-1.877-1.792
		c-5.593-0.313-9.929-4.918-9.871-10.483c0.058-5.695,4.737-10.329,10.432-10.329l0.108,0.001c2.783,0.026,5.388,1.138,7.336,3.13
		c1.948,1.991,3.005,4.621,2.977,7.405c-0.037,3.519-1.813,6.755-4.752,8.657c-0.729,0.473-1.071,1.362-0.844,2.201
		c0.101,0.37,0.21,0.816,0.332,1.344l0.06,0.302c0.181,0.933,0.742,3.819,1.638,8.262c1.981,10.145,5.751,29.456,5.838,29.928
		c0.115,0.651,0.18,1.12,0.215,1.454C52.345,126.463,50.825,126.768,49.805,126.964z"/>
	<path style="fill:#231F20;" d="M95.905,60.116l-0.149-0.001c-7.882,0-14.353,6.408-14.426,14.281
		c-0.046,4.37,1.873,8.472,5.195,11.235c-0.016,0.063-0.03,0.127-0.045,0.191c-0.09,0.356-0.913,4.138-1.875,8.606
		c-1.501,6.943-6.401,29.618-6.451,29.879c-0.411,2.077-0.974,4.922,1.315,5.775c0.085,0.031,0.241,0.073,0.33,0.093
		c5.934,1.334,6.12,1.334,6.402,1.334c0.095,0,0.191-0.007,0.286-0.021c2.147-0.302,2.668-2.529,3.163-4.653
		c0.094-0.375,7.318-33.746,8.24-38.052c6.952-1.018,12.24-6.925,12.313-14.094c0.039-3.85-1.428-7.488-4.131-10.244
		C103.37,61.69,99.757,60.152,95.905,60.116z M96.133,84.934c-0.959,0.033-1.759,0.743-1.907,1.691
		c-0.047,0.304-0.095,0.572-0.165,0.941c-0.136,0.668-8.124,37.565-8.298,38.33c-0.152,0.652-0.273,1.104-0.367,1.419
		c-0.767-0.163-1.949-0.422-3.565-0.782c0.044-0.335,0.119-0.8,0.246-1.441c0.098-0.475,4.254-19.711,6.438-29.818
		c1.185-5.504,1.786-8.238,1.853-8.512c0.125-0.538,0.235-0.96,0.347-1.315c0.265-0.844-0.056-1.761-0.788-2.256
		c-2.915-1.971-4.634-5.242-4.597-8.754c0.053-5.691,4.729-10.321,10.426-10.321l0.11,0.001c2.785,0.026,5.396,1.139,7.353,3.132
		c1.954,1.993,3.015,4.622,2.986,7.402C106.148,80.222,101.724,84.739,96.133,84.934z"/>
	<path style="fill:#231F20;" d="M116.889,20.442C104.138,7.441,87.085,0.183,68.871,0.004L68.168,0
		C30.948,0,0.37,30.282,0.003,67.503c-0.226,22.397,10.514,43.373,28.779,56.33l-0.005,0.388c-0.01,0.488-0.257,11.992-0.172,13.955
		c0.104,2.387,0.517,4.74,4.225,5.02c1.57,0.105,14.58,0.201,16.051,0.212c2.023,0.021,49.603,0.53,53.099,0.53
		c0.223,0,0.349-0.008,0.404-0.009c2.486-0.041,3.95-1.693,4.015-4.56l0.146-14.823c18.484-12.581,29.617-33.318,29.839-55.691
		C136.566,50.639,129.642,33.446,116.889,20.442z M103.457,121.8c-0.557,0.366-0.894,0.985-0.9,1.651l-0.156,15.853
		c-0.007,0.303-0.039,0.502-0.068,0.625c-0.001,0-0.001,0-0.001,0c-0.004,0-0.008,0-0.012,0c-0.091,0.002-0.173,0.005-0.235,0.008
		l-0.104,0.001c-3.475,0-52.561-0.524-53.063-0.53c-5.758-0.041-14.722-0.129-15.803-0.201c-0.186-0.015-0.321-0.031-0.417-0.048
		c-0.034-0.202-0.069-0.553-0.096-1.157c-0.065-1.521,0.104-10.4,0.176-13.712l0.019-1.465c0.009-0.668-0.317-1.297-0.868-1.675
		C14.227,109.003,3.788,88.964,4.003,67.543C4.348,32.506,33.132,4,68.168,4l0.663,0.004c17.146,0.168,33.199,7.001,45.202,19.239
		c12.005,12.24,18.522,28.425,18.352,45.572C132.172,90.211,121.358,110.018,103.457,121.8z"/>
	<path style="fill:#231F20;" d="M34.829,24.448c0.826-0.732,0.903-1.996,0.172-2.823c-0.731-0.826-1.995-0.904-2.821-0.173
		c-0.321,0.283-31.946,28.769-19.472,63.42c0.294,0.815,1.062,1.323,1.882,1.323c0.225,0,0.454-0.039,0.678-0.119
		c1.039-0.374,1.578-1.52,1.204-2.56C4.924,51.443,34.529,24.714,34.829,24.448z"/>
	<path style="fill:#231F20;" d="M37.907,120.473c-1.104,0-2,0.896-2,2v13.51c0,1.104,0.896,2,2,2s2-0.896,2-2v-13.51
		C39.907,121.368,39.011,120.473,37.907,120.473z"/>
	<path style="fill:#231F20;" d="M38.055,66.174c-0.428,0.201-4.2,2.076-5.009,5.896c-0.523,2.476,0.334,5.025,2.548,7.58
		c0.396,0.457,0.952,0.69,1.513,0.69c0.464,0,0.931-0.161,1.309-0.488c0.835-0.724,0.925-1.987,0.202-2.821
		c-1.345-1.552-1.903-2.937-1.661-4.117c0.33-1.605,2.139-2.799,2.81-3.125c0.994-0.473,1.419-1.66,0.95-2.657
		C40.247,66.132,39.055,65.702,38.055,66.174z"/>
	<path style="fill:#231F20;" d="M92.996,67.174c-0.428,0.201-4.2,2.076-5.009,5.896c-0.523,2.476,0.334,5.025,2.548,7.58
		c0.396,0.457,0.952,0.69,1.513,0.69c0.464,0,0.931-0.161,1.309-0.488c0.835-0.724,0.925-1.987,0.202-2.821
		c-1.345-1.552-1.903-2.937-1.661-4.117c0.33-1.605,2.139-2.8,2.811-3.125c0.993-0.473,1.418-1.66,0.949-2.657
		C95.186,67.132,93.997,66.702,92.996,67.174z"/>
</g>
<g>
</g>
<g>
</g>
<g>
</g>
<g>
</g>
<g>
</g>
<g>
</g>
<g>
</g>
<g>
</g>
<g>
</g>
<g>
</g>
<g>
</g>
<g>
</g>
<g>
</g>
<g>
</g>
<g>
</g>
</svg>
