<?xml version="1.0" encoding="iso-8859-1"?>
<!-- Generator: Adobe Illustrator 18.0.0, SVG Export Plug-In . SVG Version: 6.00 Build 0)  -->
<!DOCTYPE svg PUBLIC "-//W3C//DTD SVG 1.1//EN" "http://www.w3.org/Graphics/SVG/1.1/DTD/svg11.dtd">
<svg version="1.1" id="Capa_1" xmlns="http://www.w3.org/2000/svg" xmlns:xlink="http://www.w3.org/1999/xlink" x="0px" y="0px"
	 viewBox="0 0 145.356 186.972" style="enable-background:new 0 0 145.356 186.972;" xml:space="preserve">
<g>
	<path style="fill:#231F20;" d="M90.979,15.287H54.39c-1.104,0-2,0.896-2,2v34.5c0,0.53,0.211,1.039,0.586,1.414
		c0.375,0.375,0.884,0.586,1.414,0.586l18.295,0l18.294,0c0.53,0,1.039-0.211,1.414-0.586s0.586-0.884,0.586-1.414v-34.5
		C92.979,16.183,92.084,15.287,90.979,15.287z M88.979,49.788l-16.294,0l-16.295,0v-30.5h32.59V49.788z"/>
	<path style="fill:#231F20;" d="M72.678,125.062c-8.482,0-15.384,6.898-15.384,15.377c0,5.453,2.961,10.536,7.642,13.284v11.109
		c0,4.773,2.247,5.889,4.083,5.98c0.362,0.027,2.45,0.031,3.662,0.031c1.482,0,3.32-0.005,3.597-0.028
		c1.891-0.095,4.144-1.21,4.144-5.984v-11.108c4.681-2.745,7.642-7.828,7.642-13.284C88.064,131.96,81.162,125.062,72.678,125.062z
		 M77.559,150.719c-0.695,0.333-1.137,1.034-1.137,1.804v12.309c0,1.331-0.196,1.837-0.271,1.982
		c-0.025,0.003-0.059,0.006-0.105,0.009c-0.201,0.01-1.449,0.021-3.365,0.021c-1.926,0-3.18-0.011-3.412-0.023
		c-0.025-0.001-0.046-0.003-0.062-0.005c-0.076-0.148-0.271-0.657-0.271-1.984v-12.309c0-0.77-0.442-1.471-1.136-1.804
		c-3.953-1.894-6.506-5.929-6.506-10.28c0-6.273,5.107-11.377,11.384-11.377c6.278,0,11.386,5.104,11.386,11.377
		C84.064,144.861,81.571,148.8,77.559,150.719z"/>
	<path style="fill:#231F20;" d="M145.327,129.699l-0.018-15.733l0.011-10.27c0.077-2.982-1.891-4.99-5.021-5.116
		c-0.092-0.003-0.348-0.013-3.958-0.023V87.235c2.263-0.006,3.642-0.012,3.91-0.017c1.53-0.018,5.088-0.611,5.088-5.735
		c0.019-8.446,0.019-14.366,0-15.829c-0.089-8.909-1.334-15.733-16.158-15.859c-0.76-0.003-8.94-0.005-20.583-0.007
		c0.017-17.722,0.016-31.532-0.003-33.917c-0.094-8.916-1.343-15.745-16.156-15.866C91.5,0.001,89.941,0,87.867,0L72.674,0.006
		L57.505,0c-2.075,0-3.634,0.001-4.588,0.006c-14.794,0.121-16.05,6.949-16.155,15.868c-0.021,2.367-0.011,16.199,0.004,33.915
		c-11.65,0.001-19.833,0.003-20.599,0.007C1.359,49.921,0.107,56.745,0.009,65.662C0,67.045,0,75.061,0,80.115
		c0,4.462,2.083,6.851,6.181,7.099c0.117,0.008,0.337,0.022,2.831,0.037v11.302c-2.818,0.012-3.141,0.023-3.26,0.027
		c-3.526,0.122-5.717,2.457-5.717,6.094c0,3.052,0,6.166,0.014,9.289c-0.042,29.431-0.058,53.998-0.039,57.155
		c0.098,8.907,1.35,15.729,16.162,15.841c5.312,0.034,30.064-0.006,56.501-0.076c19.852,0.052,38.755,0.089,49.189,0.089
		c3.468,0,6-0.004,7.327-0.013c14.817-0.112,16.062-6.935,16.151-15.838C145.373,168.417,145.352,150.475,145.327,129.699z
		 M141.339,171.076c-0.079,7.964-0.63,11.796-12.18,11.883c-5.307,0.038-30.051-0.007-56.487-0.076
		c-26.421,0.069-51.172,0.115-56.472,0.076c-5.461-0.041-8.744-0.955-10.333-2.874c-1.484-1.793-1.812-4.778-1.858-9.001
		c-0.02-3.139-0.003-27.693,0.039-57.126c-0.014-3.129-0.014-6.237-0.014-9.283c0-1.708,0.652-2.054,1.855-2.096
		c0.192-0.007,1.114-0.02,5.128-0.032c1.102-0.003,1.994-0.898,1.994-2V85.261c0-1.102-0.891-1.996-1.992-2
		c-3.767-0.015-4.459-0.032-4.586-0.039C4.925,83.131,4,82.932,4,80.115C4,75.07,4,67.07,4.009,65.697
		c0.09-8.182,0.617-11.803,12.185-11.901c0.799-0.003,9.878-0.006,22.574-0.007c0.531,0,1.04-0.211,1.415-0.586
		c0.375-0.375,0.585-0.885,0.585-1.415l0-0.439c-0.016-18.449-0.028-33.021-0.005-35.432c0.096-8.191,0.626-11.816,12.18-11.91
		C53.885,4.001,55.439,4,57.505,4l15.168,0.006L87.867,4c2.066,0,3.619,0.001,4.548,0.006c5.46,0.044,8.743,0.96,10.329,2.883
		c1.481,1.795,1.807,4.785,1.852,9.02c0.02,2.458,0.02,17.212,0.001,35.878c0,0.531,0.21,1.04,0.585,1.416s0.884,0.586,1.415,0.586
		c12.689,0.001,21.765,0.003,22.559,0.007c11.553,0.098,12.104,3.932,12.183,11.905c0.019,1.45,0.019,7.347,0,15.779
		c0,1.727-0.403,1.731-1.149,1.74c-0.351,0.007-2.45,0.014-5.853,0.021c-1.103,0.002-1.996,0.897-1.996,2v15.312
		c0,1.103,0.893,1.998,1.996,2c5.03,0.011,5.727,0.022,5.811,0.025c1.198,0.048,1.188,0.433,1.173,1.067l-0.011,10.323l0.018,15.736
		C141.352,150.464,141.372,168.395,141.339,171.076z"/>
	<path style="fill:#231F20;" d="M20,61.373c1.095,0.121,2.078-0.671,2.201-1.766c0.124-1.098-0.667-2.087-1.764-2.21
		c-0.23-0.025-5.704-0.591-9.602,3.226c-2.859,2.8-4.048,7.085-3.533,12.735c0.095,1.038,0.967,1.818,1.989,1.818
		c0.061,0,0.123-0.002,0.184-0.008c1.1-0.1,1.911-1.073,1.81-2.173c-0.399-4.376,0.383-7.569,2.323-9.49
		C16.123,61.017,19.949,61.367,20,61.373z"/>
	<path style="fill:#231F20;" d="M27.482,175.462c-0.383-0.064-0.759-0.015-1.093,0.125c-0.787,0.013-2.627,0.001-6.868-0.15
		c-2.08-0.074-3.662-0.736-4.838-2.024c-2.583-2.828-2.344-7.719-2.342-7.763c0.002-0.041,0.003-0.081,0.003-0.121v-48.676
		c0-1.104-0.896-2-2-2s-2,0.896-2,2v48.625c-0.035,0.751-0.186,6.7,3.366,10.611c1.913,2.106,4.493,3.231,7.668,3.344
		c2.917,0.104,5.078,0.157,6.428,0.157c0.054,0,0.106,0,0.157,0c1.342-0.004,3.18-0.01,3.37-1.888
		C29.425,176.787,28.885,175.695,27.482,175.462z"/>
	<path style="fill:#231F20;" d="M70.58,131.46c-0.198,0.11-4.862,2.75-5.735,7.505c-0.535,2.913,0.437,5.862,2.887,8.766
		c0.396,0.469,0.961,0.71,1.53,0.71c0.456,0,0.914-0.155,1.289-0.471c0.844-0.712,0.951-1.974,0.239-2.818
		c-1.636-1.939-2.313-3.771-2.014-5.446c0.514-2.869,3.676-4.709,3.753-4.753c0.961-0.538,1.306-1.753,0.771-2.716
		C72.763,131.272,71.546,130.924,70.58,131.46z"/>
</g>
<g>
</g>
<g>
</g>
<g>
</g>
<g>
</g>
<g>
</g>
<g>
</g>
<g>
</g>
<g>
</g>
<g>
</g>
<g>
</g>
<g>
</g>
<g>
</g>
<g>
</g>
<g>
</g>
<g>
</g>
</svg>
