<?xml version="1.0" encoding="iso-8859-1"?>
<!-- Generator: Adobe Illustrator 18.0.0, SVG Export Plug-In . SVG Version: 6.00 Build 0)  -->
<!DOCTYPE svg PUBLIC "-//W3C//DTD SVG 1.1//EN" "http://www.w3.org/Graphics/SVG/1.1/DTD/svg11.dtd">
<svg version="1.1" id="Capa_1" xmlns="http://www.w3.org/2000/svg" xmlns:xlink="http://www.w3.org/1999/xlink" x="0px" y="0px"
	 viewBox="0 0 155.469 189.07" style="enable-background:new 0 0 155.469 189.07;" xml:space="preserve">
<g>
	<path style="fill:#231F20;" d="M52.771,59.399c0.091,0.013,0.183,0.019,0.275,0.019h20.493c1.47,0,3.802-1.146,3.802-4.223
		c0-0.407-0.004-0.961-0.009-1.605c-0.004-0.605-0.009-1.29-0.012-2.006c0.353-0.149,0.853-0.106,1.164,0.055
		c-0.002,1.693,0.005,3.209,0.021,3.869c0.088,2.353,1.86,3.666,3.47,3.89c0.091,0.013,0.184,0.019,0.276,0.019h20.488
		c1.469,0,3.8-1.146,3.8-4.223c0-0.64-0.003-1.646-0.008-2.792c-0.01-2.756-0.023-6.531,0.006-7.605
		c0.064-1.583-0.478-3.501-3.433-3.646l-0.119-0.006c-0.698-0.045-7.739-0.049-9.88-0.049c-4.526,0-9.568,0.014-10.619,0.045
		c-1.502,0.035-2.709,0.738-3.388,1.891h-2.03c-0.575-1.415-1.96-1.822-3.178-1.881l-0.121-0.006
		c-0.706-0.045-7.741-0.048-9.88-0.048c-4.522,0-9.561,0.014-10.616,0.045c-2.579,0.065-3.97,2.101-3.97,3.969
		c-0.002,0.351-0.059,8.613,0.001,10.383C49.377,57.856,51.152,59.174,52.771,59.399z M53.33,45.143
		c0.016-0.001,0.034-0.002,0.054-0.002c0.872-0.026,5.192-0.043,10.506-0.043c5.228,0,8.528,0.017,9.43,0.035
		c0.052,1.059,0.926,1.901,1.998,1.901h5.197c1.021,0,1.878-0.769,1.988-1.784c0.005-0.043,0.01-0.078,0.016-0.104
		c0.021-0.002,0.045-0.003,0.073-0.004c0.871-0.026,5.194-0.043,10.513-0.043c5.22,0,8.518,0.016,9.425,0.035
		c-0.021,1.489-0.009,4.671,0,7.285c0.004,1.141,0.008,2.141,0.008,2.778c0,0.097-0.006,0.17-0.015,0.223h-20
		c-0.014-0.01-0.022-0.021-0.021-0.031c-0.018-0.736-0.024-2.67-0.017-4.676c0.002-0.532-0.217-1.042-0.592-1.418
		c-0.016-0.016-0.032-0.032-0.048-0.047c-1.051-1.125-2.504-1.766-4.015-1.766c-1.49,0-2.898,0.621-3.965,1.748
		c-0.352,0.371-0.548,0.863-0.548,1.375c0,1.074,0.008,2.13,0.014,3.017c0.004,0.632,0.008,1.176,0.008,1.576
		c0,0.097-0.007,0.17-0.015,0.223H53.324c-0.016-0.013-0.025-0.03-0.021-0.052C53.248,53.749,53.299,45.999,53.33,45.143z"/>
	<path style="fill:#231F20;" d="M42.14,45.948c0.153,1.553,0.306,3.104,0.426,4.636c2.298,29.203,15.924,47.343,35.559,47.343
		c19.64,0,33.652-18.589,35.699-47.351l0.193-2.511c0.262-3.34,0.51-6.505,0.553-9.548c0.76-1.654,2.124-5.679,0.064-10.1
		c-0.433-0.945-0.975-1.907-1.62-2.876c0.072-0.03,0.142-0.064,0.211-0.103c0.561-0.315,0.936-0.881,1.007-1.521
		c0.04-0.354,0.884-8.738-6.982-14.405c-1.707-1.282-4.133-1.656-6.082-1.958c-0.057-0.009-0.113-0.018-0.169-0.026
		c-1.277-2.339-3.82-5.096-8.874-6.689C90.43,0.283,88.738,0,87.098,0c-4.106,0-7.077,1.747-8.755,3.091c-0.005,0-0.01,0-0.016,0
		c-0.554-0.467-1.192-0.839-1.905-1.113c-0.125-0.048-0.254-0.083-0.386-0.105c-1.148-0.191-2.302-0.289-3.429-0.289
		c-7.646,0-13.186,4.294-16.63,8.173c-2.219,0.248-6.242,1.7-11.922,7.681c-0.774,0.812-2.83,2.971-1.906,5.127
		c0.103,0.239,0.236,0.459,0.398,0.659c-1.034,1.567-2.201,3.866-2.414,6.478c-0.208,2.639,0.51,4.155,1.324,5.019
		C41.394,38.385,41.773,42.224,42.14,45.948z M44.12,30.021c0.27-3.301,2.954-6.143,2.977-6.167c0.571-0.59,0.731-1.47,0.391-2.218
		c-0.199-0.438-0.541-0.779-0.954-0.979c0.117-0.137,0.255-0.291,0.419-0.462c5.837-6.146,9.138-6.478,9.838-6.478
		c0.002,0,0.005,0,0.007,0c0.64,0.037,1.25-0.224,1.658-0.711c2.839-3.386,7.598-7.421,14.15-7.421c0.837,0,1.695,0.067,2.553,0.199
		c0.347,0.156,0.627,0.363,0.855,0.628c0.401,0.469,0.992,0.725,1.614,0.697l0.154-0.008c0.234-0.012,0.483-0.011,0.726-0.003
		c0.178,0.007,0.358,0.013,0.545,0.013c0.497,0,0.976-0.185,1.344-0.519C81.466,5.625,83.755,4,87.098,4
		c1.214,0,2.486,0.216,3.802,0.648c4.383,1.382,6.178,3.735,6.912,5.465c0.261,0.614,0.81,1.058,1.465,1.183
		c0.379,0.073,0.815,0.141,1.282,0.212c1.429,0.221,3.385,0.523,4.322,1.226c3.382,2.438,4.665,5.492,5.138,7.72l-0.952-0.442
		c-0.812-0.375-1.776-0.168-2.36,0.511c-0.583,0.68-0.645,1.664-0.148,2.41c0.487,0.733,0.845,1.304,1.18,1.886
		c0.167,0.278,0.314,0.564,0.508,0.938c0.06,0.116,0.131,0.226,0.213,0.329c1.098,1.373,1.952,2.718,2.543,4.009
		c1.516,3.254,0.229,6.2-0.202,7.025c-0.146,0.281-0.224,0.593-0.227,0.91c-0.022,3.042-0.276,6.287-0.546,9.722l-0.195,2.531
		c-1.432,20.132-10.596,43.642-31.709,43.642c-13.602,0-29.038-11.469-31.572-43.657c-0.123-1.559-0.277-3.136-0.433-4.715
		c-0.388-3.938-0.789-8.011-0.636-11.702c0.033-0.798-0.392-1.527-1.112-1.873C44.369,31.978,43.998,31.579,44.12,30.021z"/>
	<path style="fill:#231F20;" d="M155.415,177.454c-1.799-21.571-2.693-43.067-3.347-58.768c-0.119-2.731-2.609-12.628-7.241-14.615
		c-5.768-2.471-12.735-3.489-20.804-4.668c-2.88-0.42-5.858-0.855-8.97-1.384c-0.647-0.111-11.033-1.384-20.468-2.32
		c-0.851-0.132-1.747,0.331-2.12,1.128c-0.329,0.703-0.222,1.533,0.275,2.129l15.23,18.267l-6.4,3.923
		c-0.624,0.382-0.989,1.075-0.952,1.806c0.037,0.731,0.47,1.383,1.129,1.701l6.522,3.145l-22.217,30.337l-1.078-36.323
		c0.86-0.094,1.573-0.736,1.744-1.601l3.378-17.103c0.116-0.585-0.036-1.19-0.412-1.652c-0.377-0.462-0.94-0.731-1.536-0.736
		l-9.171-0.064l-9.532,0.064c-0.596,0.004-1.159,0.274-1.535,0.735c-0.377,0.461-0.528,1.067-0.413,1.651l3.371,17.103
		c0.172,0.872,0.894,1.517,1.762,1.604l-1.154,38.66l-23.929-32.676l6.524-3.145c0.66-0.318,1.092-0.97,1.129-1.701
		c0.037-0.731-0.329-1.423-0.953-1.806l-6.401-3.923l15.234-18.267c0.52-0.624,0.611-1.5,0.231-2.217
		c-0.38-0.718-1.155-1.134-1.964-1.054c-9.42,0.932-19.919,2.219-20.586,2.333c-3.115,0.529-6.094,0.964-8.974,1.385
		c-8.068,1.179-15.037,2.197-20.812,4.668c-4.633,1.99-7.115,11.886-7.231,14.619c-0.354,8.548-1.048,18.449-1.782,28.931
		c-0.704,10.045-1.431,20.432-1.95,30.821c-0.365,7.353,6.462,10.039,10.124,10.432c0.07,0.007,0.14,0.011,0.21,0.011l135.476,0.185
		c0.001,0,0.002,0,0.003,0c0.044,0,0.089-0.001,0.133-0.004c0.179-0.012,4.41-0.33,7.186-3.556
		C154.924,183.442,155.688,180.732,155.415,177.454z M150.134,182.876c-1.534,1.806-4.005,2.15-4.399,2.194l-135.263-0.185
		c-0.851-0.111-6.72-1.069-6.462-6.244c0.517-10.348,1.243-20.715,1.945-30.741c0.736-10.511,1.431-20.439,1.788-29.042
		c0.12-2.82,2.658-10.186,4.811-11.11c5.294-2.266,12.023-3.249,19.814-4.387c2.903-0.424,5.905-0.863,9.063-1.399
		c0.486-0.079,7.552-0.956,15.433-1.794l-13.569,16.271c-0.372,0.446-0.532,1.032-0.438,1.605c0.094,0.574,0.433,1.078,0.929,1.381
		l5.249,3.217l-5.388,2.597c-0.535,0.258-0.928,0.741-1.072,1.317c-0.144,0.577-0.024,1.187,0.327,1.667l28.788,39.312
		c0.505,0.689,1.392,0.981,2.207,0.729c0.815-0.253,1.38-0.997,1.406-1.851l1.389-46.528c0.016-0.541-0.187-1.064-0.564-1.453
		c-0.376-0.388-0.894-0.607-1.435-0.607h-0.216l-2.586-13.12l6.73-0.047l7.085,0.047l-2.591,13.12h-0.198
		c-0.541,0-1.059,0.219-1.435,0.607s-0.58,0.912-0.564,1.453l1.312,44.19c0.025,0.854,0.59,1.597,1.406,1.851
		c0.814,0.251,1.702-0.039,2.207-0.729l27.077-36.974c0.351-0.479,0.471-1.09,0.327-1.666c-0.144-0.577-0.537-1.059-1.072-1.317
		l-5.387-2.597l5.248-3.217c0.495-0.304,0.834-0.808,0.928-1.38c0.094-0.573-0.065-1.159-0.438-1.605l-13.563-16.268
		c7.897,0.84,14.945,1.714,15.42,1.791c3.16,0.537,6.161,0.975,9.063,1.399c7.791,1.139,14.52,2.122,19.806,4.386
		c2.154,0.924,4.697,8.292,4.821,11.109c0.654,15.731,1.55,37.276,3.356,58.929C151.608,179.942,151.173,181.654,150.134,182.876z"
		/>
	<path style="fill:#231F20;" d="M23.339,108.284c-3.628,0.316-10.675,3.584-11.372,13.697c-0.755,10.949-3.789,53.427-3.82,53.855
		c-0.079,1.102,0.751,2.059,1.853,2.138c0.049,0.003,0.097,0.005,0.145,0.005c1.04,0,1.918-0.804,1.993-1.857
		c0.03-0.428,3.065-42.912,3.82-53.865c0.629-9.127,7.419-9.955,7.741-9.988c1.094-0.102,1.901-1.068,1.806-2.165
		C25.409,109.002,24.439,108.194,23.339,108.284z"/>
	<path style="fill:#231F20;" d="M119.451,132.51c-0.882-0.667-2.136-0.492-2.802,0.39L91.82,165.751
		c-0.666,0.881-0.491,2.136,0.39,2.802c0.361,0.272,0.785,0.404,1.205,0.404c0.605,0,1.204-0.274,1.597-0.794l24.829-32.851
		C120.507,134.431,120.332,133.176,119.451,132.51z"/>
</g>
<g>
</g>
<g>
</g>
<g>
</g>
<g>
</g>
<g>
</g>
<g>
</g>
<g>
</g>
<g>
</g>
<g>
</g>
<g>
</g>
<g>
</g>
<g>
</g>
<g>
</g>
<g>
</g>
<g>
</g>
</svg>
