<?xml version="1.0" encoding="iso-8859-1"?>
<!-- Generator: Adobe Illustrator 18.0.0, SVG Export Plug-In . SVG Version: 6.00 Build 0)  -->
<!DOCTYPE svg PUBLIC "-//W3C//DTD SVG 1.1//EN" "http://www.w3.org/Graphics/SVG/1.1/DTD/svg11.dtd">
<svg version="1.1" id="Capa_1" xmlns="http://www.w3.org/2000/svg" xmlns:xlink="http://www.w3.org/1999/xlink" x="0px" y="0px"
	 viewBox="0 0 106.271 178.166" style="enable-background:new 0 0 106.271 178.166;" xml:space="preserve">
<g>
	<path style="fill:#231F20;" d="M52.34,108.857c17.268,0,31.315-15.271,31.315-34.04v-8.198c0-1.104-0.896-2-2-2H79.27V60.07h2.386
		c1.104,0,2-0.896,2-2v-8.133c0-1.104-0.896-2-2-2H79.27v-4.556l2.389-0.003c1.104-0.002,1.997-0.896,1.997-2v-7.331
		c0-0.179-0.01-0.357-0.021-0.534c-0.006-0.09-0.013-0.179-0.013-0.267c0-0.531-0.211-1.04-0.587-1.415
		c-0.375-0.375-0.883-0.585-1.413-0.585c-0.001,0-0.001,0-0.002,0l-2.35,0.002v-4.553h1.109c0.008,0.001,0.016,0,0.02,0
		c1.105,0,2-0.896,2-2c0-0.288-0.061-0.562-0.17-0.809C78.127,9.587,66.149,0,52.34,0C38.438,0,26.396,9.709,22.374,24.16
		c-0.168,0.602-0.044,1.248,0.334,1.746c0.379,0.498,0.968,0.79,1.593,0.79h1.109v4.553l-2.348-0.002c-0.001,0-0.001,0-0.002,0
		c-1.081,0-1.967,0.859-1.999,1.94l-0.015,0.264c-0.012,0.197-0.023,0.397-0.023,0.597v7.331c0,1.104,0.894,1.998,1.997,2
		l2.39,0.003v4.556h-2.387c-1.104,0-2,0.896-2,2v8.133c0,1.104,0.896,2,2,2h2.387v4.549h-2.387c-1.104,0-2,0.896-2,2v8.198
		C21.024,93.586,35.072,108.857,52.34,108.857z M25.024,68.619h2.387c1.104,0,2-0.896,2-2V58.07c0-1.104-0.896-2-2-2h-2.387v-4.133
		h2.387c1.104,0,2-0.896,2-2v-8.554c0-1.104-0.895-1.999-1.998-2l-2.389-0.002v-4.132l2.386,0.002c0,0,0,0,0.001,0
		c0.53,0,1.039-0.21,1.414-0.585s0.586-0.884,0.586-1.415v-8.555c0-1.104-0.896-2-2-2h-0.365C31.198,11.409,41.078,4,52.34,4
		c11.256,0,21.135,7.41,25.294,18.696H77.27c-1.104,0-2,0.896-2,2v8.555c0,0.531,0.211,1.04,0.586,1.415s0.884,0.585,1.414,0.585
		h0.001l2.385-0.002v4.132l-2.388,0.002c-1.104,0.001-1.998,0.896-1.998,2v8.554c0,1.104,0.896,2,2,2h2.386v4.133H77.27
		c-1.104,0-2,0.896-2,2v8.549c0,1.104,0.896,2,2,2h2.386v6.198c0,16.564-12.254,30.04-27.315,30.04
		c-15.062,0-27.316-13.476-27.316-30.04V68.619z"/>
	<path style="fill:#231F20;" d="M106.085,72.946c0.117-0.969,0.069-2.442-1.604-4.108c-2.18-2.181-4.98-3.432-7.683-3.432
		c-3.385,0-6.305,1.895-8.012,5.197c-0.126,0.244-0.2,0.51-0.219,0.784c-0.05,0.727-0.091,1.625-0.139,2.66
		c-0.32,6.969-0.918,19.942-6.095,27.891c-2.32,3.69-5.746,6.095-10.145,8.553c-5.452,2.917-12.316,4.616-18.829,4.661l-0.242,0
		c-7.499,0-21.195-1.771-28.666-13.637c-0.041-0.066-0.087-0.13-0.136-0.19c-5.713-7.08-6.221-20.104-6.493-27.1
		c-0.044-1.112-0.081-2.072-0.133-2.835c-0.018-0.273-0.092-0.541-0.218-0.785c-1.706-3.303-4.627-5.198-8.013-5.198
		c-2.703,0-5.506,1.25-7.694,3.436c-1.783,1.795-1.677,3.373-1.604,4.075c-1.121,18.34,3.914,31.658,5.532,35.4
		c1.333,3.606,11.804,21.009,32.926,25.286c-3.507,8.987-7.117,17.856-11.005,27.035c-2.272,5.365-2.46,9.656-0.557,12.754
		c1.733,2.82,5.018,4.415,9.748,4.739c0.154,0.012,0.475,0.036,3.526,0.036h0.001c8.257,0,29.208-0.181,30.597-0.205
		c5.05-0.073,7.447-2.142,8.569-3.864c2.017-3.096,1.782-7.625-0.696-13.461c-3.85-9.08-7.48-18.002-11.069-27.206
		c4.257-1.153,8.583-2.995,12.892-5.491c1.173-0.572,12.526-6.391,20.272-20.47C103.333,102.848,107.16,90.381,106.085,72.946z
		 M97.376,105.573c-7.332,13.326-18.436,18.739-18.544,18.791c-0.051,0.024-0.101,0.05-0.149,0.079
		c-4.668,2.711-9.53,4.658-14.06,5.629c-0.573,0.123-1.063,0.49-1.341,1.005c-0.278,0.516-0.316,1.126-0.105,1.673
		c3.874,10,7.781,19.632,11.944,29.45c1.872,4.408,2.236,7.858,1.026,9.715c-0.86,1.32-2.635,2.009-5.282,2.047
		c-1.39,0.024-22.293,0.205-30.533,0.205c-2.645,0-3.137-0.019-3.237-0.025c-3.382-0.231-5.612-1.188-6.629-2.843
		c-1.17-1.905-0.883-5.052,0.832-9.1c4.231-9.99,8.135-19.614,11.935-29.421c0.22-0.567,0.169-1.204-0.137-1.729
		s-0.835-0.883-1.437-0.972c-20.948-3.095-31.092-19.97-32.221-23.164c-0.016-0.044-0.033-0.087-0.052-0.13
		c-1.069-2.463-6.352-15.667-5.23-33.68c0.013-0.156,0.009-0.356-0.017-0.597c-0.018-0.167-0.036-0.339,0.458-0.837
		c1.438-1.437,3.211-2.261,4.862-2.261c1.777,0,3.245,0.926,4.266,2.683c0.037,0.652,0.066,1.423,0.101,2.291
		c0.289,7.432,0.828,21.24,7.303,29.364c6.309,9.937,17.664,15.409,31.989,15.408l0.266,0c7.25-0.05,14.599-1.873,20.725-5.151
		c4.297-2.401,8.677-5.266,11.595-9.906c5.753-8.834,6.383-22.514,6.722-29.863c0.037-0.804,0.069-1.523,0.105-2.14
		c1.022-1.758,2.491-2.685,4.268-2.685c1.649,0,3.419,0.824,4.857,2.263c0.496,0.494,0.476,0.66,0.458,0.807
		c-0.028,0.229-0.037,0.419-0.028,0.589C103.131,89.726,99.45,101.635,97.376,105.573z"/>
	<path style="fill:#231F20;" d="M33.336,25.848c0.231,0.087,0.469,0.128,0.702,0.128c0.81,0,1.571-0.496,1.873-1.298
		c3.728-9.941,14.445-12.637,14.594-12.673c1.073-0.254,1.737-1.33,1.485-2.404c-0.253-1.076-1.327-1.743-2.405-1.489
		c-0.525,0.124-12.921,3.165-17.42,15.162C31.777,24.307,32.302,25.46,33.336,25.848z"/>
	<path style="fill:#231F20;" d="M48.922,133.413c-1.053-0.341-2.179,0.232-2.521,1.283l-9.742,29.922
		c-0.343,1.05,0.231,2.179,1.282,2.521c0.206,0.067,0.414,0.099,0.619,0.099c0.843,0,1.627-0.537,1.901-1.381l9.742-29.922
		C50.547,134.883,49.973,133.755,48.922,133.413z"/>
	<path style="fill:#231F20;" d="M45.018,96.918c0.292,0.149,0.604,0.22,0.91,0.22c0.727,0,1.428-0.397,1.782-1.089
		c0.503-0.983,0.114-2.188-0.868-2.692c-13.084-6.701-13-20.781-12.989-21.406c0.022-1.103-0.853-2.017-1.955-2.042
		c-1.099-0.043-2.021,0.85-2.044,1.955C29.838,72.563,29.65,89.047,45.018,96.918z"/>
</g>
<g>
</g>
<g>
</g>
<g>
</g>
<g>
</g>
<g>
</g>
<g>
</g>
<g>
</g>
<g>
</g>
<g>
</g>
<g>
</g>
<g>
</g>
<g>
</g>
<g>
</g>
<g>
</g>
<g>
</g>
</svg>
