<?xml version="1.0" encoding="iso-8859-1"?>
<!-- Generator: Adobe Illustrator 18.0.0, SVG Export Plug-In . SVG Version: 6.00 Build 0)  -->
<!DOCTYPE svg PUBLIC "-//W3C//DTD SVG 1.1//EN" "http://www.w3.org/Graphics/SVG/1.1/DTD/svg11.dtd">
<svg version="1.1" id="Capa_1" xmlns="http://www.w3.org/2000/svg" xmlns:xlink="http://www.w3.org/1999/xlink" x="0px" y="0px"
	 viewBox="0 0 164.291 181.573" style="enable-background:new 0 0 164.291 181.573;" xml:space="preserve">
<g>
	<path style="fill:#231F20;" d="M144.2,20.66c-0.456-0.373-1.052-0.524-1.631-0.419c-7.736,1.433-19.466,3.59-31.929,5.883
		l-4.5,0.828c-16.13,3.008-31.72,5.907-39.85,7.412c-0.961,0.178-1.653,1.025-1.635,2.003c0.069,3.822,0.15,9.458,0.242,16.111
		c0.008,0.59,0.276,1.146,0.732,1.52c0.36,0.295,0.81,0.453,1.268,0.453c0.122,0,0.244-0.011,0.365-0.034
		c7.646-1.42,21.993-4.059,36.835-6.789c16.783-3.136,32.944-6.146,39.46-7.345c0.962-0.177,1.655-1.023,1.638-2.001
		c-0.104-6.023-0.193-11.598-0.261-16.105C144.924,21.588,144.656,21.033,144.2,20.66z M103.367,43.695
		c-13.443,2.472-26.484,4.871-34.504,6.356c-0.066-4.74-0.126-8.869-0.18-12.063c8.479-1.572,23.098-4.29,38.185-7.104l4.495-0.827
		c11.272-2.074,21.945-4.038,29.606-5.454c0.056,3.576,0.122,7.676,0.196,12.052C133.83,38.011,118.861,40.799,103.367,43.695z"/>
	<path style="fill:#231F20;" d="M164.277,103.696c0-0.144-0.474-43.547-0.671-55.713c-0.158-12.172-0.353-26.958-0.47-33.413
		c0.012-0.317,0.032-0.684,0.053-1.074c0.081-1.487,0.172-3.172,0.001-4.241c-0.05-0.381-1.056-4.124-2.215-5.581
		C158.741,0.384,155.593,0,153.411,0c-1.376,0-2.933,0.17-5.206,0.569c-2.397,0.42-19.316,3.57-38.906,7.216L98.85,9.722
		c-20.892,3.844-38.935,7.164-41.425,7.664c-6.118,1.191-11.568,2.957-11.083,11.328c-0.04,0.748-0.081,1.73-0.07,2.859
		c0.007,2.056,0.21,14.717,0.468,30.747l0.391,25.738c0.248,17.754,0.461,33.087,0.514,35.342c0.023,0.892,0.071,1.66,0.115,2.37
		c0.009,0.146,0.018,0.289,0.027,0.43c-6.216-0.836-13.013-0.013-20.205,2.424C8.662,134.988-3.34,151.461,0.826,165.346
		c2.956,9.857,13.523,16.227,26.922,16.227c4.988,0,10.065-0.861,15.091-2.559c19.155-6.478,27.279-22.874,26.834-36.166l0.028-1.84
		c0.122-7.723,0.26-16.741,0.257-17.943c-0.014-1.798-0.175-11.982-0.379-24.875l-0.332-21.053
		c-0.033-1.486-0.053-2.966-0.071-4.437c4.587-0.849,12.5-2.322,21.759-4.046l30.43-5.635c7.902-1.454,14.993-2.759,20.132-3.71
		c0.192,14.103,0.332,24.068,0.384,25.7c0.017,0.699,0.044,1.338,0.07,1.938c-4.452-0.171-8.847,0.672-13.557,2.572
		c-15.941,6.392-26.082,22.81-22.605,36.599c2.495,9.913,11.5,16.317,22.942,16.317c0,0,0,0,0,0c4.267,0,8.605-0.875,12.895-2.603
		C157.794,133.324,164.651,116.965,164.277,103.696z M140.133,136.122c-3.812,1.535-7.648,2.313-11.401,2.313
		c-9.695,0-17-5.094-19.063-13.294c-3.006-11.921,6.062-26.235,20.218-31.911c4.896-1.974,9.387-2.666,13.893-2.131
		c0.564,0.068,1.136-0.112,1.563-0.491c0.427-0.379,0.671-0.924,0.671-1.495c0-0.741-0.031-1.496-0.066-2.323
		c-0.025-0.582-0.051-1.201-0.068-1.895c-0.059-1.834-0.24-15.143-0.416-28.013c-0.008-0.589-0.276-1.146-0.732-1.52
		c-0.456-0.374-1.056-0.526-1.633-0.419c-5.2,0.966-13.282,2.454-22.458,4.142l-30.438,5.637c-10.495,1.954-19.26,3.585-23.41,4.351
		c-0.958,0.177-1.649,1.018-1.637,1.991l0.011,0.942c0.021,1.728,0.042,3.47,0.081,5.207l0.332,21.04
		c0.204,12.884,0.366,23.061,0.379,24.833c0.004,1.309-0.185,13.333-0.256,17.86c-0.018,1.148-0.029,1.863-0.028,1.952
		c0.397,11.897-6.906,26.506-24.116,32.327c-4.612,1.559-9.259,2.349-13.811,2.349c-11.59,0-20.654-5.25-23.091-13.376
		c-3.553-11.84,7.303-26.098,24.204-31.783c4.958-1.68,9.7-2.532,14.094-2.532c2.228,0,4.402,0.221,6.462,0.656
		c0.572,0.121,1.171-0.016,1.636-0.375s0.748-0.903,0.775-1.489c0.052-1.107-0.011-2.102-0.077-3.154
		c-0.042-0.666-0.087-1.385-0.108-2.217c-0.052-2.232-0.266-17.557-0.513-35.301l-0.391-25.746
		c-0.257-16.015-0.46-28.665-0.467-30.707c-0.01-1.088,0.033-2.032,0.071-2.734c0.004-0.079,0.004-0.158-0.001-0.237
		c-0.316-4.923,1.486-6.027,7.86-7.268c2.469-0.496,21.366-3.973,41.373-7.654l10.456-1.938c19.579-3.645,36.488-6.792,38.865-7.209
		C150.928,4.152,152.279,4,153.411,4c2.146,0,3.35,0.555,4.292,1.978c0.056,0.084,0.094,0.136,0.162,0.211
		c0.402,0.532,1.23,3.009,1.367,3.641c0.111,0.703,0.026,2.291-0.037,3.451c-0.023,0.438-0.046,0.849-0.058,1.199
		c-0.001,0.036-0.002,0.072-0.001,0.108c0.116,6.415,0.312,21.245,0.47,33.454c0.19,11.741,0.669,55.39,0.672,55.71
		C160.614,115.692,154.515,130.332,140.133,136.122z"/>
	<path style="fill:#231F20;" d="M46.407,135.638c-0.966,0.061-23.77,1.639-33.11,13.988c-3.605,4.766-4.725,10.463-3.33,16.933
		c0.202,0.938,1.031,1.579,1.953,1.579c0.14,0,0.282-0.015,0.424-0.045c1.08-0.233,1.766-1.297,1.533-2.377
		c-1.154-5.352-0.302-9.823,2.605-13.67c8.227-10.886,29.959-12.401,30.178-12.415c1.102-0.071,1.939-1.021,1.869-2.123
		C48.459,136.405,47.506,135.577,46.407,135.638z"/>
	<path style="fill:#231F20;" d="M144.694,96.953c-0.298,0.011-29.851,1.368-30.937,25.832c-0.049,1.104,0.806,2.038,1.909,2.087
		c0.03,0.001,0.061,0.002,0.09,0.002c1.064,0,1.949-0.838,1.997-1.911c0.384-8.639,4.957-14.951,13.592-18.763
		c6.7-2.958,13.429-3.247,13.497-3.25c1.103-0.041,1.964-0.968,1.924-2.071C146.725,97.774,145.78,96.912,144.694,96.953z"/>
	<path style="fill:#231F20;" d="M56.644,35.874c-1.104,0.018-1.985,0.928-1.967,2.032l1.018,62.096
		c0.018,1.093,0.91,1.967,1.999,1.967c0.011,0,0.022,0,0.033,0c1.104-0.018,1.985-0.928,1.967-2.032L58.677,37.84
		C58.659,36.736,57.78,35.823,56.644,35.874z"/>
</g>
<g>
</g>
<g>
</g>
<g>
</g>
<g>
</g>
<g>
</g>
<g>
</g>
<g>
</g>
<g>
</g>
<g>
</g>
<g>
</g>
<g>
</g>
<g>
</g>
<g>
</g>
<g>
</g>
<g>
</g>
</svg>
