<?xml version="1.0" encoding="iso-8859-1"?>
<!-- Generator: Adobe Illustrator 18.0.0, SVG Export Plug-In . SVG Version: 6.00 Build 0)  -->
<!DOCTYPE svg PUBLIC "-//W3C//DTD SVG 1.1//EN" "http://www.w3.org/Graphics/SVG/1.1/DTD/svg11.dtd">
<svg version="1.1" id="Capa_1" xmlns="http://www.w3.org/2000/svg" xmlns:xlink="http://www.w3.org/1999/xlink" x="0px" y="0px"
	 viewBox="0 0 158.707 185.438" style="enable-background:new 0 0 158.707 185.438;" xml:space="preserve">
<g>
	<path style="fill:#231F20;" d="M158.685,176.689L158.683,6.849c-0.118-2.705-2.232-6.754-7.569-6.818
		C149.517,0.01,136.165,0,111.428,0C68.838,0,7.345,0.03,7.294,0.031C4.816,0.096,0.111,1.399,0.031,5.865
		c-0.067,3.682-0.004,163.88,0,172.247c-0.068,0.687-0.162,3.001,1.387,4.865c0.79,0.949,2.302,2.104,5.028,2.213
		c3.591,0.138,50.506,0.248,86.956,0.248c20.565,0,55.505-0.032,58.458-0.252c2.11-0.155,3.857-0.993,5.053-2.423
		C158.846,180.453,158.74,177.402,158.685,176.689z M153.834,180.21c-0.5,0.589-1.242,0.912-2.27,0.988
		c-2.033,0.15-23.767,0.24-58.146,0.24c-0.004,0-0.012,0-0.016,0c-40.574,0-83.57-0.121-86.799-0.244
		c-0.996-0.04-1.701-0.295-2.096-0.759c-0.523-0.615-0.534-1.612-0.497-1.923c0.014-0.096,0.021-0.191,0.021-0.288
		c0-1.686-0.066-168.624,0-172.288C4.062,4.195,7.373,4.03,7.347,4.03c0,0,61.492-0.03,104.082-0.03
		c24.72,0,38.055,0.01,39.636,0.03c3.112,0.037,3.559,2.233,3.621,2.976v169.771c0,0.06,0.004,0.134,0.009,0.193
		C154.744,177.529,154.688,179.203,153.834,180.21z"/>
	<path style="fill:#231F20;" d="M22.708,61.847h57.687c1.104,0,2-0.896,2-2V26.006c0-1.104-0.896-2-2-2H22.708c-1.104,0-2,0.896-2,2
		v33.841C20.708,60.951,21.604,61.847,22.708,61.847z M24.708,28.006h53.687v29.841H24.708V28.006z"/>
	<path style="fill:#231F20;" d="M11.669,13.484c-1.104,0-2,0.896-2,2v152.111c0,1.104,0.896,2,2,2s2-0.896,2-2V15.484
		C13.669,14.38,12.774,13.484,11.669,13.484z"/>
	<path style="fill:#231F20;" d="M137.267,56.351H92.656c-1.104,0-2,0.896-2,2s0.896,2,2,2h44.612c1.104,0,2-0.896,2-2
		S138.372,56.351,137.267,56.351z"/>
	<path style="fill:#231F20;" d="M137.267,85.561H23.082c-1.104,0-2,0.896-2,2s0.896,2,2,2h114.186c1.104,0,2-0.896,2-2
		S138.372,85.561,137.267,85.561z"/>
	<path style="fill:#231F20;" d="M137.267,114.771H23.082c-1.104,0-2,0.896-2,2s0.896,2,2,2h114.186c1.104,0,2-0.896,2-2
		S138.372,114.771,137.267,114.771z"/>
	<path style="fill:#231F20;" d="M137.267,143.98H23.082c-1.104,0-2,0.896-2,2s0.896,2,2,2h114.186c1.104,0,2-0.896,2-2
		S138.372,143.98,137.267,143.98z"/>
</g>
<g>
</g>
<g>
</g>
<g>
</g>
<g>
</g>
<g>
</g>
<g>
</g>
<g>
</g>
<g>
</g>
<g>
</g>
<g>
</g>
<g>
</g>
<g>
</g>
<g>
</g>
<g>
</g>
<g>
</g>
</svg>
