<?xml version="1.0" encoding="iso-8859-1"?>
<!-- Generator: Adobe Illustrator 18.0.0, SVG Export Plug-In . SVG Version: 6.00 Build 0)  -->
<!DOCTYPE svg PUBLIC "-//W3C//DTD SVG 1.1//EN" "http://www.w3.org/Graphics/SVG/1.1/DTD/svg11.dtd">
<svg version="1.1" id="Capa_1" xmlns="http://www.w3.org/2000/svg" xmlns:xlink="http://www.w3.org/1999/xlink" x="0px" y="0px"
	 viewBox="0 0 180.726 150.533" style="enable-background:new 0 0 180.726 150.533;" xml:space="preserve">
<g>
	<path style="fill:#231F20;" d="M19.434,17.935c-0.206-0.011-5.19-0.143-8.621,3.556C8.33,24.167,7.35,28.034,7.902,32.984
		c0.113,1.023,0.979,1.779,1.984,1.779c0.074,0,0.149-0.004,0.225-0.012c1.098-0.122,1.889-1.111,1.766-2.209
		c-0.414-3.723,0.206-6.517,1.844-8.304c2.147-2.342,5.501-2.305,5.581-2.306c1.146,0.021,2.021-0.828,2.061-1.928
		C21.401,18.901,20.539,17.974,19.434,17.935z"/>
	<path style="fill:#231F20;" d="M105.464,53.099c-10.02,4.345-16.812,13.763-17.729,24.578
		c-0.955,11.278,4.478,21.649,14.906,28.454c0.337,0.22,0.716,0.325,1.091,0.325c0.653,0,1.293-0.319,1.677-0.907
		c0.604-0.925,0.343-2.165-0.582-2.768c-9.156-5.976-13.933-15.002-13.105-24.767c0.792-9.347,6.668-17.488,15.335-21.246
		c1.013-0.439,1.479-1.617,1.039-2.631C107.654,53.125,106.479,52.661,105.464,53.099z"/>
	<path style="fill:#231F20;" d="M180.722,32.927l-0.003-11.712c0-6.877-6.15-10.987-12.096-10.987
		c-9.745,0-77.647,0.057-121.511,0.135c-0.006-2.361-0.021-6.008-0.058-6.417c-0.354-3.63-3.294-3.833-4.731-3.932
		C42.23,0.008,42.09,0,33.931,0c-4.487,0-13.354,0.003-13.587,0.01c-2.951,0.069-4.567,1.396-4.799,3.898
		c-0.02,0.164-0.047,0.403-0.063,6.534c-1.875,0.008-3.098,0.016-3.492,0.023C4.514,10.629,0.154,17.75,0.01,21.361
		c-0.026,0.641,0.003,7.222,0.066,20.853l0.027,5.809v87.026c0,0.123,0.012,0.243,0.034,0.36l-0.032,2.211
		c-0.113,8.165,5.834,12.269,11.783,12.715c1.927,0.14,71.037,0.197,107.609,0.197c25.279,0,42.751-0.021,47.933-0.059
		c7.953-0.06,13.296-5.295,13.296-13.027V33.068C180.726,33.021,180.725,32.973,180.722,32.927z M176.726,137.447
		c0,5.525-3.573,8.984-9.325,9.027c-5.173,0.038-22.633,0.059-47.903,0.059c-49.104,0-105.437-0.08-107.315-0.187
		c-3.959-0.296-8.159-2.73-8.077-8.665l0.037-2.607c0.002-0.136-0.012-0.271-0.039-0.403V48.014l-0.027-5.819
		c-0.052-11.197-0.094-20.041-0.07-20.673c0.057-1.413,2.693-6.94,8.063-7.058c0.507-0.009,2.447-0.021,5.413-0.03
		c1.101-0.003,1.992-0.896,1.994-1.996c0.014-7.161,0.043-8.043,0.046-8.115c0.01-0.097,0.021-0.168,0.032-0.216
		c0.12-0.035,0.378-0.086,0.874-0.098C20.759,4.005,27.951,4,33.931,4c7.23,0,8.127,0.012,8.143,0.005
		c0.529,0.037,0.82,0.086,0.977,0.124c0.007,0.039,0.014,0.086,0.02,0.141c0.014,0.291,0.042,2.964,0.046,8.098
		c0,0.531,0.212,1.04,0.588,1.415c0.375,0.374,0.883,0.584,1.412,0.584c0.001,0,0.003,0,0.004,0
		c43.766-0.08,113.61-0.138,123.504-0.138c3.979,0,8.096,2.613,8.096,6.987l0.003,11.854c0,0.047,0.002,0.094,0.005,0.14V137.447z"
		/>
	<path style="fill:#231F20;" d="M19.304,140.097c-0.048,0.001-3.425,0.049-5.583-2.306c-1.638-1.787-2.258-4.581-1.844-8.304
		c0.123-1.098-0.668-2.087-1.766-2.209c-1.1-0.119-2.088,0.668-2.209,1.767c-0.552,4.95,0.428,8.817,2.911,11.494
		c3.135,3.38,7.565,3.559,8.465,3.559c0.085,0,0.139-0.001,0.156-0.002c1.1-0.039,1.954-0.958,1.922-2.058
		C21.324,140.938,20.408,140.075,19.304,140.097z"/>
	<path style="fill:#231F20;" d="M115.371,42.94c-20.263,0-36.748,16.489-36.748,36.758c0,20.266,16.485,36.753,36.748,36.753
		c20.278,0,36.775-16.487,36.775-36.753C152.146,59.429,135.649,42.94,115.371,42.94z M115.371,112.451
		c-18.058,0-32.748-14.693-32.748-32.753c0-18.062,14.69-32.758,32.748-32.758c18.072,0,32.775,14.695,32.775,32.758
		C148.146,97.758,133.443,112.451,115.371,112.451z"/>
</g>
<g>
</g>
<g>
</g>
<g>
</g>
<g>
</g>
<g>
</g>
<g>
</g>
<g>
</g>
<g>
</g>
<g>
</g>
<g>
</g>
<g>
</g>
<g>
</g>
<g>
</g>
<g>
</g>
<g>
</g>
</svg>
