<?xml version="1.0" encoding="iso-8859-1"?>
<!-- Generator: Adobe Illustrator 18.0.0, SVG Export Plug-In . SVG Version: 6.00 Build 0)  -->
<!DOCTYPE svg PUBLIC "-//W3C//DTD SVG 1.1//EN" "http://www.w3.org/Graphics/SVG/1.1/DTD/svg11.dtd">
<svg version="1.1" id="Capa_1" xmlns="http://www.w3.org/2000/svg" xmlns:xlink="http://www.w3.org/1999/xlink" x="0px" y="0px"
	 viewBox="0 0 178.484 167.12" style="enable-background:new 0 0 178.484 167.12;" xml:space="preserve">
<g>
	<path style="fill:#231F20;" d="M168.674,26.05h-37.066V9.824c0-5.297-4.312-7.219-7.211-7.219h-5.812V2c0-1.104-0.896-2-2-2H61.896
		c-1.104,0-2,0.896-2,2v0.604h-5.811c-2.896,0-7.205,1.922-7.205,7.219V26.05H9.814C6.42,26.05,0,28.099,0,35.855v31.251
		c0,1.104,0.896,2,2,2h3.209v72.019c-0.817,0.251-1.412,1.012-1.412,1.912v22.083c0,1.104,0.896,2,2,2h22.078c1.104,0,2-0.896,2-2
		v-0.329h119.482v0.329c0,1.104,0.896,2,2,2h21.439c1.104,0,2-0.896,2-2v-21.438c0-0.941-0.65-1.73-1.525-1.943V69.106h3.213
		c1.104,0,2-0.896,2-2V35.855C178.484,28.099,172.067,26.05,168.674,26.05z M174.484,65.106h-3.213c-1.104,0-2,0.896-2,2v76.575
		c0,0.941,0.65,1.73,1.525,1.943v17.495h-17.439v-0.329c0-1.104-0.896-2-2-2H27.875c-1.104,0-2,0.896-2,2v0.329H7.797v-18.171
		c0.817-0.251,1.412-1.012,1.412-1.912V67.106c0-1.104-0.896-2-2-2H4V35.855c0-5.468,4.851-5.795,5.814-5.806h39.066
		c1.104,0,2-0.896,2-2V9.824c0-2.852,2.254-3.201,3.205-3.219h7.811c1.104,0,2-0.896,2-2V4h50.688v0.604c0,1.104,0.896,2,2,2h7.812
		c0.536,0,3.211,0.155,3.211,3.219V28.05c0,1.104,0.896,2,2,2h39.066c0.595,0,5.811,0.163,5.811,5.806V65.106z"/>
	<path style="fill:#231F20;" d="M121.797,10.419h-5.213c-1.104,0-2,0.896-2,2v0.605H63.896v-0.605c0-1.104-0.896-2-2-2h-5.209
		c-1.104,0-2,0.896-2,2v15.63c0,1.104,0.896,2,2,2h65.109c1.104,0,2-0.896,2-2v-15.63C123.797,11.315,122.901,10.419,121.797,10.419
		z M119.797,26.05H58.688v-11.63h1.209v0.605c0,1.104,0.896,2,2,2h54.688c1.104,0,2-0.896,2-2v-0.605h1.213V26.05z"/>
	<path style="fill:#231F20;" d="M28.223,34.547H18.037c-0.801-0.139-2.855-0.293-4.865,1.242c-2.691,2.056-4.056,6.216-4.056,12.366
		v10.684c0,1.104,0.896,2,2,2s2-0.896,2-2V48.155c0-6.248,1.518-8.407,2.422-9.138c0.873-0.706,1.726-0.55,1.772-0.54
		c0.172,0.046,0.349,0.07,0.526,0.07h10.386c1.104,0,2-0.896,2-2S29.327,34.547,28.223,34.547z"/>
	<path style="fill:#231F20;" d="M16.004,67.537c-1.104,0-2,0.896-2,2v73.309c0,1.104,0.896,2,2,2s2-0.896,2-2V69.537
		C18.004,68.432,17.108,67.537,16.004,67.537z"/>
</g>
<g>
</g>
<g>
</g>
<g>
</g>
<g>
</g>
<g>
</g>
<g>
</g>
<g>
</g>
<g>
</g>
<g>
</g>
<g>
</g>
<g>
</g>
<g>
</g>
<g>
</g>
<g>
</g>
<g>
</g>
</svg>
