<?xml version="1.0" encoding="iso-8859-1"?>
<!-- Generator: Adobe Illustrator 18.0.0, SVG Export Plug-In . SVG Version: 6.00 Build 0)  -->
<!DOCTYPE svg PUBLIC "-//W3C//DTD SVG 1.1//EN" "http://www.w3.org/Graphics/SVG/1.1/DTD/svg11.dtd">
<svg version="1.1" id="Capa_1" xmlns="http://www.w3.org/2000/svg" xmlns:xlink="http://www.w3.org/1999/xlink" x="0px" y="0px"
	 viewBox="0 0 138.751 182.591" style="enable-background:new 0 0 138.751 182.591;" xml:space="preserve">
<g>
	<path style="fill:#231F20;" d="M69.67,61.938c-11.268,0-20.434,9.166-20.434,20.434c0,11.266,9.166,20.432,20.434,20.432
		c11.266,0,20.432-9.166,20.432-20.432C90.102,71.104,80.936,61.938,69.67,61.938z M69.67,98.803
		c-9.062,0-16.434-7.371-16.434-16.432c0-9.062,7.372-16.434,16.434-16.434c9.061,0,16.432,7.372,16.432,16.434
		C86.102,91.432,78.731,98.803,69.67,98.803z"/>
	<path style="fill:#231F20;" d="M136.151,105.486c-0.056-0.605-0.383-1.153-0.891-1.489l-23.426-15.452
		c-0.001-11.549-0.012-23.319-0.041-32.98C111.701,24.971,89.293,0.58,70.08,0.012C69.814,0.004,69.544,0,69.279,0
		C47.028,0,27.508,26.407,27.508,56.513v31.646l-24.01,15.839c-0.508,0.335-0.835,0.883-0.891,1.489l-2.6,28.591
		c-0.065,0.72,0.263,1.418,0.858,1.828c0.595,0.409,1.365,0.468,2.014,0.148l24.628-12.069v12.801c0,1.104,0.896,2,2,2h80.285
		c1.104,0,1.998-0.894,2-1.996c0,0,0.009-4.899,0.018-12.558l24.058,11.821c0.647,0.319,1.419,0.264,2.015-0.146
		s0.924-1.109,0.859-1.829L136.151,105.486z M110.697,119.227c-0.617-0.304-1.353-0.268-1.938,0.097s-0.942,1.006-0.943,1.696
		c-0.007,6.302-0.014,11.196-0.018,13.766H31.508v-14.008c0-0.69-0.356-1.332-0.941-1.697c-0.587-0.365-1.319-0.403-1.938-0.099
		L4.314,130.896l2.19-24.09L30.61,90.904c0.561-0.371,0.898-0.998,0.898-1.67V56.513C31.508,25.566,51.414,4,69.279,4
		c0.227,0,0.455,0.003,0.682,0.01c20.872,0.618,37.764,28.716,37.833,51.566c0.03,9.958,0.041,22.158,0.041,34.045
		c0,0.672,0.338,1.3,0.898,1.67l23.521,15.516l2.184,24.086L110.697,119.227z"/>
	<path style="fill:#231F20;" d="M90.602,144.325H48.737c-0.531,0-1.041,0.212-1.417,0.588c-3.093,3.104-7.206,7.945-7.206,14.125
		c0,5.956,2.454,8.013,6.168,11.126c0.855,0.716,1.824,1.528,2.906,2.507c0.364,0.316,0.838,0.493,1.319,0.493
		c1.492,0,1.492,0,4.521-7.309c0.496-1.195,1.118-2.698,1.661-3.973c1.338,2.275,3.107,5.843,4.422,8.489
		c4.914,9.903,6.287,12.219,8.559,12.219h0.055c2.214,0,3.59-2.319,8.513-12.238c1.312-2.644,3.081-6.207,4.408-8.472
		c0.541,1.271,1.162,2.77,1.657,3.963c3.034,7.319,3.034,7.319,4.523,7.32h0.001c0.495,0,0.98-0.187,1.348-0.52
		c1.053-0.951,2.021-1.763,2.876-2.479c3.714-3.113,6.168-5.171,6.168-11.127c0-6.188-4.109-11.025-7.201-14.125
		C91.643,144.537,91.133,144.325,90.602,144.325z M90.481,167.1c-0.311,0.261-0.636,0.534-0.976,0.821
		c-0.473-1.113-1.035-2.47-1.508-3.609c-3.405-8.215-3.405-8.215-4.944-8.215c-0.388,0-0.776,0.115-1.102,0.327
		c-1.696,1.108-3.526,4.554-7.297,12.15c-1.527,3.078-3.696,7.447-4.987,9.365c-1.287-1.917-3.449-6.274-4.973-9.345
		c-3.777-7.61-5.609-11.061-7.332-12.188c-0.319-0.201-0.698-0.311-1.076-0.311c-1.543,0-1.543,0-4.953,8.228
		c-0.471,1.136-1.031,2.488-1.503,3.598c-0.341-0.289-0.667-0.562-0.979-0.823c-3.544-2.971-4.737-3.972-4.737-8.061
		c0-3.454,1.691-6.781,5.464-10.713h40.184c3.769,3.926,5.458,7.253,5.458,10.713C95.219,163.128,94.025,164.129,90.481,167.1z"/>
	<path style="fill:#231F20;" d="M57.879,17.658c0.871-0.677,1.03-1.934,0.354-2.806c-0.678-0.874-1.932-1.032-2.804-0.357
		c-0.644,0.497-15.771,12.39-17.29,30.224c-1.452,17.069-1.105,37.614-1.103,37.82c0.02,1.092,0.911,1.964,1.999,1.964
		c0.013,0,0.024,0,0.037,0c1.104-0.021,1.983-0.932,1.964-2.036c-0.004-0.203-0.347-20.548,1.089-37.408
		C43.493,29.004,57.735,17.77,57.879,17.658z"/>
	<path style="fill:#231F20;" d="M11.791,106.437c-1.105-0.054-2.059,0.751-2.138,1.853l-1.096,15.338
		c-0.078,1.102,0.751,2.059,1.853,2.138c0.049,0.003,0.097,0.005,0.145,0.005c1.04,0,1.918-0.805,1.993-1.857l1.096-15.338
		C13.722,107.473,12.893,106.516,11.791,106.437z"/>
	<path style="fill:#231F20;" d="M66.641,72.516c0.909-0.625,1.141-1.867,0.518-2.778c-0.624-0.91-1.867-1.145-2.78-0.521
		c-0.279,0.19-6.844,4.76-7.183,11.728c-0.213,4.37,2.028,8.553,6.66,12.434c0.374,0.313,0.83,0.467,1.283,0.467
		c0.571,0,1.139-0.243,1.534-0.716c0.709-0.847,0.598-2.108-0.249-2.817c-3.613-3.027-5.375-6.106-5.234-9.153
		C61.418,76.204,66.549,72.579,66.641,72.516z"/>
</g>
<g>
</g>
<g>
</g>
<g>
</g>
<g>
</g>
<g>
</g>
<g>
</g>
<g>
</g>
<g>
</g>
<g>
</g>
<g>
</g>
<g>
</g>
<g>
</g>
<g>
</g>
<g>
</g>
<g>
</g>
</svg>
