<?xml version="1.0" encoding="iso-8859-1"?>
<!-- Generator: Adobe Illustrator 18.0.0, SVG Export Plug-In . SVG Version: 6.00 Build 0)  -->
<!DOCTYPE svg PUBLIC "-//W3C//DTD SVG 1.1//EN" "http://www.w3.org/Graphics/SVG/1.1/DTD/svg11.dtd">
<svg version="1.1" id="Capa_1" xmlns="http://www.w3.org/2000/svg" xmlns:xlink="http://www.w3.org/1999/xlink" x="0px" y="0px"
	 viewBox="0 0 141.582 186.594" style="enable-background:new 0 0 141.582 186.594;" xml:space="preserve">
<g>
	<path style="fill:#231F20;" d="M141.582,70.793C141.582,31.758,109.828,0,70.796,0C31.759,0,0,31.758,0,70.793
		c0,28.347,16.67,53.682,42.593,64.938c-0.487,7.428-2.81,21.599-5.585,29.717c-0.39,0-0.614,0.001-0.641,0.002l-0.221-0.004
		c-4.554,0-7.734,4.08-7.733,9.983c0.171,5.5,0.332,10.696,7.178,11.093l0-0.007c0.811,0.031,5.367,0.078,34.936,0.078
		c29.569,0,34.114-0.046,34.93-0.078v0.007c6.83-0.396,7.004-5.589,7.189-11.155c0-5.83-3.17-9.904-7.712-9.92
		c-2.796-7.643-5.426-21.671-5.962-29.716C124.905,124.474,141.582,99.14,141.582,70.793z M96.14,132.586
		c-0.776,0.318-1.271,1.088-1.238,1.926c0.324,8.456,3.53,25.664,6.809,33.692c0.307,0.751,1.037,1.242,1.849,1.243l1.188,0.002
		c0.021,0,0.139-0.002,0.159-0.003c2.202,0,3.739,2.435,3.74,5.854c-0.228,6.786-0.844,7.08-3.421,7.229
		c-0.012,0.001-0.023,0.002-0.035,0.003c-1.018,0.036-15.535,0.062-34.665,0.062s-33.647-0.026-34.67-0.062
		c-0.012-0.001-0.023-0.002-0.035-0.003c-2.583-0.149-3.201-0.442-3.411-7.161c0-3.486,1.536-5.921,3.734-5.921l0.175,0.003
		c0.126-0.001,0.868-0.002,2.092-0.002c0.83,0,1.574-0.513,1.869-1.288c3.418-8.979,6.104-26.199,6.38-33.649
		c0.031-0.838-0.463-1.605-1.238-1.924C20.26,122.242,4,97.986,4,70.793C4,33.963,33.964,4,70.796,4
		c36.826,0,66.786,29.963,66.786,66.793C137.582,97.986,121.315,122.241,96.14,132.586z"/>
	<path style="fill:#231F20;" d="M70.784,32.871c-20.908,0-37.918,17.012-37.918,37.922s17.01,37.922,37.918,37.922
		c20.911,0,37.924-17.012,37.924-37.922S91.695,32.871,70.784,32.871z M70.784,104.715c-18.703,0-33.918-15.217-33.918-33.922
		c0-18.704,15.215-33.922,33.918-33.922c18.706,0,33.924,15.218,33.924,33.922C104.708,89.498,89.49,104.715,70.784,104.715z"/>
	<path style="fill:#231F20;" d="M70.786,49.196c-11.858,0-21.506,9.651-21.506,21.515c0,11.861,9.647,21.511,21.506,21.511
		c11.864,0,21.517-9.649,21.517-21.511C92.303,58.848,82.65,49.196,70.786,49.196z M70.786,88.222
		c-9.653,0-17.506-7.855-17.506-17.511c0-9.657,7.853-17.515,17.506-17.515c9.659,0,17.517,7.857,17.517,17.515
		C88.303,80.366,80.445,88.222,70.786,88.222z"/>
	<path style="fill:#231F20;" d="M24.78,31.381c-0.323,0.363-7.964,9.054-12.043,22.78c-3.779,12.715-5.039,32.257,10.416,53.146
		c0.393,0.53,0.997,0.811,1.609,0.811c0.414,0,0.831-0.128,1.188-0.393c0.888-0.656,1.075-1.909,0.418-2.797
		C14.783,89.271,11.472,72.623,16.526,55.45c3.802-12.917,11.169-21.328,11.243-21.411c0.733-0.825,0.659-2.088-0.166-2.822
		C26.779,30.483,25.515,30.557,24.78,31.381z"/>
	<path style="fill:#231F20;" d="M45.114,169.989c0.271,0.125,0.555,0.184,0.834,0.184c0.757,0,1.481-0.432,1.818-1.164
		c5.554-12.069,6.934-32.388,6.99-33.247c0.072-1.102-0.763-2.054-1.865-2.126c-1.097-0.068-2.054,0.764-2.126,1.865
		c-0.014,0.203-1.39,20.442-6.632,31.836C43.671,168.34,44.11,169.528,45.114,169.989z"/>
	<path style="fill:#231F20;" d="M38.125,175.629c0,1.104,0.896,2,2,2h58c1.104,0,2-0.896,2-2s-0.896-2-2-2h-58
		C39.02,173.629,38.125,174.524,38.125,175.629z"/>
</g>
<g>
</g>
<g>
</g>
<g>
</g>
<g>
</g>
<g>
</g>
<g>
</g>
<g>
</g>
<g>
</g>
<g>
</g>
<g>
</g>
<g>
</g>
<g>
</g>
<g>
</g>
<g>
</g>
<g>
</g>
</svg>
