<?xml version="1.0" encoding="iso-8859-1"?>
<!-- Generator: Adobe Illustrator 18.0.0, SVG Export Plug-In . SVG Version: 6.00 Build 0)  -->
<!DOCTYPE svg PUBLIC "-//W3C//DTD SVG 1.1//EN" "http://www.w3.org/Graphics/SVG/1.1/DTD/svg11.dtd">
<svg version="1.1" id="Capa_1" xmlns="http://www.w3.org/2000/svg" xmlns:xlink="http://www.w3.org/1999/xlink" x="0px" y="0px"
	 viewBox="0 0 103.721 179.409" style="enable-background:new 0 0 103.721 179.409;" xml:space="preserve">
<g>
	<path style="fill:#231F20;" d="M103.632,167.499c-0.062-1.382-0.633-2.434-1.448-3.14c0.173-0.267,0.331-0.549,0.474-0.846
		c2.394-4.966-0.061-13.315-2.786-20.838c-3.232-10.663-19.437-34.43-32.831-52.97c13.394-18.54,29.598-42.308,32.831-52.97
		c2.729-7.531,5.184-15.887,2.78-20.847c-0.144-0.297-0.303-0.579-0.476-0.845c0.791-0.639,1.385-1.593,1.456-2.94
		c0.119-2.462,0.12-5.265,0-7.89C103.509,1.447,101.353,0,99.28,0H5.015c-2.271,0-4.789,1.408-4.95,4.5
		c-0.134,2.565-0.02,6.84-0.004,7.406c-0.006,0.464,0.077,1.759,1.095,2.844c0.104,0.11,0.224,0.225,0.36,0.338
		c-0.162,0.253-0.312,0.52-0.447,0.8c-2.406,4.961,0.047,13.316,2.773,20.846c3.256,10.708,19.453,34.456,32.836,52.97
		c-13.383,18.514-29.58,42.26-32.836,52.969c-2.724,7.521-5.176,15.869-2.781,20.837c0.167,0.347,0.354,0.673,0.562,0.978
		c-0.868,0.739-1.482,1.831-1.559,3.308c-0.134,2.564-0.02,6.829-0.004,7.396c-0.006,0.465,0.076,1.766,1.099,2.854
		c0.584,0.622,1.672,1.362,3.542,1.362h94.373c1.747,0,4.402-1.066,4.557-4.011C103.751,172.943,103.751,170.137,103.632,167.499z
		 M99.651,175.238c-0.08,0.075-0.385,0.161-0.599,0.17H4.701c-0.458,0-0.615-0.095-0.641-0.095c-0.001,0-0.002,0-0.003,0.001
		c0.022-0.13,0.007-0.053,0.003-0.184c-0.001-0.045-0.134-4.595-0.002-7.126c0.011-0.207,0.036-0.69,0.962-0.709h0.862
		c0.98,0,1.815-0.71,1.974-1.677c0.158-0.967-0.407-1.906-1.336-2.219c-0.873-0.294-1.462-0.811-1.855-1.625
		c-1.993-4.134,1.603-14.054,2.956-17.788c0.012-0.035,0.024-0.069,0.035-0.105c2.438-8.095,14.197-26.918,33.111-53.003
		c0.508-0.7,0.508-1.647,0-2.348C21.853,62.445,10.094,43.621,7.656,35.527c-0.011-0.035-0.022-0.07-0.035-0.105
		c-1.354-3.737-4.953-13.666-2.954-17.789c0.395-0.815,0.989-1.331,1.869-1.622c0.932-0.309,1.501-1.248,1.345-2.217
		c-0.157-0.969-0.993-1.681-1.975-1.681H4.701c-0.486,0-0.633-0.106-0.644-0.084c0.022-0.131,0.007-0.051,0.003-0.184
		c-0.001-0.046-0.134-4.607-0.002-7.136C4.07,4.502,4.095,4.02,5.021,4l94.24,0c0.121,0.005,0.282,0.059,0.318,0.095
		c0.012,0.017,0.049,0.106,0.057,0.297c0.114,2.507,0.114,5.176,0.016,7.551c-0.081,0.076-0.394,0.164-0.578,0.17h-1.258
		c-0.981,0-1.818,0.712-1.975,1.681c-0.156,0.969,0.414,1.908,1.345,2.217c0.878,0.291,1.471,0.806,1.866,1.62
		c1.998,4.122-1.604,14.052-2.959,17.791c-0.013,0.035-0.024,0.071-0.035,0.106c-2.418,8.055-14.175,26.878-33.104,53.002
		c-0.507,0.7-0.507,1.647,0,2.347c18.93,26.123,30.686,44.946,33.104,53.002c0.011,0.036,0.022,0.071,0.035,0.106
		c1.355,3.736,4.954,13.659,2.962,17.791c-0.393,0.814-0.981,1.33-1.853,1.623c-0.929,0.312-1.494,1.252-1.335,2.219
		c0.158,0.967,0.994,1.677,1.974,1.677l1.42,0c0.121,0.005,0.284,0.059,0.32,0.094c0.012,0.017,0.047,0.105,0.055,0.289
		C99.75,170.197,99.75,172.87,99.651,175.238z"/>
	<path style="fill:#231F20;" d="M12.654,25.904c-0.409-1.026-1.57-1.528-2.598-1.118c-1.026,0.409-1.527,1.571-1.119,2.598
		c0.127,0.318,12.916,32.094,34.605,56.228c0.395,0.439,0.94,0.663,1.488,0.663c0.477,0,0.955-0.169,1.336-0.513
		c0.821-0.738,0.889-2.002,0.15-2.824C25.317,57.348,12.778,26.215,12.654,25.904z"/>
	<path style="fill:#231F20;" d="M43.543,95.386c-21.689,24.133-34.478,55.91-34.605,56.228c-0.408,1.026,0.092,2.189,1.119,2.598
		c0.243,0.097,0.493,0.143,0.739,0.143c0.795,0,1.546-0.477,1.858-1.261c0.125-0.312,12.663-31.444,33.863-55.033
		c0.739-0.822,0.671-2.086-0.15-2.824C45.545,94.497,44.281,94.563,43.543,95.386z"/>
</g>
<g>
</g>
<g>
</g>
<g>
</g>
<g>
</g>
<g>
</g>
<g>
</g>
<g>
</g>
<g>
</g>
<g>
</g>
<g>
</g>
<g>
</g>
<g>
</g>
<g>
</g>
<g>
</g>
<g>
</g>
</svg>
