<?xml version="1.0" encoding="iso-8859-1"?>
<!-- Generator: Adobe Illustrator 18.0.0, SVG Export Plug-In . SVG Version: 6.00 Build 0)  -->
<!DOCTYPE svg PUBLIC "-//W3C//DTD SVG 1.1//EN" "http://www.w3.org/Graphics/SVG/1.1/DTD/svg11.dtd">
<svg version="1.1" id="Capa_1" xmlns="http://www.w3.org/2000/svg" xmlns:xlink="http://www.w3.org/1999/xlink" x="0px" y="0px"
	 viewBox="0 0 182.261 174.958" style="enable-background:new 0 0 182.261 174.958;" xml:space="preserve">
<g>
	<path style="fill:#231F20;" d="M174.751,15.584C167.534,5.826,155.971,0,143.821,0c-8.258,0-16.143,2.602-22.8,7.525
		c-6.289,4.65-10.916,10.976-13.448,18.363l-16.248,0.205c-5.969,0.057-11.862,0.114-17.245,0.171
		C68.277,11.75,54.128,2.096,38.426,2.096c-0.287,0-0.574,0.003-0.862,0.01C16.38,2.583-0.467,20.199,0.01,41.373
		c0.457,21.002,18.186,38.01,39.259,37.554c16.288-0.353,30.394-10.785,35.554-26.123c4.064-0.056,8.402-0.111,12.838-0.166
		l20.404-0.194c1.234,3.133,2.874,6.092,4.885,8.814c2.676,3.623,5.923,6.709,9.667,9.192c-1.103,2.709-2.243,5.519-3.401,8.375
		l-1.537,3.788c-2.201,5.369-4.373,10.672-6.365,15.547c-16.227-0.811-31.096,8.594-37.354,23.47
		c-3.979,9.464-4.038,19.909-0.164,29.411c3.874,9.504,11.22,16.929,20.683,20.905c4.751,1.999,9.755,3.013,14.872,3.013
		c0.001,0,0,0,0.001,0c15.513,0,29.425-9.239,35.442-23.538c6.234-14.824,2.581-31.845-9.055-42.817l9.466-23.257
		c1.253-3.056,2.473-6.033,3.629-8.863c6.478-0.833,12.629-3.293,17.858-7.153C183.729,56.74,187.344,32.63,174.751,15.584z
		 M164.315,66.113c-4.972,3.669-10.877,5.925-17.078,6.525c-0.74,0.072-1.379,0.547-1.66,1.235
		c-1.286,3.153-2.659,6.503-4.075,9.956l-9.996,24.564c-0.32,0.789-0.105,1.694,0.536,2.255
		c11.172,9.784,14.814,25.546,9.063,39.221c-5.391,12.812-17.856,21.089-31.756,21.089c-4.581,0-9.063-0.909-13.321-2.7
		c-8.478-3.563-15.059-10.214-18.529-18.728c-3.47-8.513-3.417-17.871,0.148-26.35c5.383-12.799,17.843-21.069,31.741-21.069
		c1.015,0,2.041,0.045,3.051,0.136c0.875,0.077,1.698-0.423,2.03-1.236c2.137-5.234,4.506-11.019,6.913-16.888l1.54-3.795
		c1.38-3.402,2.733-6.739,4.03-9.918c0.372-0.913,0.024-1.961-0.821-2.469c-3.909-2.352-7.262-5.4-9.965-9.06
		c-2.062-2.789-3.687-5.854-4.831-9.111c-0.282-0.802-1.039-1.337-1.887-1.337c-0.006,0-0.012,0-0.017,0l-17.861,0.157l-3.96,0.05
		c-4.968,0.062-9.813,0.123-14.289,0.187c-0.876,0.013-1.642,0.594-1.89,1.435c-4.254,14.43-17.215,24.343-32.251,24.668
		C20.249,75.348,4.418,60.101,4.009,41.285C3.582,22.314,18.674,6.533,37.653,6.105c14.84-0.334,28.199,8.934,33.167,22.847
		c0.284,0.797,1.039,1.328,1.883,1.328c0.007,0,0.014,0,0.021,0c5.75-0.062,12.149-0.125,18.642-0.186l17.691-0.223
		c0.874-0.011,1.639-0.586,1.891-1.422c2.159-7.158,6.464-13.281,12.449-17.707C129.363,6.331,136.425,4,143.821,4
		c10.887,0,21.248,5.22,27.714,13.962C182.817,33.233,179.578,54.834,164.315,66.113z"/>
	<path style="fill:#231F20;" d="M27.239,13.652c-10.02,4.345-16.813,13.763-17.73,24.579c-0.956,11.277,4.478,21.648,14.906,28.454
		c0.337,0.22,0.716,0.325,1.091,0.325c0.653,0,1.293-0.319,1.677-0.907c0.604-0.925,0.343-2.164-0.582-2.768
		c-9.156-5.976-13.933-15.002-13.106-24.767c0.792-9.347,6.668-17.488,15.335-21.246c1.013-0.439,1.479-1.617,1.039-2.631
		C29.43,13.678,28.251,13.212,27.239,13.652z"/>
	<path style="fill:#231F20;" d="M131.935,61.335c-5.529-3.608-9.54-8.405-11.597-13.872c-0.389-1.034-1.542-1.557-2.576-1.167
		c-1.034,0.389-1.556,1.542-1.167,2.576c2.359,6.268,6.908,11.736,13.155,15.812c0.337,0.22,0.716,0.325,1.091,0.325
		c0.653,0,1.293-0.319,1.677-0.907C133.121,63.178,132.86,61.938,131.935,61.335z"/>
	<path style="fill:#231F20;" d="M132.572,11.652c-7.828,3.395-13.812,9.974-16.417,18.052c-0.339,1.051,0.238,2.178,1.29,2.517
		c0.204,0.066,0.411,0.097,0.614,0.097c0.845,0,1.63-0.54,1.903-1.387c2.252-6.983,7.429-12.672,14.202-15.609
		c1.013-0.439,1.479-1.617,1.039-2.631C134.764,11.679,133.586,11.213,132.572,11.652z"/>
	<path style="fill:#231F20;" d="M97.239,108.985c-10.02,4.345-16.813,13.763-17.73,24.579c-0.956,11.277,4.478,21.648,14.906,28.454
		c0.337,0.22,0.716,0.325,1.091,0.325c0.653,0,1.293-0.319,1.677-0.907c0.604-0.925,0.343-2.164-0.582-2.768
		c-9.156-5.976-13.933-15.002-13.106-24.767c0.792-9.347,6.668-17.488,15.335-21.246c1.013-0.439,1.479-1.617,1.039-2.631
		C99.43,109.011,98.252,108.545,97.239,108.985z"/>
</g>
<g>
</g>
<g>
</g>
<g>
</g>
<g>
</g>
<g>
</g>
<g>
</g>
<g>
</g>
<g>
</g>
<g>
</g>
<g>
</g>
<g>
</g>
<g>
</g>
<g>
</g>
<g>
</g>
<g>
</g>
</svg>
