<?xml version="1.0" encoding="iso-8859-1"?>
<!-- Generator: Adobe Illustrator 18.0.0, SVG Export Plug-In . SVG Version: 6.00 Build 0)  -->
<!DOCTYPE svg PUBLIC "-//W3C//DTD SVG 1.1//EN" "http://www.w3.org/Graphics/SVG/1.1/DTD/svg11.dtd">
<svg version="1.1" id="Capa_1" xmlns="http://www.w3.org/2000/svg" xmlns:xlink="http://www.w3.org/1999/xlink" x="0px" y="0px"
	 viewBox="0 0 154.985 184.633" style="enable-background:new 0 0 154.985 184.633;" xml:space="preserve">
<g>
	<path style="fill:#231F20;" d="M154.985,2.193c0-0.71-0.377-1.368-0.99-1.727c-0.496-0.29-1.087-0.35-1.622-0.178L2.102,0H2
		c-0.89,0-1.673,0.588-1.921,1.442c-0.117,0.403-0.102,0.82,0.026,1.198l0.197,32.03c-0.034,0.15-0.051,0.304-0.049,0.459
		l0.051,4.701c-0.021,0.115-0.031,0.233-0.031,0.354v126.984c-0.048,0.86-0.232,7.185,4.264,12.034
		c3.34,3.602,8.318,5.429,14.797,5.429l118.728-0.001c0,0,0.097,0.004,0.276,0.004c0.001,0,0.001,0,0.001,0
		c1.231,0,7.601-0.232,12.104-4.801c3.085-3.13,4.608-7.522,4.528-13.056c-0.231-16.219-0.002-125.487,0-126.588
		c0-0.135-0.015-0.269-0.043-0.399l0.043-4.663c0.002-0.196-0.025-0.389-0.079-0.574l0.093-32.256
		C154.985,2.294,154.985,2.195,154.985,2.193z M150.967,35.55l-0.043,4.615c-0.001,0.144,0.015,0.287,0.046,0.425
		c-0.016,7.405-0.224,110.498,0.001,126.243c0.064,4.423-1.072,7.852-3.377,10.191c-3.385,3.434-8.303,3.608-9.255,3.608
		c0,0,0,0-0.001,0L19.334,180.63c-5.3,0-9.281-1.385-11.835-4.117c-3.549-3.798-3.234-9.087-3.231-9.132
		c0.004-0.05,0.006-0.101,0.006-0.151V40.558c0.024-0.129,0.036-0.262,0.035-0.395l-0.051-4.691
		c0.032-0.144,0.048-0.292,0.047-0.442L4.114,4.004l146.865,0.282l-0.088,30.712C150.89,35.187,150.916,35.372,150.967,35.55z"/>
	<path style="fill:#231F20;" d="M110.987,25.845c-5.672,0-10.287,4.332-10.287,9.656c0,2.764,1.215,5.318,3.367,7.151v15.721
		c0,13.423-11.877,24.344-26.475,24.344c-14.594,0-26.467-10.921-26.467-24.344V42.477c2.021-1.818,3.162-4.309,3.162-6.975
		c0-5.325-4.613-9.656-10.283-9.656c-5.667,0-10.277,4.332-10.277,9.656c0,2.699,1.159,5.209,3.213,7.029v16.391
		c0,20.832,18.236,37.779,40.652,37.779c22.412,0,40.646-16.948,40.646-37.779V42.353c1.934-1.802,3.023-4.248,3.023-6.852
		C121.262,30.177,116.653,25.845,110.987,25.845z M115.031,39.831c-0.499,0.378-0.792,0.968-0.792,1.594v17.497
		c0,18.626-16.439,33.779-36.646,33.779c-20.21,0-36.652-15.153-36.652-33.779V41.57c0-0.645-0.311-1.25-0.835-1.625
		c-1.511-1.083-2.378-2.703-2.378-4.443c0-3.119,2.816-5.656,6.277-5.656c3.465,0,6.283,2.538,6.283,5.656
		c0,1.716-0.854,3.323-2.341,4.41c-0.517,0.376-0.821,0.977-0.821,1.615v16.847c0,15.629,13.667,28.344,30.467,28.344
		c16.804,0,30.475-12.715,30.475-28.344V41.669c0-0.658-0.324-1.274-0.866-1.648c-1.59-1.093-2.501-2.74-2.501-4.52
		c0-3.119,2.82-5.656,6.287-5.656c3.46,0,6.275,2.538,6.275,5.656C117.262,37.178,116.449,38.756,115.031,39.831z"/>
	<path style="fill:#231F20;" d="M12.381,76.753c1.104,0,2-0.896,2-2V13.309c0-1.104-0.896-2-2-2s-2,0.896-2,2v61.444
		C10.381,75.857,11.277,76.753,12.381,76.753z"/>
	<path style="fill:#231F20;" d="M29.826,170.316H20.16c-5.185,0-5.935-7.297-6-8.077v-19.923c0-1.104-0.896-2-2-2s-2,0.896-2,2v20
		c0,0.044,0.002,0.089,0.005,0.133c0.273,4.104,2.715,11.867,9.995,11.867h9.666c1.104,0,2-0.896,2-2S30.931,170.316,29.826,170.316
		z"/>
</g>
<g>
</g>
<g>
</g>
<g>
</g>
<g>
</g>
<g>
</g>
<g>
</g>
<g>
</g>
<g>
</g>
<g>
</g>
<g>
</g>
<g>
</g>
<g>
</g>
<g>
</g>
<g>
</g>
<g>
</g>
</svg>
