<?xml version="1.0" encoding="iso-8859-1"?>
<!-- Generator: Adobe Illustrator 18.0.0, SVG Export Plug-In . SVG Version: 6.00 Build 0)  -->
<!DOCTYPE svg PUBLIC "-//W3C//DTD SVG 1.1//EN" "http://www.w3.org/Graphics/SVG/1.1/DTD/svg11.dtd">
<svg version="1.1" id="Capa_1" xmlns="http://www.w3.org/2000/svg" xmlns:xlink="http://www.w3.org/1999/xlink" x="0px" y="0px"
	 viewBox="0 0 146.587 185.784" style="enable-background:new 0 0 146.587 185.784;" xml:space="preserve">
<g>
	<path style="fill:#231F20;" d="M146.586,14.922c-0.075-13.49-6.92-14.631-15.857-14.72c-2.693-0.029-19.64-0.048-41.096-0.07
		l-38.534-0.07C32.93,0.018,18.551-0.017,16.185,0.009C7.252,0.064,0.409,1.177,0.274,14.67
		C0.24,18.327-0.022,168.685,0.001,170.857c0.081,13.482,6.928,14.628,15.873,14.725c3.145,0.029,27.759,0.058,57.249,0.066
		c20.867,0.063,45.915,0.137,54.445,0.137c1.38,0,2.343-0.002,2.825-0.006c8.938-0.063,15.786-1.185,15.921-14.675
		C146.334,167.579,146.595,17.24,146.586,14.922z M142.315,171.074c-0.098,9.751-3.177,10.643-11.952,10.705
		c-0.478,0.004-1.43,0.006-2.794,0.006c-8.525,0-33.568-0.073-54.438-0.137c-29.485-0.009-54.084-0.037-57.216-0.066
		c-8.777-0.095-11.854-0.998-11.913-10.758C3.978,168.643,4.24,18.363,4.274,14.709c0.098-9.758,3.173-10.647,11.945-10.7
		c0.576-0.007,1.841-0.01,3.682-0.01c5.835,0,17.421,0.029,31.188,0.062l38.54,0.07c20.596,0.021,38.383,0.041,41.058,0.07
		c8.771,0.087,11.845,0.988,11.899,10.738C142.595,17.254,142.334,167.559,142.315,171.074z"/>
	<path style="fill:#231F20;" d="M81.692,165.755c0-1.796-1.455-3.1-3.46-3.1c-0.002,0-0.017,0-0.019,0l-9.876,0.031
		c-1.627,0-3.381,1.143-3.425,3.244c-0.039,1.324-0.039,8.208-0.001,9.94c0.038,2.338,1.793,3.561,3.508,3.561
		c0.019,0,0.046,0,0.075-0.001h9.829c0.037,0,0.074-0.001,0.111-0.003c1.277-0.071,3.198-1.102,3.257-3.661
		c0.021-1.27,0.01-5.737,0.003-8.406L81.692,165.755z M77.69,175.431l-8.785,0.001c-0.027-1.854-0.028-6.757-0.005-8.747
		l8.794-0.028l0.001,0.714C77.701,169.665,77.711,173.787,77.69,175.431z"/>
	<path style="fill:#231F20;" d="M125.951,12.921H19.538c-1.104,0-2,0.896-2,2v141.242c0,1.104,0.896,2,2,2h106.413
		c1.104,0,2-0.896,2-2V14.921C127.951,13.817,127.055,12.921,125.951,12.921z M123.951,154.163H21.538V16.921h102.413V154.163z"/>
	<path style="fill:#231F20;" d="M10.129,157.474c1.104,0,2-0.896,2-2V13.17c0-1.104-0.896-2-2-2s-2,0.896-2,2v142.304
		C8.129,156.578,9.025,157.474,10.129,157.474z"/>
	<path style="fill:#231F20;" d="M18.368,171.943c-5.093-0.34-6.229-5.38-6.279-5.613c-0.221-1.077-1.273-1.773-2.351-1.559
		c-1.084,0.216-1.786,1.27-1.569,2.353c0.57,2.856,3.382,8.373,9.934,8.81c0.045,0.004,0.09,0.005,0.135,0.005
		c1.044,0,1.923-0.811,1.993-1.867C20.304,172.969,19.47,172.016,18.368,171.943z"/>
</g>
<g>
</g>
<g>
</g>
<g>
</g>
<g>
</g>
<g>
</g>
<g>
</g>
<g>
</g>
<g>
</g>
<g>
</g>
<g>
</g>
<g>
</g>
<g>
</g>
<g>
</g>
<g>
</g>
<g>
</g>
</svg>
