<?xml version="1.0" encoding="iso-8859-1"?>
<!-- Generator: Adobe Illustrator 18.0.0, SVG Export Plug-In . SVG Version: 6.00 Build 0)  -->
<!DOCTYPE svg PUBLIC "-//W3C//DTD SVG 1.1//EN" "http://www.w3.org/Graphics/SVG/1.1/DTD/svg11.dtd">
<svg version="1.1" id="Capa_1" xmlns="http://www.w3.org/2000/svg" xmlns:xlink="http://www.w3.org/1999/xlink" x="0px" y="0px"
	 viewBox="0 0 174.836 175.528" style="enable-background:new 0 0 174.836 175.528;" xml:space="preserve">
<g>
	<path style="fill:#231F20;" d="M45.605,59l0.22-0.001c0.618-0.017,4.761-0.061,10.495-0.122l2.934-0.031l0.09,60.592
		c0.021,7.743,1.313,18.083,12.252,18.489c0.299,0.011,1.132,0.017,2.349,0.017c7.132,0,28.189-0.172,30.064-0.246
		c10.937-0.559,12.184-10.906,12.17-18.64c-0.008-5.719-0.03-19.091-0.052-32.625l-0.046-28.21c3.622-0.036,6.716-0.07,9.037-0.096
		c2.454-0.027,4.037-0.045,4.504-0.045c2.314-0.055,4.562-0.355,5.326-2.167c0.815-1.934-0.895-3.774-1.624-4.558
		c-6.761-7.295-23.029-25.724-33.794-37.919c-6.46-7.318-9.859-11.166-10.429-11.763C88.114,0.596,86.86,0,85.572,0
		c-1.348,0-2.626,0.644-3.595,1.808c-0.178,0.213-0.849,1.073-2.482,3.171c-7.192,9.237-29.08,37.347-37.979,46.676
		c-0.649,0.68-2.624,2.75-1.679,4.958C40.752,58.753,43.567,59,45.605,59z M44.41,54.416c9.038-9.474,31.019-37.703,38.241-46.979
		c1.257-1.614,2.25-2.89,2.397-3.065C85.276,4.098,85.468,4,85.572,4c0.108,0,0.323,0.098,0.606,0.407
		c0.575,0.602,4.89,5.491,10.354,11.68c10.763,12.192,27.019,30.608,33.832,37.961c-0.226,0.016-0.487,0.028-0.789,0.035
		c-0.423,0-2.022,0.018-4.5,0.045c-2.732,0.03-6.538,0.072-11.015,0.115c-1.099,0.011-1.982,0.905-1.981,2.003l0.049,30.194
		c0.022,13.532,0.044,26.904,0.052,32.624c0.021,12.489-4.012,14.416-8.352,14.638c-1.611,0.064-22.4,0.242-29.883,0.242
		c-1.141,0-1.922-0.003-2.202-0.014c-4.343-0.162-8.366-2.03-8.399-14.5l-0.093-62.609c-0.001-0.533-0.215-1.044-0.595-1.419
		c-0.375-0.37-0.879-0.577-1.405-0.577c-0.007,0-0.014,0-0.021,0l-4.952,0.053c-5.967,0.063-9.909,0.105-10.523,0.122l-0.15,0
		c-0.741,0-1.262-0.046-1.622-0.102C44.094,54.761,44.233,54.601,44.41,54.416z"/>
	<path style="fill:#231F20;" d="M174.712,141.474l0.01-3.4c0.029-9.421,0.045-15.246,0.01-16.226
		c-0.147-5.314-4.318-6.409-12.484-6.65c0,0-0.825-0.022-1.332-0.022l-0.135,0.001l-0.196-0.001c-0.504,0-1.321,0.022-1.325,0.022
		c-8.159,0.241-12.331,1.335-12.491,6.648c-0.028,0.964-0.019,6.835,0.031,19.612l-0.013,1.649c-0.001,0.134-0.002,0.267-0.003,0.4
		c-8.262,0.012-21.012,0.049-35.517,0.091l-23.85,0.067c-23.476,0.008-46.787,0.021-59.444,0.057
		c-0.003-0.746-0.007-1.497-0.009-2.247l0.008-2.102c0.032-8.824,0.06-16.445,0.017-17.53c-0.156-5.312-4.326-6.406-12.486-6.646
		c0,0-0.823-0.022-1.325-0.022l-0.134,0.001l-0.199-0.001c-0.512,0-1.332,0.022-1.335,0.022c-8.158,0.241-12.329,1.335-12.48,6.654
		c-0.029,1.146-0.007,9.564,0.023,19.609c-0.023,6.626-0.042,13.05-0.042,16.672c-0.029,0.743,0.023,3.185,0.03,3.29
		c0.029,0.437,0.073,0.781,0.139,1.097c1.448,11.893,8.872,12.913,18.432,13.006l1.758,0.002c7.275,0,32.308-0.068,58.81-0.14
		l8.275-0.022c42.335-0.024,65.507-0.057,68.869-0.1c9.812-0.111,17.404-1.217,18.507-14.064c0.005-0.062,0.008-0.124,0.007-0.186
		C174.836,161.015,174.733,147.501,174.712,141.474z M156.274,171.266c-3.349,0.042-26.504,0.076-68.828,0.1l-8.279,0.022
		c-26.5,0.072-51.529,0.14-58.799,0.14l-1.729-0.002c-10.042-0.098-13.545-1.496-14.5-9.578c-0.009-0.075-0.022-0.15-0.04-0.224
		c-0.043-0.183-0.062-0.472-0.067-0.526c-0.011-0.31-0.045-2.552-0.031-2.847c0.005-0.059,0.008-0.118,0.008-0.177
		c0-3.612,0.019-10.053,0.042-16.712c-0.023-7.734-0.054-18.326-0.024-19.502c0.039-1.348,0.072-2.512,8.596-2.764
		c0,0,0.751-0.021,1.221-0.021l0.2,0.001l0.133-0.001c0.459,0,1.21,0.021,1.211,0.021c8.528,0.252,8.562,1.417,8.603,2.787
		c0.041,1.019,0.012,8.964-0.019,17.376l-0.008,2.116c0.005,1.441,0.012,2.869,0.021,4.266c0.007,1.1,0.901,1.987,2,1.987
		c0.002,0,0.004,0,0.007,0c12.076-0.04,36.66-0.054,61.432-0.062l23.856-0.067c15.722-0.045,29.381-0.084,37.497-0.094
		c1.104-0.001,1.998-0.896,1.998-2c0-0.778,0.007-1.565,0.015-2.361l0.013-1.683c-0.033-8.469-0.065-18.339-0.033-19.497
		c0.041-1.35,0.076-2.515,8.607-2.768c0,0,0.749-0.021,1.211-0.021l0.196,0.001l0.135-0.001c0.464,0,1.217,0.021,1.218,0.021
		c8.53,0.252,8.562,1.416,8.6,2.779c0.035,0.97,0.012,8.312-0.012,16.086l-0.01,3.414c0.02,5.75,0.115,18.265,0.124,19.476
		C170.017,170.19,165.971,171.157,156.274,171.266z"/>
	<path style="fill:#231F20;" d="M59.697,45.81c0.367,0.289,0.803,0.428,1.235,0.428c0.592,0,1.179-0.262,1.573-0.763l21.891-27.819
		c0.683-0.868,0.533-2.125-0.335-2.809c-0.869-0.685-2.126-0.534-2.809,0.335L59.362,43.001
		C58.679,43.869,58.829,45.126,59.697,45.81z"/>
	<path style="fill:#231F20;" d="M82.913,126.521h-7.297c-1.32,0-2.33-0.384-3.087-1.175c-1.579-1.649-1.803-4.784-1.754-5.947
		v-17.786c0-1.104-0.896-2-2-2s-2,0.896-2,2l0.002,17.687c-0.028,0.564-0.188,5.606,2.845,8.794c1.51,1.587,3.583,2.427,5.994,2.427
		h7.297c1.104,0,2-0.896,2-2S84.017,126.521,82.913,126.521z"/>
	<path style="fill:#231F20;" d="M28.098,164.181H18.064c-2.686,0-4.641-0.651-5.81-1.937c-1.528-1.679-1.324-4.043-1.323-4.051
		c0.008-0.074,0.012-0.147,0.012-0.221v-21.891c0-1.104-0.896-2-2-2s-2,0.896-2,2v21.809c-0.054,0.749-0.157,4.242,2.306,6.994
		c1.958,2.188,4.924,3.297,8.815,3.297h10.034c1.104,0,2-0.896,2-2S29.202,164.181,28.098,164.181z"/>
</g>
<g>
</g>
<g>
</g>
<g>
</g>
<g>
</g>
<g>
</g>
<g>
</g>
<g>
</g>
<g>
</g>
<g>
</g>
<g>
</g>
<g>
</g>
<g>
</g>
<g>
</g>
<g>
</g>
<g>
</g>
</svg>
