<?xml version="1.0" encoding="iso-8859-1"?>
<!-- Generator: Adobe Illustrator 18.0.0, SVG Export Plug-In . SVG Version: 6.00 Build 0)  -->
<!DOCTYPE svg PUBLIC "-//W3C//DTD SVG 1.1//EN" "http://www.w3.org/Graphics/SVG/1.1/DTD/svg11.dtd">
<svg version="1.1" id="Capa_1" xmlns="http://www.w3.org/2000/svg" xmlns:xlink="http://www.w3.org/1999/xlink" x="0px" y="0px"
	 viewBox="0 0 186.133 188.906" style="enable-background:new 0 0 186.133 188.906;" xml:space="preserve">
<g>
	<path style="fill:#231F20;" d="M99.064,65.689c-0.587-0.122-1.202,0.026-1.67,0.406c-0.467,0.38-0.738,0.95-0.738,1.552v10.807
		c0,1.672-1.486,3.033-3.313,3.033s-3.313-1.36-3.313-3.033V67.647c0-0.602-0.271-1.172-0.738-1.552s-1.082-0.529-1.67-0.406
		c-11.367,2.37-20.16,11.677-21.879,23.16c-0.086,0.576,0.083,1.161,0.462,1.602s0.933,0.695,1.515,0.695l10.731,0.002
		c0.763,0,1.492,0.31,2.053,0.872c0.635,0.637,0.984,1.504,0.983,2.446c0,1.826-1.364,3.312-3.04,3.312l-10.119-0.002h0
		c-0.622,0-1.209,0.29-1.587,0.784c-0.379,0.494-0.506,1.136-0.344,1.737c2.711,10.051,11.042,17.917,21.225,20.041
		c0.135,0.028,0.272,0.042,0.408,0.042c0.456,0,0.902-0.156,1.262-0.448c0.467-0.38,0.738-0.95,0.738-1.552v-7.926
		c0-1.676,1.486-3.04,3.313-3.04s3.313,1.364,3.313,3.04v7.926c0,0.602,0.271,1.172,0.738,1.552s1.08,0.53,1.67,0.406
		c10.187-2.125,18.518-9.997,21.224-20.055c0.162-0.601,0.035-1.242-0.344-1.736c-0.378-0.494-0.965-0.784-1.587-0.784
		l-10.671-0.003c-1.677,0-3.042-1.488-3.042-3.317c0-1.825,1.365-3.31,3.042-3.31l11.273,0.002h0c0.582,0,1.136-0.254,1.516-0.695
		c0.38-0.441,0.549-1.026,0.462-1.602C119.214,77.361,110.424,68.059,99.064,65.689z M107.687,87.131
		c-3.883,0-7.042,3.279-7.042,7.31c0,4.035,3.159,7.317,7.042,7.317l7.906,0.002c-2.619,6.624-8.162,11.831-14.936,14.021v-5.329
		c0-3.882-3.281-7.04-7.313-7.04s-7.313,3.158-7.313,7.04v5.329c-6.77-2.188-12.312-7.39-14.934-14.006l7.351,0.002
		c3.882,0,7.04-3.28,7.04-7.308c0.003-2.008-0.761-3.882-2.152-5.275c-1.317-1.32-3.052-2.046-4.883-2.046l-8.292-0.002
		c2.014-7.962,8.056-14.394,15.871-16.905v8.213c0,3.878,3.281,7.033,7.313,7.033s7.313-3.155,7.313-7.033v-8.212
		c7.808,2.51,13.847,8.936,15.863,16.892L107.687,87.131z"/>
	<path style="fill:#231F20;" d="M179.093,87.148l-2.305,0c-2.838-41.077-35.107-73.91-76.132-77.457V7.042
		c0-3.883-3.281-7.042-7.313-7.042s-7.313,3.159-7.313,7.042V9.69c-41.018,3.546-73.286,36.372-76.13,77.441l-2.857,0
		C3.159,87.131,0,90.411,0,94.441c0,4.035,3.159,7.317,7.042,7.317l3.125,0.001c2.006,19.241,10.674,37.248,24.531,50.88
		c13.868,13.642,32.033,22.011,51.333,23.69v5.533c0,3.884,3.281,7.044,7.313,7.044s7.313-3.16,7.313-7.044v-5.533
		c19.295-1.678,37.458-10.045,51.326-23.685c13.857-13.629,22.527-31.631,24.537-50.868l2.57,0c3.884,0,7.044-3.28,7.044-7.312
		C186.133,90.431,182.975,87.148,179.093,87.148z M179.089,97.777l-4.392-0.001c0,0,0,0,0,0c-1.041,0-1.908,0.799-1.993,1.836
		c-1.558,18.97-9.913,36.791-23.526,50.18c-13.63,13.406-31.618,21.463-50.649,22.686c-1.052,0.068-1.872,0.941-1.872,1.996v7.387
		c0,1.678-1.486,3.044-3.313,3.044s-3.313-1.366-3.313-3.044v-7.387c0-1.055-0.819-1.928-1.872-1.996
		c-19.036-1.224-37.025-9.282-50.656-22.691c-13.613-13.393-21.966-31.217-23.521-50.191c-0.085-1.038-0.952-1.836-1.993-1.837
		l-4.947-0.001C5.365,97.759,4,96.271,4,94.441c0-1.825,1.365-3.31,3.042-3.31l4.745,0.001c0,0,0,0,0,0
		c1.068,0,1.948-0.839,1.998-1.907c1.896-40.543,33.869-73.081,74.373-75.684c1.052-0.068,1.872-0.941,1.872-1.996V7.042
		C90.029,5.365,91.516,4,93.343,4s3.313,1.365,3.313,3.042v4.503c0,1.055,0.819,1.928,1.872,1.996
		c40.511,2.604,72.485,35.148,74.375,75.699c0.05,1.067,0.929,1.907,1.998,1.907l4.193,0.001c1.676,0,3.04,1.488,3.04,3.318
		C182.133,96.292,180.767,97.777,179.089,97.777z"/>
	<path style="fill:#231F20;" d="M21,87.425c0.129,0.025,0.258,0.038,0.385,0.038c0.938,0,1.775-0.663,1.961-1.618
		c4.45-22.83,16.375-40.459,35.445-52.398C73.087,24.496,86.269,22.28,86.4,22.259c1.09-0.177,1.831-1.204,1.655-2.293
		s-1.203-1.831-2.291-1.656c-0.564,0.091-13.989,2.328-28.956,11.66C42.97,38.597,25.251,55.161,19.42,85.08
		C19.208,86.164,19.916,87.214,21,87.425z"/>
	<path style="fill:#231F20;" d="M86.398,164.48c-0.523-0.084-52.42-9.036-63.053-63.586c-0.211-1.083-1.259-1.793-2.346-1.58
		c-1.084,0.211-1.792,1.261-1.58,2.346c5.832,29.918,23.55,46.482,37.388,55.11c14.967,9.332,28.392,11.569,28.956,11.66
		c0.107,0.017,0.214,0.026,0.32,0.026c0.965,0,1.814-0.7,1.972-1.683C88.231,165.682,87.489,164.656,86.398,164.48z"/>
</g>
<g>
</g>
<g>
</g>
<g>
</g>
<g>
</g>
<g>
</g>
<g>
</g>
<g>
</g>
<g>
</g>
<g>
</g>
<g>
</g>
<g>
</g>
<g>
</g>
<g>
</g>
<g>
</g>
<g>
</g>
</svg>
