<?xml version="1.0" encoding="iso-8859-1"?>
<!-- Generator: Adobe Illustrator 18.0.0, SVG Export Plug-In . SVG Version: 6.00 Build 0)  -->
<!DOCTYPE svg PUBLIC "-//W3C//DTD SVG 1.1//EN" "http://www.w3.org/Graphics/SVG/1.1/DTD/svg11.dtd">
<svg version="1.1" id="Capa_1" xmlns="http://www.w3.org/2000/svg" xmlns:xlink="http://www.w3.org/1999/xlink" x="0px" y="0px"
	 viewBox="0 0 159.469 187.341" style="enable-background:new 0 0 159.469 187.341;" xml:space="preserve">
<g>
	<path style="fill:#231F20;" d="M69.812,80.109L43.584,80.12c-0.531,0-1.04,0.211-1.416,0.587c-0.375,0.376-0.585,0.886-0.584,1.417
		c0.01,5.181,0.038,16.57,0.068,28.859c0.043,17.637,0.091,37.126,0.096,42.768c0.001,1.104,0.896,1.998,2,1.998h26.253
		c0.531,0,1.04-0.211,1.415-0.587c0.376-0.376,0.586-0.886,0.585-1.417c-0.018-9.796-0.137-59.21-0.188-71.646
		C71.808,80.999,70.914,80.109,69.812,80.109z M45.745,151.749c-0.011-7.376-0.054-24.833-0.093-40.775
		c-0.027-10.889-0.053-21.072-0.064-26.854l22.232-0.01c0.052,14.121,0.151,55.092,0.177,67.64H45.745z"/>
	<path style="fill:#231F20;" d="M114.328,80.07c-3.957,0-8.096,0.005-12.354,0.01c-4.515,0.005-9.165,0.01-13.88,0.01
		c-0.531,0-1.04,0.211-1.416,0.587c-0.375,0.376-0.585,0.886-0.584,1.417c0.018,9.444,0.094,39.694,0.141,58.249l0.034,13.412
		c0.003,1.103,0.897,1.995,2,1.995c9.249,0,18.248,0,26.249-0.023c1.104-0.003,1.996-0.9,1.994-2.004
		c-0.021-10.701-0.152-59.962-0.184-71.657C116.325,80.962,115.431,80.07,114.328,80.07z M90.264,151.749l-0.029-11.417
		c-0.044-17.396-0.113-45.072-0.137-56.243c4.03-0.002,8.005-0.006,11.88-0.01c3.548-0.004,7.011-0.008,10.355-0.01
		c0.037,13.664,0.146,54.597,0.175,67.661C105.611,151.748,98.046,151.749,90.264,151.749z"/>
	<path style="fill:#231F20;" d="M159.249,62.296c0.741-2.521-0.409-5.382-3.157-7.85c-0.042-0.038-0.086-0.074-0.132-0.108
		l-8.829-6.661C128.508,33.626,93.844,7.473,89.129,3.99C86.28,1.892,83.96,0.497,81.44,0.142c-0.334-0.136-0.68-0.17-1.12-0.12
		c-0.365-0.043-0.752-0.021-1.085,0.114c-2.548,0.347-4.867,1.746-7.704,3.854c-4.811,3.542-41.376,31.126-58.948,44.382
		l-7.908,5.966c-0.046,0.034-0.091,0.071-0.134,0.109c-2.56,2.303-3.722,4.898-3.271,7.308c0.233,1.246,0.876,2.331,1.868,3.189
		c-0.576,1.219-0.879,2.829-0.904,4.822C2.211,69.888,2.2,70.011,2.2,70.136c0.006,2.801,0.029,3.46,0.051,4.042
		c0.016,0.425,0.028,0.786,0.028,2.06c-0.009,3.133,0.642,5.379,1.935,6.675c0.803,0.806,1.828,1.231,2.964,1.231
		c0.19,0,6.403,0,16.132-0.007c0.05,14.358,0.155,55.311,0.178,67.622H12.967c-1.319,0-2.454,0.443-3.282,1.282
		c-0.582,0.591-1.262,1.646-1.342,3.393c-0.03,0.141-0.046,0.285-0.045,0.431c0.006,1.513,0.035,1.888,0.061,2.219
		c0.016,0.201,0.027,0.372,0.027,0.951c-0.004,0.337,0.016,0.661,0.057,0.973l-3.428,0.002c-1.072,0-2.052,0.415-2.833,1.201
		c-1.411,1.419-2.112,3.953-2.14,7.739C0.014,170.084,0,170.223,0,170.364c0.008,3.453,0.031,4.297,0.051,4.993
		c0.015,0.548,0.027,1.002,0.027,2.631c-0.008,4.022,0.698,6.688,2.156,8.149c0.786,0.788,1.774,1.204,2.858,1.204
		c0.213,0,7.904-0.006,19.687-0.014c38.569-0.028,120.985-0.088,128.471-0.088h0.568c5.114-0.061,5.114-6.832,5.114-9.381
		c0-1.587-0.009-2.091-0.018-2.613c-0.009-0.548-0.019-1.116-0.019-3.039v-1.947c0-2.312,0-9.35-5.171-9.35l-3.99,0.002
		c0.031-0.283,0.048-0.585,0.048-0.908c0-0.727-0.011-0.944-0.021-1.189c-0.009-0.198-0.019-0.417-0.023-1.031
		c0.005-0.059,0.008-0.117,0.008-0.176v-0.801c0-3.234-1.759-5.09-4.825-5.09c-0.05,0-3.86,0-10.146,0.007
		c-0.019-9.203-0.078-32.399-0.122-50.039l-0.045-17.615c9.89-0.007,16.182-0.007,16.264-0.007c3.327-0.041,5.014-2.706,5.014-7.92
		c0-1.385-0.01-1.757-0.022-2.221c-0.01-0.37-0.021-0.801-0.03-1.899c0.03-0.137,0.045-0.279,0.045-0.425
		c0-0.101-0.007-0.199-0.021-0.295l-0.007-1.271c0-1.519-0.13-2.784-0.399-3.833C157.399,65.38,158.739,64.026,159.249,62.296z
		 M155.411,61.167c-0.247,0.839-1.398,1.501-3.081,1.771c-0.724,0.116-1.326,0.619-1.569,1.312s-0.088,1.462,0.404,2.005
		c0.16,0.178,0.685,0.975,0.685,3.775l0.007,1.242c-0.019,0.11-0.027,0.224-0.026,0.337c0.01,1.479,0.023,1.987,0.035,2.417
		c0.012,0.442,0.021,0.797,0.021,2.115c0,1.782-0.185,3.909-1.038,3.92c-0.063,0-7.208,0-18.245,0.008
		c-0.531,0-1.04,0.212-1.415,0.588s-0.585,0.886-0.584,1.417l0.05,19.62c0.048,19.108,0.113,44.739,0.126,52.035
		c0.002,1.103,0.896,1.996,2,1.996c0.001,0,0.002,0,0.003,0c7.463-0.01,12.084-0.01,12.139-0.01c0.434,0,0.63,0.078,0.663,0.104
		c0.001,0.002,0.162,0.215,0.162,0.986v0.613c-0.006,0.065-0.009,0.132-0.009,0.198c0.005,0.858,0.018,1.131,0.028,1.377
		c0.01,0.208,0.018,0.393,0.018,1.009c0,0.784-0.155,0.995-0.217,1.021c-0.923,0.32-1.479,1.26-1.316,2.223
		c0.162,0.963,0.995,1.667,1.972,1.667h0.001l7.511-0.004c0.561,0,1.163,1.674,1.163,5.35v1.947c0,1.966,0.01,2.547,0.02,3.106
		c0.009,0.509,0.017,1,0.017,2.546c0,3.962-0.626,5.375-1.09,5.382c-0.012-0.001-0.213-0.001-0.593-0.001
		c-7.485,0-89.903,0.06-128.474,0.088c-11.676,0.008-19.333,0.014-19.676,0.014c-0.114-0.102-1.03-1.062-1.022-5.35
		c0-1.701-0.013-2.174-0.029-2.744c-0.018-0.654-0.039-1.441-0.048-4.486c0.028-0.135,0.042-0.273,0.041-0.414
		c-0.025-4.461,0.986-5.329,0.974-5.338l7.141-0.004c0.997,0,1.841-0.734,1.979-1.722s-0.471-1.926-1.429-2.201
		c-0.22-0.062-0.328-0.4-0.321-1.026c0-0.791-0.019-1.016-0.039-1.279c-0.018-0.225-0.038-0.499-0.047-1.543
		c0.025-0.132,0.038-0.268,0.036-0.404c-0.009-0.606,0.119-0.9,0.196-0.979c0.042-0.042,0.181-0.092,0.435-0.092H25.49
		c0.531,0,1.04-0.211,1.415-0.587c0.375-0.375,0.586-0.885,0.585-1.416c-0.013-9.378-0.14-58.818-0.188-71.628
		c-0.004-1.102-0.898-1.992-2-1.992h-0.001c-10.866,0.008-17.921,0.008-18.124,0.008c-0.067,0-0.078-0.002-0.132-0.056
		c-0.079-0.08-0.775-0.863-0.767-3.845c0-1.369-0.015-1.756-0.031-2.211c-0.018-0.499-0.04-1.114-0.047-3.548
		c0.021-0.118,0.032-0.239,0.031-0.362c-0.014-2.885,0.654-3.804,0.834-3.892c0.715-0.351,1.154-1.093,1.117-1.889
		s-0.543-1.494-1.288-1.776c-0.689-0.263-1.544-0.743-1.693-1.545c-0.177-0.944,0.553-2.265,1.953-3.543l7.837-5.912
		C32.559,38.314,69.11,10.739,73.909,7.206c2.886-2.144,4.618-3.024,6.183-3.141c0.075-0.005,0.15-0.016,0.224-0.03
		c0.075,0.015,0.151,0.024,0.229,0.03c1.555,0.116,3.297,0.998,6.209,3.144c4.697,3.469,39.351,29.615,57.968,43.661l8.759,6.607
		C154.949,58.817,155.688,60.226,155.411,61.167z"/>
	<path style="fill:#231F20;" d="M76.922,12.152L17.986,55.808c-0.888,0.658-1.074,1.91-0.417,2.798
		c0.393,0.529,0.997,0.81,1.609,0.81c0.413,0,0.831-0.128,1.188-0.393l58.936-43.656c0.888-0.658,1.074-1.91,0.417-2.798
		C79.062,11.682,77.808,11.493,76.922,12.152z"/>
	<path style="fill:#231F20;" d="M34.273,81.064c-1.104,0-2,0.896-2,2v67.121c0,1.104,0.896,2,2,2s2-0.896,2-2V83.064
		C36.273,81.959,35.378,81.064,34.273,81.064z"/>
	<path style="fill:#231F20;" d="M8.809,165.648c-1.104,0-2,0.896-2,2v11.459c0,1.104,0.896,2,2,2s2-0.896,2-2v-11.459
		C10.809,166.543,9.913,165.648,8.809,165.648z"/>
</g>
<g>
</g>
<g>
</g>
<g>
</g>
<g>
</g>
<g>
</g>
<g>
</g>
<g>
</g>
<g>
</g>
<g>
</g>
<g>
</g>
<g>
</g>
<g>
</g>
<g>
</g>
<g>
</g>
<g>
</g>
</svg>
