<?xml version="1.0" encoding="iso-8859-1"?>
<!-- Generator: Adobe Illustrator 18.0.0, SVG Export Plug-In . SVG Version: 6.00 Build 0)  -->
<!DOCTYPE svg PUBLIC "-//W3C//DTD SVG 1.1//EN" "http://www.w3.org/Graphics/SVG/1.1/DTD/svg11.dtd">
<svg version="1.1" id="Capa_1" xmlns="http://www.w3.org/2000/svg" xmlns:xlink="http://www.w3.org/1999/xlink" x="0px" y="0px"
	 viewBox="0 0 177.801 190.039" style="enable-background:new 0 0 177.801 190.039;" xml:space="preserve">
<g>
	<path style="fill:#231F20;" d="M145.459,45.326h-28.927c-1.104,0-2,0.896-2,2v50.143c0,1.104,0.896,2,2,2h28.927
		c1.104,0,2-0.896,2-2V47.326C147.459,46.222,146.563,45.326,145.459,45.326z M143.459,95.469h-24.927V49.326h24.927V95.469z"/>
	<path style="fill:#231F20;" d="M61.264,70.188H32.335c-1.104,0-2,0.896-2,2v25.281c0,1.104,0.896,2,2,2h28.929c1.104,0,2-0.896,2-2
		V72.188C63.264,71.083,62.368,70.188,61.264,70.188z M59.264,95.469H34.335V74.188h24.929V95.469z"/>
	<path style="fill:#231F20;" d="M103.364,21.541H74.434c-1.104,0-2,0.896-2,2v73.928c0,1.104,0.896,2,2,2h28.931
		c1.104,0,2-0.896,2-2V23.541C105.364,22.437,104.469,21.541,103.364,21.541z M101.364,95.469H76.434V25.541h24.931V95.469z"/>
	<path style="fill:#231F20;" d="M175.801,15.947c1.104,0,2-0.896,2-2V2c0-1.104-0.896-2-2-2H2C0.896,0,0,0.896,0,2v11.947
		c0,1.104,0.896,2,2,2h5.495V104.5H2c-1.104,0-2,0.896-2,2v10.658c0,1.104,0.896,2,2,2h44.989l-4.995,10.402
		c-0.035,0.071-0.064,0.144-0.089,0.218l-27.523,57.337c-0.297,0.618-0.256,1.347,0.109,1.928c0.365,0.582,1.002,0.936,1.688,0.938
		l20.127,0.059c0.002,0,0.004,0,0.006,0c0.769,0,1.47-0.441,1.803-1.135l33.464-69.746h5.992v11.268c0,0.07,0.003,0.139,0.011,0.207
		v57.406c0,1.104,0.896,2,2,2H97.74c1.104,0,2-0.896,2-2v-68.881h5.985l5.819,12.133c0.029,0.062,0.062,0.121,0.098,0.179
		l27.554,57.435c0.333,0.693,1.034,1.135,1.803,1.135c0.002,0,0.004,0,0.006,0l20.609-0.059c0.688-0.002,1.327-0.357,1.691-0.942
		c0.364-0.584,0.402-1.314,0.101-1.933l-33.075-67.947h45.469c1.104,0,2-0.896,2-2V106.5c0-1.104-0.896-2-2-2h-5.505V15.947H175.801
		z M35.055,186.035l-15.696-0.046l26.257-54.698c0.034-0.071,0.063-0.144,0.089-0.218l5.64-11.745h15.716L35.055,186.035z
		 M95.74,186.039H81.581v-55.613c0-0.07-0.003-0.14-0.011-0.207v-10.891h14.17V186.039z M142.256,186.035l-27.093-56.475
		c-0.03-0.062-0.062-0.121-0.098-0.179l-4.822-10.054h15.723l32.449,66.661L142.256,186.035z M168.296,108.5h5.505v6.658H4V108.5
		h5.495c1.104,0,2-0.896,2-2V13.947c0-1.104-0.896-2-2-2H4V4h169.801v7.947h-5.505c-1.104,0-2,0.896-2,2V106.5
		C166.296,107.604,167.191,108.5,168.296,108.5z"/>
	<path style="fill:#231F20;" d="M17.66,11.562c-1.104,0-2,0.896-2,2v90.022c0,1.104,0.896,2,2,2s2-0.896,2-2V13.562
		C19.66,12.458,18.764,11.562,17.66,11.562z"/>
	<path style="fill:#231F20;" d="M39.281,92.826c1.104,0,2-0.896,2-2v-12.58c0-1.104-0.896-2-2-2s-2,0.896-2,2v12.58
		C37.281,91.931,38.176,92.826,39.281,92.826z"/>
	<path style="fill:#231F20;" d="M82.344,91.04c1.104,0,2-0.896,2-2V31.252c0-1.104-0.896-2-2-2s-2,0.896-2,2V89.04
		C80.344,90.145,81.239,91.04,82.344,91.04z"/>
	<path style="fill:#231F20;" d="M124.621,93.005c1.104,0,2-0.896,2-2V54.053c0-1.104-0.896-2-2-2s-2,0.896-2,2v36.952
		C122.621,92.109,123.516,93.005,124.621,93.005z"/>
</g>
<g>
</g>
<g>
</g>
<g>
</g>
<g>
</g>
<g>
</g>
<g>
</g>
<g>
</g>
<g>
</g>
<g>
</g>
<g>
</g>
<g>
</g>
<g>
</g>
<g>
</g>
<g>
</g>
<g>
</g>
</svg>
