<?xml version="1.0" encoding="iso-8859-1"?>
<!-- Generator: Adobe Illustrator 18.0.0, SVG Export Plug-In . SVG Version: 6.00 Build 0)  -->
<!DOCTYPE svg PUBLIC "-//W3C//DTD SVG 1.1//EN" "http://www.w3.org/Graphics/SVG/1.1/DTD/svg11.dtd">
<svg version="1.1" id="Capa_1" xmlns="http://www.w3.org/2000/svg" xmlns:xlink="http://www.w3.org/1999/xlink" x="0px" y="0px"
	 viewBox="0 0 151.295 188.215" style="enable-background:new 0 0 151.295 188.215;" xml:space="preserve">
<g>
	<path style="fill:#231F20;" d="M39.978,85.508c5.734,0,10.399-4.666,10.399-10.4c0-5.739-4.665-10.408-10.399-10.408
		c-5.741,0-10.412,4.669-10.412,10.408C29.566,80.842,34.237,85.508,39.978,85.508z M39.978,68.699c3.528,0,6.399,2.875,6.399,6.408
		c0,3.529-2.871,6.4-6.399,6.4c-3.536,0-6.412-2.871-6.412-6.4C33.566,71.574,36.442,68.699,39.978,68.699z"/>
	<path style="fill:#231F20;" d="M40.153,116.059c5.737,0,10.404-4.669,10.404-10.408c0-5.737-4.667-10.404-10.404-10.404
		c-5.736,0-10.403,4.667-10.403,10.404C29.75,111.39,34.417,116.059,40.153,116.059z M40.153,99.246
		c3.531,0,6.404,2.873,6.404,6.404c0,3.533-2.873,6.408-6.404,6.408s-6.403-2.875-6.403-6.408
		C33.75,102.119,36.622,99.246,40.153,99.246z"/>
	<path style="fill:#231F20;" d="M40.679,125.787c-5.737,0-10.404,4.672-10.404,10.414c0,5.737,4.667,10.404,10.404,10.404
		c5.736,0,10.403-4.667,10.403-10.404C51.082,130.459,46.415,125.787,40.679,125.787z M40.679,142.605
		c-3.531,0-6.404-2.873-6.404-6.404c0-3.537,2.873-6.414,6.404-6.414s6.403,2.877,6.403,6.414
		C47.082,139.732,44.21,142.605,40.679,142.605z"/>
	<path style="fill:#231F20;" d="M134.013,32.229c-0.107,0-0.219,0.004-0.333,0.011c-0.932,0.003-12.244,0.006-28.355,0.006
		c-1.104,0-2,0.896-2,2l0.002,1.448c-0.039,0.711-0.307,1.904-1.732,1.904c-0.001,0-0.001,0-0.002,0
		c-1.574-0.04-10.157-0.048-17.081-0.048c-13.699,0-32.006,0.033-34.588,0.057c-0.818,0-1.071-0.271-1.154-0.359
		c-0.4-0.429-0.479-1.319-0.455-1.665c0.005-0.059,0.008-0.117,0.008-0.177v-1.16c0-1.104-0.896-2-2-2
		c-15.603,0-26.565-0.003-27.484-0.006c-2.235-0.135-3.701,1.191-3.89,3.426c-0.049,0.6-0.061,131.035-0.009,131.698
		c0.197,2.104,1.564,3.412,3.566,3.412c0.112,0,0.229-0.004,0.349-0.013c1.273-0.015,25.246-0.026,57.403-0.026
		c32.15,0,56.121,0.012,57.405,0.026c0.118,0.009,0.233,0.013,0.346,0.013c2.021,0,3.384-1.316,3.554-3.388
		c0.063-0.601,0.074-131.129,0.014-131.729C137.397,33.544,136.032,32.229,134.013,32.229z M133.577,166.767
		c-3.642-0.025-37.036-0.029-57.319-0.029c-20.307,0-53.755,0.004-57.33,0.029c-0.026-7.521-0.018-123.051,0.011-130.527
		c0.991,0.003,5.373,0.007,25.396,0.007c0.075,0.989,0.384,2.499,1.478,3.694c0.696,0.761,1.975,1.667,4.175,1.667
		c2.549-0.023,20.835-0.057,34.525-0.057c9.896,0,15.769,0.016,16.981,0.046l0.176,0.003c3.755,0,5.37-3.018,5.623-5.354
		c20.854,0,25.312-0.004,26.295-0.007C133.619,43.673,133.61,159.373,133.577,166.767z"/>
	<path style="fill:#231F20;" d="M151.272,33.392l-0.002-7.546c0-5.738-4.881-9.096-9.605-9.442c-0.147-0.034-0.3-0.052-0.453-0.052
		c-0.002,0-0.004,0-0.005,0l-33.882,0.088v-0.803c0-1.104-0.894-1.998-1.996-2c-3.709-0.007-8.475-0.008-13.923-0.008
		C90.364,5.953,83.746,0,75.815,0c-7.932,0-14.55,5.951-15.591,13.623H46.322c-1.104,0-2,0.896-2,2v0.979L9.323,16.693
		c-0.104,0-0.206,0.009-0.308,0.024c-5.757,0.911-8.862,6.409-8.984,9.22c-0.04,0.82-0.041,48.332-0.005,145.249l0.003,7.542
		c0,5.938,5.294,9.486,10.412,9.486c13.356,0,126.375-0.103,130.506-0.195c6.478-0.131,10.162-6.185,10.321-9.41
		C151.302,177.795,151.304,130.294,151.272,33.392z M147.272,178.429c-0.055,1.121-2.173,5.506-6.41,5.592
		c-4.114,0.093-117.069,0.194-130.421,0.194c-3.152,0-6.412-2.052-6.412-5.486l-0.003-7.544C3.981,52.945,4.003,27.029,4.027,26.121
		c0.04-0.931,1.831-4.762,5.472-5.428l36.828-0.096c1.103-0.003,1.995-0.897,1.995-2v-0.975h13.76c1.098,0,1.99-0.885,2-1.983
		C64.136,9.222,69.399,4,75.815,4c6.415,0,11.679,5.225,11.733,11.646c0.01,1.098,0.902,1.982,2,1.982c5.263,0,9.959,0,13.776,0.005
		v0.811c0,0.531,0.211,1.041,0.588,1.416c0.375,0.374,0.883,0.584,1.412,0.584c0.002,0,0.004,0,0.005,0l35.545-0.092
		c0.084,0.015,0.17,0.023,0.258,0.026c2.976,0.118,6.138,2.074,6.138,5.467l0.002,7.547
		C147.31,151.722,147.293,177.595,147.272,178.429z"/>
	<path style="fill:#231F20;" d="M120.156,72.08H58.462c-1.104,0-2,0.896-2,2s0.896,2,2,2h61.694c1.104,0,2-0.896,2-2
		S121.261,72.08,120.156,72.08z"/>
	<path style="fill:#231F20;" d="M120.156,104.404H58.462c-1.104,0-2,0.896-2,2s0.896,2,2,2h61.694c1.104,0,2-0.896,2-2
		S121.261,104.404,120.156,104.404z"/>
	<path style="fill:#231F20;" d="M120.156,133.729H58.462c-1.104,0-2,0.896-2,2s0.896,2,2,2h61.694c1.104,0,2-0.896,2-2
		S121.261,133.729,120.156,133.729z"/>
	<path style="fill:#231F20;" d="M15.886,25.644c0-1.104-0.896-2-2-2c-0.074,0-7.404,0.122-7.404,10.557c0,1.104,0.896,2,2,2
		s2-0.896,2-2c0-6.172,3.06-6.536,3.443-6.557C15.012,27.622,15.886,26.735,15.886,25.644z"/>
	<path style="fill:#231F20;" d="M9.031,46.16c-1.104,0-2,0.896-2,2v101.774c0,1.104,0.896,2,2,2s2-0.896,2-2V48.16
		C11.031,47.056,10.136,46.16,9.031,46.16z"/>
</g>
<g>
</g>
<g>
</g>
<g>
</g>
<g>
</g>
<g>
</g>
<g>
</g>
<g>
</g>
<g>
</g>
<g>
</g>
<g>
</g>
<g>
</g>
<g>
</g>
<g>
</g>
<g>
</g>
<g>
</g>
</svg>
