<?xml version="1.0" encoding="iso-8859-1"?>
<!-- Generator: Adobe Illustrator 18.0.0, SVG Export Plug-In . SVG Version: 6.00 Build 0)  -->
<!DOCTYPE svg PUBLIC "-//W3C//DTD SVG 1.1//EN" "http://www.w3.org/Graphics/SVG/1.1/DTD/svg11.dtd">
<svg version="1.1" id="Capa_1" xmlns="http://www.w3.org/2000/svg" xmlns:xlink="http://www.w3.org/1999/xlink" x="0px" y="0px"
	 viewBox="0 0 185.703 175.696" style="enable-background:new 0 0 185.703 175.696;" xml:space="preserve">
<g>
	<path style="fill:#231F20;" d="M184.044,54.719c-0.35-0.416-1.151-1.36-2.244-2.639c-1.016-1.214-1.785-2.118-2.168-2.569
		l-0.087-0.103c-1.373-1.576-2.813-2.343-4.406-2.343c-2.177,0-4.104,1.461-6.215,3.225c-0.74,0.616-4.541,3.834-9.63,8.155
		l-1.728,1.46c-2.597,2.193-4.711,3.979-6.116,5.172c-2.037-2.386-4.155-4.884-6.314-7.429l-0.818-0.966
		c0.502-0.425,1.116-0.945,1.826-1.546c1.669-1.416,3.871-3.281,6.393-5.411c5.092-4.309,8.878-7.522,9.627-8.158
		c2.754-2.372,6.527-5.621,2.63-10.322c-0.34-0.42-1.145-1.372-2.26-2.685l-2.25-2.648c-1.373-1.584-2.816-2.354-4.413-2.354
		c-2.185,0-4.11,1.465-6.22,3.233c-0.741,0.62-4.543,3.835-9.621,8.152c-3.606,3.046-6.562,5.545-8.242,6.967l-7.11-8.409
		c1.178-0.991,3.226-2.729,5.926-5.02l2.733-2.318c5.106-4.304,8.899-7.531,9.629-8.159c2.596-2.23,6.519-5.603,2.634-10.312
		c-0.346-0.428-1.152-1.381-2.258-2.682c-1.089-1.293-1.894-2.237-2.261-2.666C139.707,0.767,138.266,0,136.673,0
		c-2.184,0-4.109,1.467-6.21,3.23c-0.766,0.635-4.638,3.903-9.628,8.148c-3.913,3.302-7.062,5.969-8.658,7.325
		c-1.97-2.318-2.498-2.934-2.639-3.078c-1.229-1.34-4.105-2.765-7.016-2.765c-1.874,0-3.59,0.591-4.957,1.701
		c-2.56,2.063-70.73,60.009-77.341,65.65c-3.19,2.726-4.398,8.002-0.898,12.109c0.344,0.405,1.306,1.537,2.747,3.229
		c-1.04,0.879-2.543,2.152-4.37,3.701l-8.646,7.319c-2.567,2.171-4.328,3.66-4.775,4.053c-2.61,2.228-6.554,5.593-2.621,10.343
		c0.348,0.417,1.152,1.371,2.237,2.638c1.233,1.481,1.941,2.318,2.27,2.681c1.369,1.58,2.809,2.349,4.402,2.349
		c2.178,0,4.101-1.461,6.207-3.224c0.48-0.399,2.19-1.849,4.685-3.961l6.278-5.317c2.986-2.529,5.419-4.591,6.889-5.837
		c1.952,2.296,4.017,4.716,6.147,7.213l1.001,1.174c-1.521,1.28-4.543,3.843-8.685,7.356c-2.636,2.235-4.927,4.173-6.623,5.607
		c-1.579,1.336-2.645,2.236-2.997,2.539c-2.6,2.233-6.528,5.606-2.636,10.316c0.229,0.282,0.646,0.773,1.209,1.436l1.056,1.244
		c1.216,1.442,1.922,2.279,2.258,2.646c1.367,1.593,2.809,2.367,4.408,2.367c2.181,0,4.106-1.465,6.206-3.225
		c0.46-0.381,2.078-1.75,4.442-3.753l5.194-4.396c3.983-3.364,7.174-6.07,8.726-7.388c1.194,1.399,2.377,2.79,3.543,4.159
		c1.223,1.437,2.427,2.851,3.604,4.229c-1.363,1.146-4.775,4.029-9.115,7.716l-4.825,4.084c-2.563,2.169-4.322,3.658-4.806,4.072
		c-2.598,2.232-6.524,5.606-2.613,10.331c0.344,0.416,1.151,1.375,2.244,2.651c1.099,1.312,1.91,2.273,2.263,2.661
		c1.367,1.588,2.808,2.359,4.407,2.359c2.18,0,4.105-1.461,6.212-3.222c0.727-0.604,4.329-3.658,9.625-8.16
		c3.948-3.315,7.112-6.008,8.682-7.344l0.483-0.41c0.373,0.44,0.731,0.859,1.069,1.249c2.165,2.548,4.918,3.951,7.753,3.951
		c2.109,0,4.155-0.777,5.916-2.249c0.699-0.584,75.963-64.73,76.659-65.449c2.954-2.959,4.052-8.099-0.16-12.916
		c-0.381-0.433-0.785-0.892-1.205-1.373l7.734-6.554c5.322-4.481,8.938-7.558,9.615-8.154
		C184.03,62.838,187.973,59.473,184.044,54.719z M178.799,62.044c-0.694,0.612-4.464,3.815-9.576,8.121l-9.279,7.861
		c-0.405,0.345-0.657,0.836-0.7,1.365c-0.042,0.53,0.127,1.055,0.473,1.459c0.91,1.065,1.781,2.061,2.553,2.936
		c3.295,3.769,1.201,6.555,0.366,7.418c-2.304,2.037-72.333,61.816-76.426,65.239c-2.506,2.094-5.656,1.6-8.067-1.238
		c-0.688-0.795-1.447-1.694-2.244-2.64l-0.118-0.141c-0.356-0.423-0.872-0.68-1.425-0.708c-0.554-0.038-1.092,0.173-1.491,0.556
		c-0.299,0.287-0.614,0.557-0.95,0.843l-0.953,0.81c-1.566,1.333-4.722,4.019-8.671,7.334c-5.216,4.435-8.894,7.553-9.604,8.143
		c-0.959,0.803-2.746,2.295-3.651,2.295c-0.359,0-0.821-0.326-1.41-1.009c-0.364-0.401-1.313-1.529-2.207-2.597
		c-1.084-1.266-1.875-2.205-2.214-2.615c-1.082-1.307-1.408-1.701,2.135-4.746c0.479-0.41,2.231-1.894,4.785-4.055l4.828-4.087
		c5.073-4.31,8.873-7.518,9.617-8.137c0.348-0.295,0.665-0.555,0.989-0.81c0.428-0.337,0.7-0.834,0.754-1.376
		s-0.116-1.082-0.47-1.496c-1.589-1.859-3.236-3.793-4.92-5.771c-1.592-1.87-3.216-3.778-4.856-5.697
		c-0.345-0.404-0.837-0.654-1.367-0.695c-0.051-0.004-0.103-0.006-0.154-0.006c-0.477,0-0.939,0.17-1.303,0.483
		c-0.111,0.096-0.219,0.192-0.328,0.292c-0.089,0.081-0.179,0.163-0.279,0.249c-0.731,0.624-4.523,3.844-9.61,8.14l-5.197,4.399
		c-2.344,1.985-3.947,3.344-4.415,3.729c-0.959,0.805-2.745,2.301-3.648,2.301c-0.357,0-0.819-0.327-1.413-1.017
		c-0.341-0.375-1.2-1.395-2.198-2.578l-1.065-1.255c-0.535-0.629-0.932-1.095-1.161-1.378c-1.078-1.304-1.403-1.698,2.147-4.747
		c0.35-0.301,1.407-1.195,2.974-2.52c1.697-1.436,3.989-3.375,6.627-5.611c5.247-4.452,8.888-7.537,9.574-8.103l0.624-0.505
		c0.418-0.339,0.682-0.833,0.731-1.37c0.049-0.536-0.12-1.07-0.47-1.48l-2.32-2.72c-2.607-3.056-5.117-5.998-7.441-8.735
		c-0.372-0.438-0.914-0.695-1.489-0.706c-0.549,0.013-1.076,0.207-1.46,0.596c-0.675,0.577-3.874,3.287-8.274,7.015l-6.278,5.316
		c-2.481,2.102-4.182,3.543-4.663,3.943c-0.958,0.802-2.74,2.294-3.643,2.294c-0.359,0-0.823-0.325-1.407-1
		c-0.412-0.455-1.447-1.695-2.208-2.609c-1.088-1.271-1.88-2.211-2.218-2.615c-1.086-1.312-1.414-1.708,2.164-4.762
		c0.463-0.407,2.204-1.878,4.739-4.021l8.65-7.323c3.098-2.625,5.257-4.456,5.748-4.862c0.049-0.036,0.156-0.122,0.201-0.163
		c0.808-0.725,0.891-1.961,0.187-2.787c-2.164-2.537-3.61-4.238-4.052-4.759c-1.881-2.208-1.249-5.027,0.448-6.477
		c6.606-5.638,74.708-63.526,77.26-65.583c0.661-0.537,1.482-0.811,2.44-0.811c1.912,0,3.685,1.051,4.097,1.499
		c0.206,0.222,1.657,1.93,3.495,4.094l0.317,0.373c0.709,0.834,1.956,0.944,2.799,0.246c0.173-0.143,0.329-0.281,0.502-0.437
		l0.072-0.064c0.729-0.624,4.521-3.843,9.616-8.142c4.983-4.239,8.836-7.492,9.604-8.128C133.983,5.498,135.768,4,136.673,4
		c0.362,0,0.83,0.327,1.379,0.958c0.353,0.412,1.15,1.347,2.235,2.635c1.079,1.271,1.864,2.196,2.213,2.628
		c1.078,1.308,1.404,1.702-2.143,4.75c-0.729,0.626-4.51,3.844-9.604,8.138l-2.738,2.322c-3.635,3.084-6.26,5.312-6.831,5.775
		c-0.224,0.178-0.417,0.338-0.63,0.518c-0.405,0.343-0.658,0.832-0.702,1.361s0.124,1.054,0.467,1.459l9.713,11.487
		c0.347,0.41,0.845,0.663,1.38,0.703c0.541,0.031,1.065-0.14,1.469-0.494c0.066-0.059,0.119-0.109,0.176-0.167l0.02-0.016
		c0.923-0.781,4.625-3.914,9.538-8.062c5.07-4.311,8.862-7.518,9.603-8.137c0.959-0.804,2.745-2.301,3.652-2.301
		c0.362,0,0.83,0.328,1.379,0.962l2.234,2.631c1.088,1.279,1.872,2.206,2.217,2.631c1.08,1.303,1.405,1.695-2.137,4.746
		c-0.738,0.627-4.523,3.839-9.61,8.144c-2.523,2.131-4.726,3.998-6.396,5.414c-1.64,1.39-2.764,2.343-3.172,2.682
		c-0.051,0.04-0.099,0.08-0.146,0.122c-0.399,0.321-0.661,0.785-0.729,1.297c-0.074,0.56,0.093,1.124,0.458,1.555l2.117,2.495
		c2.626,3.097,5.192,6.122,7.625,8.963c0.347,0.405,0.841,0.654,1.373,0.693c0.528,0.041,1.056-0.135,1.459-0.485
		c0.95-0.826,3.741-3.183,7.604-6.445l1.732-1.463c5.078-4.312,8.866-7.52,9.607-8.136c0.961-0.803,2.75-2.297,3.653-2.297
		c0.361,0,0.829,0.326,1.373,0.951l0.071,0.083c0.38,0.447,1.142,1.345,2.163,2.564c1.095,1.28,1.889,2.215,2.224,2.614
		C182.055,58.59,182.381,58.986,178.799,62.044z"/>
	<path style="fill:#231F20;" d="M109.536,52.772c-4.698-5.559-6.235-7.374-6.436-7.589c-0.854-0.922-2.733-1.855-4.675-1.855
		c-1.281,0-2.458,0.406-3.386,1.163c-1.541,1.232-42.037,35.661-44.835,38.043c-2.16,1.853-2.973,5.432-0.598,8.209l1.905,2.237
		c5.912,6.943,23.434,27.522,30.396,35.691c1.42,1.66,3.242,2.574,5.131,2.574c0,0,0,0,0,0c1.419,0,2.791-0.516,3.976-1.499
		c0.411-0.346,44.065-37.57,44.451-37.966c1.92-1.919,2.724-5.433-0.051-8.612C129.912,76.879,117.157,61.788,109.536,52.772z
		 M132.667,88.921c-1.68,1.467-41.844,35.763-44.216,37.756c-1.12,0.929-2.413,0.67-3.502-0.602
		c-6.959-8.167-24.48-28.745-30.392-35.688l-1.908-2.24c-0.83-0.971-0.406-2.091,0.154-2.571
		c4.744-4.037,43.315-36.824,44.75-37.972c0.145-0.118,0.394-0.275,0.873-0.275c0.783,0,1.574,0.422,1.737,0.57
		c0.257,0.285,2.932,3.449,6.318,7.456c7.629,9.025,20.397,24.132,25.921,30.446C133.773,87.372,133.098,88.464,132.667,88.921z"/>
	<path style="fill:#231F20;" d="M99.925,25.736c-0.718-0.838-1.981-0.937-2.82-0.219L28.276,84.452
		c-0.839,0.719-0.937,1.981-0.218,2.82c0.396,0.462,0.956,0.699,1.52,0.699c0.46,0,0.923-0.158,1.3-0.48l68.829-58.935
		C100.546,27.838,100.644,26.575,99.925,25.736z"/>
	<path style="fill:#231F20;" d="M96.984,53.033L57.838,85.728c-0.848,0.708-0.961,1.97-0.253,2.817
		c0.396,0.474,0.964,0.718,1.536,0.718c0.452,0,0.907-0.152,1.281-0.465l39.146-32.694c0.848-0.708,0.961-1.97,0.253-2.817
		S97.832,52.325,96.984,53.033z"/>
</g>
<g>
</g>
<g>
</g>
<g>
</g>
<g>
</g>
<g>
</g>
<g>
</g>
<g>
</g>
<g>
</g>
<g>
</g>
<g>
</g>
<g>
</g>
<g>
</g>
<g>
</g>
<g>
</g>
<g>
</g>
</svg>
