<?xml version="1.0" encoding="iso-8859-1"?>
<!-- Generator: Adobe Illustrator 18.0.0, SVG Export Plug-In . SVG Version: 6.00 Build 0)  -->
<!DOCTYPE svg PUBLIC "-//W3C//DTD SVG 1.1//EN" "http://www.w3.org/Graphics/SVG/1.1/DTD/svg11.dtd">
<svg version="1.1" id="Capa_1" xmlns="http://www.w3.org/2000/svg" xmlns:xlink="http://www.w3.org/1999/xlink" x="0px" y="0px"
	 viewBox="0 0 174.836 175.528" style="enable-background:new 0 0 174.836 175.528;" xml:space="preserve">
<g>
	<path style="fill:#231F20;" d="M174.712,141.474l0.01-3.4c0.029-9.421,0.045-15.246,0.01-16.226
		c-0.147-5.314-4.318-6.409-12.484-6.65c0,0-0.825-0.022-1.332-0.022l-0.135,0.001l-0.196-0.001c-0.504,0-1.321,0.022-1.325,0.022
		c-8.159,0.241-12.331,1.335-12.491,6.648c-0.028,0.964-0.019,6.835,0.031,19.612l-0.013,1.649c-0.001,0.134-0.002,0.267-0.003,0.4
		c-8.262,0.012-21.012,0.049-35.517,0.091l-23.85,0.067c-23.476,0.008-46.787,0.021-59.444,0.057
		c-0.003-0.746-0.007-1.497-0.009-2.247l0.008-2.102c0.032-8.824,0.06-16.445,0.017-17.53c-0.156-5.312-4.326-6.406-12.486-6.646
		c0,0-0.823-0.022-1.325-0.022l-0.134,0.001l-0.199-0.001c-0.512,0-1.332,0.022-1.335,0.022c-8.158,0.241-12.329,1.335-12.48,6.654
		c-0.029,1.146-0.007,9.564,0.023,19.609c-0.023,6.626-0.042,13.05-0.042,16.672c-0.029,0.743,0.023,3.185,0.03,3.29
		c0.029,0.437,0.073,0.781,0.139,1.097c1.448,11.893,8.872,12.913,18.432,13.006l1.758,0.002c7.275,0,32.308-0.068,58.81-0.14
		l8.275-0.022c42.335-0.024,65.507-0.057,68.869-0.1c9.812-0.111,17.404-1.217,18.507-14.064c0.005-0.062,0.008-0.124,0.007-0.186
		C174.836,161.015,174.733,147.501,174.712,141.474z M156.274,171.266c-3.349,0.042-26.504,0.076-68.828,0.1l-8.279,0.022
		c-26.5,0.072-51.529,0.14-58.799,0.14l-1.729-0.002c-10.042-0.098-13.545-1.496-14.5-9.578c-0.009-0.075-0.022-0.15-0.04-0.224
		c-0.043-0.183-0.062-0.472-0.067-0.526c-0.011-0.31-0.045-2.552-0.031-2.847c0.005-0.059,0.008-0.118,0.008-0.177
		c0-3.612,0.019-10.053,0.042-16.712c-0.023-7.734-0.054-18.326-0.024-19.502c0.039-1.348,0.072-2.512,8.596-2.764
		c0,0,0.751-0.021,1.221-0.021l0.2,0.001l0.133-0.001c0.459,0,1.21,0.021,1.211,0.021c8.528,0.252,8.562,1.417,8.603,2.787
		c0.041,1.019,0.012,8.964-0.019,17.376l-0.008,2.116c0.005,1.441,0.012,2.869,0.021,4.266c0.007,1.1,0.901,1.987,2,1.987
		c0.002,0,0.004,0,0.007,0c12.076-0.04,36.66-0.054,61.432-0.062l23.856-0.067c15.722-0.045,29.381-0.084,37.497-0.094
		c1.104-0.001,1.998-0.896,1.998-2c0-0.778,0.007-1.565,0.015-2.361l0.013-1.683c-0.033-8.469-0.065-18.339-0.033-19.497
		c0.041-1.35,0.076-2.515,8.607-2.768c0,0,0.749-0.021,1.211-0.021l0.196,0.001l0.135-0.001c0.464,0,1.217,0.021,1.218,0.021
		c8.53,0.252,8.562,1.416,8.6,2.779c0.035,0.97,0.012,8.312-0.012,16.086l-0.01,3.414c0.02,5.75,0.115,18.265,0.124,19.476
		C170.017,170.19,165.971,171.157,156.274,171.266z"/>
	<path style="fill:#231F20;" d="M86.707,122.526c0.474,0,0.949-0.167,1.33-0.507c0.825-0.734,0.898-1.999,0.163-2.823L64.309,92.376
		c-0.735-0.826-2-0.898-2.823-0.163c-0.825,0.734-0.898,1.999-0.163,2.823l23.891,26.819
		C85.609,122.3,86.157,122.526,86.707,122.526z"/>
	<path style="fill:#231F20;" d="M65.734,36.331c0,1.104,0.896,2,2,2s2-0.896,2-2l-0.002-17.88c-0.046-1.069,0.178-4.204,1.756-5.853
		c0.757-0.791,1.767-1.175,3.087-1.175h7.297c1.104,0,2-0.896,2-2s-0.896-2-2-2h-7.297c-2.411,0-4.483,0.839-5.994,2.427
		c-3.033,3.188-2.873,8.23-2.847,8.695V36.331z"/>
	<path style="fill:#231F20;" d="M28.098,164.181H18.064c-2.686,0-4.641-0.651-5.81-1.937c-1.528-1.679-1.324-4.043-1.323-4.051
		c0.008-0.074,0.012-0.147,0.012-0.221v-21.891c0-1.104-0.896-2-2-2s-2,0.896-2,2v21.809c-0.054,0.749-0.157,4.242,2.306,6.994
		c1.958,2.188,4.924,3.297,8.815,3.297h10.034c1.104,0,2-0.896,2-2S29.202,164.181,28.098,164.181z"/>
	<path style="fill:#231F20;" d="M75.222,124.504c6.46,7.318,9.859,11.167,10.43,11.763c0.987,1.082,2.241,1.677,3.53,1.677
		c0,0,0,0,0,0c1.348,0,2.626-0.644,3.594-1.808c0.178-0.213,0.849-1.073,2.482-3.171c7.192-9.237,29.08-37.347,37.979-46.676
		c0.649-0.681,2.625-2.75,1.68-4.958c-0.916-2.14-3.731-2.387-5.77-2.387l-0.22,0.001c-0.618,0.017-4.763,0.061-10.499,0.122
		l-2.93,0.031l-0.09-60.592c-0.021-7.743-1.314-18.083-12.252-18.489C102.858,0.005,102.024,0,100.807,0
		c-7.132,0-28.189,0.172-30.064,0.246c-10.937,0.559-12.184,10.906-12.17,18.64c0.008,5.864,0.031,19.774,0.054,33.654l0.044,27.181
		c-3.622,0.036-6.717,0.07-9.037,0.096c-2.454,0.027-4.037,0.045-4.504,0.045c-2.314,0.055-4.562,0.355-5.326,2.167
		c-0.815,1.934,0.896,3.774,1.624,4.557C48.189,93.881,64.457,112.31,75.222,124.504z M45.178,83.861
		c0.424,0,2.023-0.018,4.501-0.045c2.732-0.03,6.538-0.072,11.015-0.115c1.099-0.011,1.982-0.905,1.981-2.003l-0.047-29.165
		c-0.023-13.879-0.046-27.789-0.054-33.653C62.552,6.391,66.585,4.464,70.925,4.242C72.536,4.178,93.325,4,100.807,4
		c1.141,0,1.923,0.003,2.202,0.014c4.342,0.162,8.365,2.03,8.399,14.5l0.093,62.609c0.001,0.533,0.215,1.044,0.595,1.419
		c0.379,0.375,0.888,0.56,1.427,0.577l4.948-0.053c5.97-0.063,9.913-0.105,10.527-0.122l0.15,0c0.741,0,1.262,0.046,1.622,0.102
		c-0.11,0.137-0.25,0.297-0.426,0.482c-9.038,9.474-31.019,37.703-38.241,46.979c-1.257,1.614-2.25,2.89-2.397,3.065
		c-0.228,0.273-0.42,0.371-0.523,0.371c-0.108,0-0.324-0.098-0.607-0.407c-0.575-0.602-4.891-5.491-10.354-11.68
		C67.458,109.665,51.202,91.25,44.39,83.896C44.615,83.88,44.876,83.868,45.178,83.861z"/>
</g>
<g>
</g>
<g>
</g>
<g>
</g>
<g>
</g>
<g>
</g>
<g>
</g>
<g>
</g>
<g>
</g>
<g>
</g>
<g>
</g>
<g>
</g>
<g>
</g>
<g>
</g>
<g>
</g>
<g>
</g>
</svg>
