<?xml version="1.0" encoding="iso-8859-1"?>
<!-- Generator: Adobe Illustrator 18.0.0, SVG Export Plug-In . SVG Version: 6.00 Build 0)  -->
<!DOCTYPE svg PUBLIC "-//W3C//DTD SVG 1.1//EN" "http://www.w3.org/Graphics/SVG/1.1/DTD/svg11.dtd">
<svg version="1.1" id="Capa_1" xmlns="http://www.w3.org/2000/svg" xmlns:xlink="http://www.w3.org/1999/xlink" x="0px" y="0px"
	 viewBox="0 0 612 792" style="enable-background:new 0 0 612 792;" xml:space="preserve">
<g>
	<path style="fill:#231F20;" d="M279.089,420.058l-44.405,0.59l-0.649-46.68l43.811-0.57c13.502-0.161,22.891-5.73,22.832-13.581
		l-0.331-24.717c-0.069-7.769-9.146-12.988-22.589-12.988l-44.487,0.6c-1.265-34.82-7.474-34.96-11.785-34.96
		c-0.016,0-0.036,0-0.056,0l-18.134,0.236c-4.701,0.039-6.933,3.78-8.107,7.526l-76.808,1.623
		c-7.884,0.154-15.387,3.632-21.13,9.795c-7.336,7.871-11.191,19.301-10.585,31.066l0.161,21.012l-57.658,0.806
		c-16.741,0.21-29.28,8.352-29.168,18.96l0.623,44.234c0.075,10.378,12.555,18.203,29.024,18.203l57.792-0.777l0.154,20.757
		c1.137,22.989,22.491,40.822,40.1,40.822l70.164-1.459c1.255,3.806,3.544,7.49,8.261,7.49c0.03,0,0.075,0,0.105,0l18.154-0.249
		c7.723-0.092,8.982-10.188,9.736-16.22c0.682-5.461,1.085-12.276,1.177-19.639l43.906-0.59c8.654-0.134,16.049-2.527,19.786-6.405
		c2.54-2.636,3.029-5.389,2.993-7.186l-0.334-24.697C301.55,425.286,292.486,420.058,279.089,420.058z M279.01,458.244
		l-50.357,0.675c-3.619,0.049-6.514,3.019-6.471,6.635c0.184,15.125-0.924,24.835-1.842,29.188l-10.431,0.144
		c-0.144-0.593-0.302-1.321-0.469-2.206c-0.587-3.104-3.298-5.34-6.441-5.34c-0.049,0-0.092,0-0.141,0l-75.166,1.567
		c-11.283,0-26.264-13.352-26.998-28.08L100.5,433.75c-0.013-1.747-0.721-3.416-1.97-4.638c-1.246-1.219-2.773-1.882-4.678-1.872
		l-63.745,0.862l-0.459,0.003c-10.313,0-15.636-3.96-15.912-5.232l-0.623-44.244c0.203-1.285,5.655-5.569,16.23-5.704l64.181-0.895
		c3.606-0.052,6.491-3.003,6.464-6.605l-0.22-27.811c-0.436-8.526,2.141-16.453,7.074-21.743c2.334-2.508,6.277-5.517,11.804-5.625
		l81.971-1.731c3.157-0.069,5.819-2.373,6.333-5.491c0.128-0.78,0.252-1.436,0.367-1.977l10.431-0.134
		c1.003,4.252,2.334,13.722,2.583,28.552c0.062,3.583,2.983,6.445,6.553,6.445c0.033,0,0.062,0,0.092,0l50.367-0.685l0.413-0.003
		c4.776,0,8.038,0.954,9.497,1.672l0.285,21.429c-1.446,0.764-4.822,1.905-9.86,1.964l-50.38,0.656
		c-1.737,0.023-3.396,0.738-4.612,1.983c-1.213,1.246-1.878,2.924-1.855,4.665l0.833,59.795c0.052,3.622,3.026,6.373,6.645,6.464
		l50.377-0.679l0.4-0.003c4.77,0,8.021,0.967,9.467,1.691l0.288,21.442C287.392,457.047,284.029,458.168,279.01,458.244z"/>
	<path style="fill:#231F20;" d="M611.415,370.933c-0.144-10.539-12.342-18.187-29.004-18.187l-58.297,0.751l-0.39-20.753
		c0.275-12.03-3.865-23.327-11.358-30.991c-5.851-5.986-13.388-9.283-21.429-9.283l-77.303,0.479
		c-1.229-4.537-3.55-8.995-8.811-8.995l-18.141,0.272c-7.772,0.105-9.021,10.342-9.769,16.459
		c-0.875,7.166-1.282,16.626-1.147,26.634l1.78,134.21c0.639,42.743,7.72,42.743,11.952,42.743c0.023,0,0.066,0,0.085,0l18.311-0.2
		c3.996-0.115,6.192-2.862,7.477-6.094l71.167-0.469c19.449-0.089,39.015-20.832,39.51-42.159l-0.387-20.426l57.179-0.77
		c7.156-0.095,13.958-1.698,19.157-4.517c6.432-3.488,10.077-8.746,10.001-14.423L611.415,370.933z M582.666,421.041l-63.775,0.862
		c-1.744,0.023-3.406,0.744-4.619,1.996c-1.216,1.252-1.878,2.94-1.846,4.684l0.515,26.739
		c-0.357,15.325-15.092,29.024-26.47,29.076l-70.976,0.465c-1.098-1.17-2.622-1.944-4.334-2.062
		c-3.36-0.252-6.415,2.177-6.933,5.546c-0.17,1.092-0.331,1.967-0.479,2.655l-10.437,0.115c-1.036-4.389-2.422-14.269-2.655-29.775
		l-1.78-134.2c-0.21-15.538,0.915-25.461,1.842-29.863l10.411-0.157c0.207,0.859,0.446,2.003,0.695,3.498
		c0.531,3.16,3.265,5.471,6.468,5.471c0.013,0,0.026,0,0.043,0l82.814-0.511c5.478,0,9.467,2.901,11.847,5.337
		c5.038,5.153,7.818,13.001,7.621,21.796l0.511,27.542c0.069,3.609,3.094,6.543,6.641,6.435l64.148-0.829l0.492-0.003
		c10.3,0,15.676,4.035,15.892,5.248l0.587,44.267C598.686,416.645,593.235,420.903,582.666,421.041z"/>
	<path style="fill:#231F20;" d="M115.723,351.225c3.619,0,6.556-2.937,6.556-6.556c0-5.202,1.272-9.005,3.78-11.306
		c3.786-3.471,9.68-3.062,9.896-3.035c3.642,0.348,6.779-2.255,7.159-5.838c0.377-3.603-2.236-6.828-5.835-7.205
		c-1.18-0.128-11.824-1.01-19.927,6.281c-5.428,4.888-8.182,11.988-8.182,21.104C109.167,348.288,112.101,351.225,115.723,351.225z"
		/>
	<path style="fill:#231F20;" d="M136.618,465.931c-5.199,0-9.002-1.272-11.299-3.78c-3.478-3.793-3.058-9.687-3.042-9.896
		c0.351-3.58-2.255-6.779-5.838-7.156c-3.58-0.37-6.825,2.232-7.205,5.835c-0.125,1.187-1.01,11.831,6.284,19.931
		c4.888,5.428,11.988,8.182,21.104,8.182c3.619,0,6.556-2.937,6.556-6.556S140.24,465.931,136.618,465.931z"/>
	<path style="fill:#231F20;" d="M410.057,321.641c-3.619,0-6.556,2.937-6.556,6.556v123.012c0,3.619,2.937,6.556,6.556,6.556
		s6.556-2.937,6.556-6.556V328.197C416.613,324.574,413.679,321.641,410.057,321.641z"/>
</g>
</svg>
