<?xml version="1.0" encoding="iso-8859-1"?>
<!-- Generator: Adobe Illustrator 18.0.0, SVG Export Plug-In . SVG Version: 6.00 Build 0)  -->
<!DOCTYPE svg PUBLIC "-//W3C//DTD SVG 1.1//EN" "http://www.w3.org/Graphics/SVG/1.1/DTD/svg11.dtd">
<svg version="1.1" id="Capa_1" xmlns="http://www.w3.org/2000/svg" xmlns:xlink="http://www.w3.org/1999/xlink" x="0px" y="0px"
	 viewBox="0 0 184.3 138.996" style="enable-background:new 0 0 184.3 138.996;" xml:space="preserve">
<g>
	<path style="fill:#231F20;" d="M72.028,65.044c-0.085,0.579,0.088,1.166,0.473,1.606c6.012,6.875,26.604,30.551,42.818,49.202
		c0.381,0.438,0.932,0.688,1.51,0.688c0.013,0,0.025,0,0.038,0c0.592-0.012,1.148-0.284,1.52-0.745
		c1.636-2.031,1.796-4.799,1.818-7.225c0.026-1.938,0.026-66.971,0-68.902c-0.013-0.764-0.034-1.58-0.111-2.368
		c-0.067-0.69-0.487-1.297-1.111-1.603c-0.624-0.304-1.362-0.266-1.947,0.106c-15.876,10.037-32.839,20.761-44.093,27.837
		C72.447,63.952,72.112,64.465,72.028,65.044z M116.211,41.058c0.021,9.545,0.019,65.663-0.006,67.468
		c-0.007,0.784-0.033,1.499-0.098,2.136c-14.616-16.81-31.967-36.758-39.055-44.88C87.523,59.191,102.126,49.962,116.211,41.058z"/>
	<path style="fill:#231F20;" d="M11.941,36.626l19.616,12.479c12.317,7.836,22.895,14.565,26.831,17.06
		c0.282,0.179,0.603,0.268,0.924,0.268s0.643-0.089,0.925-0.269c6.445-4.092,27.298-17.357,46.344-29.483
		c0.569-0.362,0.875-1.022,0.783-1.69c-0.092-0.669-0.564-1.222-1.21-1.417c-1.238-0.376-2.799-0.564-4.771-0.578
		c-1.157-0.009-22.715-0.012-42.255-0.012c-19.539,0-41.095,0.003-42.245,0.012c-1.772,0.01-3.233,0.177-4.466,0.508
		c-0.66,0.179-1.153,0.729-1.257,1.406S11.363,36.259,11.941,36.626z M59.129,36.435c17.713,0,37.082,0.003,41.396,0.01
		C83.548,47.252,66.086,58.359,59.311,62.663c-4.503-2.856-14.45-9.185-25.9-16.47l-15.326-9.749
		C23.004,36.438,41.853,36.435,59.129,36.435z"/>
	<path style="fill:#231F20;" d="M102.428,117.249c1.658-0.011,3.062-0.166,4.293-0.475c0.582-0.146,1.047-0.584,1.228-1.156
		c0.181-0.573,0.052-1.198-0.342-1.652C92.07,96.031,74.931,76.261,70.776,71.479c-0.558-0.644-1.505-0.785-2.226-0.329
		c-2.051,1.291-7.364,4.636-8.257,5.176c-0.098-0.079-0.204-0.148-0.317-0.205c-0.25-0.139-1.879-1.142-8.199-5.118
		c-0.723-0.457-1.669-0.314-2.228,0.331c-5.752,6.644-22.267,25.646-37.021,42.615c-0.394,0.453-0.524,1.077-0.346,1.65
		c0.179,0.572,0.642,1.012,1.224,1.159c1.253,0.32,2.685,0.48,4.378,0.491c2.235,0.015,10.649,0.001,20.91-0.023l0.596,0.023
		c2.229,0.016,10.562,0.001,20.816-0.023c7.471,0.018,13.92,0.028,17.731,0.028c1.424,0,2.479-0.001,3.154-0.006l0.482-0.022
		c7.517,0.018,14.014,0.028,17.85,0.028C100.757,117.254,101.818,117.253,102.428,117.249z M81.322,113.773l-0.418,0.019
		c-2.224,0.011-10.546-0.001-20.798-0.023c-7.473,0.017-13.921,0.028-17.731,0.028c-1.413,0-2.463-0.002-2.999-0.004l-0.543-0.022
		c-0.024-0.001-0.075-0.002-0.101-0.002h-0.001c-10.303,0.023-18.7,0.033-20.927,0.023c-0.188-0.002-0.37-0.005-0.55-0.01
		c13.421-15.437,27.786-31.967,33.937-39.064c5.274,3.316,6.595,4.127,6.999,4.363c1.03,0.868,2.447,0.974,3.641,0.33
		c0.229-0.117,0.964-0.556,7.307-4.546c5.145,5.926,19.813,22.848,33.737,38.919c-0.152,0.004-0.309,0.007-0.468,0.008
		c-2.233,0.01-10.623,0-20.925-0.023C81.457,113.769,81.346,113.772,81.322,113.773z"/>
	<path style="fill:#231F20;" d="M47.72,66.383c0.382-0.44,0.552-1.026,0.467-1.603c-0.086-0.577-0.419-1.088-0.912-1.399
		c-11.242-7.083-28.203-17.796-44.047-27.82c-0.585-0.369-1.319-0.411-1.941-0.109s-1.045,0.903-1.117,1.591
		c-0.089,0.846-0.139,1.704-0.154,2.637c-0.021,1.927-0.021,66.949,0,68.894c0.037,2.525,0.205,5.158,1.777,7.167
		c0.368,0.471,0.928,0.752,1.525,0.767c0.017,0.001,0.033,0.001,0.05,0.001c0.579,0,1.131-0.251,1.512-0.69
		c13.171-15.205,27.686-31.949,36.711-42.361L47.72,66.383z M4.116,110.589c-0.062-0.62-0.09-1.312-0.101-2.067
		c-0.02-1.813-0.021-59.049-0.004-67.732c14.073,8.902,28.689,18.135,39.16,24.734l-4.604,5.312
		C30.055,80.655,16.661,96.107,4.116,110.589z"/>
	<path style="fill:#231F20;" d="M184.035,35.009c-0.356-0.621-1.019-1.005-1.735-1.005h-19.448C150.349,12.999,127.569,0,103.114,0
		c-3.806,0-7.7,0.328-11.574,0.976c-0.963,0.161-1.67,0.995-1.67,1.972c0,0.978,0.705,1.812,1.669,1.974
		c18.223,3.06,34.118,13.586,44.114,29.083h-7.558c-0.738,0-1.417,0.407-1.765,1.059s-0.308,1.442,0.104,2.056l28.94,43.152
		c0.372,0.555,0.996,0.886,1.661,0.886c0.021,0,0.041,0,0.062-0.001c0.688-0.021,1.316-0.395,1.664-0.988l25.264-43.152
		C184.387,36.396,184.391,35.631,184.035,35.009z M156.921,75.395l-25.076-37.391h7.366c0.714,0,1.373-0.38,1.73-0.997
		s0.359-1.379,0.005-1.997c-8.381-14.622-21.517-25.509-37.037-31.005c23.109,0.283,44.535,12.87,56.059,32.993
		c0.356,0.622,1.019,1.006,1.735,1.006h17.108L156.921,75.395z"/>
	<path style="fill:#231F20;" d="M172.576,67.668c-0.021-0.894-0.632-1.665-1.498-1.89c-0.87-0.224-1.775,0.154-2.228,0.927
		l-10.99,18.781l-8.262-12.313c-0.477-0.709-1.351-1.041-2.176-0.818c-0.826,0.22-1.421,0.94-1.48,1.792
		c-2.13,30.268-24.501,54.909-54.403,59.924c-0.963,0.162-1.669,0.995-1.669,1.972s0.705,1.811,1.668,1.974
		c3.864,0.65,7.759,0.98,11.576,0.98c38.327,0,69.509-31.176,69.509-69.495c0-0.409-0.014-0.814-0.027-1.217L172.576,67.668z
		 M103.931,134.991c24.004-8.467,41.564-29.489,45.395-55.045l6.988,10.417c0.384,0.572,1.055,0.937,1.723,0.885
		c0.688-0.021,1.317-0.395,1.665-0.989l8.65-14.783C165.347,108.532,137.668,134.576,103.931,134.991z"/>
	<path style="fill:#231F20;" d="M9.012,49.892c-0.953,0-1.726,0.772-1.726,1.726v41.57c0,0.953,0.772,1.726,1.726,1.726
		s1.726-0.772,1.726-1.726v-41.57C10.738,50.664,9.966,49.892,9.012,49.892z"/>
	<path style="fill:#231F20;" d="M50.729,81.906l-22.235,25.618c-0.624,0.72-0.548,1.81,0.173,2.435
		c0.326,0.283,0.729,0.422,1.13,0.422c0.483,0,0.963-0.201,1.305-0.595l22.235-25.618c0.624-0.72,0.548-1.81-0.173-2.435
		C52.444,81.108,51.354,81.187,50.729,81.906z"/>
	<path style="fill:#231F20;" d="M151.104,92.009c-0.922-0.257-1.87,0.281-2.126,1.199c-0.047,0.169-4.856,17.028-16.854,27.181
		c-0.728,0.615-0.818,1.705-0.202,2.433c0.341,0.403,0.828,0.61,1.318,0.61c0.394,0,0.79-0.134,1.114-0.408
		c12.825-10.854,17.747-28.159,17.95-28.891C152.559,93.215,152.022,92.265,151.104,92.009z"/>
</g>
<g>
</g>
<g>
</g>
<g>
</g>
<g>
</g>
<g>
</g>
<g>
</g>
<g>
</g>
<g>
</g>
<g>
</g>
<g>
</g>
<g>
</g>
<g>
</g>
<g>
</g>
<g>
</g>
<g>
</g>
</svg>
