<?xml version="1.0" encoding="iso-8859-1"?>
<!-- Generator: Adobe Illustrator 18.0.0, SVG Export Plug-In . SVG Version: 6.00 Build 0)  -->
<!DOCTYPE svg PUBLIC "-//W3C//DTD SVG 1.1//EN" "http://www.w3.org/Graphics/SVG/1.1/DTD/svg11.dtd">
<svg version="1.1" id="Capa_1" xmlns="http://www.w3.org/2000/svg" xmlns:xlink="http://www.w3.org/1999/xlink" x="0px" y="0px"
	 viewBox="0 0 183.787 183.848" style="enable-background:new 0 0 183.787 183.848;" xml:space="preserve">
<g>
	<path style="fill:#231F20;" d="M91.894,66.377c-14.086,0-25.546,11.46-25.546,25.546c0,14.087,11.46,25.547,25.546,25.547
		c14.086,0,25.546-11.46,25.546-25.547C117.44,77.837,105.98,66.377,91.894,66.377z M91.894,113.47
		c-11.88,0-21.546-9.666-21.546-21.547s9.666-21.546,21.546-21.546c11.881,0,21.546,9.665,21.546,21.546
		S103.775,113.47,91.894,113.47z"/>
	<path style="fill:#231F20;" d="M183.741,85.021c-0.297-6.506-7.148-6.535-9.4-6.545c-4.012-0.016-16.457-0.058-24.368-0.084
		l-1.722-0.006c-0.018-2.754-0.031-4.63-0.034-4.959c-0.04-3.111-1.608-3.575-2.54-3.575c-0.034,0-0.079,0.001-0.125,0.003
		c-0.945,0.032-1.682,0.604-2.215,1.098c-3.27,2.998-11.546,10.231-17.022,15.017c-3.375,2.949-5.01,4.38-5.251,4.609
		c-0.457,0.399-0.781,0.903-0.965,1.498c-0.01,0.027-0.019,0.056-0.028,0.086c-0.043,0.125-0.081,0.269-0.099,0.388
		c-0.024,0.15-0.029,0.303-0.017,0.452c-0.001,0.917,0.416,1.788,1.185,2.441c0.089,0.075,0.599,0.478,1.415,1.119
		c4.105,3.229,16.597,13.053,20.715,17.029c0.824,0.793,1.624,1.178,2.446,1.178c0.666,0,1.292-0.261,1.765-0.735
		c0.854-0.858,0.958-2.128,0.953-3.127l-0.026-4.909c3.717,0.016,8.879,0.034,13.713,0.052c5.202,0.019,10.023,0.036,12.323,0.047
		c0.003,0,0.006,0,0.009,0c2.248,0,9.041-0.009,9.317-6.504C183.806,98.686,183.782,86.027,183.741,85.021z M179.773,99.428
		c-0.045,1.063-0.114,2.67-5.383,2.67c-2.227-0.011-7.05-0.028-12.255-0.047c-5.787-0.021-12.045-0.043-15.729-0.061
		c-0.003,0-0.006,0-0.009,0c-0.53,0-1.039,0.211-1.414,0.586c-0.377,0.377-0.588,0.89-0.586,1.424l0.028,5.219
		c-5.226-4.654-15.692-12.886-19.396-15.799c-0.229-0.18-0.432-0.34-0.605-0.477c0.913-0.804,2.626-2.302,4.525-3.962
		c4.661-4.073,11.345-9.915,15.284-13.444c0.008,1.215,0.019,2.89,0.031,4.855c0.007,1.097,0.896,1.983,1.993,1.987l3.703,0.013
		c7.911,0.026,20.354,0.068,24.365,0.084c5.297,0.022,5.372,1.65,5.42,2.717C179.782,86.1,179.806,98.607,179.773,99.428z"/>
	<path style="fill:#231F20;" d="M63.712,92.161c-0.005-0.018-0.011-0.034-0.016-0.051c-0.18-0.608-0.504-1.122-0.915-1.479
		c-0.299-0.283-1.951-1.727-5.357-4.704c-5.461-4.772-13.714-11.984-16.971-14.968c-0.539-0.499-1.276-1.071-2.221-1.104
		c-0.044-0.002-0.088-0.003-0.122-0.003c-0.929,0-2.495,0.464-2.543,3.602c0,0.323-0.012,2.19-0.032,4.934l-1.708,0.006
		c-7.911,0.026-20.368,0.068-24.379,0.084c-2.25,0.01-9.098,0.039-9.405,6.565c-0.029,0.81-0.064,13.523-0.023,14.554
		c0.268,6.477,7.034,6.502,9.373,6.502c0.009,0,0.019,0,0.027,0c2.227-0.011,7.048-0.028,12.25-0.047
		c4.833-0.018,9.994-0.036,13.711-0.052l-0.012,1.927c-0.01,1.673-0.017,2.759-0.017,2.978c-0.002,1.01,0.104,2.279,0.958,3.135
		c0.472,0.473,1.097,0.732,1.762,0.732c0.821,0,1.62-0.385,2.447-1.181c4.077-3.938,16.513-13.722,20.6-16.937
		c0.886-0.697,1.441-1.136,1.525-1.208c0.77-0.649,1.189-1.52,1.188-2.438c0.011-0.154,0.005-0.311-0.02-0.467
		C63.792,92.425,63.754,92.282,63.712,92.161z M58.643,93.51c-4.071,3.203-14.16,11.14-19.283,15.708
		c0.002-0.371,0.005-0.796,0.008-1.267l0.024-3.949c0.003-0.534-0.208-1.047-0.585-1.425c-0.375-0.376-0.884-0.587-1.415-0.587
		c-0.003,0-0.006,0-0.009,0c-3.684,0.018-9.942,0.04-15.729,0.061c-5.205,0.019-10.028,0.036-12.308,0.047
		c-5.22,0-5.287-1.605-5.33-2.665c-0.031-0.773-0.011-13.291,0.022-14.226c0.051-1.079,0.128-2.708,5.425-2.73
		c4.01-0.016,16.467-0.058,24.376-0.084l3.688-0.013c1.096-0.004,1.985-0.89,1.993-1.985c0.014-1.966,0.026-3.643,0.034-4.856
		c3.926,3.517,10.589,9.34,15.236,13.4c1.907,1.666,3.628,3.171,4.573,4.004C59.161,93.102,58.919,93.292,58.643,93.51z"/>
	<path style="fill:#231F20;" d="M86.52,57.365c2.886,3.355,4.405,5.12,4.663,5.398c0.526,0.586,1.2,0.958,1.947,1.073
		c0.099,0.016,0.197,0.022,0.295,0.022c0.056,0,0.112-0.002,0.167-0.007c0.001,0,0.001,0,0.002,0c0.914,0,1.773-0.409,2.426-1.159
		c0.079-0.091,0.51-0.629,1.198-1.488c3.252-4.066,13.148-16.439,17.13-20.504c1.407-1.441,1.323-2.651,1.004-3.412
		c-0.736-1.758-2.933-1.768-3.665-1.771c-0.292,0-2.152,0-4.898-0.01c0.069-5.683,0.173-14.749,0.243-20.847l0.059-5.113
		c0.026-2.258,0.104-9.13-6.408-9.448C99.817,0.055,90.465,0,87.331,0c-0.636,0-1.071,0.002-1.233,0.007
		c-6.511,0.246-6.588,7.097-6.614,9.346c-0.033,2.646-0.104,8.958-0.175,15.221l-0.124,10.874c-2.754-0.007-4.635-0.006-4.969-0.008
		c-1.106,0.009-2.234,0.132-2.988,0.967c-0.425,0.472-0.636,1.078-0.597,1.714c0.041,0.925,0.598,1.652,1.079,2.181
		C74.666,43.584,81.8,51.877,86.52,57.365z M81.154,39.453c0.002,0,0.005,0,0.007,0c1.095,0,1.987-0.881,2-1.977l0.146-12.858
		c0.071-6.26,0.142-12.57,0.175-15.218c0.06-5.294,1.688-5.355,2.75-5.396C86.365,4.001,86.758,4,87.331,4
		c3.597,0,12.462,0.059,13.156,0.095c1.062,0.052,2.667,0.13,2.607,5.407l-0.059,5.113c-0.079,6.884-0.201,17.55-0.268,22.858
		c-0.006,0.533,0.2,1.047,0.574,1.427c0.374,0.381,0.883,0.596,1.417,0.599c2.173,0.011,3.992,0.015,5.225,0.017
		c-4.619,5.104-12.646,15.141-15.886,19.19c-0.209,0.263-0.394,0.493-0.549,0.687c-0.807-0.931-2.318-2.688-3.994-4.636
		c-4.017-4.669-9.775-11.364-13.257-15.315C77.512,39.442,79.189,39.446,81.154,39.453z"/>
	<path style="fill:#231F20;" d="M97.334,122.363c-0.517-0.669-0.838-1.083-0.922-1.186c-0.64-0.761-1.495-1.185-2.412-1.197
		c-0.174-0.016-0.352-0.01-0.527,0.021c-0.092,0.016-0.205,0.045-0.308,0.078c-0.63,0.165-1.168,0.49-1.567,0.932
		c-0.286,0.298-1.751,1.947-4.773,5.351c-4.807,5.413-12.07,13.595-15.078,16.823c-0.494,0.527-1.062,1.247-1.116,2.169
		c-0.047,0.636,0.156,1.243,0.575,1.721c0.741,0.843,1.868,0.981,2.999,1.006l1.117,0.017c0.875,0.014,2.195,0.034,3.82,0.058
		l-0.025,5.468c-0.036,7.642-0.081,17.173-0.094,20.628c-0.008,2.249-0.032,9.092,6.483,9.451
		c0.915,0.047,10.813,0.146,13.642,0.146c0.481,0,0.811-0.003,0.922-0.008c6.525-0.22,6.561-7.086,6.572-9.345l0.016-3.794
		c0.025-6.039,0.066-16.056,0.088-22.172c1.423,0.02,2.608,0.038,3.46,0.051c0.802,0.013,1.315,0.021,1.44,0.021
		c0.001,0,0.002,0,0.003,0l0.137,0.001c0.717-0.032,2.814,0,3.557-1.729c0.325-0.756,0.422-1.961-0.957-3.414
		C111.721,140.646,105.984,133.549,97.334,122.363z M104.777,144.504c-0.535-0.04-1.047,0.201-1.427,0.575
		c-0.38,0.374-0.595,0.885-0.597,1.418c-0.019,5.674-0.067,17.426-0.095,24.188l-0.016,3.792c-0.027,5.275-1.64,5.329-2.722,5.366
		c-0.105,0.004-0.376,0.005-0.772,0.005c-3.153,0-12.756-0.106-13.431-0.141c-1.08-0.06-2.712-0.149-2.694-5.479
		c0.013-3.417,0.058-12.946,0.094-20.586l0.035-7.451c0.005-1.098-0.875-1.994-1.973-2.009c-1.962-0.026-3.636-0.051-4.851-0.069
		c3.542-3.893,9.402-10.492,13.489-15.096c1.698-1.912,3.23-3.639,4.068-4.574c0.086,0.111,0.181,0.234,0.284,0.368
		c2.914,3.768,11.158,14.43,15.835,19.767C108.771,144.558,106.951,144.53,104.777,144.504z"/>
	<path style="fill:#231F20;" d="M91.723,35.229V8.59c0-1.104-0.896-2-2-2s-2,0.896-2,2v26.639c0,1.104,0.896,2,2,2
		S91.723,36.333,91.723,35.229z"/>
	<path style="fill:#231F20;" d="M89.723,147.394c-1.104,0-2,0.896-2,2v26.639c0,1.104,0.896,2,2,2s2-0.896,2-2v-26.639
		C91.723,148.289,90.827,147.394,89.723,147.394z"/>
	<path style="fill:#231F20;" d="M8.653,85.236c-1.104,0-2,0.896-2,2v9.726c0,1.104,0.896,2,2,2s2-0.896,2-2v-9.726
		C10.653,86.132,9.757,85.236,8.653,85.236z"/>
	<path style="fill:#231F20;" d="M82.403,81.43c0.761-0.796,0.735-2.06-0.06-2.823c-0.795-0.766-2.062-0.742-2.828,0.055
		c-0.119,0.124-11.734,12.521,1.248,26.43c0.394,0.423,0.927,0.636,1.462,0.636c0.489,0,0.979-0.178,1.364-0.538
		c0.808-0.754,0.851-2.019,0.097-2.826C73.338,91.271,82.014,81.841,82.403,81.43z"/>
	<path style="fill:#231F20;" d="M133.904,89.999c-0.81-0.751-2.075-0.704-2.827,0.104c-0.751,0.81-0.705,2.075,0.105,2.827
		l5.92,5.497c0.385,0.357,0.873,0.534,1.36,0.534c0.537,0,1.072-0.215,1.466-0.639c0.751-0.81,0.705-2.075-0.105-2.827
		L133.904,89.999z"/>
</g>
<g>
</g>
<g>
</g>
<g>
</g>
<g>
</g>
<g>
</g>
<g>
</g>
<g>
</g>
<g>
</g>
<g>
</g>
<g>
</g>
<g>
</g>
<g>
</g>
<g>
</g>
<g>
</g>
<g>
</g>
</svg>
