<?xml version="1.0" encoding="iso-8859-1"?>
<!-- Generator: Adobe Illustrator 18.0.0, SVG Export Plug-In . SVG Version: 6.00 Build 0)  -->
<!DOCTYPE svg PUBLIC "-//W3C//DTD SVG 1.1//EN" "http://www.w3.org/Graphics/SVG/1.1/DTD/svg11.dtd">
<svg version="1.1" id="Capa_1" xmlns="http://www.w3.org/2000/svg" xmlns:xlink="http://www.w3.org/1999/xlink" x="0px" y="0px"
	 viewBox="0 0 186.332 186.979" style="enable-background:new 0 0 186.332 186.979;" xml:space="preserve">
<g>
	<path style="fill:#231F20;" d="M181.18,138.936c-1.557-1.553-3.027-1.879-3.986-1.879c-0.877,0-2.188,0.268-3.452,1.54
		c-1.309,1.308-3.177,3.18-5.485,5.493c-1.362-1.362-2.848-2.847-4.457-4.45c18.129-27.78,18.033-64.344-0.242-92.027
		c1.706-1.717,3.273-3.296,4.696-4.733c2.309,2.315,4.177,4.188,5.482,5.493c1.268,1.276,2.578,1.545,3.454,1.545
		c0.961,0,2.435-0.328,3.987-1.885c0.925-0.919,3.739-3.715,5.145-38.747c0.117-2.594-0.85-4.906-2.727-6.528
		C182.079,0.978,179.9,0,177.444,0c-0.125,0-0.253,0.002-0.377,0.008c-35.058,1.344-37.753,4.035-38.769,5.05
		c-2.39,2.39-2.527,5.235-0.351,7.434l6.115,6.131c-1.459,1.463-3.069,3.08-4.826,4.844C125.625,14.6,109.848,9.921,93.5,9.921
		c-16.51,0-32.415,4.763-46.107,13.791l-4.636-4.611c2.369-2.376,4.294-4.305,5.632-5.64c2.149-2.157,2.011-5.078-0.354-7.445
		c-0.927-0.923-3.746-3.732-38.771-5.041C6.645,0.862,4.347,1.852,2.758,3.709c-1.886,1.62-2.861,3.941-2.749,6.545
		c1.434,35.061,4.138,37.742,5.154,38.749c1.251,1.245,2.593,1.876,3.988,1.876c0.875,0,2.183-0.267,3.455-1.537
		c1.407-1.411,3.467-3.477,6.035-6.052l4.644,4.632C5.074,75.728,5.161,112.333,23.5,140.056l-3.902,3.939
		c-2.413-2.419-4.361-4.369-5.709-5.717c-1.268-1.272-2.577-1.539-3.452-1.539c-1.391,0-2.73,0.63-3.98,1.871
		c-0.926,0.918-3.743,3.712-5.15,38.751c-0.117,2.583,0.84,4.885,2.699,6.502c1.53,1.796,3.721,2.784,6.178,2.784
		c0.126,0,0.254-0.002,0.375-0.007c35.048-1.309,37.849-4.122,38.766-5.043c2.367-2.362,2.507-5.282,0.356-7.44
		c-1.395-1.397-3.438-3.445-5.961-5.977c1.259-1.266,2.598-2.612,4.02-4.039c13.62,8.888,29.411,13.576,45.779,13.576
		c16.508,0,32.406-4.761,46.089-13.787c1.605,1.595,3.088,3.069,4.451,4.421c-2.599,2.608-4.688,4.704-6.117,6.132
		c-2.142,2.158-2.002,5.076,0.356,7.438c1.014,1.011,3.706,3.697,38.768,5.051c0.122,0.005,0.242,0.008,0.362,0.008c0,0,0,0,0,0
		c2.454,0,4.636-0.979,6.161-2.758c1.879-1.624,2.848-3.941,2.731-6.531C184.916,142.648,182.102,139.852,181.18,138.936z
		 M141.109,7.902c1.458-1.215,11.79-2.965,36.116-3.898L177.444,4c1.293,0,2.375,0.478,3.131,1.381
		c0.102,0.133,0.218,0.255,0.339,0.353c0.021,0.018,0.042,0.034,0.064,0.05c0.67,0.58,1.423,1.618,1.346,3.332
		c-1.042,25.987-2.994,34.917-3.974,36.086c-0.663,0.664-1.056,0.716-1.161,0.716c-0.21,0-0.451-0.197-0.621-0.368
		c-1.567-1.568-3.932-3.939-6.904-6.919c0,0,0-0.001-0.001-0.001l-0.602-0.604c-0.243-0.244-0.481-0.483-0.732-0.734l-9.626-9.653
		l0,0l0,0l-0.001,0.001c-0.024-0.024-0.046-0.048-0.063-0.064L148.303,17.21l0,0l-7.52-7.539
		C140.415,9.299,140.066,8.946,141.109,7.902z M9.775,46.516c-0.166,0.165-0.409,0.363-0.624,0.363
		c-0.106,0-0.504-0.052-1.153-0.697C6.777,44.728,5,34.402,4.005,10.086C3.932,8.381,4.676,7.344,5.342,6.763
		c0.104-0.078,0.175-0.147,0.212-0.184c0.042-0.04,0.081-0.081,0.119-0.125c0.024-0.026,0.048-0.053,0.07-0.081
		c0.755-0.92,1.846-1.406,3.155-1.406l0.213,0.005c22.739,0.85,34.524,2.567,36.096,3.875c1.068,1.068,0.702,1.436,0.351,1.788
		c-1.592,1.589-4.016,4.019-7.046,7.057c-0.001,0.001-0.002,0.001-0.003,0.002l-10.776,10.81c-0.067,0.063-0.124,0.123-0.17,0.177
		C19.412,36.851,12.94,43.341,9.775,46.516z M46.512,178.754c-1.184,0.987-10.12,2.918-36.109,3.889l-0.219,0.004
		c-1.298,0-2.392-0.488-3.111-1.349c-0.061-0.084-0.134-0.168-0.212-0.245c-0.05-0.052-0.103-0.102-0.159-0.148
		c-0.682-0.567-1.478-1.612-1.398-3.373c1.044-25.992,2.997-34.921,3.972-36.083c0.663-0.659,1.057-0.71,1.162-0.71
		c0.212,0,0.454,0.197,0.622,0.365c1.995,1.995,5.29,5.297,9.486,9.504l8.374,8.399c0.038,0.038,0.1,0.093,0.14,0.128
		c0.005,0.004,0.01,0.009,0.016,0.014l5.621,5.642c5.469,5.488,9.75,9.786,12.154,12.192
		C47.202,177.335,47.566,177.701,46.512,178.754z M138.721,159.705c-13.319,9.167-28.949,14.012-45.201,14.012
		c-16.119,0-31.649-4.773-44.91-13.805c-0.342-0.232-0.735-0.347-1.125-0.347c-0.517,0-1.03,0.2-1.417,0.588
		c-1.851,1.855-3.578,3.591-5.17,5.192l-4.013-4.028l-5.054-5.073c-0.068-0.068-0.109-0.109-0.175-0.159
		c-2.976-2.985-5.724-5.741-8.172-8.196l-1.06-1.063l5.076-5.122c0.677-0.684,0.771-1.753,0.224-2.544
		C9.079,112.178,8.994,75.863,27.512,48.796c0.544-0.795,0.443-1.865-0.239-2.545l-5.808-5.793l8.997-9.018
		c0.028-0.028,0.055-0.057,0.082-0.087l6.589-6.609c0.981-0.984,1.907-1.913,2.801-2.81l5.804,5.773
		c0.683,0.68,1.752,0.774,2.544,0.229C61.61,18.768,77.246,13.921,93.5,13.921c16.1,0,31.616,4.763,44.871,13.774
		c0.796,0.541,1.864,0.438,2.542-0.243c2.208-2.219,4.203-4.222,5.974-5.998l8.921,8.944c0.008,0.008,0.019,0.02,0.031,0.03
		c0.011,0.012,0.022,0.023,0.033,0.035l9.557,9.582c-1.743,1.76-3.704,3.735-5.868,5.912c-0.679,0.684-0.775,1.753-0.228,2.546
		c18.583,26.946,18.678,63.222,0.238,90.266c-0.542,0.796-0.441,1.864,0.241,2.544c2.058,2.05,3.935,3.925,5.618,5.608
		c-0.657,0.659-1.33,1.333-2.036,2.041l-7.509,7.526c-0.026,0.024-0.052,0.049-0.078,0.074l-8.925,8.955
		c-1.686-1.674-3.562-3.537-5.618-5.583C140.582,159.256,139.514,159.161,138.721,159.705z M180.923,181.239
		c-0.075,0.062-0.145,0.128-0.21,0.198c-0.039,0.041-0.075,0.083-0.11,0.126l-0.002-0.002c-0.766,0.927-1.863,1.417-3.172,1.417
		l-0.208-0.004c-24.327-0.939-34.658-2.689-36.094-3.885c-1.064-1.064-0.699-1.434-0.351-1.784c1.675-1.674,4.268-4.276,7.531-7.551
		c0,0,0.001,0,0.001-0.001l10.311-10.346c0.029-0.026,0.057-0.054,0.084-0.082l0,0.001l7.522-7.54
		c4.603-4.614,8.21-8.229,10.348-10.366c0.165-0.167,0.406-0.364,0.619-0.364c0.105,0,0.5,0.051,1.148,0.696
		c0.989,1.18,2.94,10.109,3.984,36.106C182.388,179.25,181.903,180.418,180.923,181.239z"/>
	<path style="fill:#231F20;" d="M93.601,33.688c-33.127,0-60.079,26.947-60.079,60.069c0,33.127,26.951,60.078,60.079,60.078
		c33.125,0,60.073-26.951,60.073-60.078C153.674,60.635,126.725,33.688,93.601,33.688z M93.601,149.835
		c-30.922,0-56.079-25.156-56.079-56.078c0-30.917,25.157-56.069,56.079-56.069c30.919,0,56.073,25.152,56.073,56.069
		C149.674,124.679,124.519,149.835,93.601,149.835z"/>
	<path style="fill:#231F20;" d="M34.486,54.031c0.66-0.886,0.478-2.139-0.408-2.799c-0.884-0.659-2.138-0.477-2.799,0.408
		c-0.275,0.369-6.778,9.213-9.994,24.089c-2.958,13.679-3.539,35.24,10.485,60.284c0.367,0.654,1.046,1.022,1.747,1.022
		c0.331,0,0.666-0.082,0.975-0.255c0.964-0.54,1.308-1.759,0.768-2.723C9.733,88.477,34.153,54.484,34.486,54.031z"/>
	<path style="fill:#231F20;" d="M10.696,10.369c-1.104,0.03-1.974,0.95-1.943,2.055l0.632,22.763
		c0.03,1.085,0.919,1.944,1.998,1.944c0.019,0,0.038,0,0.057-0.001c1.104-0.03,1.974-0.95,1.943-2.055L12.75,12.312
		C12.72,11.21,11.829,10.325,10.696,10.369z"/>
	<path style="fill:#231F20;" d="M12.83,150.116c-1.086-0.09-2.073,0.71-2.173,1.812L8.76,172.794c-0.1,1.1,0.71,2.072,1.811,2.173
		c0.062,0.005,0.123,0.008,0.184,0.008c1.022,0,1.895-0.78,1.989-1.819l1.897-20.866C14.74,151.189,13.93,150.217,12.83,150.116z"/>
</g>
<g>
</g>
<g>
</g>
<g>
</g>
<g>
</g>
<g>
</g>
<g>
</g>
<g>
</g>
<g>
</g>
<g>
</g>
<g>
</g>
<g>
</g>
<g>
</g>
<g>
</g>
<g>
</g>
<g>
</g>
</svg>
