<?xml version="1.0" encoding="iso-8859-1"?>
<!-- Generator: Adobe Illustrator 18.0.0, SVG Export Plug-In . SVG Version: 6.00 Build 0)  -->
<!DOCTYPE svg PUBLIC "-//W3C//DTD SVG 1.1//EN" "http://www.w3.org/Graphics/SVG/1.1/DTD/svg11.dtd">
<svg version="1.1" id="Capa_1" xmlns="http://www.w3.org/2000/svg" xmlns:xlink="http://www.w3.org/1999/xlink" x="0px" y="0px"
	 viewBox="0 0 159.551 198.507" style="enable-background:new 0 0 159.551 198.507;" xml:space="preserve">
<g>
	<path style="fill:#231F20;" d="M48.013,82.007c0-5.811-4.716-10.539-10.513-10.539c-5.811,0-10.538,4.728-10.538,10.539
		c0,5.799,4.728,10.517,10.538,10.517C43.297,92.524,48.013,87.806,48.013,82.007z M37.5,88.524c-3.605,0-6.538-2.923-6.538-6.517
		c0-3.605,2.933-6.539,6.538-6.539c3.591,0,6.513,2.934,6.513,6.539C44.013,85.601,41.091,88.524,37.5,88.524z"/>
	<path style="fill:#231F20;" d="M139.019,36.416c-0.117,0-0.238,0.004-0.363,0.013h-28.771c-1.148,0-2.079,0.931-2.079,2.08
		l0.002,1.472c-0.039,0.701-0.3,1.876-1.706,1.876c-0.001,0-0.002,0-0.003,0c-1.235-0.027-6.772-0.041-16.459-0.041
		c-14.124,0-33.266,0.032-35.979,0.05c-0.803,0-1.046-0.261-1.126-0.346c-0.393-0.42-0.469-1.306-0.445-1.648
		c0.005-0.062,0.008-0.124,0.008-0.187v-1.176c0-1.148-0.931-2.08-2.079-2.08H22.133c-2.323-0.156-3.819,1.218-4.002,3.508
		c-0.05,0.584-0.056,132.955-0.004,133.637c0.183,2.174,1.59,3.524,3.671,3.524c0.113,0,0.23-0.004,0.351-0.012
		c1.298-0.016,25.626-0.027,58.246-0.027c32.616,0,56.942,0.011,58.246,0.027c0.119,0.008,0.235,0.012,0.348,0.012
		c2.058,0,3.494-1.389,3.654-3.466c0.062-0.56,0.081-133.017,0.019-133.699C142.472,37.764,141.076,36.416,139.019,36.416z
		 M138.505,172.93c-3.712-0.025-33.198-0.03-58.11-0.03c-24.931,0-54.444,0.005-58.119,0.03
		c-0.027-8.093-0.024-124.293,0.004-132.342h25.675c0.082,1.012,0.404,2.526,1.504,3.729c0.712,0.779,2.019,1.707,4.27,1.707
		c2.67-0.018,21.796-0.05,35.913-0.05c9.52,0,15.179,0.014,16.355,0.04l0.199,0.003c3.811,0,5.46-3.047,5.731-5.429h26.587
		C138.546,48.688,138.534,165.942,138.505,172.93z"/>
	<path style="fill:#231F20;" d="M159.528,35.19l-0.003-7.96c0-5.817-5.073-9.555-10.11-9.931c-0.155-0.036-0.338-0.079-0.478-0.054
		l-35.777,0.096v-0.87c0-1.146-0.928-2.077-2.074-2.08c-3.914-0.009-8.953-0.01-14.716-0.01C95.288,6.284,88.316,0,79.955,0
		c-8.354,0-15.333,6.28-16.43,14.371H48.837c-1.148,0-2.079,0.931-2.079,2.08v1.067L9.799,17.616c-0.106,0-0.213,0.009-0.318,0.025
		c-6.042,0.954-9.314,6.731-9.448,9.692c-0.041,0.869-0.043,50.995-0.005,153.243l0.003,7.945c0,6.25,5.57,9.985,10.956,9.985
		c14.304,0,133.309-0.108,137.674-0.212c6.737-0.139,10.71-6.599,10.864-9.891C159.559,187.545,159.56,137.429,159.528,35.19z
		 M155.369,188.222c-0.056,1.186-2.293,5.822-6.802,5.915c-4.348,0.104-123.283,0.211-137.581,0.211
		c-3.342,0-6.798-2.179-6.798-5.826l-0.003-7.947C4.14,55.8,4.161,28.467,4.186,27.526c0.045-0.987,1.946-5.051,5.795-5.751
		l38.861-0.104c1.146-0.003,2.073-0.933,2.073-2.08V18.53h14.539c1.141,0,2.067-0.918,2.079-2.059
		c0.069-6.789,5.642-12.312,12.421-12.312c6.784,0,12.347,5.526,12.401,12.318c0.009,1.142,0.938,2.063,2.079,2.063
		c5.569,0,10.536,0,14.566,0.006v0.88c0,0.552,0.22,1.082,0.61,1.472c0.391,0.389,0.918,0.607,1.469,0.607c0.002,0,0.004,0,0.006,0
		l37.507-0.1c0.087,0.015,0.176,0.024,0.267,0.027c3.154,0.126,6.507,2.201,6.507,5.797l0.002,7.961
		C155.409,160.046,155.391,187.34,155.369,188.222z"/>
	<path style="fill:#231F20;" d="M72.03,18.53c5.517,0,10.864,0,15.841,0.01c0.001,0,0.003,0,0.004,0
		c1.094,0,2.002-0.852,2.075-1.943l0.013-0.107c0.024-0.195,0.043-0.388,0.043-0.592c0-5.544-4.509-10.054-10.051-10.054
		c-5.554,0-10.071,4.51-10.071,10.054c0,0.241,0.028,0.468,0.079,0.772C70.075,17.728,70.967,18.53,72.03,18.53z M79.955,10.003
		c2.73,0,5.032,1.867,5.698,4.374c-3.651-0.005-7.479-0.006-11.41-0.006C74.92,11.858,77.225,10.003,79.955,10.003z"/>
	<path style="fill:#231F20;" d="M110.315,132.024c-0.021-0.104-0.529-2.561-1.694-4.853c-1.068-2.09-10.173-18.424-10.56-19.118
		c-0.065-0.116-0.142-0.226-0.228-0.327c-0.709-0.828-4.282-4.994-5.022-5.689c-0.631-0.599-1.436-0.915-2.326-0.915
		c-0.773,0-1.376,0.248-1.542,0.323c-0.039,0.018-0.077,0.037-0.114,0.057l-4.296,2.306c-0.217,0.104-1.096,0.573-1.62,1.501
		c-0.599-0.452-1.346-0.689-2.166-0.689c-0.775,0-1.398,0.209-1.571,0.274c-0.076,0.028-0.15,0.061-0.223,0.099l-4.68,2.428
		c-0.042,0.022-0.084,0.045-0.124,0.07c-0.186,0.113-0.758,0.489-1.274,1.093c-0.123-0.129-0.232-0.242-0.32-0.332
		c-0.568-0.594-1.34-0.92-2.173-0.92c-0.978,0-1.793,0.442-2.167,0.686l-4.122,2.14c-2.763-4.085-10.277-15.192-11.117-16.358
		c-0.714-0.988-1.735-1.532-2.876-1.532c-1.041,0-1.878,0.465-2.242,0.707l-4.138,2.235c-0.102,0.055-0.198,0.118-0.288,0.189
		c-0.775,0.612-1.889,2.189-1.139,4.227c0.415,1.119,10.546,22.881,14.085,30.475c-0.122-0.084-0.232-0.158-0.331-0.217
		c-0.672-0.406-1.399-0.612-2.162-0.612c-1.098,0-1.932,0.442-2.257,0.646l-4.594,2.589c-0.055,0.03-0.107,0.063-0.158,0.099
		c-0.22,0.152-1.326,0.984-1.497,2.376c-0.104,0.855,0.174,1.71,0.79,2.413c0.887,1,15.532,14.345,18.459,17.011
		c0.116,0.105,0.243,0.197,0.381,0.272l22.221,12.257c0.301,0.166,0.633,0.249,0.966,0.249s0.666-0.083,0.967-0.249l22.884-12.638
		c0.723-0.399,1.126-1.201,1.015-2.019l-2.724-20.121C110.331,132.111,110.324,132.068,110.315,132.024z M88.194,162.898
		l-21.048-11.61c-5.779-5.263-14.572-13.306-17.229-15.815l3.725-2.1c0.066-0.037,0.055-0.021,0.056-0.021
		c0,0,0.008-0.007,0.046-0.041c0.029-0.016,0.095-0.04,0.142-0.04l0.093,0.036c0.734,0.443,3.442,2.83,5.131,4.382
		c0.658,0.605,1.637,0.701,2.4,0.232c0.762-0.468,1.121-1.385,0.878-2.246l-1.482-5.268c-0.029-0.104-0.066-0.205-0.112-0.303
		c-5.463-11.719-13.626-29.287-14.657-31.652l3.719-2.009c0.025-0.014,0.046-0.025,0.065-0.036c1.4,2.01,8.243,12.118,11.857,17.467
		c0.569,0.841,1.677,1.123,2.579,0.655l5.792-3.008c0.879,0.93,2.304,2.483,2.321,2.502c0.57,0.622,1.468,0.818,2.248,0.491
		c0.778-0.327,1.268-1.107,1.223-1.95c0-0.007-0.034-0.664-0.016-1.395c0.073-0.079,0.187-0.178,0.279-0.244l4.415-2.29
		c0.011-0.002,0.022-0.004,0.034-0.006c0.44,0.394,1.312,1.304,1.967,2.028c0.517,0.573,1.313,0.795,2.055,0.577
		c0.738-0.22,1.285-0.844,1.405-1.605c0-0.001,0.23-1.464,0.366-2.31l3.895-2.089c0.747,0.807,2.626,2.962,4.325,4.946
		c1.006,1.805,9.416,16.9,10.392,18.811c0.827,1.627,1.253,3.445,1.327,3.78l2.529,18.688L88.194,162.898z"/>
	<path style="fill:#231F20;" d="M118.954,77.737h-62.67c-1.104,0-2,0.896-2,2s0.896,2,2,2h62.67c1.104,0,2-0.896,2-2
		S120.059,77.737,118.954,77.737z"/>
	<path style="fill:#231F20;" d="M27.835,70.605c1.104,0,2-0.896,2-2V46.341c0-1.104-0.896-2-2-2s-2,0.896-2,2v22.265
		C25.835,69.71,26.73,70.605,27.835,70.605z"/>
	<path style="fill:#231F20;" d="M27.835,92.58c-1.104,0-2,0.896-2,2v68.443c0,1.104,0.896,2,2,2s2-0.896,2-2V94.58
		C29.835,93.476,28.939,92.58,27.835,92.58z"/>
	<path style="fill:#231F20;" d="M19.662,28.657c0.35-1.048-0.217-2.18-1.265-2.53c-0.305-0.101-3.056-0.937-5.738,0.995
		c-2.864,2.064-4.316,6.391-4.316,12.859v82.46c0,1.104,0.896,2,2,2s2-0.896,2-2v-82.46c0-6.627,1.633-8.846,2.606-9.578
		c1.028-0.775,2.122-0.497,2.214-0.471C18.207,30.259,19.316,29.695,19.662,28.657z"/>
</g>
<g>
</g>
<g>
</g>
<g>
</g>
<g>
</g>
<g>
</g>
<g>
</g>
<g>
</g>
<g>
</g>
<g>
</g>
<g>
</g>
<g>
</g>
<g>
</g>
<g>
</g>
<g>
</g>
<g>
</g>
</svg>
