<?xml version="1.0" encoding="iso-8859-1"?>
<!-- Generator: Adobe Illustrator 18.0.0, SVG Export Plug-In . SVG Version: 6.00 Build 0)  -->
<!DOCTYPE svg PUBLIC "-//W3C//DTD SVG 1.1//EN" "http://www.w3.org/Graphics/SVG/1.1/DTD/svg11.dtd">
<svg version="1.1" id="Capa_1" xmlns="http://www.w3.org/2000/svg" xmlns:xlink="http://www.w3.org/1999/xlink" x="0px" y="0px"
	 viewBox="0 0 162.759 186.621" style="enable-background:new 0 0 162.759 186.621;" xml:space="preserve">
<g>
	<path style="fill:#231F20;" d="M162.743,15.452l-0.002-6.222c0-5.777-5.034-9.23-9.901-9.23C151.694,0,31.732,0.156,30.459,0.187
		c-0.198,0-0.366,0.024-0.491,0.048h-0.199c-0.251,0-0.49,0.049-0.711,0.138c-2.984,0.503-4.997,2.326-6.197,3.847L4.204,22.785
		c-2.609,2.022-4.1,5.11-4.182,7.033C-0.006,30.606-0.007,76.5,0.019,170.119l0.002,7.282c0,5.771,5.03,9.22,9.893,9.22
		c12.716,0,118.53-0.095,122.421-0.187c6.1-0.114,9.672-6.102,9.798-9.143c0.035-0.794,0.036-46.692,0.004-140.316l-0.002-7.262
		c0-5.79-5.032-9.249-9.896-9.249c-2.322,0-72.443,0.102-105.684,0.16l4.737-4.885c30.956-0.046,106.441-0.148,108.936-0.148
		c2.896,0,5.89,1.957,5.89,5.23l0.002,6.879c0.028,76.643,0.031,122.498,0.01,136.293c-0.001,0.533,0.211,1.045,0.59,1.421
		c0.379,0.376,0.93,0.605,1.424,0.582l3.114-0.017c0.882-0.004,1.462-0.006,1.69-0.012c6.085-0.135,9.654-6.111,9.782-9.143
		C162.742,156.529,162.78,155.624,162.743,15.452z M158.733,156.657c-0.045,1.064-1.974,5.226-5.876,5.313
		c-0.22,0.005-0.774,0.007-1.617,0.011l-1.108,0.006c0.019-15.891,0.015-61.024-0.013-134.287l-0.002-6.877
		c0-5.778-5.028-9.23-9.89-9.23c-2.597,0-78.325,0.103-109.786,0.149c-0.54,0.001-1.057,0.22-1.433,0.607l-8.624,8.892
		c-0.56,0.577-0.72,1.434-0.405,2.174c0.313,0.739,1.038,1.219,1.841,1.219c0.001,0,0.002,0,0.004,0
		c30.727-0.057,107.975-0.168,110.414-0.168c2.898,0,5.896,1.963,5.896,5.249l0.002,7.263c0.039,114.272,0.021,139.293,0,140.146
		c-0.045,1.068-1.971,5.241-5.886,5.313c-3.878,0.091-109.626,0.186-122.337,0.186c-2.896,0-5.893-1.953-5.893-5.22l-0.002-7.283
		c-0.032-114.373-0.018-139.353,0-140.143c0.025-0.601,0.868-2.698,2.707-4.084c0.073-0.055,0.142-0.115,0.207-0.18L25.771,6.966
		c0.062-0.062,0.119-0.127,0.173-0.196c0.78-1.013,2.118-2.267,4.056-2.493c0.082-0.009,0.161-0.024,0.239-0.043
		c0.052-0.002,0.103-0.006,0.154-0.012c0.077-0.009,0.15-0.021,0.227-0.036C35.169,4.151,151.734,4,152.839,4
		c2.9,0,5.901,1.956,5.901,5.23l0.002,6.223C158.774,130.593,158.754,155.802,158.733,156.657z"/>
	<path style="fill:#231F20;" d="M74.771,77.722c6.775,0,12.287-5.263,12.287-11.732c0-6.469-5.512-11.731-12.287-11.731
		C68,54.258,62.49,59.521,62.49,65.99C62.49,72.459,68,77.722,74.771,77.722z M74.771,58.258c4.569,0,8.287,3.468,8.287,7.731
		s-3.718,7.732-8.287,7.732c-4.566,0-8.281-3.469-8.281-7.732S70.205,58.258,74.771,58.258z"/>
	<path style="fill:#231F20;" d="M71.922,156.901c9.224,0,15.626-5.039,16.31-12.837c0.061-0.692-0.242-1.367-0.801-1.781
		c-0.559-0.415-1.291-0.51-1.937-0.25c-0.466,0.187-1.246,0.5-3.429,0.5c-3.334,0-3.334-0.738-3.334-1.96
		c0-0.45,0.316-2.138,0.6-3.38l9.229-35.914c0.014-0.053,0.024-0.107,0.034-0.161c0.068-0.403,0.673-3.99,0.673-5.708
		c0-9.281-5.945-14.822-15.904-14.822c-9.223,0-15.621,5.039-16.302,12.837c-0.061,0.693,0.244,1.369,0.804,1.783
		c0.561,0.413,1.297,0.506,1.94,0.244c0.582-0.236,1.374-0.488,3.415-0.488c3.334,0,3.334,0.734,3.334,1.951
		c0,0.864-0.139,1.754-0.458,2.917l-8.983,34.783c-0.014,0.053-0.025,0.106-0.034,0.161l-0.075,0.372
		c-0.102,0.525-0.989,5.179-0.989,6.917C56.014,151.355,61.961,156.901,71.922,156.901z M60.935,135.888l0.025-0.128
		c0.015-0.069,0.029-0.137,0.044-0.214l8.957-34.682c0.404-1.473,0.593-2.727,0.593-3.947c0-5.951-5.521-5.951-7.334-5.951
		c-0.579,0-1.094,0.018-1.555,0.051c1.805-4.683,6.965-6.427,11.697-6.427c4.446,0,11.904,1.406,11.904,10.822
		c0,1.14-0.423,3.886-0.603,4.954l-9.221,35.885c-0.167,0.731-0.712,3.204-0.712,4.323c0,5.96,5.521,5.96,7.334,5.96
		c0.58,0,1.095-0.019,1.557-0.053c-1.809,4.679-6.969,6.42-11.7,6.42c-4.447,0-11.908-1.408-11.908-10.834
		C60.014,141.043,60.577,137.746,60.935,135.888z"/>
	<path style="fill:#231F20;" d="M13.289,166.594V54.546c0-1.104-0.896-2-2-2s-2,0.896-2,2v112.048c0,3.829,2.538,11.07,12.138,11.07
		h26.145c1.104,0,2-0.896,2-2s-0.896-2-2-2H21.426C13.604,173.664,13.297,167.306,13.289,166.594z"/>
	<path style="fill:#231F20;" d="M85.92,136.6c0.697,0.549,1.528,0.823,2.487,0.823c1.087,0,2.337-0.352,3.742-1.055
		c0.988-0.494,1.389-1.695,0.895-2.683c-0.493-0.987-1.694-1.39-2.684-0.894c-1.189,0.595-1.762,0.632-1.968,0.631
		c-0.157-0.363-0.159-1.372-0.008-2.058l7.47-27.745c0.287-1.067-0.345-2.164-1.412-2.451c-1.064-0.287-2.164,0.345-2.451,1.411
		l-7.487,27.815C84.338,131.114,83.626,134.795,85.92,136.6z"/>
</g>
<g>
</g>
<g>
</g>
<g>
</g>
<g>
</g>
<g>
</g>
<g>
</g>
<g>
</g>
<g>
</g>
<g>
</g>
<g>
</g>
<g>
</g>
<g>
</g>
<g>
</g>
<g>
</g>
<g>
</g>
</svg>
