<?xml version="1.0" encoding="iso-8859-1"?>
<!-- Generator: Adobe Illustrator 18.0.0, SVG Export Plug-In . SVG Version: 6.00 Build 0)  -->
<!DOCTYPE svg PUBLIC "-//W3C//DTD SVG 1.1//EN" "http://www.w3.org/Graphics/SVG/1.1/DTD/svg11.dtd">
<svg version="1.1" id="Capa_1" xmlns="http://www.w3.org/2000/svg" xmlns:xlink="http://www.w3.org/1999/xlink" x="0px" y="0px"
	 viewBox="0 0 187.449 177.124" style="enable-background:new 0 0 187.449 177.124;" xml:space="preserve">
<g>
	<path style="fill:#231F20;" d="M16.195,145.426l155.047,0.162c0,0,0.001,0,0.002,0c0.657,0,1.271-0.322,1.645-0.862
		c0.374-0.541,0.458-1.23,0.226-1.845l-8.928-23.606c-0.294-0.778-1.039-1.293-1.871-1.293H25.457c-0.821,0-1.559,0.502-1.86,1.266
		l-9.26,23.444c-0.243,0.615-0.166,1.311,0.206,1.858C14.915,145.097,15.533,145.425,16.195,145.426z M26.817,121.982h134.117
		l7.414,19.604l-149.212-0.156L26.817,121.982z"/>
	<path style="fill:#231F20;" d="M177.669,161.474c0,0-0.001,0-0.002,0c-18.902,0.019-144.747,0.079-167.729,0.023
		c-0.002,0-0.003,0-0.005,0c-1.103,0-1.998,0.893-2,1.995c-0.002,1.104,0.891,2.002,1.995,2.005
		c6.944,0.017,23.277,0.023,43.215,0.023c46.054,0,111.336-0.034,124.528-0.047c1.104-0.001,1.999-0.897,1.998-2.002
		C179.668,162.369,178.773,161.474,177.669,161.474z"/>
	<path style="fill:#231F20;" d="M26.982,91.021c-0.018,2.245,0.634,4.03,1.936,5.306c1.83,1.79,4.199,1.763,4.404,1.769h119.45
		c0.074,0.004,0.184,0.007,0.322,0.007c1.012,0,3.587-0.188,5.454-1.946c0.887-0.836,1.94-2.36,1.924-4.881
		c-0.021-2.71-0.011-20.938-0.001-38.567c0.009-16.02,0.017-31.151,0.001-33.391c-0.021-2.456-1.048-3.88-1.906-4.643
		c-1.814-1.613-4.215-1.557-4.846-1.51L33.502,13.166c-0.274-0.007-2.816-0.026-4.689,1.777c-0.822,0.791-1.806,2.236-1.831,4.63
		c0,0.001,0,0.002,0,0.003c-0.02,2.215-0.01,17.635,0.001,33.959C26.995,70.652,27.006,88.352,26.982,91.021z M30.982,19.611
		c0.022-2.124,1.515-2.446,2.448-2.446c0.006,0,0.011,0,0.017,0h120.359c0.073,0,0.145-0.004,0.217-0.012
		c0.012,0,1.222-0.08,1.886,0.512c0.137,0.121,0.553,0.491,0.563,1.685c0.016,2.22,0.007,17.344-0.001,33.356
		c-0.01,17.637-0.02,35.874,0.001,38.598c0.006,0.872-0.209,1.504-0.658,1.933c-0.825,0.787-2.353,0.896-2.858,0.863
		c-0.043-0.003-0.087-0.004-0.131-0.004L33.264,94.096c-0.018,0-0.932-0.026-1.547-0.628c-0.496-0.486-0.743-1.299-0.734-2.414
		c0.024-2.686,0.012-20.396,0.001-37.522C30.973,37.217,30.962,21.808,30.982,19.611z"/>
	<path style="fill:#231F20;" d="M186.822,157.209c-2.553-6.123-14.259-35.734-16.225-40.829c-0.413-1.067-1.05-1.989-1.885-2.745
		c3.523-2.331,3.94-6.47,3.989-10.892c0.029-2.797,0.006-25.251-0.028-44.922c0.034-19.682,0.057-42.134,0.028-44.924
		c-0.08-7.252-1.071-12.807-12.784-12.895h-46.38c-2.39-0.007-9.92,0-19.808,0.019c-9.901-0.019-17.426-0.025-19.864-0.019H27.513
		C15.822,0.09,14.834,5.645,14.759,12.894c-0.033,2.636-0.009,23.639,0.018,44.92c-0.027,21.286-0.051,42.289-0.018,44.929
		c0.045,4.343,0.438,8.416,3.795,10.766c-0.801,0.767-1.457,1.711-1.942,2.813c-2.064,4.687-15.646,39.327-16.223,40.8
		c-0.025,0.063-0.047,0.128-0.065,0.194c-0.061,0.22-0.583,2.206-0.16,4.188l1.557,9.259c0.05,0.236,0.08,0.495,0.113,0.762
		c0.205,1.64,0.684,5.479,6.112,5.557c2.053,0.031,21.718,0.042,47.022,0.042c48.562,0,117.876-0.039,123.236-0.042
		c2.573,0.255,6.566-1.118,7.365-6.006l1.538-8.98l0.012-0.049C187.441,160.782,187.775,159.475,186.822,157.209z M183.243,161.057
		l-0.033,0.13c-0.013,0.051-0.024,0.103-0.033,0.154l-1.553,9.074c-0.433,2.647-2.311,2.748-3.063,2.682
		c-0.082-0.011-0.165-0.016-0.248-0.016h0c-1.643,0.002-164.315,0.094-170.308,0c-1.949-0.027-1.998-0.416-2.202-2.052
		c-0.048-0.383-0.097-0.752-0.153-1.01l-1.558-9.263c-0.186-0.871-0.028-1.887,0.066-2.292c0.886-2.261,14.141-36.052,16.115-40.533
		c0.685-1.558,1.829-2.429,3.497-2.664c0.974-0.138,1.704-0.963,1.72-1.946c0.017-0.984-0.684-1.834-1.653-2.004
		c-4.309-0.758-5.018-2.716-5.079-8.621c-0.033-2.619-0.009-23.605,0.018-44.883c-0.027-21.272-0.051-42.259-0.018-44.874
		c0.066-6.312,0.426-8.875,8.77-8.938h46.4c2.387-0.008,9.903,0,19.801,0.019c9.885-0.019,17.405-0.025,19.851-0.019h46.322
		c8.368,0.062,8.729,2.627,8.799,8.938c0.029,2.772,0.006,25.204-0.028,44.881c0.034,19.666,0.057,42.1,0.028,44.879
		c-0.068,6.148-0.813,8.037-5.616,8.708c-0.984,0.137-1.718,0.976-1.724,1.969s0.718,1.841,1.701,1.989
		c2.011,0.305,3.291,1.131,3.802,2.454c1.97,5.105,13.71,34.803,16.267,40.934c0.001,0.002,0.002,0.004,0.002,0.006
		C183.567,159.788,183.498,160.056,183.243,161.057z"/>
	<path style="fill:#231F20;" d="M36.726,71.561c1.104,0,2-0.896,2-2v-44c0-1.104-0.896-2-2-2s-2,0.896-2,2v44
		C34.726,70.666,35.622,71.561,36.726,71.561z"/>
	<path style="fill:#231F20;" d="M32.155,123.712c-1.024-0.422-2.191,0.066-2.611,1.088l-4.667,11.334
		c-0.421,1.021,0.066,2.19,1.087,2.611c0.25,0.103,0.507,0.151,0.761,0.151c0.787,0,1.532-0.467,1.85-1.239l4.667-11.334
		C33.663,125.301,33.176,124.132,32.155,123.712z"/>
</g>
<g>
</g>
<g>
</g>
<g>
</g>
<g>
</g>
<g>
</g>
<g>
</g>
<g>
</g>
<g>
</g>
<g>
</g>
<g>
</g>
<g>
</g>
<g>
</g>
<g>
</g>
<g>
</g>
<g>
</g>
</svg>
