<?xml version="1.0" encoding="iso-8859-1"?>
<!-- Generator: Adobe Illustrator 18.0.0, SVG Export Plug-In . SVG Version: 6.00 Build 0)  -->
<!DOCTYPE svg PUBLIC "-//W3C//DTD SVG 1.1//EN" "http://www.w3.org/Graphics/SVG/1.1/DTD/svg11.dtd">
<svg version="1.1" id="Capa_1" xmlns="http://www.w3.org/2000/svg" xmlns:xlink="http://www.w3.org/1999/xlink" x="0px" y="0px"
	 viewBox="0 0 182.174 157.612" style="enable-background:new 0 0 182.174 157.612;" xml:space="preserve">
<g>
	<path style="fill:#231F20;" d="M181.575,42.485c-3.822-23.288-24.316-35.643-31.196-38.136C142.381,1.463,134.824,0,127.92,0
		c-22.498,0-33.184,15.414-37.176,23.297C86.9,15.396,76.541,0,54.19,0c-6.861,0-14.396,1.463-22.397,4.351
		C24.912,6.843,4.41,19.2,0.586,42.544C-0.972,54.209,0.57,65.14,5.3,75.962c0.021,0.045,0.041,0.089,0.064,0.133l0.379,0.721
		c3.802,7.231,11.714,22.279,28.371,33.036c2.202,1.573,5.33,3.287,8.952,5.272c13.118,7.188,32.929,18.043,44.451,40.219
		c0.418,1.119,1.367,1.922,2.562,2.177c0.118,0.037,0.242,0.063,0.37,0.078c0.075,0.009,0.176,0.015,0.252,0.015
		c0.026,0,0.065-0.001,0.104-0.003c0.174,0.002,0.224-0.003,0.275-0.006c0.271-0.011,0.521-0.045,0.767-0.105
		c0.021-0.005,0.041-0.01,0.062-0.016c1.108-0.286,1.991-0.991,2.473-1.961c11.488-22.22,31.429-33.105,44.624-40.308
		c3.666-2.001,6.833-3.729,8.971-5.261c16.791-10.846,24.684-25.914,28.477-33.156l0.344-0.655c0.021-0.042,0.042-0.084,0.062-0.127
		c3.648-8.324,5.387-16.587,5.313-25.261C182.151,48.082,181.953,45.321,181.575,42.485z M173.222,74.344l-0.312,0.596
		c-3.635,6.939-11.197,21.377-27.182,31.705c-2.02,1.444-5.087,3.119-8.639,5.058c-12.731,6.95-33.996,18.557-46.094,41.661
		c-12.097-23.165-33.312-34.79-46.007-41.747c-3.51-1.924-6.542-3.585-8.628-5.072c-15.853-10.24-23.434-24.66-27.077-31.59
		l-0.348-0.659C4.53,64.183,3.095,53.969,4.542,43.132c3.506-21.396,22.305-32.735,28.611-35.02C40.715,5.383,47.793,4,54.19,4
		c26.87,0,34.29,23.965,34.592,24.982c0.248,0.846,1.02,1.429,1.901,1.437c0.006,0,0.012,0,0.018,0c0.874,0,1.647-0.567,1.909-1.403
		C92.688,28.766,100.752,4,127.92,4c6.44,0,13.54,1.383,21.099,4.111c6.306,2.285,25.097,13.623,28.601,34.961
		c0.348,2.611,0.533,5.206,0.553,7.713C178.24,58.863,176.621,66.569,173.222,74.344z"/>
	<path style="fill:#231F20;" d="M35.243,20.298c1.072-0.258,1.733-1.334,1.478-2.408c-0.256-1.074-1.339-1.738-2.408-1.482
		c-0.263,0.062-6.505,1.594-12.831,7.027c-5.813,4.992-12.807,14.36-13.114,30.642c-0.021,1.104,0.858,2.017,1.962,2.037
		c0.014,0,0.026,0,0.039,0c1.087,0,1.979-0.871,1.999-1.962C12.896,26.057,34.331,20.52,35.243,20.298z"/>
	<path style="fill:#231F20;" d="M41.254,95.99c-8.475-3.707-21.188-21.295-21.315-21.473c-0.645-0.897-1.896-1.102-2.791-0.457
		c-0.897,0.645-1.102,1.895-0.457,2.792c0.546,0.76,13.484,18.657,22.96,22.803c0.261,0.114,0.533,0.168,0.801,0.168
		c0.771,0,1.505-0.448,1.833-1.199C42.727,97.612,42.265,96.433,41.254,95.99z"/>
	<path style="fill:#231F20;" d="M61.19,108.51c-0.991-0.479-2.19-0.066-2.672,0.929c-0.48,0.994-0.064,2.19,0.93,2.671
		c0.171,0.083,17.226,8.43,25.908,20.912c0.389,0.559,1.011,0.858,1.644,0.858c0.394,0,0.792-0.116,1.141-0.358
		c0.906-0.63,1.13-1.877,0.499-2.784C79.365,117.405,61.927,108.867,61.19,108.51z"/>
</g>
<g>
</g>
<g>
</g>
<g>
</g>
<g>
</g>
<g>
</g>
<g>
</g>
<g>
</g>
<g>
</g>
<g>
</g>
<g>
</g>
<g>
</g>
<g>
</g>
<g>
</g>
<g>
</g>
<g>
</g>
</svg>
