<?xml version="1.0" encoding="iso-8859-1"?>
<!-- Generator: Adobe Illustrator 18.0.0, SVG Export Plug-In . SVG Version: 6.00 Build 0)  -->
<!DOCTYPE svg PUBLIC "-//W3C//DTD SVG 1.1//EN" "http://www.w3.org/Graphics/SVG/1.1/DTD/svg11.dtd">
<svg version="1.1" id="Capa_1" xmlns="http://www.w3.org/2000/svg" xmlns:xlink="http://www.w3.org/1999/xlink" x="0px" y="0px"
	 viewBox="0 0 110.321 187.834" style="enable-background:new 0 0 110.321 187.834;" xml:space="preserve">
<g>
	<path style="fill:#231F20;" d="M42.829,15.588h23c1.104,0,2-0.896,2-2s-0.896-2-2-2h-23c-1.104,0-2,0.896-2,2
		S41.724,15.588,42.829,15.588z"/>
	<path style="fill:#231F20;" d="M110.312,43.803l-0.002-29.689C110.309,7.176,104.681,0,95.263,0
		c-24.33,0-73.979,0.181-80.356,0.317C4.998,0.524,0.174,10.565,0.012,14.351c-0.033,0.817,0.002,9.234,0.08,26.669
		c0.159,35.896,0.455,102.712,0.06,130.097c-0.112,7.609,4.372,15.637,14.638,16.418c2.431,0.195,23.876,0.3,45.621,0.3
		c12.088,0,24.273-0.032,33.326-0.1c9.919-0.073,16.584-6.856,16.584-16.88C110.321,143.176,110.315,81.112,110.312,43.803z
		 M93.707,183.734c-26.751,0.196-75.231,0.082-78.606-0.188c-5.376-0.409-11.075-3.874-10.949-12.372
		c0.396-27.423,0.1-94.264-0.06-130.173C4.029,26.629,3.978,15.277,4.009,14.517C4.108,12.192,7.725,4.469,14.992,4.317
		C21.352,4.18,70.949,4,95.263,4c5.43,0,11.046,3.783,11.046,10.113l0.002,29.69c0.003,37.309,0.009,99.373,0.009,127.051
		C106.321,178.622,101.369,183.678,93.707,183.734z"/>
	<path style="fill:#231F20;" d="M95.658,24.898l-3.702,0.007c-49.937,0.088-75.846,0.108-76.972,0.064
		c-2.236-0.165-3.757,1.133-3.978,3.416c-0.06,0.714-0.064,28.275-0.017,101.694L11,147.373c0,2.427,1.514,4.057,3.767,4.057h80.656
		c2.385,0,3.866-1.555,3.866-4.057c0-43.132,0.015-116.59,0.072-118.325c0.051-1.172-0.332-2.247-1.08-3.028
		C97.589,25.297,96.659,24.898,95.658,24.898z M95.289,147.373c0,0.02,0,0.039,0,0.057L15,147.427c0-0.017,0-0.035,0-0.055
		l-0.01-17.295c-0.02-31.583-0.062-96.518-0.003-101.11c2.019,0.033,14.793,0.048,76.978-0.062l3.401-0.006
		C95.293,31.88,95.289,127.977,95.289,147.373z"/>
	<path style="fill:#231F20;" d="M64.57,162.537c0-0.86-0.327-1.654-0.92-2.236c-1.039-1.019-2.535-1.039-2.785-1.037L49.421,159.3
		c-1.73,0-3.599,1.213-3.653,3.455c-0.042,1.544-0.042,9.495,0,11.493c0.028,1.473,0.661,2.36,1.187,2.846
		c0.953,0.879,2.107,0.978,2.577,0.978c0.029,0,0.055,0,0.078-0.001h11.378c0.039,0,0.077-0.001,0.115-0.003
		c1.359-0.079,3.405-1.189,3.468-3.927c0-0.003,0-0.006,0-0.009c0.027-1.469,0.013-6.64,0.005-9.729L64.57,162.537z M60.571,174.053
		c0,0.006,0,0.012,0,0.018H49.764c-0.035-1.91-0.038-8.608-0.006-10.771l10.814-0.034l0.003,1.149
		C60.582,167.282,60.596,172.619,60.571,174.053z"/>
	<path style="fill:#231F20;" d="M21.089,34.389c-1.104,0-2,0.896-2,2v102.719c0,1.104,0.896,2,2,2s2-0.896,2-2V36.389
		C23.089,35.284,22.194,34.389,21.089,34.389z"/>
	<path style="fill:#231F20;" d="M10.875,17.218c0-1.255,0.345-2.169,1.055-2.797c1.468-1.298,4.272-1.279,5.23-1.158
		c1.092,0.137,2.094-0.633,2.236-1.726c0.143-1.096-0.629-2.1-1.725-2.242c-0.531-0.069-5.285-0.598-8.373,2.113
		c-1.585,1.392-2.424,3.401-2.424,5.81c0,1.104,0.896,2,2,2S10.875,18.322,10.875,17.218z"/>
	<path style="fill:#231F20;" d="M16.393,176.112c-1.249,0.146-2.196-0.088-2.902-0.719c-1.462-1.305-1.771-4.091-1.766-5.057
		c0.01-1.102-0.874-2.005-1.977-2.018c-0.008,0-0.016,0-0.024,0c-1.094,0-1.987,0.88-2,1.977c-0.006,0.536,0.027,5.318,3.084,8.065
		c1.315,1.183,2.998,1.792,4.916,1.792c0.371,0,0.751-0.022,1.139-0.068c1.097-0.13,1.881-1.125,1.751-2.222
		S17.49,175.992,16.393,176.112z"/>
</g>
<g>
</g>
<g>
</g>
<g>
</g>
<g>
</g>
<g>
</g>
<g>
</g>
<g>
</g>
<g>
</g>
<g>
</g>
<g>
</g>
<g>
</g>
<g>
</g>
<g>
</g>
<g>
</g>
<g>
</g>
</svg>
