<?xml version="1.0" encoding="iso-8859-1"?>
<!-- Generator: Adobe Illustrator 18.0.0, SVG Export Plug-In . SVG Version: 6.00 Build 0)  -->
<!DOCTYPE svg PUBLIC "-//W3C//DTD SVG 1.1//EN" "http://www.w3.org/Graphics/SVG/1.1/DTD/svg11.dtd">
<svg version="1.1" id="Capa_1" xmlns="http://www.w3.org/2000/svg" xmlns:xlink="http://www.w3.org/1999/xlink" x="0px" y="0px"
	 viewBox="0 0 146.836 187.118" style="enable-background:new 0 0 146.836 187.118;" xml:space="preserve">
<g>
	<path style="fill:#231F20;" d="M45.727,80.327c1.104,0,2-0.896,2-2V25.731c0-1.104-0.896-2-2-2s-2,0.896-2,2v52.596
		C43.727,79.431,44.622,80.327,45.727,80.327z"/>
	<path style="fill:#231F20;" d="M45.727,160.026c1.104,0,2-0.896,2-2v-51.12c0-1.104-0.896-2-2-2s-2,0.896-2,2v51.12
		C43.727,159.131,44.622,160.026,45.727,160.026z"/>
	<path style="fill:#231F20;" d="M15.752,13.894c-1.104,0-2,0.896-2,2v18.667c0,1.104,0.896,2,2,2s2-0.896,2-2V15.894
		C17.752,14.79,16.857,13.894,15.752,13.894z"/>
	<path style="fill:#231F20;" d="M15.752,150.559c-1.104,0-2,0.896-2,2v18.667c0,1.104,0.896,2,2,2s2-0.896,2-2v-18.667
		C17.752,151.455,16.857,150.559,15.752,150.559z"/>
	<path style="fill:#231F20;" d="M15.752,95.893c-1.104,0-2,0.896-2,2v18.667c0,1.104,0.896,2,2,2s2-0.896,2-2V97.893
		C17.752,96.789,16.857,95.893,15.752,95.893z"/>
	<path style="fill:#231F20;" d="M15.752,41.227c-1.104,0-2,0.896-2,2v18.667c0,1.104,0.896,2,2,2s2-0.896,2-2V43.227
		C17.752,42.123,16.857,41.227,15.752,41.227z"/>
	<path style="fill:#231F20;" d="M15.752,123.226c-1.104,0-2,0.896-2,2v18.667c0,1.104,0.896,2,2,2s2-0.896,2-2v-18.667
		C17.752,124.122,16.857,123.226,15.752,123.226z"/>
	<path style="fill:#231F20;" d="M15.752,68.56c-1.104,0-2,0.896-2,2v18.667c0,1.104,0.896,2,2,2s2-0.896,2-2V70.56
		C17.752,69.456,16.857,68.56,15.752,68.56z"/>
	<path style="fill:#231F20;" d="M111.444,16.571H35.399c-1.104,0-2,0.896-2,2v69.011c0,1.104,0.896,2,2,2h76.045
		c1.104,0,2-0.896,2-2V18.571C113.444,17.466,112.548,16.571,111.444,16.571z M109.444,85.582H37.399V20.571h72.045V85.582z"/>
	<path style="fill:#231F20;" d="M125.752,13.894c-1.104,0-2,0.896-2,2v18.667c0,1.104,0.896,2,2,2s2-0.896,2-2V15.894
		C127.752,14.79,126.857,13.894,125.752,13.894z"/>
	<path style="fill:#231F20;" d="M125.752,68.56c-1.104,0-2,0.896-2,2v18.667c0,1.104,0.896,2,2,2s2-0.896,2-2V70.56
		C127.752,69.456,126.857,68.56,125.752,68.56z"/>
	<path style="fill:#231F20;" d="M111.444,95.577H35.399c-1.104,0-2,0.896-2,2v70.97c0,1.104,0.896,2,2,2h76.045c1.104,0,2-0.896,2-2
		v-70.97C113.444,96.472,112.548,95.577,111.444,95.577z M109.444,166.547H37.399v-66.97h72.045V166.547z"/>
	<path style="fill:#231F20;" d="M146.819,19.885c0,0,0-0.001,0-0.002c-0.125-11.545-1.65-19.727-20.252-19.863
		c-5.023-0.035-23.136-0.011-48.787,0.036c-0.112,0-0.222,0.01-0.329,0.028c-18.49-0.048-50.14-0.12-57.189-0.064
		C1.662,0.157,0.141,8.339,0.022,19.883c-0.045,4.158-0.014,34.474,0.031,73.669c-0.045,39.205-0.076,69.524-0.031,73.68
		c0.119,11.546,1.64,19.729,20.245,19.875c6.225,0.028,30.774-0.003,57.19-0.073c0.104,0.018,0.213,0.026,0.322,0.026
		c19.501,0.038,33.398,0.058,41.537,0.058c3.465,0,5.887-0.004,7.252-0.011c18.6-0.146,20.125-8.329,20.25-19.876
		c0.047-4.944-0.012-48.285-0.051-73.674C146.807,68.167,146.866,24.832,146.819,19.885z M142.819,167.19
		c-0.115,10.665-0.854,15.797-16.275,15.917c-4.543,0.023-20.833,0.007-48.427-0.046c-0.111-0.019-0.258-0.007-0.338-0.028
		c-26.097,0.07-51.35,0.104-57.487,0.074c-15.423-0.12-16.16-5.252-16.27-15.917c-0.049-4.464-0.005-42.816,0.031-73.638
		c-0.036-30.813-0.08-69.16-0.031-73.627C4.131,9.263,4.869,4.133,20.291,4.02c5.246-0.042,25.659-0.019,57.487,0.065
		c0.075-0.021,0.228-0.01,0.339-0.03c25.462-0.047,43.432-0.071,48.421-0.035c15.425,0.113,16.165,5.242,16.28,15.904
		c0.047,4.926-0.012,48.244-0.051,73.633C142.807,118.944,142.866,162.268,142.819,167.19z"/>
	<path style="fill:#231F20;" d="M125.752,41.227c-1.104,0-2,0.896-2,2v18.667c0,1.104,0.896,2,2,2s2-0.896,2-2V43.227
		C127.752,42.123,126.857,41.227,125.752,41.227z"/>
	<path style="fill:#231F20;" d="M125.752,150.559c-1.104,0-2,0.896-2,2v18.667c0,1.104,0.896,2,2,2s2-0.896,2-2v-18.667
		C127.752,151.455,126.857,150.559,125.752,150.559z"/>
	<path style="fill:#231F20;" d="M125.752,123.226c-1.104,0-2,0.896-2,2v18.667c0,1.104,0.896,2,2,2s2-0.896,2-2v-18.667
		C127.752,124.122,126.857,123.226,125.752,123.226z"/>
	<path style="fill:#231F20;" d="M125.752,95.893c-1.104,0-2,0.896-2,2v18.667c0,1.104,0.896,2,2,2s2-0.896,2-2V97.893
		C127.752,96.789,126.857,95.893,125.752,95.893z"/>
</g>
<g>
</g>
<g>
</g>
<g>
</g>
<g>
</g>
<g>
</g>
<g>
</g>
<g>
</g>
<g>
</g>
<g>
</g>
<g>
</g>
<g>
</g>
<g>
</g>
<g>
</g>
<g>
</g>
<g>
</g>
</svg>
