<?xml version="1.0" encoding="iso-8859-1"?>
<!-- Generator: Adobe Illustrator 18.0.0, SVG Export Plug-In . SVG Version: 6.00 Build 0)  -->
<!DOCTYPE svg PUBLIC "-//W3C//DTD SVG 1.1//EN" "http://www.w3.org/Graphics/SVG/1.1/DTD/svg11.dtd">
<svg version="1.1" id="Capa_1" xmlns="http://www.w3.org/2000/svg" xmlns:xlink="http://www.w3.org/1999/xlink" x="0px" y="0px"
	 viewBox="0 0 179.609 152.906" style="enable-background:new 0 0 179.609 152.906;" xml:space="preserve">
<g>
	<path style="fill:#231F20;" d="M167.412,101.936h-5.346V61.367c0-1.219-0.988-2.207-2.207-2.207h-27.572v-7.047h5.352
		c6.724,0,12.193-5.476,12.193-12.205V13.354c0-6.734-5.47-12.213-12.193-12.213h-26.557c-6.734,0-12.213,5.479-12.213,12.213
		v26.555c0,6.729,5.479,12.205,12.213,12.205h5.338v7.047H62.422v-8.189h5.352c6.727,0,12.199-5.479,12.199-12.213V12.213
		C79.973,5.479,74.5,0,67.773,0H41.213c-6.73,0-12.207,5.479-12.207,12.213v26.545c0,6.734,5.477,12.213,12.207,12.213h5.346v8.189
		h-26.42c-1.219,0-2.207,0.988-2.207,2.207v40.568h-5.729C5.475,101.936,0,107.413,0,114.146v26.547
		c0,6.734,5.475,12.213,12.203,12.213h26.564c6.729,0,12.205-5.479,12.205-12.213v-5.727h13.346v5.727
		c0,6.734,5.478,12.213,12.209,12.213h26.561c6.729,0,12.203-5.479,12.203-12.213v-5.727h13.348v5.727
		c0,6.734,5.479,12.213,12.213,12.213h26.561c6.726,0,12.197-5.479,12.197-12.213v-26.547
		C179.609,107.413,174.138,101.936,167.412,101.936z M175.195,140.693c0,4.301-3.491,7.799-7.783,7.799h-26.561
		c-4.301,0-7.799-3.498-7.799-7.799v-7.934c0-1.219-0.988-2.207-2.207-2.207h-17.762c-1.219,0-2.207,0.988-2.207,2.207v7.934
		c0,4.301-3.494,7.799-7.789,7.799H76.527c-4.298,0-7.795-3.498-7.795-7.799v-7.934c0-1.219-0.988-2.207-2.207-2.207h-17.76
		c-1.219,0-2.207,0.988-2.207,2.207v7.934c0,4.301-3.495,7.799-7.791,7.799H12.203c-4.295,0-7.789-3.498-7.789-7.799v-26.547
		c0-4.3,3.494-7.797,7.789-7.797h7.936c1.219,0,2.207-0.988,2.207-2.207V63.574h26.42c1.219,0,2.207-0.988,2.207-2.207V48.764
		c0-1.219-0.988-2.207-2.207-2.207h-7.553c-4.297,0-7.793-3.498-7.793-7.799V12.213c0-4.301,3.496-7.799,7.793-7.799h26.561
		c4.293,0,7.785,3.498,7.785,7.799v26.545c0,4.301-3.492,7.799-7.785,7.799h-7.559c-1.219,0-2.207,0.988-2.207,2.207v12.604
		c0,1.219,0.988,2.207,2.207,2.207h58.412c1.219,0,2.207-0.988,2.207-2.207V49.906c0-1.219-0.988-2.207-2.207-2.207h-7.545
		c-4.301,0-7.799-3.495-7.799-7.791V13.354c0-4.301,3.498-7.799,7.799-7.799h26.557c4.29,0,7.779,3.498,7.779,7.799v26.555
		c0,4.296-3.489,7.791-7.779,7.791h-7.559c-1.219,0-2.207,0.988-2.207,2.207v11.461c0,1.219,0.988,2.207,2.207,2.207h27.572v40.568
		c0,1.219,0.988,2.207,2.207,2.207h7.553c4.292,0,7.783,3.497,7.783,7.797V140.693z"/>
	<path style="fill:#231F20;" d="M148.408,70.611H31.59c-1.219,0-2.207,0.988-2.207,2.207v31.324c0,1.219,0.988,2.207,2.207,2.207
		h7.178c4.296,0,7.791,3.497,7.791,7.797v7.154c0,1.219,0.988,2.207,2.207,2.207h17.76c1.219,0,2.207-0.988,2.207-2.207v-7.154
		c0-4.3,3.497-7.797,7.795-7.797h26.561c4.295,0,7.789,3.497,7.789,7.797v7.154c0,1.219,0.988,2.207,2.207,2.207h17.762
		c1.219,0,2.207-0.988,2.207-2.207v-7.154c0-4.3,3.498-7.797,7.799-7.797h7.557c1.219,0,2.207-0.988,2.207-2.207V72.818
		C150.615,71.6,149.627,70.611,148.408,70.611z M146.201,101.936h-5.35c-6.734,0-12.213,5.478-12.213,12.211v4.947h-13.348v-4.947
		c0-6.733-5.475-12.211-12.203-12.211H76.527c-6.731,0-12.209,5.478-12.209,12.211v4.947H50.973v-4.947
		c0-6.733-5.476-12.211-12.205-12.211h-4.971v-26.91h112.404V101.936z"/>
	<path style="fill:#231F20;" d="M40.459,12.039c-1.219,0-2.207,0.988-2.207,2.207v21.949c0,1.219,0.988,2.207,2.207,2.207
		s2.207-0.988,2.207-2.207V14.246C42.666,13.027,41.678,12.039,40.459,12.039z"/>
	<path style="fill:#231F20;" d="M12.455,115.107c-1.219,0-2.207,0.988-2.207,2.207v21.949c0,1.219,0.988,2.207,2.207,2.207
		s2.207-0.988,2.207-2.207v-21.949C14.662,116.096,13.674,115.107,12.455,115.107z"/>
	<path style="fill:#231F20;" d="M75.274,130.487c-1.219,0-2.207,0.988-2.207,2.207v8.569c0,1.219,0.988,2.207,2.207,2.207
		s2.207-0.988,2.207-2.207v-8.569C77.481,131.476,76.493,130.487,75.274,130.487z"/>
	<path style="fill:#231F20;" d="M138.472,130.487c-1.219,0-2.207,0.988-2.207,2.207v8.569c0,1.219,0.988,2.207,2.207,2.207
		s2.207-0.988,2.207-2.207v-8.569C140.679,131.476,139.69,130.487,138.472,130.487z"/>
	<path style="fill:#231F20;" d="M110.604,12.039c-1.219,0-2.207,0.988-2.207,2.207v21.949c0,1.219,0.988,2.207,2.207,2.207
		s2.207-0.988,2.207-2.207V14.246C112.812,13.027,111.823,12.039,110.604,12.039z"/>
</g>
<g>
</g>
<g>
</g>
<g>
</g>
<g>
</g>
<g>
</g>
<g>
</g>
<g>
</g>
<g>
</g>
<g>
</g>
<g>
</g>
<g>
</g>
<g>
</g>
<g>
</g>
<g>
</g>
<g>
</g>
</svg>
