<?xml version="1.0" encoding="iso-8859-1"?>
<!-- Generator: Adobe Illustrator 18.0.0, SVG Export Plug-In . SVG Version: 6.00 Build 0)  -->
<!DOCTYPE svg PUBLIC "-//W3C//DTD SVG 1.1//EN" "http://www.w3.org/Graphics/SVG/1.1/DTD/svg11.dtd">
<svg version="1.1" id="Capa_1" xmlns="http://www.w3.org/2000/svg" xmlns:xlink="http://www.w3.org/1999/xlink" x="0px" y="0px"
	 viewBox="0 0 184.684 127.074" style="enable-background:new 0 0 184.684 127.074;" xml:space="preserve">
<g>
	<path style="fill:#231F20;" d="M31.666,80.129h50.484c1.104,0,2-0.896,2-2V50.523c0-1.104-0.896-2-2-2H31.666c-1.104,0-2,0.896-2,2
		v27.605C29.666,79.233,30.562,80.129,31.666,80.129z M33.666,52.523h46.484v23.605H33.666V52.523z"/>
	<path style="fill:#231F20;" d="M184.664,5.635C184.618,1.742,181.725,0,178.877,0c-0.101,0-0.182,0.002-0.237,0.005L22.974,0.006
		c-1.919,0.056-4.782,1.399-4.804,4.873c-0.011,1.328-0.012,27.488-0.01,55.077H2c-0.629,0-1.221,0.296-1.599,0.798
		s-0.497,1.152-0.323,1.757l18.112,62.761c0.1,1.01,0.943,1.803,1.98,1.803h162.494c1.104,0,2-0.895,2-1.999
		C184.666,120.359,184.708,9.543,184.664,5.635z M18.161,63.956c0.002,17.435,0.004,34.986,0.007,46.81L4.659,63.956H18.161z
		 M180.665,123.074H22.215V61.956c0-0.154-0.021-0.302-0.054-0.446C22.159,33.365,22.159,6.234,22.17,4.908
		c0.002-0.273,0.005-0.842,0.861-0.903h155.664c0.05,0,0.132-0.001,0.182-0.005c1.768,0,1.78,1.136,1.787,1.681
		C180.705,9.279,180.671,107.709,180.665,123.074z"/>
	<path style="fill:#231F20;" d="M167.048,29.549H31.778c-1.104,0-2,0.896-2,2s0.896,2,2,2h135.27c1.104,0,2-0.896,2-2
		S168.152,29.549,167.048,29.549z"/>
	<path style="fill:#231F20;" d="M167.048,47.289h-77.06c-1.104,0-2,0.896-2,2s0.896,2,2,2h77.06c1.104,0,2-0.896,2-2
		S168.152,47.289,167.048,47.289z"/>
	<path style="fill:#231F20;" d="M167.048,65.029h-77.06c-1.104,0-2,0.896-2,2s0.896,2,2,2h77.06c1.104,0,2-0.896,2-2
		S168.152,65.029,167.048,65.029z"/>
	<path style="fill:#231F20;" d="M167.048,82.77h-77.06c-1.104,0-2,0.896-2,2s0.896,2,2,2h77.06c1.104,0,2-0.896,2-2
		S168.152,82.77,167.048,82.77z"/>
	<path style="fill:#231F20;" d="M167.048,100.51H31.778c-1.104,0-2,0.896-2,2s0.896,2,2,2h135.27c1.104,0,2-0.896,2-2
		S168.152,100.51,167.048,100.51z"/>
</g>
<g>
</g>
<g>
</g>
<g>
</g>
<g>
</g>
<g>
</g>
<g>
</g>
<g>
</g>
<g>
</g>
<g>
</g>
<g>
</g>
<g>
</g>
<g>
</g>
<g>
</g>
<g>
</g>
<g>
</g>
</svg>
