<?xml version="1.0" encoding="iso-8859-1"?>
<!-- Generator: Adobe Illustrator 18.0.0, SVG Export Plug-In . SVG Version: 6.00 Build 0)  -->
<!DOCTYPE svg PUBLIC "-//W3C//DTD SVG 1.1//EN" "http://www.w3.org/Graphics/SVG/1.1/DTD/svg11.dtd">
<svg version="1.1" id="Capa_1" xmlns="http://www.w3.org/2000/svg" xmlns:xlink="http://www.w3.org/1999/xlink" x="0px" y="0px"
	 viewBox="0 0 117.453 191.211" style="enable-background:new 0 0 117.453 191.211;" xml:space="preserve">
<g>
	<path style="fill:#231F20;" d="M19.324,120.688c2.391,0.038,21.647,0.063,39.662,0.072c15.167,0.075,31.302,0.132,37.529,0.132
		c0.006,0,0.012,0,0.018,0c1.042,0,1.766-0.002,2.122-0.005c5.896-0.071,10.835-0.953,11.533-11.009
		c0.021-0.226,0.087-0.965,0.076-1.456c0.011-0.489-0.051-1.214-0.067-1.384c-0.641-10.117-5.798-11.031-11.471-11.115
		c-1.48-0.032-9.083-0.044-20.179-0.052c0.049-22.151,2.893-40.572,4.531-44.809c3.792-5.455,5.812-11.822,5.847-18.431
		C89,13.183,77.753,0.07,60.94,0l-0.162,0C44.059,0,32.776,13.009,32.701,32.37c-0.033,6.758,2.014,13.248,5.923,18.788
		c2.539,7.197,3.354,22.972,2.312,44.612c-11.335-0.048-20.046-0.078-21.572-0.054c-5.891,0.072-10.823,0.954-11.516,11.027
		c-0.021,0.226-0.086,0.978-0.075,1.467c-0.004,0.442,0.055,1.172,0.07,1.354C8.498,119.71,13.651,120.616,19.324,120.688z
		 M11.835,107.063c0.479-6.968,2.67-7.288,7.588-7.348c0.381-0.006,1.196-0.009,2.377-0.009c3.891,0,11.696,0.031,21.029,0.071
		c0.003,0,0.006,0,0.009,0c1.063,0,1.941-0.833,1.997-1.896c0.71-13.552,1.322-37.854-2.546-48.353
		c-0.062-0.169-0.147-0.329-0.253-0.476c-3.52-4.899-5.365-10.662-5.335-16.667C36.755,18.258,44.221,4,60.778,4l0.145,0
		c14.647,0.06,24.07,11.292,24.004,28.612c-0.03,5.862-1.845,11.51-5.249,16.335c-0.083,0.118-0.153,0.244-0.209,0.376
		c-2.09,4.96-5.043,25.106-4.917,48.556c0.006,1.1,0.898,1.989,1.999,1.989c10.514,0.007,20.467,0.018,22.104,0.053
		c4.917,0.073,7.11,0.399,7.556,7.425c0.031,0.342,0.062,0.835,0.056,0.982c-0.002,0.056-0.002,0.126,0,0.182
		c0.005,0.134-0.023,0.605-0.063,1.038c-0.483,6.958-2.678,7.278-7.591,7.337c-0.346,0.003-1.056,0.005-2.077,0.005
		c-0.006,0-0.013,0-0.019,0c-6.223,0-22.348-0.057-37.519-0.132c-18.009-0.008-37.24-0.034-39.616-0.071
		c-4.906-0.063-7.094-0.386-7.548-7.421c-0.001-0.012-0.066-0.729-0.06-1.027c0-0.037,0-0.074-0.001-0.111
		C11.767,107.97,11.799,107.463,11.835,107.063z"/>
	<path style="fill:#231F20;" d="M117.359,188.6l-10.621-62.662c-0.162-0.959-0.991-1.663-1.964-1.666l-91.613-0.34
		c-0.003,0-0.006,0-0.008,0c-0.97,0-1.8,0.695-1.97,1.651L0.03,188.445c-0.103,0.581,0.057,1.178,0.435,1.631
		s0.937,0.716,1.527,0.718l15.309,0.058c0.003,0,0.005,0,0.008,0c0.705,0,1.334-0.367,1.69-0.931
		c0.355,0.567,0.983,0.938,1.689,0.94l37.51,0.134c0.002,0,0.005,0,0.007,0c0.517,0,0.99-0.197,1.347-0.522
		c0.355,0.327,0.829,0.526,1.347,0.528l37.457,0.146c0.003,0,0.005,0,0.008,0c0.733,0,1.384-0.397,1.731-0.999
		c0.346,0.61,0.998,1.013,1.734,1.015l13.598,0.048c0.002,0,0.005,0,0.007,0c0.007,0,0.015,0.001,0.02,0c1.105,0,2-0.896,2-2
		C117.453,188.998,117.42,188.792,117.359,188.6z M103.559,187.168l-1.585-10.537c-0.147-0.979-0.988-1.703-1.978-1.703
		c-0.005,0-0.011,0-0.017,0c-0.996,0.008-1.834,0.748-1.966,1.735l-1.4,10.476l-33.846-0.131l-1.116-15.461
		c-0.075-1.042-0.939-1.85-1.983-1.856c-0.004,0-0.008,0-0.012,0c-1.039,0-1.906,0.796-1.993,1.833l-1.297,15.464l-33.949-0.121
		l-1.543-10.236c-0.147-0.979-0.989-1.702-1.978-1.702c-0.006,0-0.012,0-0.018,0c-0.995,0.009-1.833,0.749-1.965,1.736l-1.355,10.18
		l-11.174-0.042l10.443-58.865l88.247,0.328l9.989,58.937L103.559,187.168z"/>
	<path style="fill:#231F20;" d="M45.834,35.169c-2.642-14.79,7.742-22.193,8.211-22.518c0.909-0.624,1.142-1.866,0.52-2.777
		c-0.622-0.912-1.867-1.146-2.779-0.523c-0.532,0.363-12.999,9.103-9.889,26.521c0.173,0.969,1.016,1.649,1.967,1.649
		c0.116,0,0.234-0.01,0.354-0.032C45.304,37.296,46.029,36.257,45.834,35.169z"/>
	<path style="fill:#231F20;" d="M50.672,70.59c-1.104,0.017-1.986,0.926-1.97,2.03c0.003,0.192,0.287,19.259,0.003,24.675
		c-0.058,1.103,0.789,2.044,1.893,2.102c0.035,0.002,0.071,0.003,0.106,0.003c1.057,0,1.939-0.828,1.995-1.895
		c0.291-5.55,0.015-24.156,0.003-24.945C52.686,71.456,51.788,70.588,50.672,70.59z"/>
	<path style="fill:#231F20;" d="M16.428,110.784c1.104,0,2-0.896,2-2c0-3.109,1.68-3.516,2.408-3.546c1.091-0.016,1.97-0.905,1.97-2
		c0-1.104-0.896-2-2-2c-1.774,0-6.378,1.355-6.378,7.546C14.428,109.889,15.323,110.784,16.428,110.784z"/>
	<path style="fill:#231F20;" d="M20.119,132.794c-1.095-0.197-2.128,0.527-2.323,1.613l-7.59,42.032
		c-0.196,1.087,0.525,2.127,1.612,2.324c0.12,0.021,0.24,0.032,0.357,0.032c0.949,0,1.792-0.678,1.966-1.645l7.59-42.032
		C21.928,134.031,21.206,132.99,20.119,132.794z"/>
</g>
<g>
</g>
<g>
</g>
<g>
</g>
<g>
</g>
<g>
</g>
<g>
</g>
<g>
</g>
<g>
</g>
<g>
</g>
<g>
</g>
<g>
</g>
<g>
</g>
<g>
</g>
<g>
</g>
<g>
</g>
</svg>
