<?xml version="1.0" encoding="iso-8859-1"?>
<!-- Generator: Adobe Illustrator 18.0.0, SVG Export Plug-In . SVG Version: 6.00 Build 0)  -->
<!DOCTYPE svg PUBLIC "-//W3C//DTD SVG 1.1//EN" "http://www.w3.org/Graphics/SVG/1.1/DTD/svg11.dtd">
<svg version="1.1" id="Capa_1" xmlns="http://www.w3.org/2000/svg" xmlns:xlink="http://www.w3.org/1999/xlink" x="0px" y="0px"
	 viewBox="0 0 186.725 161.599" style="enable-background:new 0 0 186.725 161.599;" xml:space="preserve">
<g>
	<path style="fill:#231F20;" d="M74.221,112.532c-0.646,0.474-0.946,1.287-0.764,2.067l7.555,32.366
		c0.215,0.922,1.038,1.545,1.946,1.545c0.151,0,0.304-0.017,0.457-0.053c1.076-0.251,1.744-1.326,1.493-2.402l-7.274-31.163
		l57.931-62.264c0.752-0.809,0.707-2.074-0.102-2.826c-0.809-0.753-2.074-0.708-2.827,0.102l-58.09,62.434
		C74.433,112.392,74.324,112.457,74.221,112.532z"/>
	<path style="fill:#231F20;" d="M186.068,0.519c-0.552-0.502-1.337-0.655-2.038-0.394L1.305,67.828
		c-0.72,0.267-1.224,0.922-1.296,1.686c-0.072,0.765,0.299,1.503,0.955,1.9l52.927,32.048l27.926,57.017
		c0.298,0.608,0.883,1.024,1.556,1.105c0.08,0.01,0.16,0.015,0.24,0.015c0.589,0,1.153-0.26,1.535-0.718l21.346-25.561
		l36.749,22.252c0.54,0.325,1.202,0.379,1.787,0.143c0.584-0.236,1.023-0.735,1.184-1.345L186.659,2.51
		C186.849,1.788,186.621,1.02,186.068,0.519z M143.025,152.764l-35.928-21.755c-0.845-0.513-1.938-0.329-2.571,0.429l-20.472,24.514
		l-26.609-54.327c-0.123-0.501-0.438-0.951-0.907-1.235L6.581,70.139L181.813,5.213L143.025,152.764z"/>
	<path style="fill:#231F20;" d="M23.735,73.455l22.369,14.186c0.333,0.21,0.703,0.311,1.069,0.311c0.662,0,1.31-0.328,1.691-0.929
		c0.592-0.933,0.315-2.169-0.618-2.761L29.261,72.223l54.083-20.409c1.034-0.39,1.555-1.544,1.165-2.577
		c-0.39-1.033-1.543-1.557-2.577-1.165L24.1,69.894c-0.709,0.268-1.206,0.913-1.284,1.667
		C22.739,72.315,23.095,73.049,23.735,73.455z"/>
	<path style="fill:#231F20;" d="M111.901,124.982c-0.541,0.964-0.198,2.183,0.766,2.723l22.369,12.548
		c0.31,0.174,0.646,0.256,0.977,0.256c0.7,0,1.379-0.368,1.746-1.021c0.541-0.964,0.198-2.183-0.766-2.723l-22.369-12.548
		C113.66,123.676,112.441,124.02,111.901,124.982z"/>
</g>
<g>
</g>
<g>
</g>
<g>
</g>
<g>
</g>
<g>
</g>
<g>
</g>
<g>
</g>
<g>
</g>
<g>
</g>
<g>
</g>
<g>
</g>
<g>
</g>
<g>
</g>
<g>
</g>
<g>
</g>
</svg>
