<?xml version="1.0" encoding="iso-8859-1"?>
<!-- Generator: Adobe Illustrator 18.0.0, SVG Export Plug-In . SVG Version: 6.00 Build 0)  -->
<!DOCTYPE svg PUBLIC "-//W3C//DTD SVG 1.1//EN" "http://www.w3.org/Graphics/SVG/1.1/DTD/svg11.dtd">
<svg version="1.1" id="Capa_1" xmlns="http://www.w3.org/2000/svg" xmlns:xlink="http://www.w3.org/1999/xlink" x="0px" y="0px"
	 viewBox="0 0 150.481 186.221" style="enable-background:new 0 0 150.481 186.221;" xml:space="preserve">
<g>
	<path style="fill:#231F20;" d="M132.807,73.217H17.673c-1.104,0-2,0.896-2,2v18.874c0,1.104,0.896,2,2,2h115.134
		c1.104,0,2-0.896,2-2V75.217C134.807,74.112,133.911,73.217,132.807,73.217z M130.807,92.091H19.673V77.217h111.134V92.091z"/>
	<path style="fill:#231F20;" d="M150.391,173.697V10.8c0-3.968-0.862-6.758-2.637-8.529c-2.21-2.206-5.194-2.198-7.354-2.197H11.658
		c-0.994-0.107-5.671-0.445-8.831,2.25c-1.7,1.451-2.641,3.549-2.719,6.066c-0.238,7.494-0.011,159.456,0,165.868
		c-0.006,0.205-0.088,5.081,3.32,8.576c2.188,2.245,5.237,3.383,9.061,3.383c2.189,0,8.426-0.01,17.04-0.022
		c32.93-0.053,101.448-0.155,109.85,0.021c0.137,0.004,0.271,0.005,0.405,0.005c3.529,0,6.27-1.085,8.15-3.229
		C150.928,179.58,150.513,174.695,150.391,173.697z M144.927,180.354c-1.134,1.294-2.976,1.938-5.459,1.862
		c-3.551-0.075-17.707-0.1-35.379-0.1c-24.387,0-55.464,0.047-74.565,0.077c-8.611,0.013-14.845,0.022-17.034,0.022
		c-2.689,0-4.767-0.724-6.174-2.152c-2.232-2.266-2.209-5.683-2.208-5.76C4.105,172.722,3.87,15.944,4.106,8.515
		C4.149,7.12,4.577,6.093,5.414,5.374c1.7-1.459,4.82-1.441,5.874-1.317c0.084,0.011,0.169,0.017,0.254,0.017h128.864
		c1.692-0.007,3.485-0.006,4.521,1.028c0.971,0.969,1.463,2.886,1.463,5.698v163.029c0,0.103,0.008,0.205,0.023,0.307
		C146.42,174.174,146.953,178.044,144.927,180.354z"/>
	<path style="fill:#231F20;" d="M57.473,65.153c0.439,0,0.881-0.144,1.25-0.439l26.053-20.89c0.55-0.44,0.827-1.138,0.73-1.836
		c-0.098-0.697-0.555-1.293-1.203-1.567l-16.917-7.146l22.477-21.31c0.802-0.76,0.835-2.025,0.075-2.827
		c-0.761-0.802-2.026-0.835-2.827-0.075L62.415,32.477c-0.49,0.464-0.713,1.145-0.592,1.809c0.12,0.664,0.567,1.223,1.189,1.485
		l16.645,7.03L56.221,61.593c-0.862,0.691-1,1.95-0.31,2.812C56.307,64.897,56.887,65.153,57.473,65.153z"/>
	<path style="fill:#231F20;" d="M132.807,108.141H17.673c-1.104,0-2,0.896-2,2v57.571c0,1.104,0.896,2,2,2h115.134
		c1.104,0,2-0.896,2-2v-57.571C134.807,109.036,133.911,108.141,132.807,108.141z M130.807,165.712H19.673v-53.571h111.134V165.712z
		"/>
	<path style="fill:#231F20;" d="M75.24,140.45c6.404,0,11.614-5.213,11.614-11.62c0-6.399-5.21-11.605-11.614-11.605
		c-6.401,0-11.609,5.206-11.609,11.605C63.631,135.237,68.839,140.45,75.24,140.45z M75.24,121.225c4.198,0,7.614,3.412,7.614,7.605
		c0,4.202-3.416,7.62-7.614,7.62c-4.196,0-7.609-3.418-7.609-7.62C67.631,124.637,71.044,121.225,75.24,121.225z"/>
	<path style="fill:#231F20;" d="M30.463,9.976c0-1.104-0.896-2-2-2H14.976c-0.58-0.029-2.271,0.036-3.931,1.501
		c-2.444,2.158-3.684,6.299-3.684,12.308v32.3c0,1.104,0.896,2,2,2s2-0.896,2-2v-32.3c0-6.106,1.384-8.382,2.209-9.195
		c0.616-0.606,1.13-0.621,1.101-0.629c0.147,0.035,0.098,0.017,0.247,0.016h13.545C29.567,11.976,30.463,11.08,30.463,9.976z"/>
	<path style="fill:#231F20;" d="M9.242,86.115c-1.104,0-2,0.896-2,2v70.666c0,1.104,0.896,2,2,2s2-0.896,2-2V88.115
		C11.242,87.011,10.347,86.115,9.242,86.115z"/>
</g>
<g>
</g>
<g>
</g>
<g>
</g>
<g>
</g>
<g>
</g>
<g>
</g>
<g>
</g>
<g>
</g>
<g>
</g>
<g>
</g>
<g>
</g>
<g>
</g>
<g>
</g>
<g>
</g>
<g>
</g>
</svg>
