<?xml version="1.0" encoding="iso-8859-1"?>
<!-- Generator: Adobe Illustrator 18.0.0, SVG Export Plug-In . SVG Version: 6.00 Build 0)  -->
<!DOCTYPE svg PUBLIC "-//W3C//DTD SVG 1.1//EN" "http://www.w3.org/Graphics/SVG/1.1/DTD/svg11.dtd">
<svg version="1.1" id="Capa_1" xmlns="http://www.w3.org/2000/svg" xmlns:xlink="http://www.w3.org/1999/xlink" x="0px" y="0px"
	 viewBox="0 0 146.937 186.393" style="enable-background:new 0 0 146.937 186.393;" xml:space="preserve">
<g>
	<path style="fill:#231F20;" d="M32.089,60.223c-1.104,0-2,0.896-2,2v105.002c0,1.104,0.896,2,2,2s2-0.896,2-2V62.223
		C34.089,61.118,33.194,60.223,32.089,60.223z"/>
	<path style="fill:#231F20;" d="M72.014,60.223c-1.104,0-2,0.896-2,2v105.002c0,1.104,0.896,2,2,2s2-0.896,2-2V62.223
		C74.014,61.118,73.118,60.223,72.014,60.223z"/>
	<path style="fill:#231F20;" d="M111.939,60.223c-1.104,0-2,0.896-2,2v105.002c0,1.104,0.896,2,2,2s2-0.896,2-2V62.223
		C113.939,61.118,113.043,60.223,111.939,60.223z"/>
	<path style="fill:#231F20;" d="M146.88,109.258c0.014-3.676,0.014-7.321,0.014-10.896c0.03-1.229,0.042-8.463,0.035-21.506l0-0.915
		c0.016-8.955,0-15.182-0.007-16.74c-0.067-6.57-0.712-12.058-6.225-14.796c2.909-1.694,4.901-4.857,5.369-10.784
		c0.027-0.263,0.111-1.122,0.095-1.69c0.015-0.582-0.076-1.448-0.101-1.658c-0.957-11.634-7.699-12.648-15.757-12.73
		c-1.774-0.013-10.01,0.005-21.481,0.03L93.94,17.604c0-3.835-0.002-6.353-0.019-7.093c-0.092-6.357-1.963-9.905-11.559-10.449
		c0,0-0.866-0.01-1.394-0.055C80.646,0,73.849,0,73.075,0c-1.263,0-7.578,0.001-7.795,0.007c-0.015,0-0.119-0.001-0.133-0.001
		c-0.474,0-1.341,0.055-1.34,0.055c-9.616,0.545-11.486,4.094-11.572,10.44c-0.014,0.752-0.016,3.301-0.017,7.181
		c-20.764,0.009-34.049,0.021-36.396,0.05c-8.051,0.094-14.793,1.12-15.738,12.763c-0.016,0.185-0.092,1.11-0.083,1.669
		c-0.007,0.537,0.082,1.418,0.106,1.639c0.518,6.183,2.657,9.367,5.751,11.004c-4.83,2.853-5.417,8.135-5.477,14.404
		c-0.009,1.459-0.009,9.939-0.009,15.282c0,2.648,0.01,11.296,0.017,17.684l0.018,11.509c0.004,1.854,0.007,3.713,0.016,5.562
		c-0.044,25.475-0.082,56.599-0.042,60.477c0.091,9.372,1.347,16.551,16.272,16.662c1.179,0.005,3.252,0.008,6.016,0.008
		c5.193,0,12.823-0.009,21.525-0.026h58.905c13.334,0.027,24.147,0.033,27.554,0.019c14.915-0.111,16.173-7.289,16.269-16.661
		C146.953,166.648,146.937,144.04,146.88,109.258z M4.001,32.216c0-0.034,0-0.069,0-0.104c-0.006-0.244,0.038-0.908,0.07-1.287
		c0.665-8.191,3.764-9,11.8-9.094c2.403-0.03,16.455-0.042,38.348-0.051c1.104,0,1.999-0.896,1.999-2c0-4.8,0-8.268,0.016-9.114
		c0.053-3.917,0.083-6.075,7.816-6.513c0,0,0.71-0.048,1.097-0.048c0.011,0,0.119-0.001,0.128,0.001
		c0.549-0.011,15.067-0.011,15.608,0c0.016,0.001,0.115,0,0.129-0.001c0.374,0,1.082,0.047,1.107,0.049
		c7.714,0.437,7.745,2.595,7.802,6.527c0.018,0.834,0.018,4.271,0.018,9.025c0,0.531,0.211,1.04,0.587,1.416
		c0.375,0.374,0.883,0.584,1.413,0.584c0.001,0,0.002,0,0.004,0l16.887-0.035c11.433-0.024,19.7-0.043,21.438-0.03
		c8.034,0.081,11.133,0.884,11.811,9.118c0.05,0.449,0.09,1.003,0.083,1.159c-0.003,0.069-0.003,0.156,0,0.226
		c0.007,0.156-0.029,0.71-0.08,1.211c-0.647,8.186-3.746,8.995-11.786,9.094c-2.853,0.039-22.756,0.045-45.803,0.052l-11.397,0.003
		c-17.483,0.053-34.706,0.103-45.709,0.122c-5.939,0.001-9.845,0.002-10.628,0.004c-0.37-0.001-0.667-0.003-0.873-0.006
		C8.04,42.458,4.776,41.621,4.089,33.423C4.037,32.941,3.996,32.377,4.001,32.216z M142.921,169.683
		c-0.093,9.152-1.177,12.619-12.292,12.702c-3.393,0.015-14.195,0.008-27.526-0.019H44.19c-13.33,0.026-24.132,0.032-27.513,0.019
		c-11.125-0.083-12.208-3.549-12.296-12.702c-0.038-3.614-0.006-32.954,0.042-60.441c-0.008-1.858-0.012-3.715-0.016-5.564
		L4.389,92.172c-0.007-6.387-0.017-15.032-0.017-17.68c0-5.335,0-13.802,0.009-15.251c0.089-9.155,1.172-12.624,12.288-12.711
		c0.016,0,0.054,0,0.077,0c0.726,0.003,1.748,0.004,3.04,0.004c0.002,0,0.003,0,0.005,0c1.949,0,4.497-0.003,7.512-0.008
		c10.894-0.002,28.67-0.003,46.446-0.003c27.787,0,55.544,0.002,56.873,0.007c11.122,0.087,12.207,3.556,12.299,12.7
		c0.007,1.545,0.023,7.762,0.007,16.707l0,0.921c0.009,16.331-0.014,20.665-0.034,21.425c-0.001,0.018-0.001,0.036-0.001,0.054
		c0,3.578,0,7.227-0.014,10.916C142.937,144.032,142.953,166.622,142.921,169.683z"/>
	<path style="fill:#231F20;" d="M20.655,51.805c-0.222-0.05-5.474-1.222-9.132,1.688c-2.16,1.719-3.255,4.378-3.255,7.904v103.195
		c0,0.138,0.012,3.401,1.046,6.712c1.515,4.849,4.569,7.519,8.598,7.519c1.104,0,2-0.896,2-2s-0.896-2-2-2
		c-5.552,0-5.644-10.131-5.644-10.23V61.397c0-2.239,0.583-3.842,1.734-4.765c2.122-1.702,5.691-0.944,5.761-0.929
		c1.071,0.248,2.144-0.426,2.392-1.5C22.402,53.128,21.731,52.054,20.655,51.805z"/>
	<path style="fill:#231F20;" d="M9.253,33.73c1.104,0,2-0.896,2-2c0-1.271,0.3-2.137,0.891-2.575
		c1.124-0.833,3.348-0.425,4.041-0.215c1.053,0.325,2.17-0.263,2.499-1.314c0.329-1.055-0.258-2.177-1.313-2.506
		c-0.466-0.145-4.641-1.361-7.59,0.809c-1.153,0.847-2.527,2.542-2.527,5.802C7.253,32.835,8.148,33.73,9.253,33.73z"/>
	<path style="fill:#231F20;" d="M60.961,21.038c1.104,0,2-0.896,2-2v-8.932c0-1.104-0.896-2-2-2s-2,0.896-2,2v8.932
		C58.961,20.143,59.857,21.038,60.961,21.038z"/>
</g>
<g>
</g>
<g>
</g>
<g>
</g>
<g>
</g>
<g>
</g>
<g>
</g>
<g>
</g>
<g>
</g>
<g>
</g>
<g>
</g>
<g>
</g>
<g>
</g>
<g>
</g>
<g>
</g>
<g>
</g>
</svg>
