<?xml version="1.0" encoding="iso-8859-1"?>
<!-- Generator: Adobe Illustrator 18.0.0, SVG Export Plug-In . SVG Version: 6.00 Build 0)  -->
<!DOCTYPE svg PUBLIC "-//W3C//DTD SVG 1.1//EN" "http://www.w3.org/Graphics/SVG/1.1/DTD/svg11.dtd">
<svg version="1.1" id="Capa_1" xmlns="http://www.w3.org/2000/svg" xmlns:xlink="http://www.w3.org/1999/xlink" x="0px" y="0px"
	 viewBox="0 0 179.417 123.978" style="enable-background:new 0 0 179.417 123.978;" xml:space="preserve">
<g>
	<path style="fill:#231F20;" d="M177.303,56.005c-0.232-0.195-1.475-1.181-3.475-2.766c-12.123-9.607-49.014-38.842-61.356-50.85
		c-1.682-1.63-3.11-2.39-4.496-2.39c-0.929,0-1.771,0.352-2.434,1.017c-1.156,1.159-1.691,3.206-1.684,6.436l0.006,3.142
		c0.006,3.185,0.017,8.516,0.026,15.147c-11.013-0.093-28.258-0.228-44.25-0.352c-15.192-0.119-29.253-0.229-35.767-0.285
		l-0.508-0.001c-9.667,0-22.591,1.581-23.224,15.25c-0.114,2.535-0.199,39.378-0.096,42.405c0.274,6.611,3.026,15.418,23.659,15.577
		c13.409,0.107,58.957,0.448,80.307,0.602c0.011,6.538,0.025,11.822,0.034,15.038l0.008,3.312c0.028,2.002,0.095,6.69,3.583,6.691
		c1.206,0,2.442-0.659,4.131-2.202c9.866-8.98,34.754-30.55,51.223-44.822c8.188-7.096,13.597-11.784,14.396-12.526
		c1.325-1.192,2.045-2.699,2.028-4.244C179.4,58.649,178.656,57.172,177.303,56.005z M174.69,61.474
		c-0.772,0.717-6.75,5.897-14.317,12.456c-16.483,14.286-41.394,35.874-51.298,44.89c-0.354,0.323-0.638,0.558-0.862,0.729
		c-0.074-0.471-0.142-1.195-0.158-2.29l-0.008-3.294c-0.01-3.534-0.026-9.565-0.038-17.016c-0.002-1.098-0.888-1.989-1.986-1.997
		c-20.371-0.146-68.447-0.506-82.287-0.616c-9.978-0.077-19.271-1.552-19.693-11.728c-0.101-2.991-0.018-39.561,0.095-42.073
		c0.275-5.938,2.794-11.432,19.228-11.432l0.478,0.001c6.51,0.057,20.572,0.167,35.766,0.285
		c17.005,0.132,35.429,0.276,46.266,0.369c0.515-0.003,1.047-0.205,1.426-0.581s0.591-0.888,0.591-1.422
		c-0.009-7.57-0.021-13.667-0.028-17.17l-0.006-3.139c-0.005-1.96,0.226-2.909,0.383-3.326c0.274,0.146,0.746,0.461,1.444,1.138
		c12.486,12.147,49.497,41.478,61.659,51.115c1.948,1.544,3.16,2.503,3.367,2.677c0.319,0.275,0.701,0.703,0.706,1.174
		C175.421,60.605,175.171,61.041,174.69,61.474z"/>
	<path style="fill:#231F20;" d="M20.558,35.056c-0.217-0.057-5.35-1.383-9.051,1.461c-2.299,1.766-3.464,4.616-3.464,8.472v36
		c0,1.104,0.896,2,2,2s2-0.896,2-2v-36c0-2.539,0.635-4.318,1.888-5.29c2.105-1.632,5.509-0.799,5.603-0.776
		c1.062,0.281,2.157-0.353,2.441-1.418C22.26,36.437,21.625,35.34,20.558,35.056z"/>
	<path style="fill:#231F20;" d="M113.375,93.655c-1.104,0-2,0.896-2,2v11.333c0,1.104,0.896,2,2,2s2-0.896,2-2V95.655
		C115.375,94.551,114.48,93.655,113.375,93.655z"/>
</g>
<g>
</g>
<g>
</g>
<g>
</g>
<g>
</g>
<g>
</g>
<g>
</g>
<g>
</g>
<g>
</g>
<g>
</g>
<g>
</g>
<g>
</g>
<g>
</g>
<g>
</g>
<g>
</g>
<g>
</g>
</svg>
