<?xml version="1.0" encoding="iso-8859-1"?>
<!-- Generator: Adobe Illustrator 18.0.0, SVG Export Plug-In . SVG Version: 6.00 Build 0)  -->
<!DOCTYPE svg PUBLIC "-//W3C//DTD SVG 1.1//EN" "http://www.w3.org/Graphics/SVG/1.1/DTD/svg11.dtd">
<svg version="1.1" id="Capa_1" xmlns="http://www.w3.org/2000/svg" xmlns:xlink="http://www.w3.org/1999/xlink" x="0px" y="0px"
	 viewBox="0 0 118.794 186.687" style="enable-background:new 0 0 118.794 186.687;" xml:space="preserve">
<g>
	<path style="fill:#231F20;" d="M37.496,45.146c0.021,2.757,1.857,3.354,3.413,3.369c0.532,0,3.018,0,5.645-0.013
		c2.66,0.013,5.138,0.013,5.678,0.013c0.007,0,0.013,0,0.02,0c1.524-0.016,3.35-0.61,3.386-3.37c0.001-0.207,0.001-1.317,0-2.793
		l0-2.938l0-2.953c0-1.478,0.001-2.586,0-2.798c-0.036-2.764-1.865-3.354-3.406-3.364c-0.539,0-3.016,0-5.662,0.008
		c-2.643-0.008-5.124-0.005-5.672-0.008c-1.54,0.01-3.379,0.603-3.4,3.345c-0.004,0.204-0.004,1.324-0.002,2.818l0.002,2.952
		l-0.002,2.937C37.493,43.842,37.492,44.965,37.496,45.146z M41.494,36.458c-0.001-0.899-0.002-1.659-0.001-2.159
		c1.007,0,2.988,0.002,5.076,0.008c2.089-0.006,4.067-0.008,5.069-0.008c0,0.498,0,1.26,0,2.161l0,2.954l0,2.939
		c0,0.9,0.001,1.663,0,2.161c-1.01-0.001-2.985-0.003-5.084-0.013c-2.084,0.01-4.068,0.012-5.061,0.013c0-0.494,0-1.258,0.001-2.16
		l0.002-2.94L41.494,36.458z"/>
	<path style="fill:#231F20;" d="M63.162,45.146c0.022,2.756,1.857,3.353,3.413,3.368c0.535,0,3.02,0,5.652-0.013
		c2.651,0.013,5.131,0.013,5.672,0.013c0.007,0,0.013,0,0.02,0c1.535-0.016,3.368-0.612,3.384-3.347
		c0.004-0.209,0.003-1.329,0.002-2.817l-0.001-2.937l0.001-2.952c0.001-1.49,0.002-2.609-0.001-2.784
		c-0.017-2.775-1.854-3.369-3.404-3.379c-0.541,0-3.02,0-5.657,0.008c-2.65-0.007-5.133-0.007-5.68-0.008
		c-1.539,0.01-3.378,0.603-3.4,3.363c-0.002,0.202-0.002,1.315-0.001,2.8l0.001,2.952l-0.001,2.938
		C63.16,43.833,63.159,44.948,63.162,45.146z M67.161,36.459c-0.001-0.9-0.001-1.661-0.001-2.16c1.008,0,2.99,0.002,5.082,0.008
		c2.083-0.006,4.061-0.008,5.064-0.008c0,0.493,0,1.256-0.001,2.16l-0.001,2.955l0.001,2.94c0.001,0.897,0.002,1.658,0.001,2.16
		c-1.011-0.001-2.987-0.003-5.08-0.013c-2.088,0.01-4.072,0.012-5.066,0.013c0-0.498,0-1.261,0.001-2.161l0.001-2.939L67.161,36.459
		z"/>
	<path style="fill:#231F20;" d="M118.789,89.419c0.012-8.644-0.002-13.966-0.02-15.244c-0.082-8.339-1.289-14.793-15.289-15.329
		c0.057-2.841,0.031-15.104,0.011-22.321c0.021-7.49,0.048-20.386-0.017-22.577C103.291,3.208,97.666,0.083,78.4,0.016
		C75.434,0,68.672,0,59.397,0c-9.263,0-16.025,0-18.994,0.016C21.151,0.083,15.526,3.207,15.322,13.931
		c-0.042,1.669-0.039,9.547-0.019,22.585c-0.019,12.467-0.022,20.215,0.014,22.33C1.321,59.378,0.109,65.833,0.025,74.166
		c-0.018,1.286-0.032,6.608-0.02,15.25l0,0.73c-0.005,12.038,0.006,18.677,0.032,19.689c0.006,1.347,0.005,2.705,0.004,4.071
		c-0.001,1.947-0.003,3.911,0.015,5.886c0.108,11.141,4.447,14.713,7.615,17.32c2.103,1.731,3.372,2.776,3.407,5.559
		c0.171,13.333,0.071,21.831,0.018,26.396c-0.02,1.717-0.033,2.876-0.024,3.51c0.077,7.929,1.2,14.002,14.606,14.099
		c2.898,0.019,12.23,0.011,24.376-0.019h18.682c7.814,0.019,14.461,0.028,18.98,0.028c2.51,0,4.364-0.003,5.401-0.01
		c13.405-0.097,14.529-6.169,14.606-14.087c0.01-0.649-0.003-1.823-0.024-3.566c-0.055-4.564-0.155-13.062,0.02-26.353
		c0.033-2.782,1.302-3.827,3.404-5.559c3.167-2.607,7.505-6.18,7.614-17.319c0.019-1.968,0.018-3.926,0.017-5.867
		c0-1.372-0.001-2.736,0.005-4.051c0.025-1.051,0.036-7.679,0.031-19.699L118.789,89.419z M114.79,90.177
		c0.006,14.933-0.013,18.902-0.03,19.641c-0.006,1.359-0.006,2.73-0.005,4.11c0.001,1.928,0.002,3.872-0.017,5.826
		c-0.09,9.275-3.174,11.815-6.157,14.271c-2.252,1.854-4.805,3.957-4.861,8.595c-0.176,13.339-0.074,21.868-0.02,26.451
		c0.02,1.688,0.034,2.826,0.024,3.468c-0.067,6.978-0.523,10.065-10.634,10.138c-2.895,0.019-12.214,0.011-24.349-0.019H50.049
		c-12.127,0.029-21.453,0.038-24.344,0.019c-10.111-0.072-10.567-3.16-10.634-10.147c-0.009-0.625,0.004-1.748,0.024-3.413
		c0.054-4.583,0.154-13.113-0.018-26.495c-0.059-4.639-2.612-6.741-4.865-8.596c-2.983-2.455-6.067-4.995-6.157-14.271
		c-0.018-1.96-0.017-3.91-0.015-5.845c0.001-1.373,0.002-2.738-0.004-4.134c-0.018-0.701-0.038-4.677-0.032-19.628l0-0.735
		c-0.012-8.623,0.001-13.919,0.02-15.198c0.077-7.641,0.656-11.316,12.846-11.403h0.545c0.555,0,1.086-0.23,1.464-0.638
		c0.378-0.406,0.57-0.952,0.53-1.506c-0.039-0.544-0.077-1.073-0.089-1.661c-0.045-1.797-0.034-12.093-0.018-22.491
		c-0.016-10.395-0.027-20.692,0.018-22.496C19.43,8.254,19.509,4.089,40.42,4.016C43.379,4,50.096,4,59.299,4
		c9.286,0.002,16.107,0,19.083,0.016C99.305,4.089,99.377,8.253,99.476,14.04c0.046,1.577,0.052,9.769,0.015,22.484
		c0.037,12.701,0.031,20.893-0.016,22.519c-0.003,0.463-0.035,0.891-0.065,1.32l-0.022,0.312c-0.037,0.553,0.156,1.097,0.534,1.501
		c0.378,0.405,0.908,0.635,1.461,0.635h0.527c12.207,0.087,12.785,3.763,12.859,11.411c0.019,1.272,0.032,6.568,0.02,15.193
		L114.79,90.177z"/>
	<path style="fill:#231F20;" d="M87.115,13.619H31.676c-1.104,0-2,0.896-2,2v45.192c0,1.104,0.896,2,2,2l14.214-0.009l41.225,0.009
		c1.104,0,2-0.896,2-2V15.619C89.115,14.515,88.22,13.619,87.115,13.619z M85.115,58.811L72.91,58.803l-39.233,0.008V17.619h51.439
		V58.811z"/>
	<path style="fill:#231F20;" d="M21.195,70.482c0.05-1.104-0.804-2.038-1.907-2.089c-0.592-0.027-5.89-0.176-9.051,2.845
		c-1.458,1.393-2.228,3.267-2.228,5.418v45.107c0,1.104,0.896,2,2,2s2-0.896,2-2V76.656c0-1.074,0.313-1.874,0.985-2.52
		c1.633-1.568,4.97-1.784,6.115-1.747C20.227,72.416,21.145,71.585,21.195,70.482z"/>
	<path style="fill:#231F20;" d="M21.121,141.481c-1.104,0-2,0.896-2,2v30.072c0,1.104,0.896,2,2,2s2-0.896,2-2v-30.072
		C23.121,142.377,22.226,141.481,21.121,141.481z"/>
</g>
<g>
</g>
<g>
</g>
<g>
</g>
<g>
</g>
<g>
</g>
<g>
</g>
<g>
</g>
<g>
</g>
<g>
</g>
<g>
</g>
<g>
</g>
<g>
</g>
<g>
</g>
<g>
</g>
<g>
</g>
</svg>
