<?xml version="1.0" encoding="iso-8859-1"?>
<!-- Generator: Adobe Illustrator 18.0.0, SVG Export Plug-In . SVG Version: 6.00 Build 0)  -->
<!DOCTYPE svg PUBLIC "-//W3C//DTD SVG 1.1//EN" "http://www.w3.org/Graphics/SVG/1.1/DTD/svg11.dtd">
<svg version="1.1" id="Capa_1" xmlns="http://www.w3.org/2000/svg" xmlns:xlink="http://www.w3.org/1999/xlink" x="0px" y="0px"
	 viewBox="0 0 182.876 183.938" style="enable-background:new 0 0 182.876 183.938;" xml:space="preserve">
<g>
	<path style="fill:#231F20;" d="M78.251,99.967c-13.138-11.91-30.148-18.47-47.897-18.47c-5.291,0-10.59,0.586-15.751,1.742
		c-0.965,0.216-1.627,1.105-1.558,2.091l2.72,38.854c0.045,0.647,0.402,1.232,0.957,1.569c0.554,0.338,1.238,0.383,1.833,0.126
		c3.727-1.614,7.681-2.432,11.755-2.432c7.311,0,14.322,2.706,19.744,7.62c8.538,7.739,11.773,19.844,8.241,30.839
		c-0.198,0.618-0.084,1.293,0.305,1.812c0.378,0.504,0.972,0.799,1.6,0.799c0.019,0,0.037,0,0.056-0.001l38.939-1.088
		c0.989-0.027,1.809-0.773,1.929-1.755C103.96,138.587,95.409,115.519,78.251,99.967z M97.34,159.48l-34.497,0.964
		c2.716-11.735-1.096-24.175-10.104-32.34c-6.159-5.582-14.125-8.656-22.43-8.656c-3.688,0-7.29,0.591-10.744,1.76l-2.409-34.419
		c4.341-0.857,8.772-1.292,13.197-1.292c16.754,0,32.81,6.191,45.21,17.434C91.338,117.227,99.404,138.257,97.34,159.48z"/>
	<path style="fill:#231F20;" d="M132.726,39.588C104.571,14.06,68.148,0,30.164,0C22.794,0,15.359,0.538,8.067,1.597
		C7.03,1.748,6.286,2.671,6.359,3.716l3.176,45.421c0.04,0.566,0.318,1.089,0.766,1.438c0.448,0.349,1.02,0.491,1.581,0.392
		c6.063-1.082,12.257-1.63,18.412-1.63c25.724,0,50.364,9.494,69.38,26.732c24.042,21.804,36.251,52.977,33.497,85.525
		c-0.048,0.567,0.148,1.128,0.539,1.542c0.378,0.4,0.904,0.626,1.454,0.626c0.019,0,0.037,0,0.056-0.001l45.516-1.27
		c1.043-0.029,1.889-0.855,1.942-1.898C185.007,114.588,166.8,70.483,132.726,39.588z M178.764,158.545l-41.441,1.156
		c2.129-32.991-10.538-64.445-34.962-86.596C82.607,55.198,57.012,45.336,30.294,45.336c-5.649,0-11.331,0.445-16.922,1.324
		L10.48,5.3C16.991,4.437,23.604,4,30.164,4c36.988,0,72.458,13.691,99.875,38.551C162.766,72.224,180.462,114.41,178.764,158.545z"
		/>
	<path style="fill:#231F20;" d="M22.893,138.131c-6.454,0-12.64,2.739-16.972,7.517c-8.479,9.358-7.767,23.871,1.588,32.349
		c4.222,3.831,9.683,5.941,15.379,5.941c6.453,0,12.64-2.741,16.974-7.52c8.475-9.355,7.764-23.865-1.585-32.344
		C34.055,140.242,28.592,138.131,22.893,138.131z M36.899,173.731c-3.577,3.945-8.684,6.207-14.01,6.207
		c-4.7,0-9.207-1.741-12.692-4.904c-7.722-6.999-8.31-18.977-1.312-26.7c3.575-3.942,8.681-6.203,14.008-6.203
		c4.703,0,9.211,1.742,12.696,4.905C43.307,154.035,43.894,166.011,36.899,173.731z"/>
	<path style="fill:#231F20;" d="M56.466,39.96c-14.558-6.239-29.713-4.634-35.395-3.695l-1.745-27.91
		c-0.069-1.102-1.011-1.927-2.121-1.871c-1.102,0.069-1.94,1.019-1.871,2.121L17.22,38.78c0.037,0.586,0.331,1.127,0.802,1.479
		c0.471,0.352,1.074,0.477,1.647,0.345c0.183-0.043,18.459-4.15,35.221,3.034c0.257,0.11,0.524,0.162,0.787,0.162
		c0.776,0,1.514-0.454,1.839-1.213C57.951,41.571,57.481,40.395,56.466,39.96z"/>
	<path style="fill:#231F20;" d="M27.294,112L25.61,90.676c-0.086-1.101-1.057-1.922-2.151-1.836
		c-1.102,0.087-1.923,1.05-1.836,2.151l1.886,23.889c0.051,0.651,0.417,1.236,0.98,1.567c0.564,0.331,1.252,0.366,1.847,0.094
		c0.139-0.064,14.047-6.206,28.616,7.198c0.384,0.354,0.87,0.528,1.354,0.528c0.54,0,1.078-0.217,1.472-0.646
		c0.748-0.812,0.695-2.078-0.118-2.826C44.9,109.054,32.549,110.569,27.294,112z"/>
	<path style="fill:#231F20;" d="M18.466,146.673c-4.278,0.258-9.004,4.522-10.759,9.708c-1.178,3.481-1.991,10.326,5.799,17.062
		c0.378,0.327,0.844,0.487,1.307,0.487c0.561,0,1.118-0.234,1.514-0.692c0.723-0.835,0.631-2.099-0.205-2.821
		c-5.718-4.944-5.672-9.665-4.626-12.754c1.459-4.313,5.19-6.875,7.211-6.997c1.103-0.067,1.942-1.015,1.876-2.117
		C20.517,147.447,19.573,146.613,18.466,146.673z"/>
</g>
<g>
</g>
<g>
</g>
<g>
</g>
<g>
</g>
<g>
</g>
<g>
</g>
<g>
</g>
<g>
</g>
<g>
</g>
<g>
</g>
<g>
</g>
<g>
</g>
<g>
</g>
<g>
</g>
<g>
</g>
</svg>
