<?xml version="1.0" encoding="iso-8859-1"?>
<!-- Generator: Adobe Illustrator 18.0.0, SVG Export Plug-In . SVG Version: 6.00 Build 0)  -->
<!DOCTYPE svg PUBLIC "-//W3C//DTD SVG 1.1//EN" "http://www.w3.org/Graphics/SVG/1.1/DTD/svg11.dtd">
<svg version="1.1" id="Capa_1" xmlns="http://www.w3.org/2000/svg" xmlns:xlink="http://www.w3.org/1999/xlink" x="0px" y="0px"
	 viewBox="0 0 176.557 167.773" style="enable-background:new 0 0 176.557 167.773;" xml:space="preserve">
<g>
	<path style="fill:#231F20;" d="M80.733,119.195H63.569c-1.104,0-2,0.896-2,2s0.896,2,2,2h17.164c1.104,0,2-0.896,2-2
		S81.838,119.195,80.733,119.195z"/>
	<path style="fill:#231F20;" d="M80.733,99.474H63.569c-1.104,0-2,0.896-2,2s0.896,2,2,2h17.164c1.104,0,2-0.896,2-2
		S81.838,99.474,80.733,99.474z"/>
	<path style="fill:#231F20;" d="M80.733,138.915H63.569c-1.104,0-2,0.896-2,2s0.896,2,2,2h17.164c1.104,0,2-0.896,2-2
		S81.838,138.915,80.733,138.915z"/>
	<path style="fill:#231F20;" d="M50.058,119.195H36.894c-1.104,0-2,0.896-2,2s0.896,2,2,2h13.164c1.104,0,2-0.896,2-2
		S51.162,119.195,50.058,119.195z"/>
	<path style="fill:#231F20;" d="M50.058,138.915h-9.164c-1.104,0-2,0.896-2,2s0.896,2,2,2h9.164c1.104,0,2-0.896,2-2
		S51.162,138.915,50.058,138.915z"/>
	<path style="fill:#231F20;" d="M111.409,138.915H94.245c-1.104,0-2,0.896-2,2s0.896,2,2,2h17.164c1.104,0,2-0.896,2-2
		S112.514,138.915,111.409,138.915z"/>
	<path style="fill:#231F20;" d="M50.058,99.474H32.894c-1.104,0-2,0.896-2,2s0.896,2,2,2h17.164c1.104,0,2-0.896,2-2
		S51.162,99.474,50.058,99.474z"/>
	<path style="fill:#231F20;" d="M142.085,99.474h-17.164c-1.104,0-2,0.896-2,2s0.896,2,2,2h17.164c1.104,0,2-0.896,2-2
		S143.189,99.474,142.085,99.474z"/>
	<path style="fill:#231F20;" d="M138.085,119.195h-13.164c-1.104,0-2,0.896-2,2s0.896,2,2,2h13.164c1.104,0,2-0.896,2-2
		S139.189,119.195,138.085,119.195z"/>
	<path style="fill:#231F20;" d="M176.539,80.454c-0.02-2.942-0.041-6.276,0.015-8.128c0.057-1.849-0.685-2.905-1.316-3.467
		c-1.135-1.007-2.514-1.009-3.066-0.96h-66.12l5.901-11.535c4.616-9.024,10.04-19.627,15.897-31.064
		c2.74-5.369,5.578-10.925,5.86-11.456c1.087-2.133,1.227-4.104,0.415-5.857c-0.71-1.532-2.123-2.821-4.312-3.937
		c-1.221-0.627-1.582-0.794-2-0.987c-0.354-0.163-0.75-0.347-1.826-0.889c-0.089-0.063-0.184-0.121-0.284-0.171
		c-0.186-0.093-0.371-0.189-0.555-0.286c-0.306-0.159-0.606-0.315-0.83-0.419c-2.473-1.269-4.554-1.604-6.366-1.021
		c-1.602,0.516-2.902,1.731-3.862,3.607c-0.23,0.445-2.368,4.61-5.849,11.435L95.112,40.971
		c-5.369,10.492-9.863,19.275-12.995,25.385c-0.267,0.531-0.527,1.047-0.78,1.544H5.229c-0.588-0.039-2.582-0.055-3.978,1.227
		C0.433,69.878,0,70.904,0,72.092v12.266c0,0.146,0.016,0.29,0.047,0.432c0.281,1.272,1.085,2.608,2.332,3.353
		c0.013,0.315,0.047,0.64,0.103,0.974c0.697,4.172,11.435,63.38,11.892,65.897c0,0.003,0.001,0.005,0.001,0.007v8.124
		c0.035,1.841,1.34,4.588,4.791,4.612c1.438,0.011,35.491,0.017,69.623,0.017c34.091,0,68.261-0.006,70.088-0.017
		c1.758-0.013,2.831-0.734,3.422-1.337c1.249-1.274,1.291-2.898,1.287-3.185v-9.049c0-0.463-0.157-0.889-0.421-1.228
		c1.669-9.663,10.479-60.68,11.03-64.227c0.034-0.229,0.059-0.452,0.073-0.669c1.444-0.818,2.287-2.318,2.287-4.217
		C176.555,82.929,176.547,81.741,176.539,80.454z M172.539,80.481c0.008,1.275,0.016,2.455,0.016,3.365
		c0,0.604-0.142,0.783-0.688,0.868c-0.563,0.088-1.062,0.412-1.372,0.892c-0.31,0.479-0.4,1.067-0.248,1.617
		c0.025,0.092,0.075,0.365-0.006,0.904c-0.537,3.46-9.637,56.164-11.289,65.718c-0.101,0.581,0.061,1.178,0.44,1.629
		c0.061,0.071,0.125,0.138,0.193,0.199v7.588c0,0.002-0.045,0.258-0.144,0.358c-0.081,0.082-0.309,0.135-0.592,0.137
		c-3.653,0.021-136.78,0.021-139.654,0c-0.327-0.002-0.773-0.006-0.821-0.65v-8.449c0-0.241-0.044-0.473-0.125-0.687
		c-0.885-4.879-11.156-61.527-11.822-65.514c-0.076-0.458-0.071-0.839,0.014-1.099c0.201-0.609,0.095-1.278-0.281-1.798
		c-0.377-0.52-0.981-0.827-1.623-0.827c-0.249,0-0.449-0.444-0.536-0.674V72.092c0-0.02,0.001-0.035,0-0.047
		c0.187-0.101,0.655-0.169,0.986-0.153C5.043,71.897,5.1,71.9,5.157,71.9h77.404c0.751,0,1.438-0.421,1.78-1.09
		c0.423-0.827,0.878-1.719,1.343-2.644c3.124-6.097,7.619-14.88,12.988-25.373l13.129-25.653c3.476-6.814,5.609-10.972,5.844-11.425
		c0.697-1.361,1.326-1.564,1.532-1.631c0.741-0.233,1.853,0.022,3.379,0.805c0.239,0.112,0.486,0.242,0.737,0.374
		c0.11,0.057,0.221,0.114,0.331,0.172c0.086,0.062,0.178,0.118,0.275,0.168c1.368,0.691,1.827,0.903,2.233,1.091
		c0.386,0.179,0.72,0.334,1.857,0.918c1.348,0.687,2.189,1.378,2.504,2.056c0.174,0.377,0.328,1.032-0.334,2.33
		c-0.226,0.425-1.927,3.752-5.873,11.481c-5.857,11.436-11.28,22.039-15.896,31.064l-7.391,14.445
		c-0.317,0.62-0.289,1.36,0.074,1.954c0.363,0.595,1.01,0.957,1.706,0.957h69.496c0.099-0.009,0.138,0,0.236-0.015
		c0.009,0,0.017-0.002,0.027-0.001c0.011,0.07,0.02,0.174,0.015,0.321C172.497,74.13,172.52,77.504,172.539,80.481z"/>
	<path style="fill:#231F20;" d="M111.409,119.195H94.245c-1.104,0-2,0.896-2,2s0.896,2,2,2h17.164c1.104,0,2-0.896,2-2
		S112.514,119.195,111.409,119.195z"/>
	<path style="fill:#231F20;" d="M134.085,138.915h-9.164c-1.104,0-2,0.896-2,2s0.896,2,2,2h9.164c1.104,0,2-0.896,2-2
		S135.189,138.915,134.085,138.915z"/>
	<path style="fill:#231F20;" d="M111.409,99.474H94.245c-1.104,0-2,0.896-2,2s0.896,2,2,2h17.164c1.104,0,2-0.896,2-2
		S112.514,99.474,111.409,99.474z"/>
	<path style="fill:#231F20;" d="M11.407,81.189v-5.831c0-1.104-0.896-2-2-2s-2,0.896-2,2v5.831c0,1.104,0.896,2,2,2
		S11.407,82.293,11.407,81.189z"/>
	<path style="fill:#231F20;" d="M23.659,152.394c-1.104,0-2,0.896-2,2v5.831c0,1.104,0.896,2,2,2s2-0.896,2-2v-5.831
		C25.659,153.289,24.764,152.394,23.659,152.394z"/>
	<path style="fill:#231F20;" d="M22.781,141.745c1.08-0.23,1.77-1.293,1.539-2.373L13.955,90.784
		c-0.23-1.081-1.299-1.772-2.373-1.539c-1.08,0.23-1.77,1.293-1.539,2.373l10.365,48.588c0.2,0.939,1.03,1.583,1.954,1.583
		C22.501,141.789,22.641,141.776,22.781,141.745z"/>
</g>
<g>
</g>
<g>
</g>
<g>
</g>
<g>
</g>
<g>
</g>
<g>
</g>
<g>
</g>
<g>
</g>
<g>
</g>
<g>
</g>
<g>
</g>
<g>
</g>
<g>
</g>
<g>
</g>
<g>
</g>
</svg>
