<?xml version="1.0" encoding="iso-8859-1"?>
<!-- Generator: Adobe Illustrator 18.0.0, SVG Export Plug-In . SVG Version: 6.00 Build 0)  -->
<!DOCTYPE svg PUBLIC "-//W3C//DTD SVG 1.1//EN" "http://www.w3.org/Graphics/SVG/1.1/DTD/svg11.dtd">
<svg version="1.1" id="Capa_1" xmlns="http://www.w3.org/2000/svg" xmlns:xlink="http://www.w3.org/1999/xlink" x="0px" y="0px"
	 viewBox="0 0 194.198 127.413" style="enable-background:new 0 0 194.198 127.413;" xml:space="preserve">
<g>
	<path style="fill:#231F20;" d="M9.89,22.711c1.104,0,2-0.896,2-2c0-3.534,0.913-6.106,2.714-7.646
		c2.704-2.311,6.714-1.724,6.79-1.712c1.085,0.173,2.113-0.558,2.294-1.645c0.182-1.09-0.554-2.12-1.644-2.302
		c-0.238-0.04-5.853-0.927-10.004,2.588c-2.753,2.333-4.15,5.938-4.15,10.716C7.89,21.815,8.785,22.711,9.89,22.711z"/>
	<path style="fill:#231F20;" d="M41.368,28.576c-0.208-0.036-5.107-0.81-8.736,2.265c-2.408,2.041-3.629,5.178-3.629,9.327
		c0,1.104,0.896,2,2,2s2-0.896,2-2c0-2.905,0.738-5.01,2.194-6.257c2.184-1.87,5.453-1.398,5.523-1.388
		c1.08,0.175,2.111-0.559,2.292-1.646C43.194,29.788,42.458,28.758,41.368,28.576z"/>
	<path style="fill:#231F20;" d="M21.636,114.725c-0.04,0.005-4.074,0.61-6.791-1.712c-1.801-1.54-2.714-4.112-2.714-7.646
		c0-1.104-0.896-2-2-2s-2,0.896-2,2c0,4.778,1.396,8.384,4.15,10.716c2.719,2.303,6.067,2.717,8.12,2.717
		c1.08,0,1.802-0.115,1.884-0.128c1.086-0.181,1.817-1.205,1.641-2.292S22.724,114.552,21.636,114.725z"/>
	<path style="fill:#231F20;" d="M194.183,43.214c-0.083-4.779-2.613-6.58-9.678-6.882c0,0-0.638-0.025-1.016-0.025l-0.069,0.001
		l-0.156-0.001c-0.387,0-1.027,0.025-1.045,0.026c-0.895,0.044-1.694,0.108-2.417,0.196c0.011-11.859,0.01-20.755-0.002-22.477
		c-0.086-7.901-1.194-13.953-14.308-14.048c-1.221-0.002-3.655-0.003-7-0.003l-12.513,0.003C144.943,0.001,143.072,0,140.533,0
		l-9.436,0.003C129.56,0.001,127.107,0,123.95,0l-11.428,0.003c-2.727-0.005-11.328-0.005-22.614,0.012
		C82.461,0.004,76.19,0,72.002,0c-2.171,0-3.783,0.001-4.77,0.003L55.863,0c-3.157,0-5.61,0.001-7.147,0.003L39.269,0
		c-2.542,0-4.417,0.001-5.504,0.003L21.325,0c-3.34,0-5.774,0.001-7.021,0.003C1.178,0.098,0.082,6.152,0.012,14.059
		C-0.01,17.065-0.001,40.73,0.03,63.704c-0.031,22.987-0.04,46.654-0.019,49.658c0.069,7.894,1.166,13.94,14.304,14.043
		c1.233,0.002,3.666,0.003,7.003,0.003l12.499-0.003c1.034,0.002,2.896,0.003,5.419,0.003l9.366-0.003
		c1.52,0.002,3.974,0.003,7.145,0.003l11.535-0.003c2.718,0.017,11.316,0.004,22.619-0.014c7.555,0.012,13.905,0.022,18.097,0.022
		c2.079,0,3.627-0.002,4.607-0.008l11.453,0.003c3.172,0,5.627-0.001,7.142-0.003l9.375,0.003c2.52,0,4.375-0.001,5.47-0.003
		l12.456,0.003c3.341,0,5.771-0.001,7.004-0.003c13.103-0.104,14.209-6.148,14.296-14.046c0.013-1.72,0.014-10.62,0.002-22.482
		c0.743,0.093,1.555,0.16,2.447,0.203c0,0,0.601,0.02,0.986,0.02l0.096-0.002l0.186,0.002c0.377,0,0.976-0.02,0.993-0.021
		c7.059-0.299,9.59-2.104,9.672-6.878c0.03-1.22,0.01-10.584-0.011-20.489C194.192,53.794,194.212,44.428,194.183,43.214z
		 M190.184,84.116c-0.031,1.811-0.047,2.72-5.826,2.965c-0.006,0-0.509,0.023-0.932,0.017c-0.03,0-0.159,0-0.19,0.001
		c-0.321,0-0.817-0.017-0.823-0.017c-1.709-0.083-3.045-0.261-4.083-0.546c-0.601-0.165-1.246-0.04-1.743,0.339
		c-0.496,0.379-0.787,0.968-0.787,1.592c0.014,13.046,0.014,23.037,0,24.854c-0.076,6.936-0.522,10.006-10.315,10.083
		c-1.22,0.002-3.647,0.003-6.985,0.003l-12.53-0.003c-1.027,0.002-2.88,0.003-5.396,0.003l-9.377-0.003
		c-1.518,0.002-3.97,0.003-7.14,0.003l-11.452-0.003c-0.004,0-0.099,0-0.103,0c-2.721,0.019-11.315,0.004-22.602-0.014
		c-11.289,0.018-19.852,0.031-22.606,0.014l-11.548,0.003c-3.169,0-5.62-0.001-7.143-0.003l-9.368,0.003
		c-2.518,0-4.378-0.001-5.491-0.003l-12.427,0.003c-3.334,0-5.764-0.001-6.984-0.003c-9.821-0.077-10.262-3.146-10.323-10.075
		C3.99,110.338,3.999,86.688,4.03,63.704c-0.031-22.97-0.04-46.619-0.019-49.613C4.073,7.147,4.514,4.074,14.322,4.003
		C15.556,4.001,17.988,4,21.325,4l12.501,0.003C34.858,4.001,36.731,4,39.269,4l9.449,0.003C50.258,4.001,52.708,4,55.863,4
		L67.3,4.003c2.716-0.006,11.303-0.005,22.607,0.012C97.345,4.004,103.613,4,107.804,4c2.168,0,3.78,0.001,4.779,0.003L123.95,4
		c3.154,0,5.605,0.001,7.146,0.003L140.533,4c2.534,0,4.403,0.001,5.495,0.003L158.492,4c3.342,0,5.773,0.001,6.982,0.003
		c9.804,0.071,10.25,3.145,10.326,10.084c0.014,1.82,0.014,11.807,0,24.851c0,0.627,0.293,1.218,0.793,1.597
		c0.5,0.379,1.147,0.499,1.752,0.33c0.969-0.274,2.3-0.45,4.051-0.536c0,0,0.551-0.008,0.939-0.021c0.027,0.001,0.124,0,0.153,0
		c0.316,0,0.849,0.021,0.851,0.021c5.797,0.248,5.812,1.153,5.844,2.969c0.029,1.176,0.008,10.951-0.012,20.414
		C190.191,73.162,190.212,82.935,190.184,84.116z"/>
	<path style="fill:#231F20;" d="M65.891,37.394c-0.056-8.953-1.035-15.809-12.812-15.911c-0.861-0.011-2.403-0.015-4.481-0.015
		l-4.454,0.004l-4.46-0.004c-2.079,0-3.619,0.004-4.474,0.015c-11.775,0.103-12.755,6.958-12.812,15.898
		c-0.022,1.8-0.027,10.393-0.014,26.267c-0.013,15.875-0.009,24.462,0.014,26.242c0.057,8.953,1.036,15.809,12.79,15.905
		c1.4,0.027,4.597,0.028,8.947,0.016c1.722,0.004,3.261,0.007,4.577,0.007c2.027,0,3.532-0.007,4.357-0.023
		c11.785-0.097,12.765-6.953,12.82-15.898c0.02-2.017,0.02-12.321,0-26.245C65.911,49.72,65.911,39.41,65.891,37.394z
		 M61.891,89.864c-0.058,9.331-1.167,11.867-8.876,11.931c-1.381,0.027-4.527,0.026-8.878,0.015c-4.327,0.01-7.47,0.012-8.891-0.016
		c-7.679-0.063-8.787-2.599-8.846-11.943c-0.022-1.774-0.027-10.344-0.014-26.204c-0.013-15.859-0.009-24.435,0.014-26.229
		c0.059-9.333,1.167-11.869,8.854-11.936c0.853-0.011,2.375-0.015,4.431-0.015l4.46,0.004l4.454-0.004
		c2.055,0,3.58,0.004,4.438,0.015c7.688,0.067,8.796,2.604,8.854,11.943c0.02,2.01,0.02,12.302,0,26.226
		C61.911,77.567,61.911,87.853,61.891,89.864z"/>
	<path style="fill:#231F20;" d="M40.721,94.649c-0.034,0.006-3.329,0.493-5.524-1.387c-1.456-1.247-2.194-3.352-2.194-6.257
		c0-1.104-0.896-2-2-2s-2,0.896-2,2c0,4.149,1.221,7.287,3.629,9.327c2.379,2.015,5.305,2.376,7.096,2.376
		c0.941,0,1.569-0.1,1.64-0.112c1.085-0.181,1.815-1.204,1.641-2.29C42.833,95.22,41.805,94.479,40.721,94.649z"/>
</g>
<g>
</g>
<g>
</g>
<g>
</g>
<g>
</g>
<g>
</g>
<g>
</g>
<g>
</g>
<g>
</g>
<g>
</g>
<g>
</g>
<g>
</g>
<g>
</g>
<g>
</g>
<g>
</g>
<g>
</g>
</svg>
