<?xml version="1.0" encoding="iso-8859-1"?>
<!-- Generator: Adobe Illustrator 18.0.0, SVG Export Plug-In . SVG Version: 6.00 Build 0)  -->
<!DOCTYPE svg PUBLIC "-//W3C//DTD SVG 1.1//EN" "http://www.w3.org/Graphics/SVG/1.1/DTD/svg11.dtd">
<svg version="1.1" id="Capa_1" xmlns="http://www.w3.org/2000/svg" xmlns:xlink="http://www.w3.org/1999/xlink" x="0px" y="0px"
	 viewBox="0 0 187.198 175.374" style="enable-background:new 0 0 187.198 175.374;" xml:space="preserve">
<g>
	<path style="fill:#231F20;" d="M145.322,16.954c-0.264-0.831-1.035-1.395-1.906-1.395H43.794c-0.871,0-1.643,0.564-1.906,1.395
		L17.009,95.357c-0.193,0.608-0.084,1.271,0.292,1.786c0.377,0.515,0.977,0.819,1.614,0.819h34.403c0.038,0,3.846,0.048,5.431,2.674
		c0.021,0.035,0.043,0.07,0.066,0.104c0.118,0.17,0.225,0.369,0.326,0.607l0.003-0.001c0.006,0.015,0.013,0.03,0.019,0.045
		c0.01,0.027,0.02,0.054,0.03,0.081c0.248,0.635,0.598,1.533,1.004,2.64l4.366,11.443c2.607,6.831,5.288,13.855,6.118,16.04
		c0.231,0.586,0.538,1.162,0.993,1.842c2.54,3.434,7.241,3.709,7.44,3.72c0.033,0.001,0.067,0.002,0.101,0.002h28.774
		c0.034,0,0.067-0.001,0.102-0.002c0.198-0.01,4.892-0.286,7.458-3.766c0.396-0.569,0.712-1.157,0.975-1.823
		c0.82-2.166,3.513-9.218,6.127-16.065l4.354-11.407c0.296-0.797,0.562-1.495,0.778-2.062l0.206-0.542
		c0.02-0.041,0.039-0.084,0.058-0.128l0.001,0c0.11-0.252,0.226-0.468,0.395-0.726c1.593-2.629,5.397-2.677,5.437-2.677h34.412
		c0.638,0,1.237-0.304,1.614-0.819c0.376-0.515,0.485-1.178,0.292-1.786L145.322,16.954z M133.876,93.962
		c-0.248,0-6.097,0.052-8.812,4.538c-0.247,0.374-0.465,0.774-0.663,1.224c-0.061,0.112-0.11,0.227-0.148,0.343l-0.207,0.544
		c-0.22,0.575-0.488,1.283-0.784,2.077l-4.347,11.389c-2.615,6.851-5.31,13.908-6.12,16.049c-0.137,0.347-0.309,0.667-0.494,0.934
		c-1.318,1.787-4.049,2.071-4.378,2.099H79.286c-0.324-0.029-3.085-0.33-4.338-2.02c-0.244-0.367-0.418-0.688-0.537-0.989
		c-0.821-2.161-3.502-9.188-6.11-16.021l-4.357-11.418c-0.388-1.058-0.731-1.942-0.983-2.588c-0.039-0.136-0.095-0.28-0.174-0.425
		c-0.19-0.434-0.401-0.822-0.645-1.18c-2.762-4.504-8.574-4.556-8.821-4.556H21.649l23.609-74.403h96.693l23.607,74.403H133.876z"/>
	<path style="fill:#231F20;" d="M187.197,165.312v-69.35c0-0.748-0.41-1.399-1.018-1.742c-1.419-4.475-4.534-14.3-8.205-25.879
		c-8.297-26.172-19.66-62.016-20.293-63.966C156.616,1.146,153.554,0,151.221,0L35.942,0c-2.3,0-5.36,1.147-6.416,4.373
		C28.724,6.794,11.238,61.97,3.771,85.531L1.017,94.22C0.409,94.563,0,95.215,0,95.962l0.001,69.293
		c-0.005,0.175-0.09,4.329,2.734,7.272c1.745,1.818,4.142,2.759,7.125,2.797c2.749,0.033,18.238,0.05,46.037,0.05
		c11.687,0,24.592-0.003,37.497-0.007c13.147,0.004,26.311,0.007,38.194,0.007c27.612,0,43.004-0.016,45.75-0.047
		c2.98-0.039,5.377-0.98,7.122-2.799C187.285,169.584,187.201,165.431,187.197,165.312z M181.574,169.758
		c-0.975,1.017-2.418,1.544-4.285,1.568c-2.728,0.031-18.104,0.047-45.7,0.047c-11.884,0-25.046-0.003-38.194-0.007
		c-12.905,0.004-25.812,0.007-37.497,0.007c-27.783,0-43.256-0.017-45.987-0.05c-1.858-0.023-3.295-0.544-4.27-1.547
		c-1.666-1.715-1.642-4.393-1.641-4.465V97.353c0.21-0.217,0.373-0.484,0.469-0.786l3.114-9.827
		C15.048,63.186,32.529,8.027,33.324,5.624C33.839,4.051,35.717,4,35.974,4c0,0,0.001,0,0.002,0l115.279,0
		c0.214,0,2.105,0.046,2.625,1.619c0.626,1.927,11.986,37.763,20.282,63.93c4.023,12.692,7.379,23.276,8.566,27.018
		c0.096,0.302,0.259,0.568,0.469,0.786l0.001,68.016C183.199,165.395,183.226,168.037,181.574,169.758z"/>
	<path style="fill:#231F20;" d="M38.266,163.021H16.933c-1.506,0-2.609-0.385-3.374-1.176c-1.358-1.406-1.296-3.718-1.293-3.824v-49
		c0-1.104-0.896-2-2-2s-2,0.896-2,2l0.002,48.905c-0.019,0.406-0.116,4.044,2.38,6.663c1.539,1.614,3.654,2.432,6.285,2.432h21.333
		c1.104,0,2-0.896,2-2S39.37,163.021,38.266,163.021z"/>
</g>
<g>
</g>
<g>
</g>
<g>
</g>
<g>
</g>
<g>
</g>
<g>
</g>
<g>
</g>
<g>
</g>
<g>
</g>
<g>
</g>
<g>
</g>
<g>
</g>
<g>
</g>
<g>
</g>
<g>
</g>
</svg>
