<?xml version="1.0" encoding="iso-8859-1"?>
<!-- Generator: Adobe Illustrator 18.0.0, SVG Export Plug-In . SVG Version: 6.00 Build 0)  -->
<!DOCTYPE svg PUBLIC "-//W3C//DTD SVG 1.1//EN" "http://www.w3.org/Graphics/SVG/1.1/DTD/svg11.dtd">
<svg version="1.1" id="Capa_1" xmlns="http://www.w3.org/2000/svg" xmlns:xlink="http://www.w3.org/1999/xlink" x="0px" y="0px"
	 viewBox="0 0 187.405 184.69" style="enable-background:new 0 0 187.405 184.69;" xml:space="preserve">
<g>
	<path style="fill:#231F20;" d="M58.542,58.064c-1.303-5.137,3.395-6.628,4.275-6.857l29.337-6.224
		c0.918-0.195,1.578-1.002,1.585-1.941l0.186-24.354c0.004-0.533-0.205-1.045-0.581-1.424s-0.886-0.591-1.419-0.591H17.966
		c-1.104,0-2,0.896-2,2v71.476c0,0.532,0.212,1.042,0.589,1.417c0.375,0.373,0.882,0.583,1.411,0.583c0.003,0,0.006,0,0.009,0
		l45.362-0.202c0.601-0.003,1.169-0.275,1.547-0.743c0.378-0.467,0.525-1.08,0.402-1.668C61.166,69.928,59.086,60.223,58.542,58.064
		z M19.966,88.139V20.672H89.91l-0.159,20.732l-27.829,5.905c-0.176,0.043-4.323,1.102-6.424,4.608
		c-1.232,2.055-1.513,4.455-0.834,7.128c0.639,2.532,3.557,16.334,6.202,28.912L19.966,88.139z"/>
	<path style="fill:#231F20;" d="M148.274,48.035c-0.11-0.519-0.421-0.973-0.866-1.262c-0.445-0.289-0.987-0.391-1.505-0.28
		L73.526,61.847c-0.519,0.11-0.973,0.422-1.262,0.867s-0.39,0.986-0.28,1.505l14.83,69.902c0.11,0.519,0.422,0.973,0.867,1.262
		c0.327,0.212,0.706,0.323,1.09,0.323c0.139,0,0.278-0.014,0.415-0.043l72.35-15.354c1.08-0.229,1.771-1.291,1.542-2.371
		L148.274,48.035z M90.312,131.334l-14-65.989l68.463-14.524l13.975,65.989L90.312,131.334z"/>
	<path style="fill:#231F20;" d="M187.058,154.43c-0.883-3.689-6.069-28.387-11.559-54.535
		c-5.846-27.843-11.891-56.633-13.181-62.136c-1.936-8.295-6.908-9.534-9.7-9.534c-1.432,0-2.553,0.326-2.993,0.476l-39.897,8.465
		c0.014-3.751,0.035-7.852,0.055-11.66c0.035-6.759,0.066-12.597,0.04-13.97C109.655,3.03,104.789,0,100.29,0
		c-0.452,0-0.805,0.032-1.014,0.057L9.632,0.058c-0.18,0.005-4.449,0.168-7.236,3.153c-1.639,1.755-2.416,4.05-2.31,6.821
		c0.147,3.792,0.072,32.125,0,59.526c-0.076,28.686-0.148,55.781,0,59.983c0.285,8.019,6.163,10.605,9.231,10.852
		c0.051,0.004,0.103,0.006,0.154,0.006l62.428,0.203c3.357,15.992,6.795,32.282,7.561,35.358c2.019,8.099,8.45,8.728,10.374,8.728
		c0.577,0,0.92-0.049,0.92-0.049c0.043-0.006,0.111-0.017,0.154-0.026l88.74-18.808c0.172-0.029,4.244-0.744,6.425-4.043
		C187.413,159.736,187.744,157.268,187.058,154.43z M182.75,159.537c-1.203,1.845-3.747,2.321-3.846,2.34l-88.716,18.801
		c-0.072,0.005-0.193,0.012-0.353,0.012c-1.895,0-5.257-0.74-6.492-5.695c-0.775-3.113-4.409-20.348-7.86-36.796
		c-0.194-0.924-1.007-1.586-1.951-1.589l-63.944-0.208c-0.793-0.096-5.287-0.911-5.504-7c-0.145-4.126-0.07-32.445,0.002-59.831
		C4.162,40.865,4.234,13.753,4.084,9.878C3.88,4.567,8.78,4.096,9.693,4.057h89.718c0.099,0,0.218-0.011,0.316-0.025
		C99.78,4.024,99.986,4,100.29,4c2.456,0,5.41,1.321,5.535,7.612c0.024,1.323-0.006,7.138-0.041,13.872
		c-0.024,4.669-0.051,9.779-0.063,14.146c-0.001,0.604,0.27,1.177,0.739,1.558c0.469,0.381,1.084,0.53,1.676,0.404l42.451-9.007
		c0.096-0.021,0.21-0.055,0.302-0.09c0.007-0.002,0.74-0.271,1.729-0.271c2.854,0,4.807,2.168,5.805,6.445
		c1.279,5.458,7.319,34.226,13.161,62.046c5.496,26.176,10.688,50.901,11.585,54.649
		C183.582,157.074,183.441,158.477,182.75,159.537z"/>
	<path style="fill:#231F20;" d="M30.92,128.469H20.121c-8.435,0-8.786-5.677-8.798-6.307V51.14c0-1.104-0.896-2-2-2s-2,0.896-2,2
		v71.022c0,0.273,0.047,2.742,1.673,5.243c1.501,2.31,4.65,5.063,11.125,5.063H30.92c1.104,0,2-0.896,2-2
		S32.024,128.469,30.92,128.469z"/>
	<path style="fill:#231F20;" d="M100.594,168.408c-6.628,1.768-8.955,1.458-9.627,1.261l-7.005-33.381
		c-0.227-1.082-1.29-1.771-2.368-1.547c-1.081,0.227-1.773,1.287-1.547,2.368l7.025,33.471c0.051,0.64,0.348,1.409,1.064,2.034
		c0.677,0.591,1.812,1.199,4.296,1.199c2.017,0,4.923-0.401,9.193-1.54c1.067-0.285,1.702-1.38,1.417-2.448
		C102.756,168.757,101.658,168.123,100.594,168.408z"/>
	<path style="fill:#231F20;" d="M25.933,24.22c-1.104,0-2,0.896-2,2v31.98c0,1.104,0.896,2,2,2s2-0.896,2-2V26.22
		C27.933,25.116,27.038,24.22,25.933,24.22z"/>
	<path style="fill:#231F20;" d="M86.039,69.843c-0.223-1.082-1.28-1.779-2.362-1.556c-1.082,0.222-1.779,1.28-1.556,2.362
		l9.137,44.44c0.194,0.946,1.027,1.598,1.957,1.598c0.133,0,0.269-0.014,0.405-0.042c1.082-0.222,1.779-1.28,1.556-2.362
		L86.039,69.843z"/>
	<path style="fill:#231F20;" d="M9.354,19.213c0.022,0,0.045,0,0.067-0.001c1.104-0.037,1.969-0.961,1.933-2.065
		c-0.192-5.756,3.797-6.294,4.606-6.343c1.096-0.053,1.946-0.979,1.902-2.078c-0.044-1.104-0.964-1.961-2.079-1.918
		C12.753,6.929,7.089,9.273,7.356,17.28C7.392,18.361,8.28,19.213,9.354,19.213z"/>
</g>
<g>
</g>
<g>
</g>
<g>
</g>
<g>
</g>
<g>
</g>
<g>
</g>
<g>
</g>
<g>
</g>
<g>
</g>
<g>
</g>
<g>
</g>
<g>
</g>
<g>
</g>
<g>
</g>
<g>
</g>
</svg>
