<?xml version="1.0" encoding="iso-8859-1"?>
<!-- Generator: Adobe Illustrator 18.0.0, SVG Export Plug-In . SVG Version: 6.00 Build 0)  -->
<!DOCTYPE svg PUBLIC "-//W3C//DTD SVG 1.1//EN" "http://www.w3.org/Graphics/SVG/1.1/DTD/svg11.dtd">
<svg version="1.1" id="Capa_1" xmlns="http://www.w3.org/2000/svg" xmlns:xlink="http://www.w3.org/1999/xlink" x="0px" y="0px"
	 viewBox="0 0 179.061 126.902" style="enable-background:new 0 0 179.061 126.902;" xml:space="preserve">
<g>
	<path style="fill:#231F20;" d="M2,28.8h175.055c1.104,0,2-0.895,2-1.999c0.004-6.844,0.004-11.568,0-12.799
		c-0.084-7.867-1.187-13.894-14.245-13.991C163.542,0.003,124.9,0,89.535,0C54.168,0,15.524,0.003,14.246,0.011
		C1.188,0.108,0.093,6.136,0.018,13.994C0,15.224,0,19.829,0,26.8C0,27.904,0.896,28.8,2,28.8z M4.018,14.042
		C4.083,7.139,4.523,4.084,14.272,4.011C15.54,4.003,54.174,4,89.535,4c35.36,0,73.991,0.003,75.248,0.011
		c9.754,0.073,10.198,3.129,10.272,10.02c0.003,1.092,0.004,5.019,0.001,10.77H4C4,19.143,4.002,15.129,4.018,14.042z"/>
	<path style="fill:#231F20;" d="M58.135,79.825H26.844c-1.104,0-2,0.896-2,2s0.896,2,2,2h31.291c1.104,0,2-0.896,2-2
		S59.239,79.825,58.135,79.825z"/>
	<path style="fill:#231F20;" d="M58.135,100.686H26.844c-1.104,0-2,0.896-2,2s0.896,2,2,2h31.291c1.104,0,2-0.896,2-2
		S59.239,100.686,58.135,100.686z"/>
	<path style="fill:#231F20;" d="M163.417,69.536h-43.525c-1.104,0-2,0.896-2,2v31.443c0,1.104,0.896,2,2,2h43.525
		c1.104,0,2-0.896,2-2V71.536C165.417,70.432,164.521,69.536,163.417,69.536z M161.417,100.979h-39.525V73.536h39.525V100.979z"/>
	<path style="fill:#231F20;" d="M179.018,63.444l0-0.329c0.014-7.583,0.027-15.058,0.027-21.808c0-1.104-0.896-2-2-2H2.014
		c-0.531,0-1.04,0.211-1.415,0.586c-0.375,0.376-0.586,0.885-0.585,1.415c0.004,6.849,0.009,14.443,0.023,22.134
		c-0.028,23.987-0.051,46.582-0.019,49.456c0.075,7.866,1.169,13.891,14.228,13.988c1.41,0.011,38.35,0.016,75.288,0.016
		c36.938,0,73.875-0.005,75.28-0.016c13.055-0.098,14.157-6.121,14.242-13.995C179.072,110.053,179.055,87.408,179.018,63.444z
		 M175.055,112.858c-0.074,6.901-0.518,9.955-10.272,10.028c-2.105,0.016-148.394,0.016-150.507,0
		c-9.753-0.073-10.192-3.126-10.258-10.029c-0.032-2.856-0.01-25.436,0.019-49.417c-0.012-6.952-0.018-13.821-0.021-20.133h171.029
		c-0.002,6.211-0.014,12.962-0.026,19.801l0,0.332c0,0.003,0,0.005,0,0.007C175.055,87.404,175.072,110.036,175.055,112.858z"/>
	<path style="fill:#231F20;" d="M58.135,58.965H26.844c-1.104,0-2,0.896-2,2s0.896,2,2,2h31.291c1.104,0,2-0.896,2-2
		S59.239,58.965,58.135,58.965z"/>
	<path style="fill:#231F20;" d="M18.019,6.362c-0.209-0.039-5.142-0.938-8.508,1.915c-2.007,1.701-2.985,4.256-2.906,7.594
		c0.026,1.088,0.916,1.952,1.999,1.952c0.016,0,0.032,0,0.048-0.001c1.104-0.025,1.979-0.942,1.952-2.047
		c-0.049-2.062,0.449-3.554,1.481-4.437c1.573-1.346,4.282-1.209,5.193-1.046c1.08,0.206,2.125-0.509,2.331-1.592
		C19.815,7.616,19.104,6.569,18.019,6.362z"/>
	<path style="fill:#231F20;" d="M10.031,49.95c-1.104,0-2,0.896-2,2v56.5c0,1.104,0.896,2,2,2s2-0.896,2-2v-56.5
		C12.031,50.846,11.135,49.95,10.031,49.95z"/>
</g>
<g>
</g>
<g>
</g>
<g>
</g>
<g>
</g>
<g>
</g>
<g>
</g>
<g>
</g>
<g>
</g>
<g>
</g>
<g>
</g>
<g>
</g>
<g>
</g>
<g>
</g>
<g>
</g>
<g>
</g>
</svg>
