<?xml version="1.0" encoding="iso-8859-1"?>
<!-- Generator: Adobe Illustrator 18.0.0, SVG Export Plug-In . SVG Version: 6.00 Build 0)  -->
<!DOCTYPE svg PUBLIC "-//W3C//DTD SVG 1.1//EN" "http://www.w3.org/Graphics/SVG/1.1/DTD/svg11.dtd">
<svg version="1.1" id="Capa_1" xmlns="http://www.w3.org/2000/svg" xmlns:xlink="http://www.w3.org/1999/xlink" x="0px" y="0px"
	 viewBox="0 0 191.578 149.036" style="enable-background:new 0 0 191.578 149.036;" xml:space="preserve">
<g>
	<path style="fill:#231F20;" d="M169.579,37.839H22.002c-1.104,0-2,0.896-2,2v85.477c0,1.104,0.896,2,2,2h147.577
		c1.104,0,2-0.896,2-2V39.839C171.579,38.735,170.684,37.839,169.579,37.839z M167.579,123.316H24.002V41.839h143.577V123.316z"/>
	<path style="fill:#231F20;" d="M44.867,31.769h13.981c1.104,0,2-0.896,2-2V16.944c0-1.104-0.896-2-2-2H44.867c-1.104,0-2,0.896-2,2
		v12.825C42.867,30.874,43.763,31.769,44.867,31.769z M46.867,18.944h9.981v8.825h-9.981V18.944z"/>
	<path style="fill:#231F20;" d="M21.285,29.769c0,1.104,0.896,2,2,2h14.001c1.104,0,2-0.896,2-2V16.944c0-1.104-0.896-2-2-2H23.285
		c-1.104,0-2,0.896-2,2V29.769z M25.285,18.944h10.001v8.825H25.285V18.944z"/>
	<path style="fill:#231F20;" d="M170.21,14.944h-40.975c-1.104,0-2,0.896-2,2v12.825c0,1.104,0.896,2,2,2h40.975
		c1.104,0,2-0.896,2-2V16.944C172.21,15.84,171.314,14.944,170.21,14.944z M168.21,27.769h-36.975v-8.825h36.975V27.769z"/>
	<path style="fill:#231F20;" d="M40.79,79.899c0.257,0,0.472-0.018,0.624-0.036l28.289-0.001c2.254-0.069,5.63-1.571,5.693-5.43
		c0.025-1.649,0.013-5.698,0-9.983c-0.014-4.549-0.028-9.253,0-11.67c0.021-1.86-0.524-3.365-1.62-4.472
		c-1.835-1.855-4.505-1.771-5.15-1.718H41.732c-0.034,0-0.069,0.001-0.104,0.002c-2.001,0.104-5.832,1.574-6.011,6.4
		c-0.152,4.284-0.152,17.043,0,21.335C35.771,78.439,38.5,79.899,40.79,79.899z M39.616,53.137c0.078-2.11,1.55-2.487,2.189-2.548
		h26.915c0.065,0,0.152-0.005,0.218-0.012c0.03-0.003,0.116-0.009,0.24-0.009c0.283,0,1.248,0.04,1.754,0.552
		c0.316,0.319,0.473,0.863,0.464,1.614c-0.028,2.445-0.014,7.164,0,11.727c0.013,4.267,0.025,8.298,0,9.908
		c-0.021,1.264-1.29,1.468-1.754,1.495H41.277c-0.093,0-0.234,0.014-0.326,0.027c-0.027,0.004-0.085,0.009-0.161,0.009
		c-0.415,0-1.11,0-1.174-1.718C39.465,69.949,39.465,57.36,39.616,53.137z"/>
	<path style="fill:#231F20;" d="M85.262,78.211h63.396c1.104,0,2-0.896,2-2s-0.896-2-2-2H85.262c-1.104,0-2,0.896-2,2
		S84.157,78.211,85.262,78.211z"/>
	<path style="fill:#231F20;" d="M35.539,96.025h115.19c1.103,0,1.996-0.894,1.996-1.997s-0.894-1.997-1.996-1.997H35.539
		c-1.103,0-1.996,0.894-1.996,1.997S34.437,96.025,35.539,96.025z"/>
	<path style="fill:#231F20;" d="M35.539,109.284h115.19c1.103,0,1.996-0.894,1.996-1.997s-0.894-1.997-1.996-1.997H35.539
		c-1.103,0-1.996,0.894-1.996,1.997S34.437,109.284,35.539,109.284z"/>
	<path style="fill:#231F20;" d="M19.694,134.878c-2.179,0-3.847-0.583-4.956-1.734c-1.833-1.9-1.748-4.853-1.745-4.967V96.686
		c0-1.104-0.896-2-2-2s-2,0.896-2,2l0.002,31.396c-0.009,0.188-0.185,4.642,2.828,7.802c1.895,1.987,4.543,2.995,7.871,2.995
		c1.104,0,2-0.896,2-2S20.799,134.878,19.694,134.878z"/>
	<path style="fill:#231F20;" d="M191.576,133.963V30.153c0-0.174-0.024-0.343-0.068-0.505c-0.009-9.992-0.009-16.941-0.009-18.112
		C191.499,2.429,183.518,0,178.802,0L12.983,0.002L12.773,0C8.059,0,0.079,2.429,0.079,11.536C0.079,16.736,0,133.82,0,133.82
		c0,0.063,0.003,0.126,0.009,0.189c-0.029,2.215,0.304,7.541,3.827,11.236c1.939,2.375,4.475,3.643,7.541,3.769
		c0.455,0.018,38.378,0.021,70.11,0.021c0.984,0,98.398,0,98.726-0.021c3.043-0.126,5.573-1.392,7.522-3.764
		C191.162,141.676,191.613,136.634,191.576,133.963z M184.806,142.526c-0.043,0.044-0.083,0.089-0.122,0.137
		c-1.236,1.527-2.709,2.275-4.589,2.354c-0.911,0.011-53.756,0.02-98.607,0.02c-43.095,0-69.257-0.007-69.95-0.019
		c-1.916-0.079-3.434-0.847-4.642-2.349c-0.038-0.048-0.079-0.095-0.122-0.139c-2.585-2.667-2.794-6.854-2.764-8.566
		c0-0.082-0.004-0.163-0.01-0.232c0.003-3.681,0.079-117.08,0.079-122.196C4.079,9.768,4.706,4,12.773,4l165.885,0.001
		c0.022,0,0.121-0.001,0.144-0.001c8.07,0,8.697,5.768,8.697,7.536c0,1.19,0,8.356,0.009,18.619c0,0.173,0.024,0.341,0.068,0.501
		v103.335C187.6,135.678,187.377,139.887,184.806,142.526z"/>
	<path style="fill:#231F20;" d="M8.993,50.878c0,1.104,0.896,2,2,2s2-0.896,2-2l-0.002-31.575c-0.001-0.03-0.086-2.982,1.747-4.883
		c1.109-1.151,2.777-1.734,4.956-1.734c1.104,0,2-0.896,2-2s-0.896-2-2-2c-3.328,0-5.977,1.007-7.871,2.995
		c-3.013,3.16-2.837,7.614-2.83,7.707V50.878z"/>
</g>
<g>
</g>
<g>
</g>
<g>
</g>
<g>
</g>
<g>
</g>
<g>
</g>
<g>
</g>
<g>
</g>
<g>
</g>
<g>
</g>
<g>
</g>
<g>
</g>
<g>
</g>
<g>
</g>
<g>
</g>
</svg>
