<?xml version="1.0" encoding="iso-8859-1"?>
<!-- Generator: Adobe Illustrator 18.0.0, SVG Export Plug-In . SVG Version: 6.00 Build 0)  -->
<!DOCTYPE svg PUBLIC "-//W3C//DTD SVG 1.1//EN" "http://www.w3.org/Graphics/SVG/1.1/DTD/svg11.dtd">
<svg version="1.1" id="Capa_1" xmlns="http://www.w3.org/2000/svg" xmlns:xlink="http://www.w3.org/1999/xlink" x="0px" y="0px"
	 viewBox="0 0 196.761 155.017" style="enable-background:new 0 0 196.761 155.017;" xml:space="preserve">
<g>
	<path style="fill:#231F20;" d="M193.499,11.042c-0.195-0.31-0.414-0.563-0.654-0.758c-0.146-0.13-0.323-0.264-0.531-0.4
		c-1.756-1.795-3.588-2.705-5.447-2.705c-4.096,0-7.051,4.221-10.179,8.689c-1.597,2.282-3.249,4.641-5.047,6.463l-0.703,0.702
		c-3.344,3.339-13.302,13.279-26.762,26.897c-5.964-5.409-6.716-5.41-7.509-5.41c-0.467,0-0.994,0.187-1.353,0.485
		c-0.426,0.354-1.902,1.909-5.704,5.937l-1.022,1.083c-0.32,0.332-0.64,0.656-0.955,0.975c-0.049,0.05-0.098,0.099-0.146,0.148
		c-1.66-0.725-3.171-1.079-4.588-1.079c-3.187,0-5.429,1.771-7.365,3.673c-1.002,0.968-5.4,5.539-12.22,12.652
		c-4.835-4.642-11.203-10.707-11.702-11.18c-1.937-1.785-4.15-3.438-7.203-3.438c-2.058,0-4.248,0.743-6.821,2.323L65.509,44.215
		c4.023-12.143,0.833-25.589-8.306-34.585C50.883,3.42,42.52,0,33.655,0c-5.115,0-10.239,1.182-14.819,3.418
		c-0.58,0.283-0.987,0.828-1.095,1.464c-0.107,0.636,0.098,1.285,0.553,1.742c9.403,9.474,16.148,16.274,17.312,17.507
		c3.688,3.81,5.116,5.722,0.289,11.185c-0.239,0.287-0.579,0.673-0.702,0.789c-0.025,0.023-0.049,0.047-0.073,0.072
		c-0.114,0.119-0.512,0.467-0.836,0.737c-2.327,2.001-4.178,2.975-5.659,2.975c-1.673,0-3.28-1.258-5.498-3.439
		c-0.886-0.863-4.914-4.943-10.487-10.59l-6.473-6.557c-0.464-0.469-1.128-0.68-1.779-0.562c-0.649,0.117-1.199,0.548-1.469,1.15
		c-5.721,12.776-2.867,27.932,7.097,37.709c6.317,6.225,14.686,9.653,23.565,9.653c3.823,0,7.567-0.636,11.148-1.891l12.226,12.015
		c-3.552,6.312-1.997,9.977,1.65,13.696c0.135,0.141,0.766,0.831,1.706,1.857c2.271,2.48,6.258,6.834,9.491,10.275
		c-7.33,7.569-12.525,12.94-13.565,14.069c-5.911,6.522-4.355,11.978,6.643,23.33c0.052,0.055,1.284,1.358,1.886,1.92
		c0.593,0.573,1.96,1.803,1.961,1.804c7.371,6.622,12.215,9.447,16.2,9.447c3.19,0,5.438-1.784,7.375-3.696
		c1.126-1.089,6.623-6.813,14.373-14.899c2.982,3.011,6.464,6.549,9.429,9.56c4.195,4.262,6.4,6.501,6.74,6.813
		c1.941,1.8,4.159,3.465,7.217,3.465c0,0,0,0,0.001,0c4.039,0,8.873-2.984,16.129-9.946c0.139-0.127,1.341-1.231,1.947-1.898
		c0.641-0.621,1.707-1.819,1.814-1.941c10.671-11.745,12.046-17.248,5.897-23.545c-0.587-0.61-9.944-9.93-16.505-16.418
		c7.698-7.961,11.38-11.787,12.235-12.711c3.022-3.298,4.576-6.578,2.378-11.551c0.4-0.42,0.807-0.846,1.211-1.27
		c2.304-2.349,6.24-6.373,6.748-6.969c1.191-1.469,0.852-2.563-5.428-8.932c10.2-10.289,18.37-18.484,23.049-23.177
		c1.998-2.003,3.359-3.369,3.987-4.003c1.762-1.817,4.15-3.513,6.459-5.153c4.414-3.134,8.583-6.095,8.771-10.149
		C196.856,15.16,195.791,13.092,193.499,11.042z M185.667,24.241c-2.457,1.744-4.996,3.548-7,5.615
		c-0.612,0.618-1.97,1.98-3.962,3.978c-4.893,4.907-13.602,13.642-24.455,24.595c-0.775,0.782-0.772,2.043,0.006,2.822
		c3.081,3.082,4.788,4.963,5.623,5.975c-1.028,1.069-2.872,2.963-5.584,5.729c-0.755,0.791-1.5,1.571-2.2,2.312
		c-0.593,0.628-0.716,1.566-0.304,2.326c2.052,3.785,1.338,5.536-1.154,8.255c-1.102,1.192-7.464,7.777-13.542,14.062
		c-0.763,0.789-0.748,2.043,0.032,2.814c6.875,6.786,17.291,17.165,17.852,17.747c3.02,3.092,5.405,5.535-6.002,18.09
		c-0.313,0.354-1.222,1.361-1.653,1.771c-0.042,0.039-0.081,0.08-0.119,0.123c-0.335,0.378-1.229,1.223-1.747,1.698
		c-6.304,6.048-10.561,8.865-13.394,8.865c0,0,0,0,0,0c-1.393,0-2.612-0.65-4.502-2.403c-0.322-0.3-3.374-3.399-6.604-6.682
		c-3.462-3.517-7.629-7.75-10.885-11.028c-0.375-0.378-0.886-0.591-1.419-0.591c-0.006,0-0.012,0-0.018,0
		c-0.539,0.005-1.053,0.227-1.426,0.616c-8.189,8.545-14.544,15.168-15.7,16.286c-1.889,1.864-3.131,2.558-4.581,2.558
		c-2.833,0-7.13-2.676-13.526-8.422c0,0-1.295-1.165-1.881-1.73c-0.444-0.415-1.401-1.416-1.75-1.784
		c-11.765-12.145-9.472-14.675-6.58-17.867c1.057-1.146,7.068-7.357,14.816-15.357c0.746-0.771,0.752-1.992,0.014-2.769
		c-3.366-3.544-8.174-8.795-10.758-11.617c-0.974-1.064-1.629-1.779-1.784-1.94c-2.557-2.607-3.939-4.493-0.31-10.152
		c0.511-0.797,0.394-1.843-0.282-2.506L46.627,61.615c-0.564-0.554-1.4-0.725-2.136-0.434c-3.48,1.373-7.151,2.069-10.909,2.069
		c-7.822,0-15.194-3.02-20.761-8.505C4.756,46.832,1.979,34.921,5.49,24.308l4.304,4.36c5.59,5.664,9.629,9.756,10.537,10.64
		c2.356,2.318,4.938,4.581,8.295,4.58c2.513,0,5.14-1.253,8.243-3.921c0.179-0.149,0.771-0.647,1.1-0.981
		c0.356-0.343,0.851-0.93,0.962-1.064c6.881-7.786,3.867-12.111-0.433-16.554c-1.09-1.155-6.96-7.077-15.295-15.476
		C26.531,4.649,30.096,4,33.655,4c7.81,0,15.177,3.013,20.743,8.482c8.325,8.194,11.045,20.584,6.929,31.565
		c-0.277,0.74-0.093,1.574,0.47,2.128l14.191,13.961c0.379,0.372,0.852,0.586,1.42,0.574c0.53-0.004,1.038-0.22,1.409-0.598
		l0.136-0.138c2.23-1.479,4.017-2.198,5.457-2.198c1.394,0,2.611,0.645,4.471,2.359c0.53,0.502,8.215,7.823,13.105,12.529
		c0.382,0.368,0.891,0.595,1.427,0.559c0.531-0.011,1.036-0.232,1.403-0.616c7.365-7.685,12.479-13.005,13.509-14.001
		c1.884-1.85,3.123-2.538,4.574-2.538c1.127,0,2.461,0.417,4.079,1.274c0.793,0.419,1.767,0.262,2.385-0.388
		c0.362-0.38,0.737-0.76,1.118-1.146c0.326-0.331,0.656-0.665,1.001-1.023l1.038-1.099c1.606-1.702,3.36-3.561,4.433-4.673
		c1.014,0.775,2.883,2.344,5.937,5.161c0.792,0.73,2.021,0.701,2.779-0.065c14.134-14.31,24.642-24.799,28.095-28.246l0.714-0.713
		c2.044-2.073,3.794-4.572,5.486-6.989c2.403-3.433,4.889-6.983,6.902-6.983c0.778,0,1.693,0.552,2.72,1.64
		c0.125,0.132,0.27,0.249,0.425,0.342c0.01,0.006,0.078,0.046,0.144,0.091c0.117,0.224,0.276,0.423,0.467,0.588
		c1.46,1.255,2.179,2.375,2.134,3.329C192.661,19.274,189.105,21.799,185.667,24.241z"/>
	<path style="fill:#231F20;" d="M34.92,53.346c-17.39-0.37-20.908-14.621-21.056-15.257c-0.245-1.075-1.314-1.752-2.389-1.508
		c-1.078,0.242-1.755,1.312-1.512,2.39c0.042,0.186,1.065,4.604,4.646,9.065c3.307,4.12,9.5,9.08,20.227,9.308
		c0.015,0,0.029,0,0.043,0c1.084,0,1.976-0.868,1.999-1.958C36.901,54.283,36.025,53.369,34.92,53.346z"/>
	<path style="fill:#231F20;" d="M68.731,70.247c0.756-0.805,0.717-2.07-0.088-2.827L55.11,54.708
		c-0.805-0.756-2.071-0.718-2.827,0.088c-0.756,0.805-0.717,2.07,0.088,2.827l13.532,12.712c0.386,0.363,0.878,0.542,1.369,0.542
		C67.806,70.878,68.337,70.667,68.731,70.247z"/>
	<path style="fill:#231F20;" d="M78.757,97.122c0.432,0,0.868-0.14,1.234-0.427c0.868-0.683,1.019-1.94,0.337-2.809
		c-0.186-0.236-4.603-5.849-8.704-10.361c-2.642-2.906-0.174-5.729,0.352-6.27c0.773-0.782,0.771-2.042-0.008-2.821
		c-0.78-0.781-2.048-0.781-2.828,0c-2.027,2.026-4.734,7.097-0.476,11.781c4.003,4.404,8.474,10.085,8.519,10.142
		C77.577,96.86,78.164,97.122,78.757,97.122z"/>
	<path style="fill:#231F20;" d="M83.061,139.824c-0.06-0.038-6.004-3.866-13.121-11.774c-1.453-1.614-2.013-3.103-1.711-4.55
		c0.626-3.012,4.819-5.52,6.382-6.233c1.004-0.456,1.451-1.639,0.997-2.645c-0.455-1.007-1.64-1.454-2.646-1
		c-0.763,0.345-7.486,3.525-8.646,9.048c-0.577,2.749,0.315,5.458,2.651,8.055c7.478,8.309,13.684,12.305,13.944,12.471
		c0.333,0.212,0.706,0.314,1.073,0.314c0.661,0,1.307-0.327,1.688-0.925C84.266,141.654,83.992,140.418,83.061,139.824z"/>
	<path style="fill:#231F20;" d="M128.729,139.011c-0.047-0.061-0.098-0.12-0.151-0.175l-14.353-14.762
		c-0.771-0.793-2.037-0.81-2.828-0.04c-0.792,0.77-0.81,2.036-0.04,2.828l14.297,14.705c0.426,0.501,2.063,2.185,4.865,2.227
		c0.035,0,0.071,0.001,0.106,0.001c3.085,0,6.297-2.015,9.549-5.988c0.7-0.855,0.574-2.115-0.281-2.814
		c-0.854-0.7-2.115-0.573-2.814,0.281c-2.375,2.902-4.659,4.508-6.433,4.521C129.396,139.791,128.732,139.012,128.729,139.011z"/>
</g>
<g>
</g>
<g>
</g>
<g>
</g>
<g>
</g>
<g>
</g>
<g>
</g>
<g>
</g>
<g>
</g>
<g>
</g>
<g>
</g>
<g>
</g>
<g>
</g>
<g>
</g>
<g>
</g>
<g>
</g>
</svg>
